<svg xmlns="http://www.w3.org/2000/svg" viewBox="-10 -10 420 420">
<rect x="-10" y="-10" width="420" height="420" fill="white"/>
<g id="ground">
<polygon points="0,0 0,50 50,0" fill="rgb(36,219,36)" stroke="black" stroke-width="0.5"/>
<polygon points="50,50 50,0 0,50" fill="rgb(36,219,36)" stroke="black" stroke-width="0.5"/>
<polygon points="50,0 100,50 100,0" fill="rgb(36,219,36)" stroke="black" stroke-width="0.5"/>
<polygon points="50,0 50,50 100,50" fill="rgb(36,219,36)" stroke="black" stroke-width="0.5"/>
<polygon points="100,0 100,50 150,0" fill="rgb(36,219,36)" stroke="black" stroke-width="0.5"/>
<polygon points="150,50 150,0 100,50" fill="rgb(36,219,36)" stroke="black" stroke-width="0.5"/>
<polygon points="150,0 200,50 200,0" fill="rgb(36,219,36)" stroke="black" stroke-width="0.5"/>
<polygon points="150,0 150,50 200,50" fill="rgb(36,219,36)" stroke="black" stroke-width="0.5"/>
<polygon points="200,0 200,50 250,0" fill="rgb(36,219,36)" stroke="black" stroke-width="0.5"/>
<polygon points="250,50 250,0 200,50" fill="rgb(36,219,36)" stroke="black" stroke-width="0.5"/>
<polygon points="250,0 300,50 300,0" fill="rgb(36,219,36)" stroke="black" stroke-width="0.5"/>
<polygon points="250,0 250,50 300,50" fill="rgb(36,219,36)" stroke="black" stroke-width="0.5"/>
<polygon points="300,0 300,50 350,0" fill="rgb(36,219,36)" stroke="black" stroke-width="0.5"/>
<polygon points="350,50 350,0 300,50" fill="rgb(36,219,36)" stroke="black" stroke-width="0.5"/>
<polygon points="350,0 400,50 400,0" fill="rgb(36,219,36)" stroke="black" stroke-width="0.5"/>
<polygon points="350,0 350,50 400,50" fill="rgb(36,219,36)" stroke="black" stroke-width="0.5"/>
<polygon points="0,50 50,100 50,50" fill="rgb(36,219,36)" stroke="black" stroke-width="0.5"/>
<polygon points="0,50 0,100 50,100" fill="rgb(36,219,36)" stroke="black" stroke-width="0.5"/>
<polygon points="50,50 50,100 100,50" fill="rgb(36,219,36)" stroke="black" stroke-width="0.5"/>
<polygon points="100,100 100,50 50,100" fill="rgb(42,219,42)" stroke="black" stroke-width="0.5"/>
<polygon points="100,100 100,62.5 62.5,100" fill="rgb(240,168,0)" stroke="black" stroke-width="0.5"/>
<polygon points="100,50 150,100 150,50" fill="rgb(42,219,42)" stroke="black" stroke-width="0.5"/>
<polygon points="100,50 100,100 150,100" fill="rgb(48,218,48)" stroke="black" stroke-width="0.5"/>
<polygon points="100,62.5 100,100 139.3305778503418,100" fill="rgb(246,172,0)" stroke="black" stroke-width="0.5"/>
<polygon points="150,50 150,100 200,50" fill="rgb(42,219,42)" stroke="black" stroke-width="0.5"/>
<polygon points="200,100 200,50 150,100" fill="rgb(48,218,48)" stroke="black" stroke-width="0.5"/>
<polygon points="200,50 250,100 250,50" fill="rgb(42,219,42)" stroke="black" stroke-width="0.5"/>
<polygon points="200,50 200,100 250,100" fill="rgb(48,218,48)" stroke="black" stroke-width="0.5"/>
<polygon points="250,50 250,100 300,50" fill="rgb(42,219,42)" stroke="black" stroke-width="0.5"/>
<polygon points="300,100 300,50 250,100" fill="rgb(42,219,42)" stroke="black" stroke-width="0.5"/>
<polygon points="300,100 300,62.5 260.6694221496582,100" fill="rgb(240,168,0)" stroke="black" stroke-width="0.5"/>
<polygon points="300,50 350,100 350,50" fill="rgb(36,219,36)" stroke="black" stroke-width="0.5"/>
<polygon points="300,50 300,100 350,100" fill="rgb(36,219,36)" stroke="black" stroke-width="0.5"/>
<polygon points="300,62.5 300,100 337.5,100" fill="rgb(234,164,0)" stroke="black" stroke-width="0.5"/>
<polygon points="350,50 350,100 400,50" fill="rgb(36,219,36)" stroke="black" stroke-width="0.5"/>
<polygon points="400,100 400,50 350,100" fill="rgb(36,219,36)" stroke="black" stroke-width="0.5"/>
<polygon points="0,100 0,150 50,100" fill="rgb(36,219,36)" stroke="black" stroke-width="0.5"/>
<polygon points="50,150 50,100 0,150" fill="rgb(36,219,36)" stroke="black" stroke-width="0.5"/>
<polygon points="50,100 100,150 100,100" fill="rgb(48,218,48)" stroke="black" stroke-width="0.5"/>
<polygon points="50,100 50,150 100,150" fill="rgb(42,219,42)" stroke="black" stroke-width="0.5"/>
<polygon points="62.5,100 100,150 100,100" fill="rgb(246,172,0)" stroke="black" stroke-width="0.5"/>
<polygon points="62.5,100 62.5,150 100,150" fill="rgb(240,168,0)" stroke="black" stroke-width="0.5"/>
<polygon points="100,100 100,150 150,100" fill="rgb(54,218,54)" stroke="black" stroke-width="0.5"/>
<polygon points="150,150 150,100 100,150" fill="rgb(54,218,54)" stroke="black" stroke-width="0.5"/>
<polygon points="100,100 100,150 139.3305778503418,100" fill="rgb(251,176,0)" stroke="black" stroke-width="0.5"/>
<polygon points="141.16116762161255,150 139.3305778503418,100 100,150" fill="rgb(251,176,0)" stroke="black" stroke-width="0.5"/>
<polygon points="150,100 200,150 200,100" fill="rgb(54,218,54)" stroke="black" stroke-width="0.5"/>
<polygon points="150,100 150,150 200,150" fill="rgb(54,218,54)" stroke="black" stroke-width="0.5"/>
<polygon points="200,100 200,150 250,100" fill="rgb(54,218,54)" stroke="black" stroke-width="0.5"/>
<polygon points="250,150 250,100 200,150" fill="rgb(54,218,54)" stroke="black" stroke-width="0.5"/>
<polygon points="250,100 300,150 300,100" fill="rgb(42,219,42)" stroke="black" stroke-width="0.5"/>
<polygon points="250,100 250,150 300,150" fill="rgb(48,218,48)" stroke="black" stroke-width="0.5"/>
<polygon points="260.6694221496582,100 300,150 300,100" fill="rgb(240,168,0)" stroke="black" stroke-width="0.5"/>
<polygon points="260.6694221496582,100 258.8388442993164,150 300,150" fill="rgb(246,172,0)" stroke="black" stroke-width="0.5"/>
<polygon points="300,100 300,150 350,100" fill="rgb(36,219,36)" stroke="black" stroke-width="0.5"/>
<polygon points="350,150 350,100 300,150" fill="rgb(36,219,36)" stroke="black" stroke-width="0.5"/>
<polygon points="300,100 300,150 337.5,100" fill="rgb(234,164,0)" stroke="black" stroke-width="0.5"/>
<polygon points="337.5,150 337.5,100 300,150" fill="rgb(234,164,0)" stroke="black" stroke-width="0.5"/>
<polygon points="350,100 400,150 400,100" fill="rgb(36,219,36)" stroke="black" stroke-width="0.5"/>
<polygon points="350,100 350,150 400,150" fill="rgb(36,219,36)" stroke="black" stroke-width="0.5"/>
<polygon points="0,150 50,200 50,150" fill="rgb(36,219,36)" stroke="black" stroke-width="0.5"/>
<polygon points="0,150 0,200 50,200" fill="rgb(36,219,36)" stroke="black" stroke-width="0.5"/>
<polygon points="50,150 50,200 100,150" fill="rgb(42,219,42)" stroke="black" stroke-width="0.5"/>
<polygon points="100,200 100,150 50,200" fill="rgb(54,218,54)" stroke="black" stroke-width="0.5"/>
<polygon points="62.5,150 62.5,200 100,150" fill="rgb(240,168,0)" stroke="black" stroke-width="0.5"/>
<polygon points="100,200 100,150 62.5,200" fill="rgb(247,174,4)" stroke="black" stroke-width="0.5"/>
<polygon points="100,150 150,200 150,150" fill="rgb(60,218,60)" stroke="black" stroke-width="0.5"/>
<polygon points="100,150 100,200 150,200" fill="rgb(65,218,65)" stroke="black" stroke-width="0.5"/>
<polygon points="100,150 142.4555778503418,200 141.16116762161255,150" fill="rgb(253,178,4)" stroke="black" stroke-width="0.5"/>
<polygon points="100,150 100,200 142.4555778503418,200" fill="rgb(254,180,9)" stroke="black" stroke-width="0.5"/>
<polygon points="150,150 150,200 200,150" fill="rgb(60,218,60)" stroke="black" stroke-width="0.5"/>
<polygon points="200,200 200,150 150,200" fill="rgb(65,218,65)" stroke="black" stroke-width="0.5"/>
<polygon points="200,150 250,200 250,150" fill="rgb(60,218,60)" stroke="black" stroke-width="0.5"/>
<polygon points="200,150 200,200 250,200" fill="rgb(65,218,65)" stroke="black" stroke-width="0.5"/>
<polygon points="250,150 250,200 300,150" fill="rgb(54,218,54)" stroke="black" stroke-width="0.5"/>
<polygon points="300,200 300,150 250,200" fill="rgb(48,218,48)" stroke="black" stroke-width="0.5"/>
<polygon points="258.8388442993164,150 257.5444221496582,200 300,150" fill="rgb(247,174,4)" stroke="black" stroke-width="0.5"/>
<polygon points="300,200 300,150 257.5444221496582,200" fill="rgb(241,170,4)" stroke="black" stroke-width="0.5"/>
<polygon points="300,150 350,200 350,150" fill="rgb(36,219,36)" stroke="black" stroke-width="0.5"/>
<polygon points="300,150 300,200 350,200" fill="rgb(36,219,36)" stroke="black" stroke-width="0.5"/>
<polygon points="300,150 337.5,200 337.5,150" fill="rgb(234,164,0)" stroke="black" stroke-width="0.5"/>
<polygon points="300,150 300,200 337.5,200" fill="rgb(234,164,0)" stroke="black" stroke-width="0.5"/>
<polygon points="350,150 350,200 400,150" fill="rgb(36,219,36)" stroke="black" stroke-width="0.5"/>
<polygon points="400,200 400,150 350,200" fill="rgb(36,219,36)" stroke="black" stroke-width="0.5"/>
<polygon points="0,200 0,250 50,200" fill="rgb(36,219,36)" stroke="black" stroke-width="0.5"/>
<polygon points="50,250 50,200 0,250" fill="rgb(36,219,36)" stroke="black" stroke-width="0.5"/>
<polygon points="50,200 100,250 100,200" fill="rgb(60,218,60)" stroke="black" stroke-width="0.5"/>
<polygon points="50,200 50,250 100,250" fill="rgb(48,218,48)" stroke="black" stroke-width="0.5"/>
<polygon points="62.5,200 100,250 100,200" fill="rgb(248,176,9)" stroke="black" stroke-width="0.5"/>
<polygon points="62.5,200 62.5,250 100,250" fill="rgb(241,170,4)" stroke="black" stroke-width="0.5"/>
<polygon points="100,200 100,250 150,200" fill="rgb(71,218,71)" stroke="black" stroke-width="0.5"/>
<polygon points="150,250 150,200 100,250" fill="rgb(71,218,71)" stroke="black" stroke-width="0.5"/>
<polygon points="100,200 100,250 142.4555778503418,200" fill="rgb(255,183,13)" stroke="black" stroke-width="0.5"/>
<polygon points="143.75,250 142.4555778503418,200 100,250" fill="rgb(255,183,13)" stroke="black" stroke-width="0.5"/>
<polygon points="150,200 200,250 200,200" fill="rgb(71,218,71)" stroke="black" stroke-width="0.5"/>
<polygon points="150,200 150,250 200,250" fill="rgb(71,218,71)" stroke="black" stroke-width="0.5"/>
<polygon points="200,200 200,250 250,200" fill="rgb(71,218,71)" stroke="black" stroke-width="0.5"/>
<polygon points="250,250 250,200 200,250" fill="rgb(71,218,71)" stroke="black" stroke-width="0.5"/>
<polygon points="250,200 300,250 300,200" fill="rgb(48,218,48)" stroke="black" stroke-width="0.5"/>
<polygon points="250,200 250,250 300,250" fill="rgb(60,218,60)" stroke="black" stroke-width="0.5"/>
<polygon points="257.5444221496582,200 300,250 300,200" fill="rgb(241,170,4)" stroke="black" stroke-width="0.5"/>
<polygon points="257.5444221496582,200 256.25,250 300,250" fill="rgb(248,176,9)" stroke="black" stroke-width="0.5"/>
<polygon points="300,200 300,250 350,200" fill="rgb(36,219,36)" stroke="black" stroke-width="0.5"/>
<polygon points="350,250 350,200 300,250" fill="rgb(36,219,36)" stroke="black" stroke-width="0.5"/>
<polygon points="300,200 300,250 337.5,200" fill="rgb(234,164,0)" stroke="black" stroke-width="0.5"/>
<polygon points="337.5,250 337.5,200 300,250" fill="rgb(234,164,0)" stroke="black" stroke-width="0.5"/>
<polygon points="350,200 400,250 400,200" fill="rgb(36,219,36)" stroke="black" stroke-width="0.5"/>
<polygon points="350,200 350,250 400,250" fill="rgb(36,219,36)" stroke="black" stroke-width="0.5"/>
<polygon points="0,250 50,300 50,250" fill="rgb(36,219,36)" stroke="black" stroke-width="0.5"/>
<polygon points="0,250 0,300 50,300" fill="rgb(36,219,36)" stroke="black" stroke-width="0.5"/>
<polygon points="50,250 50,300 100,250" fill="rgb(48,218,48)" stroke="black" stroke-width="0.5"/>
<polygon points="100,300 100,250 50,300" fill="rgb(48,218,48)" stroke="black" stroke-width="0.5"/>
<polygon points="62.5,250 62.5,300 100,250" fill="rgb(241,170,4)" stroke="black" stroke-width="0.5"/>
<polygon points="100,300 100,250 62.5,300" fill="rgb(241,170,4)" stroke="black" stroke-width="0.5"/>
<polygon points="100,250 150,300 150,250" fill="rgb(60,218,60)" stroke="black" stroke-width="0.5"/>
<polygon points="100,250 100,300 150,300" fill="rgb(48,218,48)" stroke="black" stroke-width="0.5"/>
<polygon points="100,250 150,300 143.75,250" fill="rgb(248,176,9)" stroke="black" stroke-width="0.5"/>
<polygon points="150,300 150,256.25 143.75,250" fill="rgb(248,176,9)" stroke="black" stroke-width="0.5"/>
<polygon points="100,250 100,300 150,300" fill="rgb(241,170,4)" stroke="black" stroke-width="0.5"/>
<polygon points="150,250 150,300 200,250" fill="rgb(60,218,60)" stroke="black" stroke-width="0.5"/>
<polygon points="200,300 200,250 150,300" fill="rgb(48,218,48)" stroke="black" stroke-width="0.5"/>
<polygon points="150,256.25 150,300 200,256.25" fill="rgb(248,176,9)" stroke="black" stroke-width="0.5"/>
<polygon points="200,300 200,256.25 150,300" fill="rgb(241,170,4)" stroke="black" stroke-width="0.5"/>
<polygon points="200,250 250,300 250,250" fill="rgb(60,218,60)" stroke="black" stroke-width="0.5"/>
<polygon points="200,250 200,300 250,300" fill="rgb(48,218,48)" stroke="black" stroke-width="0.5"/>
<polygon points="200,256.25 250,300 250,256.25" fill="rgb(248,176,9)" stroke="black" stroke-width="0.5"/>
<polygon points="200,256.25 200,300 250,300" fill="rgb(241,170,4)" stroke="black" stroke-width="0.5"/>
<polygon points="250,250 250,300 300,250" fill="rgb(48,218,48)" stroke="black" stroke-width="0.5"/>
<polygon points="300,300 300,250 250,300" fill="rgb(36,219,36)" stroke="black" stroke-width="0.5"/>
<polygon points="256.25,250 250,300 300,250" fill="rgb(241,170,4)" stroke="black" stroke-width="0.5"/>
<polygon points="256.25,250 250,256.25 250,300" fill="rgb(248,176,9)" stroke="black" stroke-width="0.5"/>
<polygon points="300,300 300,250 250,300" fill="rgb(234,164,0)" stroke="black" stroke-width="0.5"/>
<polygon points="300,250 350,300 350,250" fill="rgb(36,219,36)" stroke="black" stroke-width="0.5"/>
<polygon points="300,250 300,300 350,300" fill="rgb(36,219,36)" stroke="black" stroke-width="0.5"/>
<polygon points="300,250 337.5,300 337.5,250" fill="rgb(234,164,0)" stroke="black" stroke-width="0.5"/>
<polygon points="300,250 300,300 337.5,300" fill="rgb(234,164,0)" stroke="black" stroke-width="0.5"/>
<polygon points="350,250 350,300 400,250" fill="rgb(36,219,36)" stroke="black" stroke-width="0.5"/>
<polygon points="400,300 400,250 350,300" fill="rgb(36,219,36)" stroke="black" stroke-width="0.5"/>
<polygon points="0,300 0,350 50,300" fill="rgb(36,219,36)" stroke="black" stroke-width="0.5"/>
<polygon points="50,350 50,300 0,350" fill="rgb(36,219,36)" stroke="black" stroke-width="0.5"/>
<polygon points="50,300 100,350 100,300" fill="rgb(36,219,36)" stroke="black" stroke-width="0.5"/>
<polygon points="50,300 50,350 100,350" fill="rgb(36,219,36)" stroke="black" stroke-width="0.5"/>
<polygon points="62.5,300 100,337.5 100,300" fill="rgb(234,164,0)" stroke="black" stroke-width="0.5"/>
<polygon points="100,300 100,350 150,300" fill="rgb(36,219,36)" stroke="black" stroke-width="0.5"/>
<polygon points="150,350 150,300 100,350" fill="rgb(36,219,36)" stroke="black" stroke-width="0.5"/>
<polygon points="100,300 100,337.5 150,300" fill="rgb(234,164,0)" stroke="black" stroke-width="0.5"/>
<polygon points="150,337.5 150,300 100,337.5" fill="rgb(234,164,0)" stroke="black" stroke-width="0.5"/>
<polygon points="150,300 200,350 200,300" fill="rgb(36,219,36)" stroke="black" stroke-width="0.5"/>
<polygon points="150,300 150,350 200,350" fill="rgb(36,219,36)" stroke="black" stroke-width="0.5"/>
<polygon points="150,300 200,337.5 200,300" fill="rgb(234,164,0)" stroke="black" stroke-width="0.5"/>
<polygon points="150,300 150,337.5 200,337.5" fill="rgb(234,164,0)" stroke="black" stroke-width="0.5"/>
<polygon points="200,300 200,350 250,300" fill="rgb(36,219,36)" stroke="black" stroke-width="0.5"/>
<polygon points="250,350 250,300 200,350" fill="rgb(36,219,36)" stroke="black" stroke-width="0.5"/>
<polygon points="200,300 200,337.5 250,300" fill="rgb(234,164,0)" stroke="black" stroke-width="0.5"/>
<polygon points="250,337.5 250,300 200,337.5" fill="rgb(234,164,0)" stroke="black" stroke-width="0.5"/>
<polygon points="250,300 300,350 300,300" fill="rgb(36,219,36)" stroke="black" stroke-width="0.5"/>
<polygon points="250,300 250,350 300,350" fill="rgb(36,219,36)" stroke="black" stroke-width="0.5"/>
<polygon points="250,300 300,337.5 300,300" fill="rgb(234,164,0)" stroke="black" stroke-width="0.5"/>
<polygon points="250,300 250,337.5 300,337.5" fill="rgb(234,164,0)" stroke="black" stroke-width="0.5"/>
<polygon points="300,300 300,350 350,300" fill="rgb(36,219,36)" stroke="black" stroke-width="0.5"/>
<polygon points="350,350 350,300 300,350" fill="rgb(36,219,36)" stroke="black" stroke-width="0.5"/>
<polygon points="300,300 300,337.5 337.5,300" fill="rgb(234,164,0)" stroke="black" stroke-width="0.5"/>
<polygon points="350,300 400,350 400,300" fill="rgb(36,219,36)" stroke="black" stroke-width="0.5"/>
<polygon points="350,300 350,350 400,350" fill="rgb(36,219,36)" stroke="black" stroke-width="0.5"/>
<polygon points="0,350 50,400 50,350" fill="rgb(36,219,36)" stroke="black" stroke-width="0.5"/>
<polygon points="0,350 0,400 50,400" fill="rgb(36,219,36)" stroke="black" stroke-width="0.5"/>
<polygon points="50,350 50,400 100,350" fill="rgb(36,219,36)" stroke="black" stroke-width="0.5"/>
<polygon points="100,400 100,350 50,400" fill="rgb(36,219,36)" stroke="black" stroke-width="0.5"/>
<polygon points="100,350 150,400 150,350" fill="rgb(36,219,36)" stroke="black" stroke-width="0.5"/>
<polygon points="100,350 100,400 150,400" fill="rgb(36,219,36)" stroke="black" stroke-width="0.5"/>
<polygon points="150,350 150,400 200,350" fill="rgb(36,219,36)" stroke="black" stroke-width="0.5"/>
<polygon points="200,400 200,350 150,400" fill="rgb(36,219,36)" stroke="black" stroke-width="0.5"/>
<polygon points="200,350 250,400 250,350" fill="rgb(36,219,36)" stroke="black" stroke-width="0.5"/>
<polygon points="200,350 200,400 250,400" fill="rgb(36,219,36)" stroke="black" stroke-width="0.5"/>
<polygon points="250,350 250,400 300,350" fill="rgb(36,219,36)" stroke="black" stroke-width="0.5"/>
<polygon points="300,400 300,350 250,400" fill="rgb(36,219,36)" stroke="black" stroke-width="0.5"/>
<polygon points="300,350 350,400 350,350" fill="rgb(36,219,36)" stroke="black" stroke-width="0.5"/>
<polygon points="300,350 300,400 350,400" fill="rgb(36,219,36)" stroke="black" stroke-width="0.5"/>
<polygon points="350,350 350,400 400,350" fill="rgb(36,219,36)" stroke="black" stroke-width="0.5"/>
<polygon points="400,400 400,350 350,400" fill="rgb(36,219,36)" stroke="black" stroke-width="0.5"/>
</g>
<g id="walls">
</g>
</svg>