<svg xmlns="http://www.w3.org/2000/svg" viewBox="-10 -10 520 520">
<rect x="-10" y="-10" width="520" height="520" fill="white"/>
<g id="ground">
<polygon points="0,0 0,50 50,0" fill="rgb(36,219,36)" stroke="black" stroke-width="0.5"/>
<polygon points="50,50 50,0 0,50" fill="rgb(36,219,36)" stroke="black" stroke-width="0.5"/>
<polygon points="50,0 100,50 100,0" fill="rgb(36,219,36)" stroke="black" stroke-width="0.5"/>
<polygon points="50,0 50,50 100,50" fill="rgb(36,219,36)" stroke="black" stroke-width="0.5"/>
<polygon points="100,0 100,50 150,0" fill="rgb(36,219,36)" stroke="black" stroke-width="0.5"/>
<polygon points="150,50 150,0 100,50" fill="rgb(36,219,36)" stroke="black" stroke-width="0.5"/>
<polygon points="150,0 200,50 200,0" fill="rgb(36,219,36)" stroke="black" stroke-width="0.5"/>
<polygon points="150,0 150,50 200,50" fill="rgb(36,219,36)" stroke="black" stroke-width="0.5"/>
<polygon points="200,0 200,50 250,0" fill="rgb(36,219,36)" stroke="black" stroke-width="0.5"/>
<polygon points="250,50 250,0 200,50" fill="rgb(36,219,36)" stroke="black" stroke-width="0.5"/>
<polygon points="250,0 300,50 300,0" fill="rgb(36,219,36)" stroke="black" stroke-width="0.5"/>
<polygon points="250,0 250,50 300,50" fill="rgb(36,219,36)" stroke="black" stroke-width="0.5"/>
<polygon points="300,0 300,50 350,0" fill="rgb(36,219,36)" stroke="black" stroke-width="0.5"/>
<polygon points="350,50 350,0 300,50" fill="rgb(36,219,36)" stroke="black" stroke-width="0.5"/>
<polygon points="350,0 400,50 400,0" fill="rgb(36,219,36)" stroke="black" stroke-width="0.5"/>
<polygon points="350,0 350,50 400,50" fill="rgb(36,219,36)" stroke="black" stroke-width="0.5"/>
<polygon points="400,0 400,50 450,0" fill="rgb(36,219,36)" stroke="black" stroke-width="0.5"/>
<polygon points="450,50 450,0 400,50" fill="rgb(36,219,36)" stroke="black" stroke-width="0.5"/>
<polygon points="450,0 500,50 500,0" fill="rgb(36,219,36)" stroke="black" stroke-width="0.5"/>
<polygon points="450,0 450,50 500,50" fill="rgb(36,219,36)" stroke="black" stroke-width="0.5"/>
<polygon points="0,50 50,100 50,50" fill="rgb(36,219,36)" stroke="black" stroke-width="0.5"/>
<polygon points="0,50 0,100 50,100" fill="rgb(36,219,36)" stroke="black" stroke-width="0.5"/>
<polygon points="50,50 50,100 100,50" fill="rgb(36,219,36)" stroke="black" stroke-width="0.5"/>
<polygon points="100,100 100,50 50,100" fill="rgb(48,218,48)" stroke="black" stroke-width="0.5"/>
<polygon points="100,100 100,62.5 62.5,100" fill="rgb(241,170,4)" stroke="black" stroke-width="0.5"/>
<polygon points="100,50 150,100 150,50" fill="rgb(48,218,48)" stroke="black" stroke-width="0.5"/>
<polygon points="100,50 100,100 150,100" fill="rgb(60,218,60)" stroke="black" stroke-width="0.5"/>
<polygon points="100,62.5 150,100 150,62.5" fill="rgb(241,170,4)" stroke="black" stroke-width="0.5"/>
<polygon points="100,62.5 100,100 150,100" fill="rgb(248,176,9)" stroke="black" stroke-width="0.5"/>
<polygon points="150,50 150,100 200,50" fill="rgb(48,218,48)" stroke="black" stroke-width="0.5"/>
<polygon points="200,100 200,50 150,100" fill="rgb(60,218,60)" stroke="black" stroke-width="0.5"/>
<polygon points="150,62.5 150,100 200,62.5" fill="rgb(241,170,4)" stroke="black" stroke-width="0.5"/>
<polygon points="200,100 200,62.5 150,100" fill="rgb(248,176,9)" stroke="black" stroke-width="0.5"/>
<polygon points="200,50 250,100 250,50" fill="rgb(48,218,48)" stroke="black" stroke-width="0.5"/>
<polygon points="200,50 200,100 250,100" fill="rgb(60,218,60)" stroke="black" stroke-width="0.5"/>
<polygon points="200,62.5 250,100 250,62.5" fill="rgb(241,170,4)" stroke="black" stroke-width="0.5"/>
<polygon points="200,62.5 200,100 250,100" fill="rgb(248,176,9)" stroke="black" stroke-width="0.5"/>
<polygon points="250,50 250,100 300,50" fill="rgb(48,218,48)" stroke="black" stroke-width="0.5"/>
<polygon points="300,100 300,50 250,100" fill="rgb(60,218,60)" stroke="black" stroke-width="0.5"/>
<polygon points="250,62.5 250,100 300,62.5" fill="rgb(241,170,4)" stroke="black" stroke-width="0.5"/>
<polygon points="300,100 300,62.5 250,100" fill="rgb(248,176,9)" stroke="black" stroke-width="0.5"/>
<polygon points="300,50 350,100 350,50" fill="rgb(48,218,48)" stroke="black" stroke-width="0.5"/>
<polygon points="300,50 300,100 350,100" fill="rgb(60,218,60)" stroke="black" stroke-width="0.5"/>
<polygon points="300,62.5 350,100 350,62.5" fill="rgb(241,170,4)" stroke="black" stroke-width="0.5"/>
<polygon points="300,62.5 300,100 350,100" fill="rgb(248,176,9)" stroke="black" stroke-width="0.5"/>
<polygon points="350,50 350,100 400,50" fill="rgb(48,218,48)" stroke="black" stroke-width="0.5"/>
<polygon points="400,100 400,50 350,100" fill="rgb(48,218,48)" stroke="black" stroke-width="0.5"/>
<polygon points="350,62.5 350,100 400,62.5" fill="rgb(241,170,4)" stroke="black" stroke-width="0.5"/>
<polygon points="400,100 400,62.5 350,100" fill="rgb(241,170,4)" stroke="black" stroke-width="0.5"/>
<polygon points="400,50 450,100 450,50" fill="rgb(36,219,36)" stroke="black" stroke-width="0.5"/>
<polygon points="400,50 400,100 450,100" fill="rgb(36,219,36)" stroke="black" stroke-width="0.5"/>
<polygon points="400,62.5 400,100 437.5,100" fill="rgb(234,164,0)" stroke="black" stroke-width="0.5"/>
<polygon points="450,50 450,100 500,50" fill="rgb(36,219,36)" stroke="black" stroke-width="0.5"/>
<polygon points="500,100 500,50 450,100" fill="rgb(36,219,36)" stroke="black" stroke-width="0.5"/>
<polygon points="0,100 0,150 50,100" fill="rgb(36,219,36)" stroke="black" stroke-width="0.5"/>
<polygon points="50,150 50,100 0,150" fill="rgb(36,219,36)" stroke="black" stroke-width="0.5"/>
<polygon points="50,100 100,150 100,100" fill="rgb(60,218,60)" stroke="black" stroke-width="0.5"/>
<polygon points="50,100 50,150 100,150" fill="rgb(48,218,48)" stroke="black" stroke-width="0.5"/>
<polygon points="62.5,100 100,150 100,100" fill="rgb(248,176,9)" stroke="black" stroke-width="0.5"/>
<polygon points="62.5,100 62.5,150 100,150" fill="rgb(241,170,4)" stroke="black" stroke-width="0.5"/>
<polygon points="100,100 100,150 150,100" fill="rgb(71,218,71)" stroke="black" stroke-width="0.5"/>
<polygon points="150,150 150,100 100,150" fill="rgb(71,218,71)" stroke="black" stroke-width="0.5"/>
<polygon points="100,100 100,150 150,100" fill="rgb(255,183,13)" stroke="black" stroke-width="0.5"/>
<polygon points="143.75,150 150,100 100,150" fill="rgb(255,183,13)" stroke="black" stroke-width="0.5"/>
<polygon points="150,143.75 150,100 143.75,150" fill="rgb(255,183,13)" stroke="black" stroke-width="0.5"/>
<polygon points="150,100 200,150 200,100" fill="rgb(71,218,71)" stroke="black" stroke-width="0.5"/>
<polygon points="150,100 150,150 200,150" fill="rgb(71,218,71)" stroke="black" stroke-width="0.5"/>
<polygon points="150,100 200,143.75 200,100" fill="rgb(255,183,13)" stroke="black" stroke-width="0.5"/>
<polygon points="150,100 150,143.75 200,143.75" fill="rgb(255,183,13)" stroke="black" stroke-width="0.5"/>
<polygon points="200,100 200,150 250,100" fill="rgb(71,218,71)" stroke="black" stroke-width="0.5"/>
<polygon points="250,150 250,100 200,150" fill="rgb(71,218,71)" stroke="black" stroke-width="0.5"/>
<polygon points="200,100 200,143.75 250,100" fill="rgb(255,183,13)" stroke="black" stroke-width="0.5"/>
<polygon points="250,143.75 250,100 200,143.75" fill="rgb(255,183,13)" stroke="black" stroke-width="0.5"/>
<polygon points="250,100 300,150 300,100" fill="rgb(71,218,71)" stroke="black" stroke-width="0.5"/>
<polygon points="250,100 250,150 300,150" fill="rgb(71,218,71)" stroke="black" stroke-width="0.5"/>
<polygon points="250,100 300,143.75 300,100" fill="rgb(255,183,13)" stroke="black" stroke-width="0.5"/>
<polygon points="250,100 250,143.75 300,143.75" fill="rgb(255,183,13)" stroke="black" stroke-width="0.5"/>
<polygon points="300,100 300,150 350,100" fill="rgb(71,218,71)" stroke="black" stroke-width="0.5"/>
<polygon points="350,150 350,100 300,150" fill="rgb(71,218,71)" stroke="black" stroke-width="0.5"/>
<polygon points="300,100 300,143.75 350,100" fill="rgb(255,183,13)" stroke="black" stroke-width="0.5"/>
<polygon points="350,143.75 350,100 300,143.75" fill="rgb(255,183,13)" stroke="black" stroke-width="0.5"/>
<polygon points="350,100 400,150 400,100" fill="rgb(48,218,48)" stroke="black" stroke-width="0.5"/>
<polygon points="350,100 350,150 400,150" fill="rgb(60,218,60)" stroke="black" stroke-width="0.5"/>
<polygon points="350,100 400,150 400,100" fill="rgb(241,170,4)" stroke="black" stroke-width="0.5"/>
<polygon points="350,100 356.25,150 400,150" fill="rgb(248,176,9)" stroke="black" stroke-width="0.5"/>
<polygon points="356.25,150 350,100 350,143.75" fill="rgb(255,183,13)" stroke="black" stroke-width="0.5"/>
<polygon points="400,100 400,150 450,100" fill="rgb(36,219,36)" stroke="black" stroke-width="0.5"/>
<polygon points="450,150 450,100 400,150" fill="rgb(36,219,36)" stroke="black" stroke-width="0.5"/>
<polygon points="400,100 400,150 437.5,100" fill="rgb(234,164,0)" stroke="black" stroke-width="0.5"/>
<polygon points="437.5,150 437.5,100 400,150" fill="rgb(234,164,0)" stroke="black" stroke-width="0.5"/>
<polygon points="450,100 500,150 500,100" fill="rgb(36,219,36)" stroke="black" stroke-width="0.5"/>
<polygon points="450,100 450,150 500,150" fill="rgb(36,219,36)" stroke="black" stroke-width="0.5"/>
<polygon points="0,150 50,200 50,150" fill="rgb(36,219,36)" stroke="black" stroke-width="0.5"/>
<polygon points="0,150 0,200 50,200" fill="rgb(36,219,36)" stroke="black" stroke-width="0.5"/>
<polygon points="50,150 50,200 100,150" fill="rgb(48,218,48)" stroke="black" stroke-width="0.5"/>
<polygon points="100,200 100,150 50,200" fill="rgb(60,218,60)" stroke="black" stroke-width="0.5"/>
<polygon points="62.5,150 62.5,200 100,150" fill="rgb(241,170,4)" stroke="black" stroke-width="0.5"/>
<polygon points="100,200 100,150 62.5,200" fill="rgb(248,176,9)" stroke="black" stroke-width="0.5"/>
<polygon points="100,150 150,200 150,150" fill="rgb(71,218,71)" stroke="black" stroke-width="0.5"/>
<polygon points="100,150 100,200 150,200" fill="rgb(71,218,71)" stroke="black" stroke-width="0.5"/>
<polygon points="100,150 143.75,200 143.75,150" fill="rgb(255,183,13)" stroke="black" stroke-width="0.5"/>
<polygon points="100,150 100,200 143.75,200" fill="rgb(255,183,13)" stroke="black" stroke-width="0.5"/>
<polygon points="150,150 150,200 200,150" fill="rgb(71,218,71)" stroke="black" stroke-width="0.5"/>
<polygon points="200,200 200,150 150,200" fill="rgb(71,218,71)" stroke="black" stroke-width="0.5"/>
<polygon points="200,150 250,200 250,150" fill="rgb(71,218,71)" stroke="black" stroke-width="0.5"/>
<polygon points="200,150 200,200 250,200" fill="rgb(71,218,71)" stroke="black" stroke-width="0.5"/>
<polygon points="250,150 250,200 300,150" fill="rgb(71,218,71)" stroke="black" stroke-width="0.5"/>
<polygon points="300,200 300,150 250,200" fill="rgb(71,218,71)" stroke="black" stroke-width="0.5"/>
<polygon points="300,150 350,200 350,150" fill="rgb(71,218,71)" stroke="black" stroke-width="0.5"/>
<polygon points="300,150 300,200 350,200" fill="rgb(71,218,71)" stroke="black" stroke-width="0.5"/>
<polygon points="350,150 350,200 400,150" fill="rgb(60,218,60)" stroke="black" stroke-width="0.5"/>
<polygon points="400,200 400,150 350,200" fill="rgb(48,218,48)" stroke="black" stroke-width="0.5"/>
<polygon points="356.25,150 356.25,200 400,150" fill="rgb(248,176,9)" stroke="black" stroke-width="0.5"/>
<polygon points="400,200 400,150 356.25,200" fill="rgb(241,170,4)" stroke="black" stroke-width="0.5"/>
<polygon points="400,150 450,200 450,150" fill="rgb(36,219,36)" stroke="black" stroke-width="0.5"/>
<polygon points="400,150 400,200 450,200" fill="rgb(36,219,36)" stroke="black" stroke-width="0.5"/>
<polygon points="400,150 437.5,200 437.5,150" fill="rgb(234,164,0)" stroke="black" stroke-width="0.5"/>
<polygon points="400,150 400,200 437.5,200" fill="rgb(234,164,0)" stroke="black" stroke-width="0.5"/>
<polygon points="450,150 450,200 500,150" fill="rgb(36,219,36)" stroke="black" stroke-width="0.5"/>
<polygon points="500,200 500,150 450,200" fill="rgb(36,219,36)" stroke="black" stroke-width="0.5"/>
<polygon points="0,200 0,250 50,200" fill="rgb(36,219,36)" stroke="black" stroke-width="0.5"/>
<polygon points="50,250 50,200 0,250" fill="rgb(36,219,36)" stroke="black" stroke-width="0.5"/>
<polygon points="50,200 100,250 100,200" fill="rgb(60,218,60)" stroke="black" stroke-width="0.5"/>
<polygon points="50,200 50,250 100,250" fill="rgb(48,218,48)" stroke="black" stroke-width="0.5"/>
<polygon points="62.5,200 100,250 100,200" fill="rgb(248,176,9)" stroke="black" stroke-width="0.5"/>
<polygon points="62.5,200 62.5,250 100,250" fill="rgb(241,170,4)" stroke="black" stroke-width="0.5"/>
<polygon points="100,200 100,250 150,200" fill="rgb(71,218,71)" stroke="black" stroke-width="0.5"/>
<polygon points="150,250 150,200 100,250" fill="rgb(71,218,71)" stroke="black" stroke-width="0.5"/>
<polygon points="100,200 100,250 143.75,200" fill="rgb(255,183,13)" stroke="black" stroke-width="0.5"/>
<polygon points="143.75,250 143.75,200 100,250" fill="rgb(255,183,13)" stroke="black" stroke-width="0.5"/>
<polygon points="150,200 200,250 200,200" fill="rgb(71,218,71)" stroke="black" stroke-width="0.5"/>
<polygon points="150,200 150,250 200,250" fill="rgb(71,218,71)" stroke="black" stroke-width="0.5"/>
<polygon points="200,200 200,250 250,200" fill="rgb(71,218,71)" stroke="black" stroke-width="0.5"/>
<polygon points="250,250 250,200 200,250" fill="rgb(71,218,71)" stroke="black" stroke-width="0.5"/>
<polygon points="250,200 300,250 300,200" fill="rgb(71,218,71)" stroke="black" stroke-width="0.5"/>
<polygon points="250,200 250,250 300,250" fill="rgb(71,218,71)" stroke="black" stroke-width="0.5"/>
<polygon points="300,200 300,250 350,200" fill="rgb(71,218,71)" stroke="black" stroke-width="0.5"/>
<polygon points="350,250 350,200 300,250" fill="rgb(71,218,71)" stroke="black" stroke-width="0.5"/>
<polygon points="350,200 400,250 400,200" fill="rgb(48,218,48)" stroke="black" stroke-width="0.5"/>
<polygon points="350,200 350,250 400,250" fill="rgb(60,218,60)" stroke="black" stroke-width="0.5"/>
<polygon points="356.25,200 400,250 400,200" fill="rgb(241,170,4)" stroke="black" stroke-width="0.5"/>
<polygon points="356.25,200 356.25,250 400,250" fill="rgb(248,176,9)" stroke="black" stroke-width="0.5"/>
<polygon points="400,200 400,250 450,200" fill="rgb(36,219,36)" stroke="black" stroke-width="0.5"/>
<polygon points="450,250 450,200 400,250" fill="rgb(36,219,36)" stroke="black" stroke-width="0.5"/>
<polygon points="400,200 400,250 437.5,200" fill="rgb(234,164,0)" stroke="black" stroke-width="0.5"/>
<polygon points="437.5,250 437.5,200 400,250" fill="rgb(234,164,0)" stroke="black" stroke-width="0.5"/>
<polygon points="450,200 500,250 500,200" fill="rgb(36,219,36)" stroke="black" stroke-width="0.5"/>
<polygon points="450,200 450,250 500,250" fill="rgb(36,219,36)" stroke="black" stroke-width="0.5"/>
<polygon points="0,250 50,300 50,250" fill="rgb(36,219,36)" stroke="black" stroke-width="0.5"/>
<polygon points="0,250 0,300 50,300" fill="rgb(36,219,36)" stroke="black" stroke-width="0.5"/>
<polygon points="50,250 50,300 100,250" fill="rgb(48,218,48)" stroke="black" stroke-width="0.5"/>
<polygon points="100,300 100,250 50,300" fill="rgb(60,218,60)" stroke="black" stroke-width="0.5"/>
<polygon points="62.5,250 62.5,300 100,250" fill="rgb(241,170,4)" stroke="black" stroke-width="0.5"/>
<polygon points="100,300 100,250 62.5,300" fill="rgb(248,176,9)" stroke="black" stroke-width="0.5"/>
<polygon points="100,250 150,300 150,250" fill="rgb(71,218,71)" stroke="black" stroke-width="0.5"/>
<polygon points="100,250 100,300 150,300" fill="rgb(71,218,71)" stroke="black" stroke-width="0.5"/>
<polygon points="100,250 143.75,300 143.75,250" fill="rgb(255,183,13)" stroke="black" stroke-width="0.5"/>
<polygon points="100,250 100,300 143.75,300" fill="rgb(255,183,13)" stroke="black" stroke-width="0.5"/>
<polygon points="150,250 150,300 200,250" fill="rgb(71,218,71)" stroke="black" stroke-width="0.5"/>
<polygon points="200,300 200,250 150,300" fill="rgb(71,218,71)" stroke="black" stroke-width="0.5"/>
<polygon points="200,250 250,300 250,250" fill="rgb(71,218,71)" stroke="black" stroke-width="0.5"/>
<polygon points="200,250 200,300 250,300" fill="rgb(71,218,71)" stroke="black" stroke-width="0.5"/>
<polygon points="250,250 250,300 300,250" fill="rgb(71,218,71)" stroke="black" stroke-width="0.5"/>
<polygon points="300,300 300,250 250,300" fill="rgb(71,218,71)" stroke="black" stroke-width="0.5"/>
<polygon points="300,250 350,300 350,250" fill="rgb(71,218,71)" stroke="black" stroke-width="0.5"/>
<polygon points="300,250 300,300 350,300" fill="rgb(71,218,71)" stroke="black" stroke-width="0.5"/>
<polygon points="350,250 350,300 400,250" fill="rgb(60,218,60)" stroke="black" stroke-width="0.5"/>
<polygon points="400,300 400,250 350,300" fill="rgb(48,218,48)" stroke="black" stroke-width="0.5"/>
<polygon points="356.25,250 356.25,300 400,250" fill="rgb(248,176,9)" stroke="black" stroke-width="0.5"/>
<polygon points="400,300 400,250 356.25,300" fill="rgb(241,170,4)" stroke="black" stroke-width="0.5"/>
<polygon points="400,250 450,300 450,250" fill="rgb(36,219,36)" stroke="black" stroke-width="0.5"/>
<polygon points="400,250 400,300 450,300" fill="rgb(36,219,36)" stroke="black" stroke-width="0.5"/>
<polygon points="400,250 437.5,300 437.5,250" fill="rgb(234,164,0)" stroke="black" stroke-width="0.5"/>
<polygon points="400,250 400,300 437.5,300" fill="rgb(234,164,0)" stroke="black" stroke-width="0.5"/>
<polygon points="450,250 450,300 500,250" fill="rgb(36,219,36)" stroke="black" stroke-width="0.5"/>
<polygon points="500,300 500,250 450,300" fill="rgb(36,219,36)" stroke="black" stroke-width="0.5"/>
<polygon points="0,300 0,350 50,300" fill="rgb(36,219,36)" stroke="black" stroke-width="0.5"/>
<polygon points="50,350 50,300 0,350" fill="rgb(36,219,36)" stroke="black" stroke-width="0.5"/>
<polygon points="50,300 100,350 100,300" fill="rgb(60,218,60)" stroke="black" stroke-width="0.5"/>
<polygon points="50,300 50,350 100,350" fill="rgb(48,218,48)" stroke="black" stroke-width="0.5"/>
<polygon points="62.5,300 100,350 100,300" fill="rgb(248,176,9)" stroke="black" stroke-width="0.5"/>
<polygon points="62.5,300 62.5,350 100,350" fill="rgb(241,170,4)" stroke="black" stroke-width="0.5"/>
<polygon points="100,300 100,350 150,300" fill="rgb(71,218,71)" stroke="black" stroke-width="0.5"/>
<polygon points="150,350 150,300 100,350" fill="rgb(71,218,71)" stroke="black" stroke-width="0.5"/>
<polygon points="100,300 100,350 143.75,300" fill="rgb(255,183,13)" stroke="black" stroke-width="0.5"/>
<polygon points="143.75,350 143.75,300 100,350" fill="rgb(255,183,13)" stroke="black" stroke-width="0.5"/>
<polygon points="150,300 200,350 200,300" fill="rgb(71,218,71)" stroke="black" stroke-width="0.5"/>
<polygon points="150,300 150,350 200,350" fill="rgb(71,218,71)" stroke="black" stroke-width="0.5"/>
<polygon points="200,300 200,350 250,300" fill="rgb(71,218,71)" stroke="black" stroke-width="0.5"/>
<polygon points="250,350 250,300 200,350" fill="rgb(71,218,71)" stroke="black" stroke-width="0.5"/>
<polygon points="250,300 300,350 300,300" fill="rgb(71,218,71)" stroke="black" stroke-width="0.5"/>
<polygon points="250,300 250,350 300,350" fill="rgb(71,218,71)" stroke="black" stroke-width="0.5"/>
<polygon points="300,300 300,350 350,300" fill="rgb(71,218,71)" stroke="black" stroke-width="0.5"/>
<polygon points="350,350 350,300 300,350" fill="rgb(71,218,71)" stroke="black" stroke-width="0.5"/>
<polygon points="350,300 400,350 400,300" fill="rgb(48,218,48)" stroke="black" stroke-width="0.5"/>
<polygon points="350,300 350,350 400,350" fill="rgb(60,218,60)" stroke="black" stroke-width="0.5"/>
<polygon points="356.25,300 400,350 400,300" fill="rgb(241,170,4)" stroke="black" stroke-width="0.5"/>
<polygon points="356.25,300 356.25,350 400,350" fill="rgb(248,176,9)" stroke="black" stroke-width="0.5"/>
<polygon points="400,300 400,350 450,300" fill="rgb(36,219,36)" stroke="black" stroke-width="0.5"/>
<polygon points="450,350 450,300 400,350" fill="rgb(36,219,36)" stroke="black" stroke-width="0.5"/>
<polygon points="400,300 400,350 437.5,300" fill="rgb(234,164,0)" stroke="black" stroke-width="0.5"/>
<polygon points="437.5,350 437.5,300 400,350" fill="rgb(234,164,0)" stroke="black" stroke-width="0.5"/>
<polygon points="450,300 500,350 500,300" fill="rgb(36,219,36)" stroke="black" stroke-width="0.5"/>
<polygon points="450,300 450,350 500,350" fill="rgb(36,219,36)" stroke="black" stroke-width="0.5"/>
<polygon points="0,350 50,400 50,350" fill="rgb(36,219,36)" stroke="black" stroke-width="0.5"/>
<polygon points="0,350 0,400 50,400" fill="rgb(36,219,36)" stroke="black" stroke-width="0.5"/>
<polygon points="50,350 50,400 100,350" fill="rgb(48,218,48)" stroke="black" stroke-width="0.5"/>
<polygon points="100,400 100,350 50,400" fill="rgb(48,218,48)" stroke="black" stroke-width="0.5"/>
<polygon points="62.5,350 62.5,400 100,350" fill="rgb(241,170,4)" stroke="black" stroke-width="0.5"/>
<polygon points="100,400 100,350 62.5,400" fill="rgb(241,170,4)" stroke="black" stroke-width="0.5"/>
<polygon points="100,350 150,400 150,350" fill="rgb(60,218,60)" stroke="black" stroke-width="0.5"/>
<polygon points="100,350 100,400 150,400" fill="rgb(48,218,48)" stroke="black" stroke-width="0.5"/>
<polygon points="100,350 150,400 143.75,350" fill="rgb(248,176,9)" stroke="black" stroke-width="0.5"/>
<polygon points="150,400 150,356.25 143.75,350" fill="rgb(248,176,9)" stroke="black" stroke-width="0.5"/>
<polygon points="100,350 100,400 150,400" fill="rgb(241,170,4)" stroke="black" stroke-width="0.5"/>
<polygon points="150,350 150,400 200,350" fill="rgb(60,218,60)" stroke="black" stroke-width="0.5"/>
<polygon points="200,400 200,350 150,400" fill="rgb(48,218,48)" stroke="black" stroke-width="0.5"/>
<polygon points="150,356.25 150,400 200,356.25" fill="rgb(248,176,9)" stroke="black" stroke-width="0.5"/>
<polygon points="200,400 200,356.25 150,400" fill="rgb(241,170,4)" stroke="black" stroke-width="0.5"/>
<polygon points="200,350 250,400 250,350" fill="rgb(60,218,60)" stroke="black" stroke-width="0.5"/>
<polygon points="200,350 200,400 250,400" fill="rgb(48,218,48)" stroke="black" stroke-width="0.5"/>
<polygon points="200,356.25 250,400 250,356.25" fill="rgb(248,176,9)" stroke="black" stroke-width="0.5"/>
<polygon points="200,356.25 200,400 250,400" fill="rgb(241,170,4)" stroke="black" stroke-width="0.5"/>
<polygon points="250,350 250,400 300,350" fill="rgb(60,218,60)" stroke="black" stroke-width="0.5"/>
<polygon points="300,400 300,350 250,400" fill="rgb(48,218,48)" stroke="black" stroke-width="0.5"/>
<polygon points="250,356.25 250,400 300,356.25" fill="rgb(248,176,9)" stroke="black" stroke-width="0.5"/>
<polygon points="300,400 300,356.25 250,400" fill="rgb(241,170,4)" stroke="black" stroke-width="0.5"/>
<polygon points="300,350 350,400 350,350" fill="rgb(60,218,60)" stroke="black" stroke-width="0.5"/>
<polygon points="300,350 300,400 350,400" fill="rgb(48,218,48)" stroke="black" stroke-width="0.5"/>
<polygon points="300,356.25 350,400 350,356.25" fill="rgb(248,176,9)" stroke="black" stroke-width="0.5"/>
<polygon points="300,356.25 300,400 350,400" fill="rgb(241,170,4)" stroke="black" stroke-width="0.5"/>
<polygon points="350,350 350,400 400,350" fill="rgb(48,218,48)" stroke="black" stroke-width="0.5"/>
<polygon points="400,400 400,350 350,400" fill="rgb(36,219,36)" stroke="black" stroke-width="0.5"/>
<polygon points="356.25,350 350,400 400,350" fill="rgb(241,170,4)" stroke="black" stroke-width="0.5"/>
<polygon points="356.25,350 350,356.25 350,400" fill="rgb(248,176,9)" stroke="black" stroke-width="0.5"/>
<polygon points="400,400 400,350 350,400" fill="rgb(234,164,0)" stroke="black" stroke-width="0.5"/>
<polygon points="400,350 450,400 450,350" fill="rgb(36,219,36)" stroke="black" stroke-width="0.5"/>
<polygon points="400,350 400,400 450,400" fill="rgb(36,219,36)" stroke="black" stroke-width="0.5"/>
<polygon points="400,350 437.5,400 437.5,350" fill="rgb(234,164,0)" stroke="black" stroke-width="0.5"/>
<polygon points="400,350 400,400 437.5,400" fill="rgb(234,164,0)" stroke="black" stroke-width="0.5"/>
<polygon points="450,350 450,400 500,350" fill="rgb(36,219,36)" stroke="black" stroke-width="0.5"/>
<polygon points="500,400 500,350 450,400" fill="rgb(36,219,36)" stroke="black" stroke-width="0.5"/>
<polygon points="0,400 0,450 50,400" fill="rgb(36,219,36)" stroke="black" stroke-width="0.5"/>
<polygon points="50,450 50,400 0,450" fill="rgb(36,219,36)" stroke="black" stroke-width="0.5"/>
<polygon points="50,400 100,450 100,400" fill="rgb(36,219,36)" stroke="black" stroke-width="0.5"/>
<polygon points="50,400 50,450 100,450" fill="rgb(36,219,36)" stroke="black" stroke-width="0.5"/>
<polygon points="62.5,400 100,437.5 100,400" fill="rgb(234,164,0)" stroke="black" stroke-width="0.5"/>
<polygon points="100,400 100,450 150,400" fill="rgb(36,219,36)" stroke="black" stroke-width="0.5"/>
<polygon points="150,450 150,400 100,450" fill="rgb(36,219,36)" stroke="black" stroke-width="0.5"/>
<polygon points="100,400 100,437.5 150,400" fill="rgb(234,164,0)" stroke="black" stroke-width="0.5"/>
<polygon points="150,437.5 150,400 100,437.5" fill="rgb(234,164,0)" stroke="black" stroke-width="0.5"/>
<polygon points="150,400 200,450 200,400" fill="rgb(36,219,36)" stroke="black" stroke-width="0.5"/>
<polygon points="150,400 150,450 200,450" fill="rgb(36,219,36)" stroke="black" stroke-width="0.5"/>
<polygon points="150,400 200,437.5 200,400" fill="rgb(234,164,0)" stroke="black" stroke-width="0.5"/>
<polygon points="150,400 150,437.5 200,437.5" fill="rgb(234,164,0)" stroke="black" stroke-width="0.5"/>
<polygon points="200,400 200,450 250,400" fill="rgb(36,219,36)" stroke="black" stroke-width="0.5"/>
<polygon points="250,450 250,400 200,450" fill="rgb(36,219,36)" stroke="black" stroke-width="0.5"/>
<polygon points="200,400 200,437.5 250,400" fill="rgb(234,164,0)" stroke="black" stroke-width="0.5"/>
<polygon points="250,437.5 250,400 200,437.5" fill="rgb(234,164,0)" stroke="black" stroke-width="0.5"/>
<polygon points="250,400 300,450 300,400" fill="rgb(36,219,36)" stroke="black" stroke-width="0.5"/>
<polygon points="250,400 250,450 300,450" fill="rgb(36,219,36)" stroke="black" stroke-width="0.5"/>
<polygon points="250,400 300,437.5 300,400" fill="rgb(234,164,0)" stroke="black" stroke-width="0.5"/>
<polygon points="250,400 250,437.5 300,437.5" fill="rgb(234,164,0)" stroke="black" stroke-width="0.5"/>
<polygon points="300,400 300,450 350,400" fill="rgb(36,219,36)" stroke="black" stroke-width="0.5"/>
<polygon points="350,450 350,400 300,450" fill="rgb(36,219,36)" stroke="black" stroke-width="0.5"/>
<polygon points="300,400 300,437.5 350,400" fill="rgb(234,164,0)" stroke="black" stroke-width="0.5"/>
<polygon points="350,437.5 350,400 300,437.5" fill="rgb(234,164,0)" stroke="black" stroke-width="0.5"/>
<polygon points="350,400 400,450 400,400" fill="rgb(36,219,36)" stroke="black" stroke-width="0.5"/>
<polygon points="350,400 350,450 400,450" fill="rgb(36,219,36)" stroke="black" stroke-width="0.5"/>
<polygon points="350,400 400,437.5 400,400" fill="rgb(234,164,0)" stroke="black" stroke-width="0.5"/>
<polygon points="350,400 350,437.5 400,437.5" fill="rgb(234,164,0)" stroke="black" stroke-width="0.5"/>
<polygon points="400,400 400,450 450,400" fill="rgb(36,219,36)" stroke="black" stroke-width="0.5"/>
<polygon points="450,450 450,400 400,450" fill="rgb(36,219,36)" stroke="black" stroke-width="0.5"/>
<polygon points="400,400 400,437.5 437.5,400" fill="rgb(234,164,0)" stroke="black" stroke-width="0.5"/>
<polygon points="450,400 500,450 500,400" fill="rgb(36,219,36)" stroke="black" stroke-width="0.5"/>
<polygon points="450,400 450,450 500,450" fill="rgb(36,219,36)" stroke="black" stroke-width="0.5"/>
<polygon points="0,450 50,500 50,450" fill="rgb(36,219,36)" stroke="black" stroke-width="0.5"/>
<polygon points="0,450 0,500 50,500" fill="rgb(36,219,36)" stroke="black" stroke-width="0.5"/>
<polygon points="50,450 50,500 100,450" fill="rgb(36,219,36)" stroke="black" stroke-width="0.5"/>
<polygon points="100,500 100,450 50,500" fill="rgb(36,219,36)" stroke="black" stroke-width="0.5"/>
<polygon points="100,450 150,500 150,450" fill="rgb(36,219,36)" stroke="black" stroke-width="0.5"/>
<polygon points="100,450 100,500 150,500" fill="rgb(36,219,36)" stroke="black" stroke-width="0.5"/>
<polygon points="150,450 150,500 200,450" fill="rgb(36,219,36)" stroke="black" stroke-width="0.5"/>
<polygon points="200,500 200,450 150,500" fill="rgb(36,219,36)" stroke="black" stroke-width="0.5"/>
<polygon points="200,450 250,500 250,450" fill="rgb(36,219,36)" stroke="black" stroke-width="0.5"/>
<polygon points="200,450 200,500 250,500" fill="rgb(36,219,36)" stroke="black" stroke-width="0.5"/>
<polygon points="250,450 250,500 300,450" fill="rgb(36,219,36)" stroke="black" stroke-width="0.5"/>
<polygon points="300,500 300,450 250,500" fill="rgb(36,219,36)" stroke="black" stroke-width="0.5"/>
<polygon points="300,450 350,500 350,450" fill="rgb(36,219,36)" stroke="black" stroke-width="0.5"/>
<polygon points="300,450 300,500 350,500" fill="rgb(36,219,36)" stroke="black" stroke-width="0.5"/>
<polygon points="350,450 350,500 400,450" fill="rgb(36,219,36)" stroke="black" stroke-width="0.5"/>
<polygon points="400,500 400,450 350,500" fill="rgb(36,219,36)" stroke="black" stroke-width="0.5"/>
<polygon points="400,450 450,500 450,450" fill="rgb(36,219,36)" stroke="black" stroke-width="0.5"/>
<polygon points="400,450 400,500 450,500" fill="rgb(36,219,36)" stroke="black" stroke-width="0.5"/>
<polygon points="450,450 450,500 500,450" fill="rgb(36,219,36)" stroke="black" stroke-width="0.5"/>
<polygon points="500,500 500,450 450,500" fill="rgb(36,219,36)" stroke="black" stroke-width="0.5"/>
</g>
<g id="walls">
</g>
</svg>