<svg xmlns="http://www.w3.org/2000/svg" viewBox="0 0 85.138 100">
  <path
    fill="#dddddd"
    d="M42.444 0c3.217.013 6.325 1.803 7.929 4.596.827 1.427 1.283 3.058 1.236 4.714.025 2.397-.861 4.768-2.565 6.471-.86.91-1.897 1.6-3.039 2.103-.233.09-.222.201-.24.426.003 10.334.004 20.669.002 31.002.004.604-.03 1.222.023 1.82.395-.208.685-.514 1.016-.805 6.533-5.645 13.075-11.279 19.607-16.923.358-.316.766-.607 1.074-.974-.088-.496-.292-.968-.395-1.463-.198-.818-.24-1.652-.227-2.492-.028-1.816.545-3.641 1.565-5.141 1.455-2.15 3.823-3.635 6.421-3.879 1.054-.079 2.152-.068 3.182.18 2.241.562 4.341 1.978 5.579 3.945.946 1.438 1.445 3.179 1.525 4.891.035 2.352-.797 4.729-2.403 6.464-1.436 1.507-3.26 2.599-5.345 2.882-1.376.151-2.861.093-4.179-.361-.407-.133-.783-.348-1.192-.471-.197.028-.375.22-.527.34a5830.625 5830.625 0 0 1-23.629 20.753c-.915.764-1.631 1.781-1.951 2.938-.182.644-.135 1.39-.14 2.059-.003 2.445.007 4.89-.006 7.335.004.199.016.397.054.591 1.444.388 2.825.92 4.103 1.702a14.807 14.807 0 0 1 5.848 6.374 14.933 14.933 0 0 1 1.463 6.379c-.063 2.209-.574 4.418-1.576 6.394-1.256 2.571-3.323 4.735-5.786 6.18-1.883 1.076-3.969 1.767-6.135 1.945-.73.033-1.465.031-2.196.009-4.579-.291-8.925-2.878-11.341-6.784a15.042 15.042 0 0 1-2.292-7.357c-.099-2.242.372-4.51 1.298-6.551 1.187-2.647 3.192-4.906 5.649-6.444 1.379-.872 2.889-1.464 4.47-1.851a3.04 3.04 0 0 0 .056-.587c-.012-2.358-.002-4.719-.006-7.078-.005-.942.085-1.795-.28-2.694-.424-1.172-1.225-2.066-2.175-2.843-7.772-6.844-15.528-13.713-23.304-20.553a2.444 2.444 0 0 0-.37-.261c-.733.268-1.421.607-2.202.742-1.816.34-3.767.191-5.475-.54-2.099-.88-3.849-2.533-4.763-4.627-.704-1.623-.995-3.483-.677-5.233.393-2.872 2.233-5.432 4.77-6.81a9.056 9.056 0 0 1 4.49-1.101c1.864-.011 3.731.682 5.227 1.775 1.906 1.372 3.204 3.536 3.564 5.852.184 1.216.166 2.51-.078 3.717-.107.581-.345 1.123-.475 1.696.249.304.582.546.878.802 6.966 5.982 13.903 11.987 20.853 17.977.034-.55.016-1.11.017-1.661.001-10.033-.001-20.066.001-30.098-.009-.49.049-1.013-.051-1.492a3.59 3.59 0 0 0-.264-.146 9.475 9.475 0 0 1-4.791-4.722 9.467 9.467 0 0 1-.643-5.667c.306-1.827 1.229-3.5 2.543-4.797C37.816 1.017 40.121.021 42.444 0Z"
  /><path
    data-player="true"
    fill="#ffffff"
    d="M41.329 76.118c2.817-.35 5.773.654 7.73 2.722 2.434 2.462 3.274 6.307 2.123 9.568-.736 2.186-2.38 4.043-4.433 5.083-3.537 1.776-8.156 1.052-10.895-1.832-.91-1.002-1.63-2.204-2.027-3.501-.413-1.289-.48-2.634-.354-3.974a9.324 9.324 0 0 1 2.628-5.458c1.376-1.423 3.269-2.347 5.228-2.608Z"
  />
</svg>
