<svg xmlns="http://www.w3.org/2000/svg" viewBox="0 0 100 99.252">
  <path
    fill="#AD4B24"
    d="M96.224 73.132c-.058-.053-.201-.154-.397-.318-.188-.164-1.583-1.388-4.826-3.183-3.244-1.795-5.602-2.844-10.934-4.074-.608-.139-.77-.16-.833-.184-.063-.026-.095-.076-.082-.114.019-.037 4.047-9.072 4.057-9.095.019-.039-.006-.11-.033-.13-.046-.034-.131-.027-.15-.01-.022.017-10.044 7.558-10.208 7.672-.233.17-.334.202-.536.183-.131-.013-2.168-.276-2.287-.347-.247-.152-1.862-7.024-1.872-7.072-.017-.077-.063-.125-.113-.125-.051 0-.108.025-.133.064-.019.03-4.259 6.395-4.67 6.382-1.002-.028-2.112-.086-2.112-.086 0 .012 6.75 10.438 6.75 10.438l.12-.034c.031 0 8.193-.649 8.37-.674.195-.019.339-.007.359.031.024.039-.309.24-.794.486-.46.233-5.08 2.583-5.104 2.609-.026.025 3.566 2.463 3.642 2.463.075 0 12.415-1.883 12.882-1.953.467-.069.869-.106.901-.075.031.031-.082.1-.252.164-.164.063-13.071 5.324-13.115 5.324-.051 0-6.158-3.396-6.202-3.396-.044 0-6.857 2.578-6.857 2.629 0 .049 1.305 3.924 1.406 4.02.081.069 8.766 3.51 8.911 3.548.145.038.291.114.328.158.057.068.044.082-.07.062-.074-.005-11.244-.548-11.244-.548s-4.435 2.478-4.435 2.522c0 .043 1.385 6.459 1.456 6.686.063.233.107.435.094.442-.013.012-.101-.115-.195-.284-.095-.164-4.998-7.632-4.998-7.632s6.163-4.482 6.163-4.519c0-.038-3.182-4.16-3.333-4.324-.278-.296-7.412-3.214-7.412-3.214s-9.957 1.23-10.273 1.432c-.17.112-12.491 8.161-13.046 8.532-.554.366-1.033.675-1.071.687-.032.013.069-.107.22-.271.158-.164 5.919-5.773 5.786-5.824-.076-.031-15.132-1.669-15.27-1.695-.196-.038.006-.068.882-.125.624-.044 15.724-.946 15.724-.946s4.348-2.785 4.348-2.817c0-.038-6.528-4.74-6.926-5.016-.396-.279-.674-.498-.61-.498.062 0 .737.263 1.506.592.775.327 9.837 4.254 9.837 4.254l.416-.12c.228-.069 2.25-.623 2.376-.694.119-.068 3.887-2.761 3.945-2.761 0 0-6.435-9.922-6.479-9.966 0 0-.753.046-2.111.185-1.357.141-6.162.683-8.155 1.009l-1.191.191s-8.782-7.324-8.855-7.38c-.062-.057-.161-.101-.234-.092-.064.007-.168.102-.141.236.038.13 4.157 8.281 4.163 8.319.013.031-.385.105-.858.206-.466.093-2.21.491-4.076 1.072-1.865.583-6.026 1.763-10.588 4.274C2.959 73.065.925 76.81.449 78.009c-.513 1.287-.667 2.658-.032 4.865.252.873 1.512 3.389 4.254 5.559 2.741 2.169 10.369 5.613 15.196 7.065 4.825 1.452 13.025 2.856 18.736 3.34 5.712.483 14.755.541 19.096.188 4.34-.353 15.043-1.923 19.726-2.916 2.315-.492 6.019-.933 12.151-4.293 2.614-1.432 7.953-5.202 9.012-6.984 1.058-1.781 1.362-3.229 1.399-4.328.037-1.1.13-2.706-2.086-5.603l-1.677-1.77"
  /><path
    fill="#6F2816"
    d="M67.844 73.133s1.324 2.015 1.324 2.039c0 .026-5.13 1.393-5.206 1.393-.082 0-4.474-1.436-4.474-1.436s-6.441 1.184-6.51 1.184c-.076 0-5.9-2.912-5.982-2.987-.082-.076-.687-.972-.687-.972-.058 0-3.826 2.693-3.945 2.761-.126.071-2.148.625-2.376.694l-.416.12s-9.062-3.927-9.837-4.254c-.769-.329-1.444-.593-1.506-.593-.064 0 .213.22.61.499.398.276 6.926 4.978 6.926 5.016 0 .032-4.348 2.817-4.348 2.817s-15.1.902-15.724.946c-.876.057-1.078.087-.882.125.138.026 15.194 1.664 15.27 1.695.132.051-5.628 5.66-5.786 5.824-.151.164-.252.284-.22.271.038-.012.517-.321 1.071-.687.555-.371 12.876-8.42 13.046-8.532.316-.202 10.273-1.432 10.273-1.432s7.134 2.918 7.412 3.214c.151.164 3.334 4.286 3.334 4.324 0 .037-6.164 4.519-6.164 4.519s4.904 7.468 4.998 7.632c.095.169.182.296.196.284.012-.007-.032-.209-.095-.442-.07-.227-1.456-6.643-1.456-6.686 0-.044 4.436-2.522 4.436-2.522s11.169.543 11.244.548c.113.02.127.006.069-.062-.037-.044-.183-.12-.328-.158-.145-.038-8.83-3.479-8.911-3.548-.1-.096-1.406-3.971-1.406-4.02 0-.051 6.813-2.629 6.857-2.629.044 0 6.152 3.396 6.202 3.396.044 0 12.951-5.261 13.115-5.324.17-.064.284-.133.252-.164-.031-.031-.434.006-.901.075-.467.07-12.806 1.953-12.882 1.953-.076 0-3.668-2.438-3.642-2.463.024-.026 4.645-2.376 5.104-2.609.486-.246.819-.447.795-.486-.02-.038-.164-.05-.36-.031-.176.025-8.339.674-8.369.674l-.121.034"
  /><path
    fill="#ccd1d9"
    d="M43.619 35.663c-.063 0-1.464.925-1.464.925L67.181 75.72s1.988-.522 1.988-.548M30.073 44.408l-1.365.898s18.12 27.838 18.214 27.938c.094.107 3.493 1.85 3.493 1.85"
  /><path
    fill="#d6dae1"
    d="m63.916 76.609 3.265-.889-25.026-39.132-4.625 2.984c.063.032 23.252 35.982 23.252 36.012m-7.814.742 4.227-.769-22.329-34.245s-4.79 3.094-4.796 3.106c0 0 20.364 30.676 20.345 30.676"
  /><path
    fill="#aab2bc"
    d="M60.782 75.584c0-.03-23.253-36.011-23.253-36.011l-2.666 1.738 22.332 34.246 2.294-.428"
  /><path
    fill="#ffce54"
    d="M47.892 32.886c.548-.425.619-1.066.297-1.628-.07-.121-3.593-5.421-3.808-5.662-.787-.887-1.855-.627-2.558-.17-.431.281-21.47 13.929-21.579 14.006-.533.383-.598.893-.427 1.311.074.184 3.824 5.923 3.959 6.075.366.412 1.431.854 2.993-.257"
  /><path
    fill="#da4453"
    d="m29.673 33.308 6.352-4.126-2.975-4.397-3.377 8.523M27.035 15.39l-4.519 12.326 2.554 4.207 4.787-12.051m-8.272-4.709-6.129 1.574 3.484 5.503"
  /><path
    fill="#ed5564"
    d="m29.673 33.308 3.377-8.523-3.193-4.913-4.787 12.051 1.94 3.114m.025-19.647-2.55-4.053c-.902 1.501-2.901 3.827-2.901 3.827l-2.644 7.077 3.576 5.475 4.519-12.326"
  /><circle
    cx="16.38"
    cy="8.495"
    r="8.495"
    fill="#ffce54"
  /><circle
    cx="16.38"
    cy="8.495"
    r="2.549"
    fill="#f6bb42"
  />
</svg>
