<svg xmlns="http://www.w3.org/2000/svg" viewBox="0 0 901.463 333.101">
  <path
    fill="#fffffe"
    d="M162.596 79.541c1.51 1.48-.03 3.43-1.03 4.7-4.09 4.79-8.94 7.87-11.85 13.75 11.59.04 23.64-3.24 34.87-3.73 7.27-.38 14.7-1.16 21.95-.64-2.65 3.99-6.57 7.24-9.92 10.65-4.25 4.22-9.36 5.89-13.01 10.7 12.21 1.31 24.7.19 36.98.53 9.95.34 19.87-.13 29.81.06-4.27 4.63-9.14 7.24-12.75 12.23 5.25.57 10.66.54 15.94.56 162.312.01 324.782-.04 487.072.04 2.24.05 4.14-.58 6.11-1.56 3.39-1.85 8.04-1.11 11.82-1.22 8.6-.11 17.33.48 25.89-.4-3.82-5.82-9.22-9.64-12.8-15.73 11.6-.52 22.86 2.43 33.77 3.61-1.51-5.44-5.63-8.68-7.84-13.66 6.78-.26 12.21 2.41 18.9 3.93 5.51 1.27 10.73 3.24 15.92 5.45-1.55-2.81-3.14-5.51-3.91-8.67 5.58.64 10.72 3.83 15.37 6.79 7.76 5.43 15.06 11.95 19.72 20.29 7.94 13.36 10.57 28.66 9.64 44.04-.25 12.7-4.71 24.59-11.46 35.21-4.23 6.61-10.36 11.66-16.42 16.53-5.17 4.06-10.11 7.75-16.7 9.1.98-3.05 2.44-5.82 3.69-8.74-5.28 1.82-10.21 4.43-15.61 5.96-6.28 1.78-12.64 4.54-19.08 4.68 2.32-5.12 6.41-8.82 7.98-14.41-10.09 1.55-19.82 4.87-30.29 5.3-1.38.05-2.55-.11-3.86-.6 3.75-5.89 9.59-9.43 13.04-15.74-7.28-.58-14.65-.12-21.95-.13-5.04-.06-10.53.95-15.47-.06.18-.99.41-1.97.59-2.96-19.33-.65-38.78.07-58.12-.23-16.66-.01-33.33.34-50 .06-16-.23-32 .22-48-.03-10.67-.01-21.33-.11-32 .06-72.33.16-144.67-.03-217 .06-31.682-.14-63.342.06-95.002-.21-3.36 0-6.66.05-9.99.46 2.69 5.52 8.66 7.45 12.96 12.22-6.63.62-13.16.07-19.97.08-11.33.02-22.68.2-34 .01-4.43-.07-8.74-.14-13.14.53 3.16 4.48 8.48 6.36 12.65 10.33 3.74 3.63 7.68 7.06 11.36 10.73-1.6 2-3.8 1.07-6.05 1.07-7.59-.83-15.24-.96-22.85-1.63-9.57-.65-19.63-3.75-29.16-3.58 2.46 6.83 11.73 10.57 14.09 17.58-11.3 1.08-23.61-2.52-34.64-5.06-7.61-1.68-14.87-4.47-22.4-6.33 2 3.72 4.55 6.79 6.11 10.78-8.12-.74-16.13-4.08-23.25-7.88-9.59-5.64-19.74-11.38-27.06-19.87-5.85-6.77-11.97-14.16-15.35-22.53-4.17-10.66-7.5-21.2-7.23-32.79-.57-13.23 2.09-26.44 7.49-38.5 2.6-5.84 6.3-10.76 9.99-15.91 7-10.23 18.41-17.84 28.98-23.99a87.496 87.496 0 0 1 28.07-10.57c-2.64 4.4-6.1 8.13-8.71 12.57 12.9-4.11 25.57-8.45 39-10.62 6.02-.89 12.05-2.15 18.11-2.67Z"
  /><path
    fill="#b2f2fb"
    d="M163.426 50.311c-3.55 5.96-9.1 10.6-12.95 16.45 6.06-.91 11.9-2.75 17.93-3.78 8.62-1.54 17.49-2.62 26.2-3.34 13.73-.63 28.36-.91 41.75 2.59-4.29 4.43-9.56 7.97-13.74 12.63 8.77.34 17.47.66 26.12 2.17 5.63.98 11.79 1.79 17 4.15-3.31 3.7-7.79 6.46-11.8 9.41-5.49 3.99-10.98 8.02-16.2 12.36 9.96-.03 19.9.49 29.85.42 18.32-.61 36.65.44 55-.16 12.352-.4 24.652.32 37.002.15 8.01.15 16-.39 24-.06 10.68.3 21.33-.35 32 0 8.04-.26 15.96-.26 24 .04 29.66.02 59.34.03 89-.01 11.68-.62 23.32.43 35-.11 53.5.28 107.45.06 161 .15 4.46 0 8.96.15 13.41-.21-.59-1.24-1.27-2.43-1.82-3.69 8.19-3.45 16.5-4.03 25.25-4.54-2.61-3.47-5.67-6.03-7.83-9.61 6.52-2.46 14.15-2.39 21.02-2.18 10.2.4 19.68 3.81 29.7 4.99-1.81-4.17-4.47-7.61-6.59-11.56 10.75 2.52 21.53 5.94 31.22 11.32 5.35 2.76 10.17 6.44 15.58 9.01-.58-4.26-1.89-8.22-2.75-12.39 11.32 7.91 20.44 19.51 26.88 31.64 5.28 10.48 8.47 22.11 10.29 33.67 2.78 17.51.53 35.15-4.91 51.92-3 10.08-8.4 18.97-14.44 27.5-4.86 6.86-10.98 12.84-17.8 17.76 1.23-4.33 2.8-8.42 3.6-12.89-4.11 2.04-7.81 4.86-11.81 7.13-11.04 6.82-23.02 11.83-35.65 14.82 2.51-4.11 5.32-7.98 7.56-12.28-14.99 4.35-29.02 8.23-44.88 6.62-1.97-.34-3.83-.47-5.33-1.94 2.05-3.26 4.6-5.85 6.91-8.86-9.08.36-17.88-.33-26.39-3.73 1.17-2.23 2.9-3.67 4.53-5.54-2.91-.22-5.84-.25-8.76-.25-154.66 0-309.32-.01-463.992-.01-9.95-.03-19.86-.19-29.79.43 9.28 7.73 19.34 14.31 28.73 21.86-14.25 4.78-29.74 6.44-44.72 6.19 4.55 4.24 10.25 8 14.1 12.82-4.22 1.61-9.12 1.98-13.6 2.35-24.16 2.2-49.06-1.47-72.48-7.29 4.2 5.75 9.89 10.58 13.54 16.62-5.71-.52-11.48-2.15-17.05-3.52-15.04-3.95-29.76-8.43-43.76-15.28-6.09-2.67-11.92-5.79-17.87-8.74 1.93 5.88 4.89 11.58 6.73 17.51-5.27-2.5-10.13-6.34-14.82-9.8-4.79-3.54-8.85-7.77-12.97-12.02-18.88-18.86-30.42-43.94-33.71-70.32-2.17-17.29-.19-34.74 4.96-51.35 8.7-27.38 27.4-51 51.57-66.39a26.617 26.617 0 0 1 4.14-1.89c-1.08 5.97-3.99 10.74-5.89 16.73 6.2-2.48 11.64-6.17 17.73-8.94 11.24-5.47 23-9.49 34.99-12.96 8.49-2.33 17.22-5.05 26.01-5.77Zm-18.94 31.9c-13.43 2.17-26.1 6.51-39 10.62 2.61-4.44 6.07-8.17 8.71-12.57a87.496 87.496 0 0 0-28.07 10.57c-10.57 6.15-21.98 13.76-28.98 23.99-3.69 5.15-7.39 10.07-9.99 15.91-5.4 12.06-8.06 25.27-7.49 38.5-.27 11.59 3.06 22.13 7.23 32.79 3.38 8.37 9.5 15.76 15.35 22.53 7.32 8.49 17.47 14.23 27.06 19.87 7.12 3.8 15.13 7.14 23.25 7.88-1.56-3.99-4.11-7.06-6.11-10.78 7.53 1.86 14.79 4.65 22.4 6.33 11.03 2.54 23.34 6.14 34.64 5.06-2.36-7.01-11.63-10.75-14.09-17.58 9.53-.17 19.59 2.93 29.16 3.58 7.61.67 15.26.8 22.85 1.63 2.25 0 4.45.93 6.05-1.07-3.68-3.67-7.62-7.1-11.36-10.73-4.17-3.97-9.49-5.85-12.65-10.33 4.4-.67 8.71-.6 13.14-.53 11.32.19 22.67.01 34-.01 6.81-.01 13.34.54 19.97-.08-4.3-4.77-10.27-6.7-12.96-12.22 3.33-.41 6.63-.46 9.99-.46 31.66.27 63.32.07 95.002.21 72.33-.09 144.67.1 217-.06 10.67-.17 21.33-.07 32-.06 16 .25 32-.2 48 .03 16.67.28 33.34-.07 50-.06 19.34.3 38.79-.42 58.12.23-.18.99-.41 1.97-.59 2.96 4.94 1.01 10.43 0 15.47.06 7.3.01 14.67-.45 21.95.13-3.45 6.31-9.29 9.85-13.04 15.74 1.31.49 2.48.65 3.86.6 10.47-.43 20.2-3.75 30.29-5.3-1.57 5.59-5.66 9.29-7.98 14.41 6.44-.14 12.8-2.9 19.08-4.68 5.4-1.53 10.33-4.14 15.61-5.96-1.25 2.92-2.71 5.69-3.69 8.74 6.59-1.35 11.53-5.04 16.7-9.1 6.06-4.87 12.19-9.92 16.42-16.53 6.75-10.62 11.21-22.51 11.46-35.21.93-15.38-1.7-30.68-9.64-44.04-4.66-8.34-11.96-14.86-19.72-20.29-4.65-2.96-9.79-6.15-15.37-6.79.77 3.16 2.36 5.86 3.91 8.67-5.19-2.21-10.41-4.18-15.92-5.45-6.69-1.52-12.12-4.19-18.9-3.93 2.21 4.98 6.33 8.22 7.84 13.66-10.91-1.18-22.17-4.13-33.77-3.61 3.58 6.09 8.98 9.91 12.8 15.73-8.56.88-17.29.29-25.89.4-3.78.11-8.43-.63-11.82 1.22-1.97.98-3.87 1.61-6.11 1.56-162.29-.08-324.76-.03-487.072-.04-5.28-.02-10.69.01-15.94-.56 3.61-4.99 8.48-7.6 12.75-12.23-9.94-.19-19.86.28-29.81-.06-12.28-.34-24.77.78-36.98-.53 3.65-4.81 8.76-6.48 13.01-10.7 3.35-3.41 7.27-6.66 9.92-10.65-7.25-.52-14.68.26-21.95.64-11.23.49-23.28 3.77-34.87 3.73 2.91-5.88 7.76-8.96 11.85-13.75 1-1.27 2.54-3.22 1.03-4.7-6.06.52-12.09 1.78-18.11 2.67Z"
  /><path
    fill="#02b3f7"
    d="M219.496 10.811c-5.27 5.18-11.3 9.61-16.83 14.51-3.79 3.42-8.39 6.45-11.14 10.69 6.05.37 11.91-.45 18.04-.43 14.99-.01 30.23.95 44.99 3.67 15.57 2.39 30.87 6.98 45.7 12.22 2.81.99 5.69 2.04 8.19 3.64-4.47 4.54-9.65 8.32-14.17 12.82-3.72 3.74-8.52 6.62-11.67 10.79 6.29.49 12.67.08 18.98.15 134.002.04 268.002.08 402.002.03 4.88.02 9.27.52 13.77-1.81 12.83-6.49 27.22-10.02 41.46-11.56 7-.78 13.8.42 20.77.35-.61-1.51-1.38-2.94-2.41-4.21-4.2-5.1-9.74-9.72-13.38-15.24 10.81.32 21.57 1.76 32.03 4.54 16.45 3.71 31.96 10.69 45.92 20.09 16.15 10.98 28.78 26.62 36.44 44.56 5.68 13.35 8.6 28 9.73 42.41 1.61 30.5-6.69 61.47-26.25 85.28-6.43 7.31-14.18 14.24-22.15 19.83-9.6 6.13-19.81 11.67-30.6 15.4-14.15 5.14-29.33 8.68-44.4 9.15 3.77-7.39 11.7-12.01 15.91-19.31-4.36-.08-8.54.35-12.87.45-18.18.27-36-3.79-52.64-10.97-4.3-2.18-8.38-3.81-13.31-3.53-24.68.34-49.35.02-74.02.13-73.34-.04-146.67.09-220-.01-34.67.16-69.33-.32-104.002 0-6.97.11-14-.27-20.95.27 2.26 3.38 5.26 5.57 8.3 8.16 3.27 2.73 6.29 5.71 9.51 8.49 2.59 2.24 5.16 4.22 7.37 6.83-4.75 2.99-10.35 4.84-15.64 6.63-25.74 8.3-52.49 13.42-79.59 13.19-7.34.16-14.63-.77-21.94-.57 3.13 3.67 6.8 6.19 10.48 9.23 3.68 2.99 7.12 6.23 10.82 9.18 2.4 1.9 4.73 3.78 6.7 6.14-8.3.57-16.79-.5-25.1-.93-10.02-.55-19.89-2.09-29.69-4.13-19.13-3.47-38.18-9.02-55.81-17.21-18.02-7.74-34.56-18.72-48.92-32.05-7.9-7.84-15.21-16.4-21.27-25.73-10.22-16.55-17.7-35.39-20.28-54.73-3.47-25.54-.63-51.72 9.57-75.48 3.45-7.51 6.68-14.7 11.5-21.43 8.8-13.08 19.67-25.23 32.32-34.69 20.2-15.89 44.83-26.69 69.47-33.52 12.86-4.12 25.73-5.65 38.99-8.15 13.27-1.74 26.7-2.64 40.07-3.14Zm-82.08 45.27c-11.99 3.47-23.75 7.49-34.99 12.96-6.09 2.77-11.53 6.46-17.73 8.94 1.9-5.99 4.81-10.76 5.89-16.73a26.617 26.617 0 0 0-4.14 1.89c-24.17 15.39-42.87 39.01-51.57 66.39-5.15 16.61-7.13 34.06-4.96 51.35 3.29 26.38 14.83 51.46 33.71 70.32 4.12 4.25 8.18 8.48 12.97 12.02 4.69 3.46 9.55 7.3 14.82 9.8-1.84-5.93-4.8-11.63-6.73-17.51 5.95 2.95 11.78 6.07 17.87 8.74 14 6.85 28.72 11.33 43.76 15.28 5.57 1.37 11.34 3 17.05 3.52-3.65-6.04-9.34-10.87-13.54-16.62 23.42 5.82 48.32 9.49 72.48 7.29 4.48-.37 9.38-.74 13.6-2.35-3.85-4.82-9.55-8.58-14.1-12.82 14.98.25 30.47-1.41 44.72-6.19-9.39-7.55-19.45-14.13-28.73-21.86 9.93-.62 19.84-.46 29.79-.43 154.672 0 309.332.01 463.992.01 2.92 0 5.85.03 8.76.25-1.63 1.87-3.36 3.31-4.53 5.54 8.51 3.4 17.31 4.09 26.39 3.73-2.31 3.01-4.86 5.6-6.91 8.86 1.5 1.47 3.36 1.6 5.33 1.94 15.86 1.61 29.89-2.27 44.88-6.62-2.24 4.3-5.05 8.17-7.56 12.28 12.63-2.99 24.61-8 35.65-14.82 4-2.27 7.7-5.09 11.81-7.13-.8 4.47-2.37 8.56-3.6 12.89 6.82-4.92 12.94-10.9 17.8-17.76 6.04-8.53 11.44-17.42 14.44-27.5 5.44-16.77 7.69-34.41 4.91-51.92-1.82-11.56-5.01-23.19-10.29-33.67-6.44-12.13-15.56-23.73-26.88-31.64.86 4.17 2.17 8.13 2.75 12.39-5.41-2.57-10.23-6.25-15.58-9.01-9.69-5.38-20.47-8.8-31.22-11.32 2.12 3.95 4.78 7.39 6.59 11.56-10.02-1.18-19.5-4.59-29.7-4.99-6.87-.21-14.5-.28-21.02 2.18 2.16 3.58 5.22 6.14 7.83 9.61-8.75.51-17.06 1.09-25.25 4.54.55 1.26 1.23 2.45 1.82 3.69-4.45.36-8.95.21-13.41.21-53.55-.09-107.5.13-161-.15-11.68.54-23.32-.51-35 .11-29.66.04-59.34.03-89 .01-8.04-.3-15.96-.3-24-.04-10.67-.35-21.32.3-32 0-8-.33-15.99.21-24 .06-12.35.17-24.65-.55-37.002-.15-18.35.6-36.68-.45-55 .16-9.95.07-19.89-.45-29.85-.42 5.22-4.34 10.71-8.37 16.2-12.36 4.01-2.95 8.49-5.71 11.8-9.41-5.21-2.36-11.37-3.17-17-4.15-8.65-1.51-17.35-1.83-26.12-2.17 4.18-4.66 9.45-8.2 13.74-12.63-13.39-3.5-28.02-3.22-41.75-2.59-8.71.72-17.58 1.8-26.2 3.34-6.03 1.03-11.87 2.87-17.93 3.78 3.85-5.85 9.4-10.49 12.95-16.45-8.79.72-17.52 3.44-26.01 5.77Z"
  /><path
    fill="#037cf7"
    d="M200.566.331c10.39-.85 20.58.16 30.97.56 3.46.27 7.27.54 10.5 1.91 3.54 1.97 3.85 7.21 1.07 9.98-5.15 4.6-12.44 6.43-17.62 10.81 12.6.69 24.91.95 37.35 3.27 18.56 2.87 37.34 6.85 55.1 13.01 3.86 1.36 8.1 2.33 11.65 4.37 3.62 2.07 3.64 7.91.3 10.28-3.92 3.15-8.31 5.65-12.31 8.7-1.84 1.44-4.42 2.94-5.27 5.18 5.35.65 10.87.31 16.28.38 120.672-.06 241.332 0 362.002-.03 4.29-.08 8.75.37 12.99-.28 4.06-1.06 7.83-3.13 11.82-4.44 8.55-2.88 17.33-5.22 26.26-6.57 5.88-.96 11.9-1.04 17.86-1.68-3.17-2.68-7.11-4.54-10.01-7.48-2.38-2.17-2.13-6.8 1.01-8.16 3.26-1.52 7.51-1.45 11.05-1.77 8-.83 15.64.25 23.72.57 25.16 2.69 50.03 10.86 70.37 26.21 10.24 7.53 18.27 17.19 25.39 27.62 11.92 18.87 18.14 40.32 20.15 62.44.42 9.96.49 20.09-.92 29.98-1.96 13.67-5.23 27.07-11.09 39.62-12.34 28.94-37.35 51.75-67.04 61.98-17.19 6.54-35.24 8.88-53.56 8.78-5.46-.04-11.18.02-16.55-1-1.7-.35-3.21-1.19-3.91-2.85-.5-2.27.07-4.52 1.86-6.07 2.91-2.62 6.44-4.49 9.46-7-6.82-.84-13.6-.57-20.38-1.82-12.74-1.89-25.09-4.91-36.85-10.27-2.44-1.12-4.84-2.09-7.58-2.08-6.35-.05-12.7.16-19.05.09-120-.03-240.04.06-360.032-.06-1.37.03-2.72.09-4.09.19 5.02 6.34 13.62 9.64 19.33 15.33 2.38 2.59 1.69 8.17-1.74 9.67-3.44 1.76-7.33 2.67-10.91 4.11-10.56 4.3-22.12 7.02-33.23 9.69-12.85 2.69-26.2 5.13-39.34 5.59-6.34.58-12.69.35-19.03.75.58.91 1.24 1.62 2.15 2.21 4.16 2.62 8.91 4.37 13 7.08 2.1 1.38 3.53 3.54 3.47 6.1.02 2.93-2.29 5.79-5.24 6.15-13.28 1.61-25.99 1.55-39.34 1.72-14.8-.14-29.29-.35-43.86-2.16-19.04-3-37.27-6.4-55.27-13.57-23.25-8.85-44.81-23.01-61.52-41.51-16.39-18.28-27.7-40.44-33.84-64.17-3.09-10.67-4.68-21.58-5.81-32.61-.76-11.79.3-23.44-.25-35.22.25 2.5.38 4.98.78 7.45 1.21-14.57 4.56-28.62 9.58-42.33 10.51-28.27 29.9-53.1 54.79-70.14a169.171 169.171 0 0 1 37.66-20.36c21.85-8.85 45.28-13.76 68.64-16.41 9.68-.77 19.38-1.29 29.08-1.74Zm-21.14 13.62c-13.26 2.5-26.13 4.03-38.99 8.15-24.64 6.83-49.27 17.63-69.47 33.52-12.65 9.46-23.52 21.61-32.32 34.69-4.82 6.73-8.05 13.92-11.5 21.43-10.2 23.76-13.04 49.94-9.57 75.48 2.58 19.34 10.06 38.18 20.28 54.73 6.06 9.33 13.37 17.89 21.27 25.73 14.36 13.33 30.9 24.31 48.92 32.05 17.63 8.19 36.68 13.74 55.81 17.21 9.8 2.04 19.67 3.58 29.69 4.13 8.31.43 16.8 1.5 25.1.93-1.97-2.36-4.3-4.24-6.7-6.14-3.7-2.95-7.14-6.19-10.82-9.18-3.68-3.04-7.35-5.56-10.48-9.23 7.31-.2 14.6.73 21.94.57 27.1.23 53.85-4.89 79.59-13.19 5.29-1.79 10.89-3.64 15.64-6.63-2.21-2.61-4.78-4.59-7.37-6.83-3.22-2.78-6.24-5.76-9.51-8.49-3.04-2.59-6.04-4.78-8.3-8.16 6.95-.54 13.98-.16 20.95-.27 34.672-.32 69.332.16 104.002 0 73.33.1 146.66-.03 220 .01 24.67-.11 49.34.21 74.02-.13 4.93-.28 9.01 1.35 13.31 3.53 16.64 7.18 34.46 11.24 52.64 10.97 4.33-.1 8.51-.53 12.87-.45-4.21 7.3-12.14 11.92-15.91 19.31 15.07-.47 30.25-4.01 44.4-9.15 10.79-3.73 21-9.27 30.6-15.4 7.97-5.59 15.72-12.52 22.15-19.83 19.56-23.81 27.86-54.78 26.25-85.28-1.13-14.41-4.05-29.06-9.73-42.41-7.66-17.94-20.29-33.58-36.44-44.56-13.96-9.4-29.47-16.38-45.92-20.09-10.46-2.78-21.22-4.22-32.03-4.54 3.64 5.52 9.18 10.14 13.38 15.24 1.03 1.27 1.8 2.7 2.41 4.21-6.97.07-13.77-1.13-20.77-.35-14.24 1.54-28.63 5.07-41.46 11.56-4.5 2.33-8.89 1.83-13.77 1.81-134 .05-268 .01-402.002-.03-6.31-.07-12.69.34-18.98-.15 3.15-4.17 7.95-7.05 11.67-10.79 4.52-4.5 9.7-8.28 14.17-12.82-2.5-1.6-5.38-2.65-8.19-3.64-14.83-5.24-30.13-9.83-45.7-12.22-14.76-2.72-30-3.68-44.99-3.67-6.13-.02-11.99.8-18.04.43 2.75-4.24 7.35-7.27 11.14-10.69 5.53-4.9 11.56-9.33 16.83-14.51-13.37.5-26.8 1.4-40.07 3.14Z"
  />
</svg>
