<svg xmlns="http://www.w3.org/2000/svg" viewBox="0 0 454.074 333.101">
  <path
    fill="#037cf7"
    d="M200.566.331c10.39-.85 20.58.16 30.97.56 3.46.27 7.27.54 10.5 1.91 3.54 1.97 3.85 7.21 1.07 9.98-5.15 4.6-12.44 6.43-17.62 10.81 12.6.69 24.91.95 37.35 3.27 18.56 2.87 34.056 10.08 51.804 16.273 8.566 2.989 12.405 8.565 5.534 14.374-3.84 3.247-14.053 10.395-14.903 12.635 4.545.552 29.659-.002 53.167 4.299 6.973 1.276 10.699 4.236 4.356 11.745-1.553 1.838-7.67 6.851-12.997 11.488 11.462 1.607 38.892 10.137 46.477 12.222 11.993 3.296 6.937 8.847-1.476 12.728-4.84 2.233-14.496 6.152-19.435 11.05 7.2 3.809 47.007 12.495 73.045 24.019 8.793 3.892 7.184 6.722-3.658 12.63-21.701 11.826-52.676 20.537-62.712 26.995 7.903 7.246 3.638 2.138 21.693 13.052 10.473 6.331 6.601 13.862-4.723 15.347-24.776 3.25-32.823 6.356-44.694 6.925 5.531 5.318 6.531 6.163 11.746 10.935 4.317 3.95 1.945 9.629-10.529 11.241-26.985 3.486-45.436 6.88-46.806 6.98 5.02 6.34 5.03 5.039 10.74 10.729 6.974 7.49-2.614 14.981-24.443 23.164-12.293 4.608-37.072 11.255-50.212 11.715-6.34.58-11.924 2.034-18.264 2.434.58.91 1.24 1.62 2.15 2.21 4.16 2.62 8.91 4.37 13 7.08 2.1 1.38 3.53 3.54 3.47 6.1.02 2.93-2.29 5.79-5.24 6.15-13.28 1.61-25.99 1.55-39.34 1.72-14.8-.14-29.29-.35-43.86-2.16-19.04-3-37.27-6.4-55.27-13.57-23.25-8.85-44.81-23.01-61.52-41.51-16.39-18.28-27.7-40.44-33.84-64.17-3.09-10.67-4.68-21.58-5.81-32.61-.76-11.79.3-23.44-.25-35.22.25 2.5.38 4.98.78 7.45 1.21-14.57 4.56-28.62 9.58-42.33 10.51-28.27 29.9-53.1 54.79-70.14a169.033 169.033 0 0 1 37.66-20.36c21.85-8.85 45.28-13.76 68.64-16.41 9.68-.77 19.38-1.29 29.08-1.74Z"
  /><path
    fill="#02b3f7"
    d="M219.496 10.811c-5.27 5.18-11.3 9.61-16.83 14.51-3.79 3.42-8.39 6.45-11.14 10.69 6.05.37 11.91-.45 18.04-.43 14.99-.01 30.23.95 44.99 3.67 15.57 2.39 30.87 6.98 45.7 12.22 2.81.99 5.69 2.04 8.19 3.64-4.47 4.54-9.65 8.32-14.17 12.82-3.72 3.74-8.52 6.62-11.67 10.79 6.29.49 53.567.709 70.732 4.818-14.185 9.665-27.139 15.553-32.405 23.405 22.244.034 43.634 2.425 65.591 9.064-17.007 8.603-19.554 10.504-32.197 20.724 13.577 7.104 57.247 14.382 80.751 26.329-24.445 14.364-65.422 22.938-83.351 30.167 9.043 5.815 18.646 17.132 38.992 24.991-22.302 4.659-42.846 3.176-60.495 5.675 2.44 8.744 10.182 14.619 19.438 21.504-23.379 5.411-60.076 8.783-67.026 9.323 2.26 3.38 5.26 5.57 8.3 8.16 3.27 2.73 6.29 5.71 9.51 8.49 2.59 2.24 5.16 4.22 7.37 6.83-4.75 2.99-10.35 4.84-15.64 6.63-25.74 8.3-52.49 13.42-79.59 13.19-7.34.16-14.63-.77-21.94-.57 3.13 3.67 6.8 6.19 10.48 9.23 3.68 2.99 7.12 6.23 10.82 9.18 2.4 1.9 4.73 3.78 6.7 6.14-8.3.57-16.79-.5-25.1-.93-10.02-.55-19.89-2.09-29.69-4.13-19.13-3.47-38.18-9.02-55.81-17.21-18.02-7.74-34.56-18.72-48.92-32.05-7.9-7.84-15.21-16.4-21.27-25.73-10.22-16.55-17.7-35.39-20.28-54.73-3.47-25.54-.63-51.72 9.57-75.48 3.45-7.51 6.68-14.7 11.5-21.43 8.8-13.08 19.67-25.23 32.32-34.69 20.2-15.89 44.83-26.69 69.47-33.52 12.86-4.12 25.73-5.65 38.99-8.15 13.27-1.74 26.7-2.64 40.07-3.14Z"
  /><path
    fill="#b2f2fb"
    d="M163.426 50.311c-3.55 5.96-9.1 10.6-12.95 16.45 6.06-.91 11.9-2.75 17.93-3.78 8.62-1.54 17.49-2.62 26.2-3.34 13.73-.63 28.36-.91 41.75 2.59-4.29 4.43-9.56 7.97-13.74 12.63 8.77.34 17.47.66 26.12 2.17 5.63.98 11.79 1.79 17 4.15-3.31 3.7-7.79 6.46-11.8 9.41-5.49 3.99-6.897 5.395-12.117 9.735 9.96-.03 49.471-4.062 58.691-1.332-9.101 8.289-24.967 13.928-30.141 21.209 10.622 2.519 46.972-1.02 66.421 4.698-13.371 7.843-31.8 14.048-42.583 20.19 8.01.15 74.014 8.483 96.621 16.847-20.556 10.477-79.676 18.506-93.717 25.186 6.529 5.746 28.961 11.677 38.937 18.92-11.989 1.788-57.562-1.751-70.098.959 13.188 3.617 32.339 16.914 45.142 24.883-14.525 5.23-63.949 1.786-73.879 2.406 9.28 7.73 19.923 10.519 29.313 18.069-14.25 4.78-29.74 6.44-44.72 6.19 4.55 4.24 10.25 8 14.1 12.82-4.22 1.61-9.12 1.98-13.6 2.35-24.16 2.2-49.06-1.47-72.48-7.29 4.2 5.75 9.89 10.58 13.54 16.62-5.71-.52-11.48-2.15-17.05-3.52-15.04-3.95-29.76-8.43-43.76-15.28-6.09-2.67-11.92-5.79-17.87-8.74 1.93 5.88 4.89 11.58 6.73 17.51-5.27-2.5-10.13-6.34-14.82-9.8-4.79-3.54-8.85-7.77-12.97-12.02-18.88-18.86-30.42-43.94-33.71-70.32-2.17-17.29-.19-34.74 4.96-51.35 8.7-27.38 27.4-51 51.57-66.39a26.2 26.2 0 0 1 4.14-1.89c-1.08 5.97-3.99 10.74-5.89 16.73 6.2-2.48 11.64-6.17 17.73-8.94 11.24-5.47 23-9.49 34.99-12.96 8.49-2.33 17.22-5.05 26.01-5.77Z"
  /><path
    fill="#fffffe"
    d="M162.596 79.541c1.51 1.48-.03 3.43-1.03 4.7-4.09 4.79-8.94 7.87-11.85 13.75 11.59.04 23.64-3.24 34.87-3.73 7.27-.38 14.7-1.16 21.95-.64-2.65 3.99-6.57 7.24-9.92 10.65-4.25 4.22-9.36 5.89-13.01 10.7 12.21 1.31 24.7.19 36.98.53 9.95.34 19.87-.13 29.81.06-4.27 4.63-29.002 13.285-33.303 17.411 5.422 2.642 52.111-1.532 57.391.561 8.673 3.438-48.451 13.544-39.762 16.193 24.736 7.542 62.737 13.56 82.428 14.715-19.172 3.254-57.538 16.126-82.079 15.996-5.989-.031 49.142 13.283 43.085 14.657-4.569 1.037-54.847 5.404-58.177 5.814 2.69 5.52 26.277 12.113 30.577 16.883-6.63.62-13.16.07-19.97.08-11.33.02-22.68.2-34 .01-4.43-.07-8.74-.14-13.14.53 3.16 4.48 8.48 6.36 12.65 10.33 3.74 3.63 7.68 7.06 11.36 10.73-1.6 2-3.8 1.07-6.05 1.07-7.59-.83-15.24-.96-22.85-1.63-9.57-.65-19.63-3.75-29.16-3.58 2.46 6.83 11.73 10.57 14.09 17.58-11.3 1.08-23.61-2.52-34.64-5.06-7.61-1.68-14.87-4.47-22.4-6.33 2 3.72 4.55 6.79 6.11 10.78-8.12-.74-16.13-4.08-23.25-7.88-9.59-5.64-19.74-11.38-27.06-19.87-5.85-6.77-11.97-14.16-15.35-22.53-4.17-10.66-7.5-21.2-7.23-32.79-.57-13.23 2.09-26.44 7.49-38.5 2.6-5.84 6.3-10.76 9.99-15.91 7-10.23 18.41-17.84 28.98-23.99a87.444 87.444 0 0 1 28.07-10.57c-2.64 4.4-6.1 8.13-8.71 12.57 12.9-4.11 25.57-8.45 39-10.62 6.02-.89 12.05-2.15 18.11-2.67Z"
  />
</svg>
