<svg xmlns="http://www.w3.org/2000/svg" viewBox="0 0 100 78.253">
  <path
    d="m15.768 18.724-13.197.379 9.409 10.552 3.788-10.931Z"
    fill="#6e6e6e"
  />
  <path
    d="m68.748 0 2.589 3.422c6.39 8.447 3.891 18.993 2.54 23.098a21.826 21.826 0 0 1 2.355 5.611c1.495 5.764.198 11.21-3.75 15.75-3.079 3.542-7.234 5.681-11.7 6.024-.436.033-.875.05-1.314.05-4.237 0-8.581-1.55-12.644-4.526a21.352 21.352 0 0 1-7.169-9.179l-.713-1.752L68.748 0Z"
    fill="#b0b0b0"
    data-player="true"
  />
  <path
    d="m38.499 38.941 1.753.713a21.352 21.352 0 0 1 9.179 7.169c3.284 4.484 4.831 9.31 4.475 13.958-.342 4.465-2.482 8.621-6.024 11.7-3.316 2.884-7.116 4.353-11.17 4.353-1.495 0-3.026-.2-4.58-.603a21.793 21.793 0 0 1-5.611-2.356c-4.105 1.353-14.652 3.851-23.098-2.539L0 68.747l38.499-29.806Z"
    fill="#9c9c9c"
    data-player="true"
  />
  <path
    d="m27.885 32.072.608-.986 13.589-4.813 1.446 1.264c.176.153 17.678 15.383 29.35 20.247 6.358 2.465 13.929 3.571 14.003 3.581L100 53.239 78.584 60.91l10.957 18.546-9.877-4.859c-.146-.072-14.886-7.233-30.725-7.233-7.191 0-13.375-2.367-17.884-6.846-4.256-4.229-6.601-10.022-6.601-16.313a23.112 23.112 0 0 1 3.431-12.133Z"
    fill="#ebebeb"
  />
  <path
    d="M28.685 11.584c9.639 0 17.481 7.84 17.481 17.479 0 .231-.009.459-.018.687 5.345 4.434 17.759 14.295 26.73 18.033 6.358 2.466 13.929 3.571 14.003 3.582L100 53.239 78.584 60.91l10.957 18.546-9.877-4.859c-.099-.049-6.846-3.326-16.093-5.452-8.743-4.131-18.299-10.126-22.664-17.894-2.026-3.604-2.26-6.416-2.193-7.884a17.372 17.372 0 0 1-10.029 3.177c-9.639 0-17.481-7.842-17.481-17.481 0-9.638 7.842-17.479 17.481-17.479Z"
    fill="#d9d9d9"
    data-player="true"
  />
  <circle cx="24.89" cy="27.431" r="3.284" fill="#6e6e6e" />
  <path
    d="M18.9 14.586a17.376 17.376 0 0 1 9.785-3.004c5.132 0 9.754 2.225 12.955 5.758a15.473 15.473 0 0 1-10.106 3.74c-5.207 0-9.814-2.564-12.634-6.494Z"
    fill="#b0b0b0"
    data-player="true"
  />
</svg>
