<svg xmlns="http://www.w3.org/2000/svg" viewBox="0 0 100 78.253">
  <path
    fill="#6e6e6e"
    d="M16.565 27.592 0 36.628l18.864-.456-2.299-8.58Z"
  /><path
    fill="#a1a1a1"
    d="M80.638 0c4.76 6.144 10.542 34.995-8.688 51.233L100 77.78a22.802 22.802 0 0 1-20.941-6.405l-.22-.226-.87.224a64.893 64.893 0 0 1-31.634.077C32.194 67.92 22.247 55.253 22.17 40.681c-6.528-3.774-8.763-12.115-4.996-18.647.078-.141.158-.272.242-.404 4.412-7.081 14.234-8.257 20.393-2.708.16.15.311.302.457.465 1.405 1.565 9.719 10.612 13.406 9.643C61.715 26.394 80.638 0 80.638 0Z"
    data-player="true"
  /><path
    fill="#6e6e6e"
    d="M72.865 22.766c-1.257-.003-2.038-1.36-1.411-2.453a1.62 1.62 0 0 1 1.388-.811c7.524-.048 11.19-1.616 12.351-2.229.064 1.182.088 2.367.073 3.552-.628.251-1.393.511-2.316.759-2.309.618-5.588 1.149-10.085 1.182ZM71.63 34.001c-1.256-.001-2.039-1.361-1.41-2.446a1.633 1.633 0 0 1 1.387-.814c6.72-.045 11.008-1.423 12.966-2.242a45.516 45.516 0 0 1-.815 3.768c-.417.133-.864.265-1.35.395-2.586.693-6.167 1.308-10.778 1.339Zm-3.536 11.22c-1.255-.002-2.037-1.359-1.408-2.443a1.621 1.621 0 0 1 1.388-.812c8.763-.058 12.542-2.234 13.041-2.551-.733 1.534-1.636 3.076-2.607 4.537l-.186.049c-2.382.638-5.734 1.189-10.228 1.22Z"
    data-player="true"
  /><circle
    cx="28.996"
    cy="28.859"
    r="3.22"
    fill="#6e6e6e"
  /><path
    fill="#e6e6e6"
    d="M34.82 49.388c3.582 13.957 16.07 23.754 30.437 23.95a64.795 64.795 0 0 1-19.162-1.828c-12.62-3.147-21.635-13.476-23.541-26.038l12.266 3.916Z"
  />
</svg>
