<?xml version="1.0" encoding="utf-8"?>
<svg xmlns="http://www.w3.org/2000/svg" viewBox="0 0 913.638 859.522">
  <path
    d="M 225.54 824.9 C 121.17 437.608 354.46 74.905 634.618 191.248 C 635.223 191.498 674.716 200.838 696.19 202.838 C 714.521 204.538 781.062 203.308 830.58 226.098 C 858.819 239.088 878.674 256.978 880.537 259.358 C 914.085 302.108 927.25 339.118 895.618 389.248 C 741.44 425.568 683.124 531.158 873.785 629.663 C 873.332 644.741 864.692 661.104 857.812 674.046 C 846.131 692.237 793.736 729.986 615.584 673.672 C 550.125 652.98 505.079 851.271 497.549 852.148 C 405.649 862.846 320.29 867.707 225.54 824.9 Z"
    fill="#FADCA0"
  />
  <path
    d="M 293.62 45.245 C 301.89 6.895 396.136 -19.995 455.618 19.245 C 505.467 -21.145 605.743 4.925 598.618 77.245 C 615.733 75.145 650.368 89.608 651.993 114.998 C 651.804 122.398 645.746 134.348 633.723 142.318 C 607.823 147.948 407.833 210.848 354.62 193.248 C 350.98 243.828 306.03 292.138 241.62 271.248 C 227.42 317.868 184.1 339.558 144.62 323.248 C 132.32 367.088 84.51 389.588 51.25 361.028 C 15.96 304.148 43.32 271.498 79.62 252.248 C 65.83 191.508 96.54 140.378 155.62 133.248 C 165.32 82.825 214.74 34.545 293.62 45.245 Z"
    fill="#FEF9E7"
  />
  <path
    d="M 277.76 421.688 C 305.79 432.568 328.89 463.468 324.62 501.248 C 375.07 512.438 402.86 587.966 349.62 638.252 C 393.78 714.026 324.65 774.434 269.62 764.252 C 274.73 850.241 160.37 835.533 149.62 784.252 C 97.44 785.38 41.71 717.511 73.62 660.252 C 58.18 644.96 46.3 618.773 46.62 602.252 C 51.63 603.186 276.64 424.178 277.76 421.688 Z"
    fill="#FEF7E3"
  />
  <path
    data-player="true"
    d="M 296.62 317.248 C 296.52 456.108 134.45 545.87 110.49 544.628 C 61.79 542.108 35.71 531.608 8.86 506.598 C 3.71 501.198 0.33 496.098 0 488.498 C 0.39 482.218 2.69 478.998 7.32 474.808 C 12.87 469.938 21.24 467.098 22.07 466.678 C 88.1 433.518 134.27 377.278 140.62 372.248 C 141.21 371.778 231.35 317.159 296.62 317.248 Z"
    fill="#6c6863"
  />
  <path
    d="M 880.481 259.278 C 888.581 267.948 893.395 274.008 897.861 284.338 C 897.065 290.908 900.413 306.498 873.618 306.248 C 873.394 310.038 891.99 351.378 884.634 380.798 C 884.121 390.878 891.954 387.828 895.618 389.248 C 884.094 401.888 867.814 406.408 851.909 411.038 C 820.788 420.108 792.544 432.868 775.337 462.098 C 766.167 478.938 764.135 497.068 769.423 515.468 C 780.247 549.743 805.728 572.506 836.418 589.052 C 860.018 601.92 859.931 602.656 862.211 608.828 C 793.695 683.042 659.345 592.423 645.033 530.668 C 641.139 507.968 650.849 486.668 663.482 468.588 C 696.922 424.688 755.075 407.818 807.185 398.428 C 840.38 394.458 877.6 390.898 870.556 349.248 C 866.736 335.618 858.277 325.378 846.06 318.498 C 793.468 286.988 783.456 320.728 769.618 306.248 C 767.466 303.558 761.15 292.858 772.618 280.998 C 783.508 272.678 797.567 273.008 810.618 274.248 C 873.401 288.778 877.973 266.668 880.481 259.278 Z"
    fill="#5A3517"
  />
  <path
    d="M 651.618 114.248 C 662.718 122.828 660.132 172.388 634.618 190.248 C 592.444 192.988 574.766 186.098 560.915 175.248 C 528.712 205.708 499.875 205.348 466.618 199.248 C 452.125 228.788 394.69 240.308 378.62 235.248 C 374.47 295.798 318.97 308.218 296.62 317.248 C 204.7 329.048 155.45 360.188 91.62 420.248 C 79.47 422.108 38.95 390.628 45.62 351.248 C 57.39 363.868 124.71 385.238 143.62 322.248 C 170.82 332.498 232.26 312.238 241.62 271.248 C 278.27 284.008 350.24 261.478 354.62 193.248 C 390.35 201.518 442.024 185.598 456.618 161.248 C 486.604 170.658 528.667 188.638 558.618 127.248 C 567.624 135.998 618.4 163.268 651.618 114.248 Z"
    fill="#E1CDAC"
  />
  <path
    d="M 461.618 660.252 C 536.389 692.657 567.959 655.991 640.618 667.252 C 669.836 671.78 809.931 735.149 857.618 674.252 C 850.576 690.61 811.194 761.848 616.618 678.252 C 593.081 729.309 571.059 803.861 570.762 804.857 C 561.718 835.172 533.496 848.431 497.618 852.252 C 501.193 831.772 512.585 792.294 523.618 755.252 C 480.382 744.65 458.364 698.508 461.618 660.252 Z"
    fill="#E3BA79"
  />
  <path
    data-player="true"
    d="M 286.97 375.178 C 288.14 378.628 276.19 431.128 272.62 439.248 C 259.99 467.968 214.93 540.938 110.49 544.628 C 109.69 544.658 79.62 542.778 65.56 538.878 C 47.45 533.858 36.07 518.438 38.62 506.248 C 41.8 497.428 49.32 492.158 79.2 487.948 C 96.9 485.448 133.58 476.718 134.61 476.498 C 257.07 449.618 283.4 382.728 286.97 375.178 Z"
    fill="#3b332e"
  />
  <path
    d="M 655.571 559.553 C 660.289 556.593 804.479 648.874 842.618 610.252 C 845.633 607.13 849.668 601.582 852.086 597.983 C 856.89 599.091 860.574 603.949 862.224 607.204 C 868.848 627.337 857.929 637.137 844.618 641.252 C 825.07 647.296 739.609 657.865 655.571 559.553 Z"
    fill="#7C4B24"
  />
  <path
    d="M 112.8 543.558 C 238.29 529.278 254.33 464.508 277.72 421.518 C 275.53 477.468 252.09 546.108 171.45 587.619 C 133.23 607.291 88.77 617.985 46.69 602.275 C 45.19 579.412 50.15 557.415 61.89 537.758 C 83.72 543.388 103.09 544.658 112.8 543.558 Z"
    fill="#D7C4A0"
  />
  <path
    d="M 410.224 326.758 C 454.735 260.888 498.979 259.118 538.618 294.248 C 547.05 301.718 543.685 314.208 519.618 299.248 C 530.017 335.428 504.883 350.578 496.618 353.248 C 475.553 360.038 444.005 350.938 440.618 313.248 C 434.807 318.698 422.582 334.668 420.618 336.248 C 416.057 340.828 405.94 337.238 410.224 326.758 Z"
    fill="#4F2B11"
  />
  <path
    d="M 749.243 550.752 C 789.914 585.098 806.272 615.152 806.272 619.279 C 775.561 616.242 744.851 610.593 717.618 596.252 C 703.838 588.996 674.044 573.067 655.411 559.635 C 661.338 555.743 730.653 535.048 749.243 550.752 Z"
    fill="#CA6233"
  />
  <path
    d="M 644.303 516.288 C 688.473 495.548 733.719 537.268 748.794 550.236 C 744.949 551.62 657.489 559.814 655.489 559.814 C 642.694 536.708 644.142 522.988 644.303 516.288 Z"
    fill="#954422"
  />
  <path
    d="M 862.44 607.607 C 865.952 610.543 874.529 620.348 873.78 629.671 C 863.31 637.449 850.237 640.397 847.618 640.252 C 856.622 633.302 866.383 624.431 862.44 607.607 Z"
    fill="#E0B572"
  />
</svg>
