<svg xmlns="http://www.w3.org/2000/svg" viewBox="0 0 607.07 371.712">
  <path
    fill="#d49d03"
    d="M220.09.003c4.02-.11 5.33 3.23 7.33 6-.68 9.14-.26 18.2-.31 27.34-.04 25 .09 50.004-.11 75.004.26 48-.11 96 0 144-.13 8.5.48 16.87-.26 25.36-4.55.19-8.8-.14-13.27-.94-.55-5.15-.57-10.26-.39-15.42.13-45.34-.08-90.66.13-136 .16-4.15-.02-8.19-.48-12.32-8.26-.42-16.46.28-24.71.22-2.21-.08-4.78-.1-6.82-1.04-3.12-1.68-4.18-5.99-2.23-8.94 1.61-2.31 4.7-3.16 7.34-3.61 8.86-1.35 17.47.26 26.55-.37.7-8.97.06-17.92.21-26.94.17-18.004.03-36.004.18-54.004.01-4.08-.13-8.16-.38-12.24 1.86-2.51 3.55-6.23 7.22-6.1ZM331.06.073c4.01.12 4.89 2.9 6.58 5.9-1.01 18.75-.04 37.59-.49 56.37.49 18.914-.35 37.884.51 56.764 12.19 2.32 24.99.78 37.26 2.45 4.38.53 5.28 6.73 3.28 9.87-1.63 2.68-5.31 2.74-8.09 2.85-10.88-.14-21.75-1.28-32.62-1.54-.66 7.55-.24 15.04-.28 22.61.32 24-.11 48 .14 72-.05 21.99-.19 44.01.08 66 .02 2.99-.21 5.95-.41 8.92-4.41.06-8.41-.4-12.7-1.4-.54-4.86-.61-9.64-.42-14.52.13-12.99-.14-26 .14-38.99.07-3.23-.15-6.44-.35-9.66-8.64-2.91-18-4.33-26.96-5.93-2.18-.48-4.93-.93-6.67-2.41-2.47-3.41-1.04-10.33 4.01-10.25 9.63-.41 20.16 3.57 29.72 5.09.39-6.96.05-13.89.1-20.85.06-41.66.01-83.37.09-125.01-.05-1.97-.16-3.93-.25-5.89-10.69 1.85-21.75 4.91-32.61 5.89-8 .55-16.08.28-24.09.03-3.72-.26-8.39-.35-11.62-2.38-4.12-3.32-1.82-10.124 3.15-11.044 6.53-1.05 13.59.76 20.22.72 11.18 0 22.51-1.83 33.41-4.23 4.02-.75 7.84-1.87 11.65-3.31.55-7.61-.01-15.17.06-22.78-.11-9.95.46-19.51-.36-29.38 1.98-3.14 3.1-6.18 7.52-5.89Z"
  /><path
    fill="#f2c339"
    d="M136.08 5.823c25.59.34 51.2-.19 76.79.28.25 4.08.39 8.16.38 12.24-.15 18-.01 36-.18 54.004-.15 9.02.49 17.97-.21 26.94-9.08.63-17.69-.98-26.55.37-2.64.45-5.73 1.3-7.34 3.61-1.95 2.95-.89 7.26 2.23 8.94 2.04.94 4.61.96 6.82 1.04 8.25.06 16.45-.64 24.71-.22.46 4.13.64 8.17.48 12.32-.21 45.34 0 90.66-.13 136-.18 5.16-.16 10.27.39 15.42 4.47.8 8.72 1.13 13.27.94.74-8.49.13-16.86.26-25.36-.11-48 .26-96 0-144 .2-25 .07-50.004.11-75.004.05-9.14-.37-18.2.31-27.34 32.04-.18 64.08-.08 96.12-.04.82 9.87.25 19.43.36 29.38-.07 7.61.49 15.17-.06 22.78-3.81 1.44-7.63 2.56-11.65 3.31-10.9 2.4-22.23 4.23-33.41 4.23-6.63.04-13.69-1.77-20.22-.72-4.97.92-7.27 7.724-3.15 11.044 3.23 2.03 7.9 2.12 11.62 2.38 8.01.25 16.09.52 24.09-.03 10.86-.98 21.92-4.04 32.61-5.89.09 1.96.2 3.92.25 5.89-.08 41.64-.03 83.35-.09 125.01-.05 6.96.29 13.89-.1 20.85-9.56-1.52-20.09-5.5-29.72-5.09-5.05-.08-6.48 6.84-4.01 10.25 1.74 1.48 4.49 1.93 6.67 2.41 8.96 1.6 18.32 3.02 26.96 5.93.2 3.22.42 6.43.35 9.66-.28 12.99-.01 26-.14 38.99-.19 4.88-.12 9.66.42 14.52 4.29 1 8.29 1.46 12.7 1.4.2-2.97.43-5.93.41-8.92-.27-21.99-.13-44.01-.08-66-.25-24 .18-48-.14-72 .04-7.57-.38-15.06.28-22.61 10.87.26 21.74 1.4 32.62 1.54 2.78-.11 6.46-.17 8.09-2.85 2-3.14 1.1-9.34-3.28-9.87-12.27-1.67-25.07-.13-37.26-2.45-.86-18.88-.02-37.85-.51-56.764.45-18.78-.52-37.62.49-56.37 31.79-.09 63.58-.07 95.38-.03 1.89 1.44 4.17 2.91 5.58 4.84 1.19 1.79 1.25 4.42 1.38 6.5-.08 85.554.11 171.414.03 257.064-.1 7.64-.65 15.16.34 22.78 12.92-2.4 25.84-8.32 37.74-13.77 8.66-3.96 16.76-8.95 24.37-14.64 2.6-1.76 6.15-4.48 9.43-4.19 4.6.62 6.54 6.06 4.13 9.78-2.14 3-5.82 5.12-8.86 7.12-5.98 3.69-11.84 7.64-18.03 10.98-4.99 2.58-10.13 4.81-15.03 7.58 11.12-.58 22.07-1.36 33.17.03 9.92 1.18 19.57 2.76 29.02 6.11 4.22 1.54 8.45 2.95 12.82 4 .51-5.59.46-11.17.35-16.78.02-88 .02-176 0-264.004-.01-5.35.24-10.79-.17-16.12.94 6.57.43 13.49.47 20.12-.02 76.004.02 152.004 0 228.004-.03 13.66.22 27.34-.03 41-.03 2.89.29 5.75.57 8.62 3.06 1.75 6.13 3.38 9.31 4.89 5.8 2.79 10.56 6.52 15.78 10.2 4.73 3.38 9.29 6.36 13.14 10.8 3.11 3.61 5.8 7.62 8.51 11.53 4.72 7.08 8.78 14.14 10.03 22.7-6.66.87-13.29.58-19.99.57-188 0-376-.01-564-.03-7.75-.07-15.36.42-23.08-.46.81-4.44 2.18-8.42 4.63-12.23 6.15-9.78 12.6-19.06 21.21-26.83 20.73-20.01 47.67-34.22 74.9-43.12 6.33-2.27 12.95-3.26 19.17-5.85.27-3.26.52-6.52.46-9.8-.24-10.99-.07-21.99-.09-32.99-.08-69.33-.03-138.67-.01-208.004.12-6.2-.5-12.59.35-18.74.47-3.27 2.94-5.74 5.98-6.81 2.95-.99 6.4-.95 9.48-.97Z"
  /><path
    fill="#d49d03"
    d="M433.02 5.943c34.88.05 70.26.06 105.13 0 5.03-.1 9.59 2.29 11.14 7.28.41 5.33.16 10.77.17 16.12.02 88.004.02 176.004 0 264.004.11 5.61.16 11.19-.35 16.78-4.37-1.05-8.6-2.46-12.82-4-9.45-3.35-19.1-4.93-29.02-6.11-11.1-1.39-22.05-.61-33.17-.03 4.9-2.77 10.04-5 15.03-7.58 6.19-3.34 12.05-7.29 18.03-10.98 3.04-2 6.72-4.12 8.86-7.12 2.41-3.72.47-9.16-4.13-9.78-3.28-.29-6.83 2.43-9.43 4.19-7.61 5.69-15.71 10.68-24.37 14.64-11.9 5.45-24.82 11.37-37.74 13.77-.99-7.62-.44-15.14-.34-22.78.08-85.65-.11-171.51-.03-257.064-.13-2.08-.19-4.71-1.38-6.5-1.41-1.93-3.69-3.4-5.58-4.84ZM396.37 40.593c3.81-1.01 6.92 2.05 7.04 5.77.37 3.96-2.69 5.89-5.61 7.73-6.76 3.87-14.01 6.95-21.23 9.84-4.09 1.52-9.04 3.26-13.43 2.61-4.67-.83-6.89-7.94-2.53-10.66 5.69-3.45 12.86-4.23 18.91-7.12 5.79-2.28 10.91-6.48 16.85-8.17ZM153.26 48.883c6.02.51 11.68 5.72 17.26 7.99 4.34 2.09 9.44 3.04 13.49 5.61 4.21 2.67 3.15 9.784-1.43 11.384-2.78.65-6.08-.39-8.73-1.25-6.57-2.33-12.81-5.754-18.92-9.074-2.56-1.5-5.79-3.19-7.44-5.73-1.55-4.19.98-9.04 5.77-8.93ZM203.8 137.447c5.03 1.23 4.78 10.32-.3 11.32-5.6 1.68-11.52 1.97-17.1 3.88-6.77 2.28-13.68 4.66-19.96 8.1-4.22 2.27-7.89 5.66-12.25 7.63-3.71 1.69-8.76-1-9.14-5.16-.48-3.4 2.64-6.01 5.05-7.88 11.75-8.36 26.06-13.69 40.02-17.01 4.25-.85 9.41-2.09 13.68-.88ZM378.23 159.167c9.5 3.04 18.69 7.74 27.37 12.62 2.6 1.52 5.56 3.21 7.48 5.56 1.65 1.95 1.37 5.19.4 7.39-1.34 2.76-4.57 3.74-7.34 2.6-4.49-1.78-8.41-5.04-12.7-7.29-5.6-3.09-11.51-5.39-17.56-7.44-2.69-1-5.91-2.02-8.07-3.98-2.81-2.69-2.19-7.5 1.06-9.55 2.63-1.77 6.53-.68 9.36.09ZM269.47 167.067c5.42.54 6.03 10.16.82 11.38-4.21 1.25-8.77 1.51-13.11 2.12-4.08.45-8.67 1.2-12.72.32-5.38-.88-6.09-10.4-.75-11.76 3.99-1.13 8.37-1.19 12.49-1.63 4.29-.29 9.01-1.21 13.27-.43ZM188.39 218.947c3.56 1.84 4.29 8.25.76 10.5-4.48 3.06-10.01 4.31-14.52 7.43-4.46 2.8-7.7 7.22-12.19 9.86-4.72 2.53-10.74-3.55-8.35-8.28 1.91-3.69 5.85-6.56 9.15-8.96 5.17-3.59 10.59-7.15 16.41-9.6 2.55-.99 6.09-2.09 8.74-.95Z"
  />
</svg>
