<svg xmlns="http://www.w3.org/2000/svg" viewBox="0 0 952.82 819.923">
  <path
    d="M103.91 757.91c25.35.35 50.66-.1 75.99.23 13.16-.28 26.32-.06 39.47-.29 56.76.18 113.57.12 170.34-.11.27 16.66.04 33.33.11 50 .04 3.99-.09 7.95-.44 11.93-20 .49-40 .02-60 .21-73.02-.02-146.01.01-219.01-.01-2.08-.04-4.16-.14-6.25-.23-.47-3.97-.34-7.91-.29-11.9.05-16.61-.02-33.22.08-49.83ZM849 819.49c-4.19.44-8.41.48-12.62.4-87.67-.04-175.34.01-263-.02-3.36.02-6.69-.16-10.04-.26-.9-6.71-.44-13.1-.59-19.87-.16-14.3.15-28.61-.02-42.91 6.94 1.45 13.61 1.12 20.65 1.14 14.33.07 28.66-.08 43-.06 13.33.46 26.66-.34 40-.02 7.33.14 14.66-.17 22 .03 15.66.21 31.33-.35 47 .08 31.33-.09 62.66-.11 94-.05 4.35-.02 8.68.23 13.02.47.939-.005 1.915.066 2.863.012 1.391-.01 2.783-.081 3.733-.367l.003-.027.001 61.452Z"
    fill="#c18166"
  /><path
    d="M394.5 485.94c26.27-.35 52.59-.05 78.88-.16 28.29.1 56.62-.22 84.91.15 1.88 2.05 3.69 3.97 4.4 6.75.06 27.02.12 54.03.02 81.06-.02 2.65-.02 5.29-.02 7.94.08 26.39.17 52.78 0 79.17-.04 2.65-.08 5.3-.1 7.95.2 25.63.23 51.26.16 76.89-.04 3.71-.06 7.42-.02 11.14.17 14.3-.14 28.61.02 42.91.15 6.77-.31 13.16.59 19.87-10.67.5-21.3-.35-31.96.18-11.36.39-22.65-.6-34 .05-13.32-.25-26.69-.41-40-.02-22.65-.47-45.34-.08-68-.15.35-3.98.48-7.94.44-11.93-.07-16.67.16-33.34-.11-50 .04-4.04.11-8.08.04-12.13.11-25.35.13-50.72 0-76.08-.02-2.87-.02-5.75 0-8.63.09-26.36.19-52.74-.04-79.1-.04-2.7-.02-5.4 0-8.1.21-26.89.19-53.79.02-80.67.84-2.85 2.63-5.09 4.77-7.09Zm9.11 32.8c.14 7.06-.29 14.05.64 21.08.36 8.37.34 16.64-.5 24.97.29 5.98.27 11.93.61 17.91-.84 5.29.33 10.42-.21 15.71-.21 3.16.27 6.15.37 9.31.13 10.68-.37 21.34.05 32.02.2 6.54-1.51 12.53-.84 18.99.48 4.35 1.13 8.62.9 13.01-.44 13.29.16 26.64-.42 39.92-1.62 12.53.65 24.56.23 37.08-.23 16.01.17 32.03-.1 48.04-.8 6.86-.92 12.85.48 19.67 15.5.09 31.04.36 46.56 0 3.16-.03 6.31.22 9.44.57 11.29 1.07 22.31-.49 33.54.33 13.35-.05 26.71.03 40.06-.01 4.79-.34 9.79-.25 14.46-1.39-.65-3.78.18-7.37.06-11.15-.23-5.35-.04-10.69-.56-16.03-.29-45.28-.17-91.55-.19-137.03-.21-7.1 1.37-13.98.92-21.04-.57-5.97-.36-11.95-.67-17.93.79-6.07-.46-11.95-.23-18.03.21-12.67-.25-25.33.04-38 .17-8.85-.48-17.82.42-26.63 1.39-9.94-.56-19.97-.56-30.13-18.9.06-37.82.1-56.75.05-5.71 0-11.25 1.2-16.98.88-7.34-.35-14.65-.99-22-.89-11.65.18-23.21-.4-34.82.16-4.27.24-8.52-.37-12.77-.05-.6 6.17-1.33 12.4-1.18 18.61Z"
    fill="#ad6c43"
  /><path
    d="M103.95 744.6c3.47.05 6.94.19 10.42.22 36.68-.27 73.34.19 110-.05 49.01.19 98.01-.04 147.01.12 6.43.08 12.1-.85 18.37.72.07 4.05 0 8.09-.04 12.13-56.77.23-113.58.29-170.34.11-13.15.23-26.31.01-39.47.29-25.33-.33-50.64.12-75.99-.23-.1-4.44-.03-8.87.04-13.31Zm492.43.35c58.31-.33 116.68-.08 175-.21 25.58.33 52.087-.33 77.647.29.177 4.071.394 9.216-.031 13.035-1.64.494-4.596.345-6.596.355-4.34-.24-8.67-.49-13.02-.47-31.34-.06-62.67-.04-94 .05-15.67-.43-31.34.13-47-.08-7.34-.2-14.67.11-22-.03-13.34-.32-26.67.48-40 .02-14.34-.02-28.67.13-43 .06-7.04-.02-13.71.31-20.65-1.14-.04-3.72-.02-7.43.02-11.14 11-1.7 22.52-.73 33.63-.74Z"
    fill="#904432"
  /><path
    d="M128.37 669.83c81.35.11 162.67-.06 244.01 0 5.81.07 11.56-.61 17.37-.3.13 25.36.11 50.73 0 76.08-6.27-1.57-11.94-.64-18.37-.72-49-.16-98 .07-147.01-.12-36.66.24-73.32-.22-110 .05-3.48-.03-6.95-.17-10.42-.22-.14-24.59-.15-49.2.01-73.79 8.14-.34 16.24-1.12 24.41-.98Zm720.629 75.199c-9.096-.22-18.311-.278-27.562-.277-10.923-.002-21.851.086-32.775.086-5.793 0-11.561-.024-17.282-.098-58.32.13-116.69-.12-175 .21-11.11.01-22.63-.96-33.63.74.07-25.63.04-51.26-.16-76.89 6.66 1.23 13.06.94 19.79 1.04 75.04-.05 149.94.04 225-.03 11.33.09 22.66-.04 34 .18 2.338-.01 5.274-.062 7.618-.23l.001 75.269Z"
    fill="#c18166"
  /><path
    d="M103.91 660.61c18.81.8 37.65.14 56.46.47 44.32-.08 88.69-.12 133-.04 14.68-.2 29.34.37 44.01-.05 17.44-.41 34.94.69 52.37-.09-.02 2.88-.02 5.76 0 8.63-5.81-.31-11.56.37-17.37.3-81.34-.06-162.66.11-244.01 0-8.17-.14-16.27.64-24.41.98-.07-3.4-.1-6.8-.05-10.2Zm458.78.24c17.19.85 34.46-.36 51.69.27 39.68-.29 79.31.18 119-.21 26 .05 52 .35 78-.02 8.66.13 17.33.12 26 .15 3.96.06 7.796-.961 11.646.309.08 2.69.085 5.728.009 8.408-2.35.17-5.305.223-7.655.233-11.34-.22-22.67-.09-34-.18-75.06.07-149.96-.02-225 .03-6.73-.1-13.13.19-19.79-1.04.02-2.65.06-5.3.1-7.95Z"
    fill="#904432"
  /><path
    d="M103.94 581.9c6.83.44 13.61.18 20.43.21 13.34-.17 26.67.01 40-.04 4.8-.11 9.29.57 14.05-.16.25 17.29.34 34.58.15 51.87.02 3.06.32 5.88 2.69 8.09 1.99 1.96 4.46 1.94 7.07 2.08 46.36.2 92.72.05 139.05.06 2.68-.2 5.54.43 7.35-1.98 3.25-3.38 2.04-8.03 2.19-12.29 0-15.72-.11-31.44.14-47.16 9.73-.77 19.57-.66 29.32-.67 7.81-.06 15.52.53 23.33-.11.23 26.36.13 52.74.04 79.1-17.43.78-34.93-.32-52.37.09-14.67.42-29.33-.15-44.01.05-44.31-.08-88.68-.04-133 .04-18.81-.33-37.65.33-56.46-.47-.1-26.23-.09-52.47.03-78.71Zm745.059 79.44c-3.841-1.256-7.668-.24-11.619-.3-8.67-.03-17.34-.02-26-.15-26 .37-52 .07-78 .02-39.69.39-79.32-.08-119 .21-17.23-.63-34.5.58-51.69-.27.17-26.39.08-52.78 0-79.17 11.23.5 22.44.06 33.69.24 6.46.12 12.89.02 19.33-.26.27 18.32 0 36.68.13 55.01-.15 3.77 3.75 7.45 7.48 7.27 45.56.28 91.47.05 137.06.06 3.81-.1 8.04.67 11.06-2.2 2.58-2.12 2.79-4.89 2.81-8.02-.12-17.04-.29-34.09.04-51.12 7.77-.94 15.28-.62 23.09-.62 11 .19 22 .03 33 .1.424-.004.849-.006 1.276-.006 2.536 0 5.054.064 7.57.063 3.263.002 6.528-.093 9.686-.537.031-.8.065-1.599.095-2.402-.005 27.361-.007 54.722-.008 82.082Z"
    fill="#c18166"
  /><path
    d="M184.44 485.89c7.31-.23 14.62-.03 21.93-.11 41.68.05 83.35-.04 125.01.04 2.41 1.69 4.1 3.45 5.71 5.9-.23 3.999-.13 8.02-.19 12.02.1 23.37-.15 46.75.14 70.12 0 2.91.02 5.82.02 8.72-.25 15.72-.14 31.44-.14 47.16-.15 4.26 1.06 8.91-2.19 12.29-1.81 2.41-4.67 1.78-7.35 1.98-46.33-.01-92.69.14-139.05-.06-2.61-.14-5.08-.12-7.07-2.08-2.37-2.21-2.67-5.03-2.69-8.09.19-17.29.1-34.58-.15-51.87-.01-2.72.05-5.43.14-8.15.4-17.33-.09-34.68.1-52.02-.08-9.02.22-18.05-.15-27.07-.28-4.42 2.55-6.63 5.93-8.78Zm436.08.04c14.94-.22 29.9-.25 44.86-.16 34.27.02 68.66-.16 102.93.1 4.05 1.37 5.65 4.65 6.09 8.68-.54 6.4-.34 12.78-.33 19.19.2 20-.19 40.01.12 60.01.08 2.97.15 5.94.1 8.91-.33 17.03-.16 34.08-.04 51.12-.02 3.13-.23 5.9-2.81 8.02-3.02 2.87-7.25 2.1-11.06 2.2-45.59-.01-91.5.22-137.06-.06-3.73.18-7.63-3.5-7.48-7.27-.13-18.33.14-36.69-.13-55.01-.02-2.6-.02-5.2 0-7.8.27-23.37-.02-46.75.15-70.12.04-3.39-.21-6.75-.38-10.13.31-3.51 2.52-5.53 5.04-7.68Zm-426.96 15.16c-.08 2.89-.08 5.77-.06 8.65.08 6.04-1.16 11.95-.93 18 .2 9.83-.23 19.7.28 29.51 2.84.37 5.68.62 8.52.57 12.34-.26 24.68-.2 37-.31 4.21-.1 8.09.5 11.99-.78-.28-6.64-.22-13.22.21-19.85-.01-8.38-.32-16.77-.24-25.16.17-3.64.53-7.19-.04-10.82-8.75-1.37-18.05-.69-26.92-.86-10.18.14-20.06-.61-29.81 1.05Zm-.22 76.61c.19 10.17-.09 20.34-.18 30.51.47 7.1-.17 14.18.4 21.26 16.92.7 33.91-.11 50.82.08 2.25.05 4.43-.12 6.63-.61-1.23-11.3-.91-22.85-.66-34.2.81-7.29-.25-14.43-.22-21.72-2.87-.57-5.77-1.02-8.72-1.01-9.35-.01-18.68.1-28.04.02-6.4-.21-12.53 1.25-18.95.29-1.18 1.32-.96 3.72-1.08 5.38Zm70.57-75.91c.45 2.97.74 5.95.76 8.95-.19 15.57-.1 31.16-.11 46.73 10.84.9 21.94.26 32.81.16 8.25-.29 16.5-.06 24.75-.16.36-12.91-.06-25.82.41-38.73-.34-5.67.1-11.29.03-16.93-4.26-2.34-10.47-.52-15.25-1.08-9.29-.95-18.59-.81-27.94-.73-5.47.13-10.34-.68-15.46 1.79Zm1.95 71.39c-1.45.25-1.1 2.46-1.26 3.53-.08 16.35.07 32.71-.07 49.06.11 1.5-.18 2.73 1.18 3.74 3.51.45 7.13.15 10.66.17 13.36.02 26.69-.28 40.04-.1 2.03-.24 4.33.67 4.84-2.02 1.83-7.23.64-15.38.97-22.82.35-9.84-.73-19.83.45-29.6-2.72-1.41-5.05-3.16-8.22-3.13-6.03-.18-12.11.4-18.12.18-6.31-.28-12.63-.07-18.96-.2-3.71.03-8-.14-11.51 1.19Zm364.66-72.16c.4 13.92-.54 27.8-.16 41.72.04 4.91 0 9.82.18 14.73 12.61.1 25.23.32 37.84.27 6.6-.08 13.12.36 19.73-.14.62-7.97 0-15.88.1-23.86-.1-9.35-.14-18.7-.02-28.05-.19-2.04.48-3.97-1.75-5.05-2.77-1-6.17-.58-9.06-.64-11.25.28-22.52-.32-33.75.29-4.36.36-8.73.58-13.11.73Zm1.5 71.63c-1.56 2.06-1.25 5.58-1.41 8.03-.13 15.03.04 30.06-.02 45.09.18 1.44-.32 2.75 1.18 3.57 5.8.72 11.77.2 17.61.37 12.31.2 24.58-.17 36.89-.24 1.96.16 1.57-2.22 1.79-3.5.23-15.07-.14-30.18.26-45.25.1-2.98-.4-5.84-1.17-8.69-16.61-.02-33.23-.01-49.83.03-1.71.05-3.67.02-5.3.59Zm71.59 1.3c-1.17 1-.96 2.35-1.11 3.75-.16 6.68-.31 13.36-.1 20.04.29 10.57.04 21.16.21 31.74 7.29.52 14.48-.13 21.77-.03 11.62.13 23.23.28 34.85.04.25-3.92.27-7.83.23-11.75-.06-5.33.94-10.44.48-15.78-.5-6.07-.35-12.15-.6-18.24-.13-3.55.85-7.03.72-10.56-1.45-1.79-5.29-.48-7.39-.73-13.44-.63-26.88-.25-40.33-.48-2.84.05-6.42.08-8.73 2Zm-.5-72.46c-1.02 1.28-.71 3.65-.86 5.22.38 16.9-.04 33.83.29 50.74 18.92.31 37.82.31 56.73-.02.9-5.83-.35-11.6.46-17.46 1.19-9.45.04-18.64.02-28.08-.1-3.6-.46-7.18-.62-10.77-10.98-2.03-22.4-.76-33.75-1.09-7.17.23-15.42-.85-22.27 1.46Z"
    fill="#ad6c43"
  /><path
    d="M103.94 573.57c12.81.09 25.62-.12 38.43-.04 12.05.1 24.16-.31 36.19.23-.09 2.72-.15 5.43-.14 8.15-4.76.73-9.25.05-14.05.16-13.33.05-26.66-.13-40 .04-6.82-.03-13.6.23-20.43-.21-.03-2.78-.02-5.56 0-8.33Zm233.1.29c10.11-.11 20.21-.14 30.34-.03 7.48.13 14.85-.76 22.33-.13-.02 2.7-.04 5.4 0 8.1-7.81.64-15.52.05-23.33.11-9.75.01-19.59-.1-29.32.67 0-2.9-.02-5.81-.02-8.72Zm225.67-.12c10.6-.53 21.04-.02 31.67-.07 7.12-.05 14.21.02 21.33.19-.02 2.6-.02 5.2 0 7.8-6.44.28-12.87.38-19.33.26-11.25-.18-22.46.26-33.69-.24 0-2.65 0-5.29.02-7.94Zm286.371-.058c.064 2.736-.066 5.356-.169 7.978-6.04.85-12.472.42-18.532.48-11-.07-22 .09-33-.1-7.81 0-15.32-.32-23.09.62.05-2.97-.02-5.94-.1-8.91 21.06-.41 42.13-.07 63.19-.22 3.85-.02 7.911-.648 11.701.152Z"
    fill="#904432"
  /><path
    d="M103.97 494.82c9.13-.72 18.26-.43 27.4-.48 15.7.23 31.44-.42 47.14.33.37 9.02.07 18.05.15 27.07-.19 17.34.3 34.69-.1 52.02-12.03-.54-24.14-.13-36.19-.23-12.81-.08-25.62.13-38.43.04-.09-26.25-.13-52.5.03-78.75Zm233.12-3.1c-.05.574-.09 1.149-.12 1.725.02-.713.08-1.36.12-1.725Zm4.48 1.94c2.59.308 5.25.69 7.75.74 11.37-.04 22.74-.13 34.12 0 2.44.07 4.12-.31 6.29-1.37.17 26.88.19 53.78-.02 80.67-7.48-.63-14.85.26-22.33.13-10.13-.11-20.23-.08-30.34.03-.29-23.37-.04-46.75-.14-70.12.05-3.423-.11-6.876.07-10.295 1.77.173 2.24.18 4.6.215Zm221.12-.98c5.42 2.16 11.85 1.46 17.69 1.66 11.66-.12 23.5.58 35.1-.73.17 3.38.42 6.74.38 10.13-.17 23.37.12 46.75-.15 70.12-7.12-.17-14.21-.24-21.33-.19-10.63.05-21.07-.46-31.67.07.1-27.03.04-54.04-.02-81.06Zm286.319 80.987c-3.77-.777-7.804-.157-11.629-.137-21.06.15-42.13-.19-63.19.22-.31-20 .08-40.01-.12-60.01-.01-6.41-.21-12.79.33-19.19 7.02-.7 13.89-.05 20.98-.19 17.262.26 36.389-.077 53.653.332-.012 26.325-.019 52.65-.024 78.975Z"
    fill="#c18166"
  /><path
    d="M103.94 485.56c19.81.21 39.62.26 59.43.09 7.03-.17 14.03.52 21.07.24-3.38 2.15-6.21 4.36-5.93 8.78-15.7-.75-31.44-.1-47.14-.33-9.14.05-18.27-.24-27.4.48-.02-3.09-.05-6.17-.03-9.26Zm227.44.26c21.04.13 42.06-.23 63.12.12-2.14 2-3.93 4.24-4.77 7.09-2.17 1.06-3.85 1.44-6.29 1.37-11.38-.13-22.75-.04-34.12 0-2.5-.05-5.17-.437-7.75-.74-2.36-.029-2.83-.036-4.6-.215.02-.715.08-1.361.12-1.725-1.61-2.45-3.3-4.21-5.71-5.9Zm226.91.11c10.03.06 20.05-.26 30.09-.19 10.73.15 21.41-.5 32.14.19-2.52 2.15-4.73 4.17-5.04 7.68-11.6 1.31-23.44.61-35.1.73-5.84-.2-12.27.5-17.69-1.66-.71-2.78-2.52-4.7-4.4-6.75Zm210.02-.06c5.05.26 10.03-.15 15.07-.16 17.33.1 34.66-.01 52-.02 4.27-.1 9.537-.118 13.807.302.218 3.345.204 5.569-.13 8.701-17.27-.41-36.407-.073-53.677-.333-7.09.14-13.96-.51-20.98.19-.44-4.03-2.04-7.31-6.09-8.68Z"
    fill="#904432"
  /><path
    d="M123.37 403.38c24.68-.17 49.34.35 74 .14 20.35-.08 40.67-.08 61 .04 22.35-.3 44.68.22 67-.1 26.67-.02 53.34-.1 80.01.05 23.66-.24 47.33.04 71 .24 9.33-.18 18.66-.45 28-.18 36.35-.09 72.64-.25 109-.05 65.6-.08 131.37-.05 197-.07 11.5-.05 23.14-.5 34.6.53 2.34.07 3.139-.065 3.61-.13l.73-.4c-.36 8.09-.28 16.2-.25 24.29-.014 19.412-.025 38.825-.034 58.237-4.242-.405-9.436-.386-13.656-.287-17.34.01-34.67.12-52 .02-5.04.01-10.02.42-15.07.16-34.27-.26-68.66-.08-102.93-.1-14.96-.09-29.92-.06-44.86.16-10.73-.69-21.41-.04-32.14-.19-10.04-.07-20.06.25-30.09.19-28.29-.37-56.62-.05-84.91-.15-26.29.11-52.61-.19-78.88.16-21.06-.35-42.08.01-63.12-.12-41.66-.08-83.33.01-125.01-.04-7.31.08-14.62-.12-21.93.11-7.04.28-14.04-.41-21.07-.24-19.81.17-39.62.12-59.43-.09-.13-26.92-.07-53.91.01-80.82 6.45-1.22 12.87-1.26 19.42-1.36Z"
    fill="#c18166"
  /><path
    d="M440.34 394.25c24 .13 48.06.06 72.06.04 6.44-.79 12.54 1.15 18.98.63 25-.32 50 .07 75-.09 80.75.04 161.5.02 242.25-.02-.15 3.01-.15 6.02-.04 9.04-3.647.459-2.794.14-3.61.13-11.46-1.03-23.1-.58-34.6-.53-65.63.02-131.4-.01-197 .07-36.36-.2-72.65-.04-109 .05-9.34-.27-18.67 0-28 .18-23.67-.2-47.34-.48-71-.24-26.67-.15-53.34-.07-80.01-.05-22.32.32-44.65-.2-67 .1-20.33-.12-40.65-.12-61-.04-24.66.21-49.32-.31-74-.14-6.55.1-12.97.14-19.42 1.36-.08-.66-.14-1.33-.2-1.99-.19-2.69-.13-5.35-.09-8.05 30.58.27 61.15-.01 91.71.08 64.34-.01 128.68.08 193.01.13 12-.09 24-.17 36 .13 5.41.33 10.5-1.5 15.96-.79Z"
    fill="#904432"
  /><path
    d="M228.37 303.82c26-.18 52-.01 78-.01 22.34-.21 44.67.25 67.01.32 4.93.1 9.85.16 14.77-.28-.56 13.53 4.98 27.16 10.98 39.03 4.91 9.9 12.31 17.37 20.37 24.71 11.11 9.76 24.69 15.99 39.07 19.12 8.39 1.64 17.29 1.63 25.83 1.33 9.92-.48 18.85-3.54 27.94-7.27 7.43-3.15 14.43-7.19 20.39-12.69 7.29-6.57 14.86-13.83 19.48-22.55 7.06-12.32 12.96-27.31 12.44-41.69 9.66 1.02 19.08-.49 28.73-.26 34.66.2 69.33.29 104 .06 12.37.1 24.79.21 37.16-.16 7.92 5.31 15.32 11.41 22.96 17.12 3.09 2.3 6.36 4.25 9.36 6.68 6.91 5.84 14.48 10.83 21.64 16.37 5.21 4.17 10.65 8 16.07 11.89 9.02 6.27 17.31 13.47 26.41 19.6 4.86 3.89 10.04 7.26 15.09 10.89 3.14 2.21 2.6 5.43 2.56 8.78-80.75.04-161.5.06-242.25.02-25 .16-50-.23-75 .09-6.44.52-12.54-1.42-18.98-.63-24 .02-48.06.09-72.06-.04-5.46-.71-10.55 1.12-15.96.79-12-.3-24-.22-36-.13-64.33-.05-128.67-.14-193.01-.13-30.56-.09-61.13.19-91.71-.08.28-2.95-.65-5.58 2.04-7.6 6.79-5.25 13.71-10.39 20.8-15.23 18.95-14.33 38.1-28.6 57.11-42.89 10.89-8.16 22.02-16.01 32.7-24.43 4.08-1.18 7.9-.76 12.06-.73Z"
    fill="#c18166"
  /><path
    d="M487.36 212.42c16.98 1.43 32.39 9.28 45.56 19.74 10.71 8.12 18.69 19.88 24.14 32.04 4.63 9.74 7.46 20.62 7.55 31.42-.02 2.74-.04 5.48.04 8.22.52 14.38-5.38 29.37-12.44 41.69-4.62 8.72-12.19 15.98-19.48 22.55-5.96 5.5-12.96 9.54-20.39 12.69-9.09 3.73-18.02 6.79-27.94 7.27-8.54.3-17.44.31-25.83-1.33-14.38-3.13-27.96-9.36-39.07-19.12-8.06-7.34-15.46-14.81-20.37-24.71-6-11.87-11.54-25.5-10.98-39.03.06-2.73.04-5.47.04-8.2.5-15.25 5.54-30.45 13.88-43.21 4.24-6.65 9.02-12.86 15.2-17.83 9.25-8.24 19.73-14.84 31.63-18.5 12.33-3.87 25.62-5.38 38.46-3.69Zm-25.32 12.72c-7.98 2.32-15.83 4.97-23.16 8.95-15.48 8.62-27.23 23.34-33.56 39.77-2.13 6.03-4.13 12.59-4.19 19.02 4.08.38 8.16.38 12.25.3 14.66 0 29.33-.01 44 0 4.06.09 8.1.07 12.16-.28.4-5.4-.08-10.76-.02-16.16.02-11 .09-22 .02-33-.08-6.45.53-12.8 0-19.24-2.56-.19-5.04-.11-7.5.64Zm-53.25 109.09c3.75 6.9 8.42 13.59 13.75 19.37 9.17 8.54 19.84 15.33 31.73 19.44 5.02 1.4 9.94 2.45 15.19 1.93.13-16.74.17-33.49.11-50.23-.07-5.74.41-11.42-.03-17.16-5.73-.55-11.43-.21-17.16-.28-13-.01-26 .01-39-.01-4.07-.09-8.13-.07-12.17.29-.12 9.64 3.46 18.12 7.58 26.65Zm74.48 41.71c4.57-.64 9.07-1.72 13.61-2.53 5.83-1.05 10.5-3.78 15.62-6.55 3.38-1.84 6.63-3.92 9.63-6.33 3.98-3.2 7.94-5.88 11.04-10.03 3.67-4.94 7.94-10.02 10.52-15.59 4-8.88 8.06-17.32 7.96-27.34-5.77-.54-11.5-.21-17.27-.27-13-.01-26 .01-39 0-4.06-.09-8.11-.09-12.15.28.06 22.78-.35 45.59.04 68.36Zm-.16-93.2c-.13 3.39-.11 6.77.1 10.16 5.73.54 11.42.21 17.17.27 13 .02 26 .01 39 .01 4.1.08 8.19.09 12.29-.31-.65-9.2-3.92-18.38-7.42-26.86-4.91-10.3-12.87-19.38-21.79-26.42-8-5.5-16.89-10.4-26.33-12.84-4.38-1.2-8.23-2.85-12.9-2.25-.19 19.4.21 38.83-.12 58.24Z"
    fill="#ad6c43"
  /><path
    d="M229.1 295.05c5.14.85 10.12.23 15.27.37 41.67-.11 83.34-.01 125.01.15 6.29-.18 12.52-.53 18.81.08 0 2.73.02 5.47-.04 8.2-4.92.44-9.84.38-14.77.28-22.34-.07-44.67-.53-67.01-.32-26 0-52-.17-78 .01-4.16-.03-7.98-.45-12.06.73 4.13-3.34 8.39-6.54 12.79-9.5Zm335.51.57c7.96-.72 15.79 0 23.77-.11 34.66-.2 69.33-.13 104 .02 10.6.2 21.81-1.15 32.23.95 3.68 1.88 6.71 4.51 9.93 7-12.37.37-24.79.26-37.16.16-34.67.23-69.34.14-104-.06-9.65-.23-19.07 1.28-28.73.26-.08-2.74-.06-5.48-.04-8.22Z"
    fill="#904432"
  /><path
    d="M352.19 203.81c2.38.44 4.71.94 7.15.96 12.68-.16 25.37-.29 38.04-.29 13.06.38 26.27-.56 39.27.72 22.71-.07 44.92.01 67.73-.05 5.04-.03 10.02.25 15.06-.15 10.37-.77 20.56-.19 30.94-.57 12.66-.16 25.33.23 38 .1 5.33-.02 10.96-.8 16.02 1.02 9.69 7.38 19.16 15.02 29.12 22.04 5.32 3.63 10 8.08 15.42 11.61 20.48 15.18 40.77 30.52 61.19 45.79 5.19 3.53 9.94 7.15 14.48 11.49-10.42-2.1-21.63-.75-32.23-.95-34.67-.15-69.34-.22-104-.02-7.98.11-15.81-.61-23.77.11-.09-10.8-2.92-21.68-7.55-31.42-5.45-12.16-13.43-23.92-24.14-32.04-13.17-10.46-28.58-18.31-45.56-19.74-12.84-1.69-26.13-.18-38.46 3.69-11.9 3.66-22.38 10.26-31.63 18.5-6.18 4.97-10.96 11.18-15.2 17.83-8.34 12.76-13.38 27.96-13.88 43.21-6.29-.61-12.52-.26-18.81-.08-41.67-.16-83.34-.26-125.01-.15-5.15-.14-10.13.48-15.27-.37 19.29-14.67 38.29-28.59 57.61-43 17.56-13.08 35.01-26.34 52.61-39.35 4.22-3.17 8.08-6.56 12.87-8.89Z"
    fill="#c18166"
  /><path
    d="M363.09 195.04c4.77 1.25 9.41.72 14.29.93 11.02.47 21.98-.18 33-.12 18.33-.43 36.66.54 55 .02 9.35-.56 18.64.17 28 .15 22-.28 43.98-.12 66 .12 8 .15 16-.52 24-.23 2.33.1 4.19-.16 6.37-.96 5.27 3.03 9.52 7.35 14.65 10.6-5.06-1.82-10.69-1.04-16.02-1.02-12.67.13-25.34-.26-38-.1-10.38.38-20.57-.2-30.94.57-5.04.4-10.02.12-15.06.15-22.81.06-45.02-.02-67.73.05-13-1.28-26.21-.34-39.27-.72-12.67 0-25.36.13-38.04.29-2.44-.02-4.77-.52-7.15-.96 3.52-3.12 6.81-6.36 10.9-8.77Z"
    fill="#904432"
  /><path
    d="M476.36 110.41c3.37 1.12 6.2 4.23 9 6.34 7.18 5.52 14.37 10.99 21.75 16.25 12.73 10.01 25.89 19.47 38.91 29.09 7.65 5.68 15 11.78 22.86 17.15 7.25 4.86 13.6 10.88 20.87 15.71-2.18.8-4.04 1.06-6.37.96-8-.29-16 .38-24 .23-22.02-.24-44-.4-66-.12-9.36.02-18.65-.71-28-.15-18.34.52-36.67-.45-55-.02-11.02-.06-21.98.59-33 .12-4.88-.21-9.52.32-14.29-.93 7.45-5.4 14.25-11.57 22-16.58 13.98-10.75 28.27-21.05 42.35-31.65 13.35-9.98 26.52-20.19 39.92-30.09 2.87-2.07 5.64-5.12 9-6.31Z"
    fill="#c18166"
  /><path
    d="M476.38 76.4c5.69 3.13 10.91 7.31 15.89 11.46 6.61 5.52 14.09 9.78 20.77 15.24 5.48 4.59 11.52 8.39 17.05 12.92 8.02 6.44 16.77 11.82 24.85 18.17 4.02 2.99 7.63 6.43 11.75 9.23 13.12 8.69 24.85 19.36 37.9 28.12 7.68 5.64 15.35 11.28 22.87 17.13 4.75 3.59 9.75 6.87 14.44 10.54 10.25 8.13 20.96 15.79 31.54 23.45 12.38 9.7 25.33 18.59 37.6 28.41 4.78 3.57 9.86 6.69 14.44 10.56 5.09 4.34 10.69 7.98 16.11 11.9 7.22 5.44 14.31 11.09 21.73 16.26 5.62 4.01 10.91 8.44 16.56 12.42 5.64 3.99 10.81 8.58 16.44 12.59 9.79 6.76 19.27 14 28.68 21.27 8.17 5.42 15.73 11.62 23.63 17.42 5.23 4.15 10.79 7.85 16.06 11.94 6.67 5.03 13.67 9.52 20 14.98 7.73 5.98 15.94 11.3 23.56 17.44 3.4 2.9 7.38 4.31 11.44 5.98-1.12 1.3-1.54 1.64-3.31 1.57-13.34-.35-26.67-1.09-40.04-1.23-8.9-.08-18.17-1.08-27.02-.72l-.73.4c-.11-3.02-.11-6.03.04-9.04.04-3.35.58-6.57-2.56-8.78-5.05-3.63-10.23-7-15.09-10.89-9.1-6.13-17.39-13.33-26.41-19.6-5.42-3.89-10.86-7.72-16.07-11.89-7.16-5.54-14.73-10.53-21.64-16.37-3-2.43-6.27-4.38-9.36-6.68-7.64-5.71-15.04-11.81-22.96-17.12-3.22-2.49-6.25-5.12-9.93-7-4.54-4.34-9.29-7.96-14.48-11.49-20.42-15.27-40.71-30.61-61.19-45.79-5.42-3.53-10.1-7.98-15.42-11.61-9.96-7.02-19.43-14.66-29.12-22.04-5.13-3.25-9.38-7.57-14.65-10.6-7.27-4.83-13.62-10.85-20.87-15.71-7.86-5.37-15.21-11.47-22.86-17.15-13.02-9.62-26.18-19.08-38.91-29.09-7.38-5.26-14.57-10.73-21.75-16.25-2.8-2.11-5.63-5.22-9-6.34-3.36 1.19-6.13 4.24-9 6.31-13.4 9.9-26.57 20.11-39.92 30.09-14.08 10.6-28.37 20.9-42.35 31.65-7.75 5.01-14.55 11.18-22 16.58-4.09 2.41-7.38 5.65-10.9 8.77-4.79 2.33-8.65 5.72-12.87 8.89-17.6 13.01-35.05 26.27-52.61 39.35-19.32 14.41-38.32 28.33-57.61 43-4.4 2.96-8.66 6.16-12.79 9.5-10.68 8.42-21.81 16.27-32.7 24.43-19.01 14.29-38.16 28.56-57.11 42.89-7.09 4.84-14.01 9.98-20.8 15.23-2.69 2.02-1.76 4.65-2.04 7.6-.04 2.7-.1 5.36.09 8.05-14.04 1.54-28.42 1.14-42.52 1.81-7.64.47-15.27.45-22.91.76-1.74-.02-3.28.27-4.84-.67 6.04-3.97 12.39-7.17 17.87-11.97 10.88-7.76 21.27-16.08 32.17-23.79 11.07-7.88 21.56-16.5 32.7-24.32 20.26-15.5 40.98-30.28 61.31-45.69 16.56-12.83 33.5-25.21 50.44-37.55 10.89-8.48 21.92-16.76 33.06-24.95 11.41-8.22 22.47-16.89 34-24.97 12.22-9.46 24.57-18.79 37.03-27.95 6.57-4.4 12.4-9.73 19-14.07 20.38-14.86 40.17-30.54 60.53-45.43 10.98-7.98 21.64-16.42 32.68-24.32 10.88-7.38 20.82-16.55 32.11-23.24Z"
    fill="#3c3d29"
  /><path
    d="M476.48 0c1.48.46 2.75 1.7 4 2.61 5.75 4.66 12 8.6 17.79 13.24 13.29 10.46 27.32 19.91 40.52 30.46 13.92 10.42 27.8 20.86 41.71 31.29 11.46 8.11 22.57 16.75 33.71 25.3 9.4 6.9 18.67 14 28.02 20.98 25.96 18.93 51.21 38.9 77.25 57.74 10.02 7.67 19.98 15.44 30.21 22.81 17.38 13.73 35.67 26.22 53.06 39.95 4.63 3.73 9.69 6.9 14.32 10.64 16.7 13.07 34.06 25.21 50.77 38.25 4.35 3.34 8.95 6.34 13.23 9.75 14.1 10.99 28.66 21.31 42.87 32.16 9.54 7.32 19.35 14.28 28.88 21.6-7.44 11.8-16.09 22.9-24.05 34.34-2.83 4.38-6.04 8.48-9.08 12.71-4.06-1.67-8.04-3.08-11.44-5.98-7.62-6.14-15.83-11.46-23.56-17.44-6.33-5.46-13.33-9.95-20-14.98-5.27-4.09-10.83-7.79-16.06-11.94-7.9-5.8-15.46-12-23.63-17.42-9.41-7.27-18.89-14.51-28.68-21.27-5.63-4.01-10.8-8.6-16.44-12.59-5.65-3.98-10.94-8.41-16.56-12.42-7.42-5.17-14.51-10.82-21.73-16.26-5.42-3.92-11.02-7.56-16.11-11.9-4.58-3.87-9.66-6.99-14.44-10.56-12.27-9.82-25.22-18.71-37.6-28.41-10.58-7.66-21.29-15.32-31.54-23.45-4.69-3.67-9.69-6.95-14.44-10.54-7.52-5.85-15.19-11.49-22.87-17.13-13.05-8.76-24.78-19.43-37.9-28.12-4.12-2.8-7.73-6.24-11.75-9.23-8.08-6.35-16.83-11.73-24.85-18.17-5.53-4.53-11.57-8.33-17.05-12.92-6.68-5.46-14.16-9.72-20.77-15.24-4.98-4.15-10.2-8.33-15.89-11.46-11.29 6.69-21.23 15.86-32.11 23.24-11.04 7.9-21.7 16.34-32.68 24.32-20.36 14.89-40.15 30.57-60.53 45.43-6.6 4.34-12.43 9.67-19 14.07-12.46 9.16-24.81 18.49-37.03 27.95-11.53 8.08-22.59 16.75-34 24.97-11.14 8.19-22.17 16.47-33.06 24.95-16.94 12.34-33.88 24.72-50.44 37.55-20.33 15.41-41.05 30.19-61.31 45.69-11.14 7.82-21.63 16.44-32.7 24.32-10.9 7.71-21.29 16.03-32.17 23.79-5.48 4.8-11.83 8-17.87 11.97-6.42-8.95-12.75-17.94-19.06-26.97C9.56 370.86 4.06 364.15 0 356.81c5.34-4.58 11.49-8.03 16.87-12.57 18.19-13.84 36.6-27.4 54.75-41.26 6.1-4.2 11.93-8.7 17.74-13.25 18.11-13.58 36.19-27.2 54.43-40.6 23.54-18.2 47.69-35.59 71.36-53.62 27.98-21.18 56.01-41.85 83.93-63.06 15.49-11.91 31.36-23.26 46.82-35.19 22.16-16.91 44.77-33.17 66.91-50.1 19.84-15.17 40.03-30.01 60.05-44.95C474 1.4 475.21.56 476.48 0Z"
    fill="#3b4232"
  /><path
    d="m475.039 144.586-69.059 51.273c-9.54.084-19.047.518-28.6.111-4.88-.21-9.52.32-14.29-.93 7.45-5.4 14.25-11.57 22-16.58 13.98-10.75 28.27-21.05 42.35-31.65 13.35-9.98 26.52-20.19 39.92-30.09 2.87-2.07 5.64-5.12 9-6.31 3.37 1.12 6.2 4.23 9 6.34 7.18 5.52 14.37 10.99 21.75 16.25 12.73 10.01 25.89 19.47 38.91 29.09 7.65 5.68 15 11.78 22.86 17.15 7.25 4.86 13.6 10.88 20.87 15.71-2.18.8-4.04 1.06-6.37.96-8-.29-16 .38-24 .23-5.579-.061-11.156-.116-16.732-.161l-67.609-51.393ZM271.945 295.376c-9.192.006-18.383.02-27.575.044-5.15-.14-10.13.48-15.27-.37 19.29-14.67 38.29-28.59 57.61-43 17.56-13.08 35.01-26.34 52.61-39.35 4.22-3.17 8.08-6.56 12.87-8.89 2.38.44 4.71.94 7.15.96 11.675-.147 23.358-.269 35.027-.288l-122.422 90.894ZM633.52 227.59c5.32 3.63 10 8.08 15.42 11.61 20.48 15.18 40.77 30.52 61.19 45.79 5.19 3.53 9.94 7.15 14.48 11.49-10.42-2.1-21.63-.75-32.23-.95-6.288-.027-12.576-.052-18.864-.073L553.726 204.4c11.547-.065 23.1.249 34.654.13 5.33-.02 10.96-.8 16.02 1.02 9.69 7.38 19.16 15.02 29.12 22.04ZM138.007 394.82c-11.448.005-22.897-.019-34.347-.12.28-2.95-.65-5.58 2.04-7.6 6.79-5.25 13.71-10.39 20.8-15.23 18.95-14.33 38.1-28.6 57.11-42.89 10.89-8.16 22.02-16.01 32.7-24.43 4.08-1.18 7.9-.76 12.06-.73 10.77-.075 21.54-.089 32.31-.08l-122.673 91.08ZM757.5 320.6c3.09 2.3 6.36 4.25 9.36 6.68 6.91 5.84 14.48 10.83 21.64 16.37 5.21 4.17 10.65 8 16.07 11.89 9.02 6.27 17.31 13.47 26.41 19.6 4.86 3.89 10.04 7.26 15.09 10.89 3.14 2.21 2.6 5.43 2.56 8.78l-44.385.02-119.87-91.118c4.335-.019 8.67-.043 13.005-.072 12.37.1 24.79.21 37.16-.16 7.92 5.31 15.32 11.41 22.96 17.12ZM126.502 403.362l-22.594 16.776c.012-5.135.027-10.268.042-15.398 6.45-1.22 12.87-1.26 19.42-1.36.997-.007 1.993-.012 2.99-.017l.142-.001ZM849.07 427.74l-.001 1.162-33.54-25.495c9.816-.108 19.699-.304 29.451.573l.091.003c.615.029.106.268 2.814-.047.318-.029.533-.062.705-.086l.73-.4c-.36 8.09-.28 16.2-.25 24.29Z"
    fill="#b76649"
  /><path
    d="M404.79 500.13c4.25-.32 8.5.29 12.77.05 11.61-.56 23.17.02 34.82-.16 7.35-.1 14.66.54 22 .89 5.73.32 11.27-.88 16.98-.88 18.93.05 37.85.01 56.75-.05 0 10.16 1.95 20.19.56 30.13-.9 8.81-.25 17.78-.42 26.63-.29 12.67.17 25.33-.04 38-.23 6.08 1.02 11.96.23 18.03.31 5.98.1 11.96.67 17.93.45 7.06-1.13 13.94-.92 21.04.02 45.48-.1 91.75.19 137.03.52 5.34.33 10.68.56 16.03.12 3.78-.71 7.37-.06 11.15-4.67 1.14-9.67 1.05-14.46 1.39-13.35.04-26.71-.04-40.06.01-11.23-.82-22.25.74-33.54-.33-3.13-.35-6.28-.6-9.44-.57-15.52.36-31.06.09-46.56 0-1.4-6.82-1.28-12.81-.48-19.67.27-16.01-.13-32.03.1-48.04.42-12.52-1.85-24.55-.23-37.08.58-13.28-.02-26.63.42-39.92.23-4.39-.42-8.66-.9-13.01-.67-6.46 1.04-12.45.84-18.99-.42-10.68.08-21.34-.05-32.02-.1-3.16-.58-6.15-.37-9.31.54-5.29-.63-10.42.21-15.71-.34-5.98-.32-11.93-.61-17.91.84-8.33.86-16.6.5-24.97-.93-7.03-.5-14.02-.64-21.08-.15-6.21.58-12.44 1.18-18.61ZM223.37 500.04c8.87.17 18.17-.51 26.92.86.57 3.63.21 7.18.04 10.82-.08 8.39.23 16.78.24 25.16-.43 6.63-.49 13.21-.21 19.85-3.9 1.28-7.78.68-11.99.78-12.32.11-24.66.05-37 .31-2.84.05-5.68-.2-8.52-.57-.51-9.81-.08-19.68-.28-29.51-.23-6.05 1.01-11.96.93-18-.02-2.88-.02-5.76.06-8.65 9.75-1.66 19.63-.91 29.81-1.05Zm-28.95 72.28c6.42.96 12.55-.5 18.95-.29 9.36.08 18.69-.03 28.04-.02 2.95-.01 5.85.44 8.72 1.01-.03 7.29 1.03 14.43.22 21.72-.25 11.35-.57 22.9.66 34.2-2.2.49-4.38.66-6.63.61-16.91-.19-33.9.62-50.82-.08-.57-7.08.07-14.16-.4-21.26.09-10.17.37-20.34.18-30.51.12-1.66-.1-4.06 1.08-5.38ZM279.37 500c9.35-.08 18.65-.22 27.94.73 4.78.56 10.99-1.26 15.25 1.08.07 5.64-.37 11.26-.03 16.93-.47 12.91-.05 25.82-.41 38.73-8.25.1-16.5-.13-24.75.16-10.87.1-21.97.74-32.81-.16.01-15.57-.08-31.16.11-46.73-.02-3-.31-5.98-.76-8.95 5.12-2.47 9.99-1.66 15.46-1.79Zm-2 71.99c6.33.13 12.65-.08 18.96.2 6.01.22 12.09-.36 18.12-.18 3.17-.03 5.5 1.72 8.22 3.13-1.18 9.77-.1 19.76-.45 29.6-.33 7.44.86 15.59-.97 22.82-.51 2.69-2.81 1.78-4.84 2.02-13.35-.18-26.68.12-40.04.1-3.53-.02-7.15.28-10.66-.17-1.36-1.01-1.07-2.24-1.18-3.74.14-16.35-.01-32.71.07-49.06.16-1.07-.19-3.28 1.26-3.53 3.51-1.33 7.8-1.16 11.51-1.19Zm366.26-71.7c11.23-.61 22.5-.01 33.75-.29 2.89.06 6.29-.36 9.06.64 2.23 1.08 1.56 3.01 1.75 5.05-.12 9.35-.08 18.7.02 28.05-.1 7.98.52 15.89-.1 23.86-6.61.5-13.13.06-19.73.14-12.61.05-25.23-.17-37.84-.27-.18-4.91-.14-9.82-.18-14.73-.38-13.92.56-27.8.16-41.72 4.38-.15 8.75-.37 13.11-.73Zm-6.31 71.77c16.6-.04 33.22-.05 49.83-.03.77 2.85 1.27 5.71 1.17 8.69-.4 15.07-.03 30.18-.26 45.25-.22 1.28.17 3.66-1.79 3.5-12.31.07-24.58.44-36.89.24-5.84-.17-11.81.35-17.61-.37-1.5-.82-1-2.13-1.18-3.57.06-15.03-.11-30.06.02-45.09.16-2.45-.15-5.97 1.41-8.03 1.63-.57 3.59-.54 5.3-.59Zm75.02-.11c13.45.23 26.89-.15 40.33.48 2.1.25 5.94-1.06 7.39.73.13 3.53-.85 7.01-.72 10.56.25 6.09.1 12.17.6 18.24.46 5.34-.54 10.45-.48 15.78.04 3.92.02 7.83-.23 11.75-11.62.24-23.23.09-34.85-.04-7.29-.1-14.48.55-21.77.03-.17-10.58.08-21.17-.21-31.74-.21-6.68-.06-13.36.1-20.04.15-1.4-.06-2.75 1.11-3.75 2.31-1.92 5.89-1.95 8.73-2Zm13.04-71.92c11.35.33 22.77-.94 33.75 1.09.16 3.59.52 7.17.62 10.77.02 9.44 1.17 18.63-.02 28.08-.81 5.86.44 11.63-.46 17.46-18.91.33-37.81.33-56.73.02-.33-16.91.09-33.84-.29-50.74.15-1.57-.16-3.94.86-5.22 6.85-2.31 15.1-1.23 22.27-1.46ZM469.54 224.5c.53 6.44-.08 12.79 0 19.24.07 11 0 22-.02 33-.06 5.4.42 10.76.02 16.16-4.06.35-8.1.37-12.16.28-14.67-.01-29.34 0-44 0-4.09.08-8.17.08-12.25-.3.06-6.43 2.06-12.99 4.19-19.02 6.33-16.43 18.08-31.15 33.56-39.77 7.33-3.98 15.18-6.63 23.16-8.95 2.46-.75 4.94-.83 7.5-.64Zm-68.33 83.08c4.04-.36 8.1-.38 12.17-.29 13 .02 26 0 39 .01 5.73.07 11.43-.27 17.16.28.44 5.74-.04 11.42.03 17.16.06 16.74.02 33.49-.11 50.23-5.25.52-10.17-.53-15.19-1.93-11.89-4.11-22.56-10.9-31.73-19.44-5.33-5.78-10-12.47-13.75-19.37-4.12-8.53-7.7-17.01-7.58-26.65Zm82.02 0c4.04-.37 8.09-.37 12.15-.28 13 .01 26-.01 39 0 5.77.06 11.5-.27 17.27.27.1 10.02-3.96 18.46-7.96 27.34-2.58 5.57-6.85 10.65-10.52 15.59-3.1 4.15-7.06 6.83-11.04 10.03-3 2.41-6.25 4.49-9.63 6.33-5.12 2.77-9.79 5.5-15.62 6.55-4.54.81-9.04 1.89-13.61 2.53-.39-22.77.02-45.58-.04-68.36Zm0-83.08c4.67-.6 8.52 1.05 12.9 2.25 9.44 2.44 18.33 7.34 26.33 12.84 8.92 7.04 16.88 16.12 21.79 26.42 3.5 8.48 6.77 17.66 7.42 26.86-4.1.4-8.19.39-12.29.31-13 0-26 .01-39-.01-5.75-.06-11.44.27-17.17-.27-.21-3.39-.23-6.77-.1-10.16.33-19.41-.07-38.84.12-58.24Z"
    data-player="true"
    fill="#808080"
  />
</svg>
