<svg
  xmlns="http://www.w3.org/2000/svg"
  viewBox="-476.75 -216.69 918.87 451.222"
>
  <path
    fill="#b07033"
    d="M-173.99-206.42c7.09.84 13.29 6.28 14.89 13.28 2.23 9.55 2.87 18.35 4.59 27.99.37 4.56 1.08 8.96 2.06 13.43 6.26 35.56 11.83 71.27 18.11 106.81 3.27 20.32 6.87 40.59 10.2 60.9.88 5.54 2.52 11.17 2.86 16.76-16.34.24-32.76-.4-49.1.34.83-3.42-.66-5.96-1.11-9.28-14.77-66.29-29.06-132.11-43.6-198.38-.85-5.69-3.11-10.31-1.62-16.22 1.24-7.17 7.43-13.21 14.69-14.11 4.65-.62 9.41-.5 14.09-.84 4.51-.95 9.34-.61 13.94-.68"
  />
  <path
    fill="#454440"
    d="M-73-171.68c7.24.1 14.51-.15 21.74.09 4.74.22 7.33 3.42 10.17 6.73.24.87.45 1.75.61 2.63.08 58.4.04 116.83.03 175.23-.16 5.98.34 12.11-.23 18.05-3.75 3.67-11.62 1.93-16.32 1.77-6.56.91-13.34.31-20 .49-3.89.2-7.66-.69-11.54-.64.17-61.89.05-123.78.07-185.67-.19-4.22.04-8.12 1.57-12.1 1.36-1.68 2.44-3.32 4.34-4.46 2.89-2.31 6.07-2.11 9.56-2.12M96.27-171.59c7.57-.2 15.15-.02 22.73-.11 2.25.06 4.66-.14 6.7.98 2.97 1.19 4.51 3.53 6.43 5.91.68 2.93 1.33 5.78 1.3 8.81-.05 55.33 0 110.67-.03 166 .02 7.54 0 15.08-.16 22.62-3.79-.12-7.45.87-11.24.71-12.38-.22-24.49.56-36.75-.66-.3-2.22-.55-4.42-.51-6.67.04-60.33.01-120.67.02-181.01.11-3.26.71-6.54 1.39-9.73 2.79-3.37 5.4-6.55 10.12-6.85M266.26-171.58c8.58-.19 17.18-.09 25.75-.05 4.76.23 7.8 3.22 10.36 6.93 1.65 4.59 1.06 8.9 1.17 13.7.04 34.54-2.484 185.541-2.466 185.823-15.594.209-28.083.265-43.973 1.465-.81-3.32-1.711-92.948-1.791-96.288-.04-30.66.05-61.33-.04-92 .11-4.23-.16-8.89 1.08-12.93 2.81-3.3 5.21-6.35 9.91-6.65"
  />
  <path
    fill="#824c1d"
    d="M-154.51-165.15c3.6-.03 7.2-.02 10.8-.03 1.65 4.83 1.55 10.01 2.52 15.17 5.55 32 11 63.98 16.37 96.01 3.11 16.64 5.7 33.39 8.56 50.07 2.43 12.22 3.66 24.43 6.58 36.65 7 .54 14.12-.02 21.14-.05 3.88-.05 7.65.84 11.54.64 6.66-.18 13.44.42 20-.49 4.7.16 12.57 1.9 16.32-1.77.57-5.94.07-12.07.23-18.05.01-58.4.05-116.83-.03-175.23.49 2.39.71 4.79.7 7.23-.16 58.31-.11 116.68-.03 175 .02 4.17-.33 8.51.18 12.64 8.84.68 17.76-.2 26.63.2 28.01-.07 56 .04 84-.04 4.8.02 9.46.31 14.25-.13 12.26 1.22 24.37.44 36.75.66 3.79.16 7.45-.83 11.24-.71 2.44.2 4.81.68 7.22 1.08-1.27 3.827 216.717-1.152 250.18 1.506 2.909.231 2.933 1.682 2.86 3.28-.267 5.913-.969 19.677-1.155 27.628-.057 2.449-1.665 4.487-4.329 4.484-13.773-.014-99.439-1.302-110.984-1.16-13.91.173-113.11 4.823-140.878 3.107-26.103-1.613-114.37-1.273-127.204-1.235-3.81 31.64-11.76 61.84-22.59 91.83 3.89 1.01 8.45 2.13 10.72 5.82C.37 173.27.12 177.88.04 183c.15 5.01-1.11 9.76-4.72 13.34-5.03 4.17-11.34 4.37-17.51 3.28-14.02-2.74-25.78-9.98-37.18-18.25-14.69-11.54-26.76-26.03-35.62-42.47-3.57-6.79-7.05-13.35-9.51-20.67-1.19-3.53-2.86-7.14-3.38-10.83 6.97-.35 13.91-.34 20.88-.29 6.57.03 13.26-.55 19.82-.05q.615.885 1.2 1.8c4.09 10.55 9.84 20.38 17.07 29.1 2.95-9.31 6.14-18.21 8.5-27.76.13-1.03.44-2.02.95-2.97.62-4.44 2.1-8.71 2.71-13.18 1.14-7.49 2.71-15.16 2.66-22.75-42.93-.21-85.97-.03-128.91-.13-3.17-.02-6.64.22-9.73-.54-3.1-.94-4.71-3.22-6.4-5.78-.33-7.27-.08-14.58-.13-21.86-.1-4.82 3.58-10.21 8.88-9.9 16.34-.74 32.76-.1 49.1-.34-.34-5.59-1.98-11.22-2.86-16.76-3.33-20.31-6.93-40.58-10.2-60.9-6.28-35.54-11.85-71.25-18.11-106.81-.98-4.47-1.69-8.87-2.06-13.43"
  />
  <path
    fill="#9f622b"
    d="M-143.71-165.18c18.93.03 37.89-.13 56.81.08-1.53 3.98-1.76 7.88-1.57 12.1-.02 61.89.1 123.78-.07 185.67-7.02.03-14.14.59-21.14.05-2.92-12.22-4.15-24.43-6.58-36.65-2.86-16.68-5.45-33.43-8.56-50.07-5.37-32.03-10.82-64.01-16.37-96.01-.97-5.16-.87-10.34-2.52-15.17M-41.09-164.86c.98-.31 2-.42 3.07-.35 40.71.04 81.42.02 122.13.01l2.04.46c-.68 3.19-1.28 6.47-1.39 9.73-.01 60.34.02 120.68-.02 181.01-.04 2.25.21 4.45.51 6.67-4.79.44-9.45.15-14.25.13-28 .08-55.99-.03-84 .04-8.87-.4-17.79.48-26.63-.2-.51-4.13-.16-8.47-.18-12.64-.08-58.32-.13-116.69.03-175 .01-2.44-.21-4.84-.7-7.23-.16-.88-.37-1.76-.61-2.63M132.13-164.81l1.78-.38H251c1.76.07 3.63-.18 5.35.26-1.24 4.04-.97 8.7-1.08 12.93.09 30.67 0 61.34.04 92 .08 3.34.981 92.968 1.791 96.288-27.11 2.31-105.69 3.409-116.641-2.588-2.41-.4-4.78-.88-7.22-1.08.16-7.54.18-15.08.16-22.62.03-55.33-.02-110.67.03-166 .03-3.03-.62-5.88-1.3-8.81"
  />
  <path
    fill="#824c1d"
    d="M-154.51-165.15c3.6-.03 7.2-.02 10.8-.03 1.65 4.83 1.55 10.01 2.52 15.17 5.55 32 11 63.98 16.37 96.01 3.11 16.64 5.7 33.39 8.56 50.07 2.43 12.22 3.66 24.43 6.58 36.65 7 .54 14.12-.02 21.14-.05 3.88-.05 7.65.84 11.54.64 6.66-.18 13.44.42 20-.49 4.7.16 12.57 1.9 16.32-1.77.57-5.94.07-12.07.23-18.05.01-58.4.05-116.83-.03-175.23.49 2.39.71 4.79.7 7.23-.16 58.31-.11 116.68-.03 175 .02 4.17-.33 8.51.18 12.64 8.84.68 17.76-.2 26.63.2 28.01-.07 56 .04 84-.04 4.8.02 9.46.31 14.25-.13 12.26 1.22 24.37.44 36.75.66 3.79.16 7.45-.83 11.24-.71 2.44.2 4.81.68 7.22 1.08-1.27 3.827 216.717-1.152 250.18 1.506 2.909.231 2.933 1.682 2.86 3.28-.267 5.913-.969 19.677-1.155 27.628-.057 2.449-1.665 4.487-4.329 4.484-13.773-.014-99.439-1.302-110.984-1.16-13.91.173-113.11 4.823-140.878 3.107-26.103-1.613-114.37-1.273-127.204-1.235-3.81 31.64-11.76 61.84-22.59 91.83 3.89 1.01 8.45 2.13 10.72 5.82C.37 173.27.12 177.88.04 183c.15 5.01-1.11 9.76-4.72 13.34-5.03 4.17-11.34 4.37-17.51 3.28-14.02-2.74-25.78-9.98-37.18-18.25-14.69-11.54-26.76-26.03-35.62-42.47-3.57-6.79-7.05-13.35-9.51-20.67-1.19-3.53-2.86-7.14-3.38-10.83 6.97-.35 13.91-.34 20.88-.29 6.57.03 13.26-.55 19.82-.05q.615.885 1.2 1.8c4.09 10.55 9.84 20.38 17.07 29.1 2.95-9.31 6.14-18.21 8.5-27.76.13-1.03.44-2.02.95-2.97.62-4.44 2.1-8.71 2.71-13.18 1.14-7.49 2.71-15.16 2.66-22.75-42.93-.21-85.97-.03-128.91-.13-3.17-.02-6.64.22-9.73-.54-3.1-.94-4.71-3.22-6.4-5.78-.33-7.27-.08-14.58-.13-21.86-.1-4.82 3.58-10.21 8.88-9.9 16.34-.74 32.76-.1 49.1-.34-.34-5.59-1.98-11.22-2.86-16.76-3.33-20.31-6.93-40.58-10.2-60.9-6.28-35.54-11.85-71.25-18.11-106.81-.98-4.47-1.69-8.87-2.06-13.43"
  />
  <path
    fill="#9f622b"
    d="M302.37-164.7c.85-.17 1.71-.33 2.56-.48 20.6-.02 41.21-.02 61.81.01-.7 2.24-1.13 4.43-1.32 6.78-.55 6.26-2.12 12.2-3.14 18.45-4.2 24.03-8.79 47.97-13.02 72-2.29 13.39-17.485 90.498-19.795 103.898-7.954.742-24.251.485-28.391-1.135-.018-.282 2.506-151.283 2.466-185.823-.11-4.8.48-9.11-1.17-13.7"
  />
  <path
    fill="#824c1d"
    d="M366.74-165.17c3.83-.01 7.65.07 11.47-.06-4.95 25.05-9.14 50.26-13.81 75.36-4.28 22.94-18.048 102.383-22.678 125.243-3.61-1.45-8.867 2.625-12.257.585 2.31-13.4 17.505-90.508 19.795-103.898 4.23-24.03 8.82-47.97 13.02-72 1.02-6.25 2.59-12.19 3.14-18.45.19-2.35.62-4.54 1.32-6.78"
  />
  <path
    fill="#b07033"
    d="M257.524 6.262c-.33 8.18-.608 18.612-.908 26.792-.19 6.967-.725 11.984-.825 18.97 4.413-1.269 9.377-2.17 12.95-2.095 4.933.104 9.93 1.552 14.428 3.635-.174-7.308 1.024-13.299 1.203-20.62.33-4.68-.048-11.002.122-15.682.9-6.31.65-12.59.89-18.99-.15-4.23.83-8.32.73-12.55-8.81-1.48-18.21-2.39-27.09-1.15-1.24 7.11-.36 14.56-1.5 21.69M185.464 25.182c2.48 2.56 5 5.06 7.36 7.73C200.13 40.884 227.52 67.198 232.71 72c1.864-3.041 4.857-7.67 6.42-9.35 3.527-3.793 7.338-7.252 12.148-9.12-6.826-6.411-13.047-13.398-19.905-19.778-4.96-4.73-9.48-9.91-14.47-14.62-4.14-4.37-8.87-8.24-12.6-12.96-7.13 5.52-13.68 11.57-18.84 19.01M329.304 19.612c-5.79 4.63-11.16 9.71-17.1 14.14-8.437 7.347-17.193 14.255-25.71 21.512 8.014 4.5 14.947 13.441 17.277 20.455 1.76-1.26 3.433-2.627 5.103-4.007l.24-.2c2.1-1.9 4.3-3.62 6.48-5.42 12.7-11.3 26.16-21.7 38.8-33.08-4.25-7.71-9.98-14.93-16.93-20.38-2.74 2.31-5.27 4.83-8.16 6.98M297.534 140.492c6.17 6.17 12 12.65 18.15 18.85 3.73 3.66 6.99 7.91 10.94 11.29 7.71-4.97 14.02-11.53 19.96-18.44-11.65-11.84-23.08-24.16-34.8-35.93-3.33-3.12-6.063-7.033-9.433-10.033a5 5 0 0 1-.14.247c-1.912 3.359-4.128 6.663-6.88 9.363-3.272 3.211-8.46 6.822-12.268 8.727 4.296 5.665 9.79 10.567 14.47 15.926M206.584 127.062c-7.66 6.49-14.28 14.11-22.09 20.39 4.05 5.83 9.23 10.86 14.23 15.86 1.45 1.45 3 2.74 4.68 3.91 5.07-4.71 9.91-9.65 15.18-14.14 9.557-9.557 30.364-28.352 32.03-29.202-4.412-2.41-11.233-7.43-14.173-11.35-1.532-2.044-2.975-4.577-4.156-6.97-1.711.388-18.602 14.481-25.701 21.502"
  />
  <path
    fill="#454440"
    d="M268.74 49.93c6.171.129 12.443 2.362 17.71 5.31 8.033 4.493 14.986 13.453 17.32 20.48 1.627 4.894 2.662 11.488 2.31 16.53-.366 5.275-2.015 10.943-3.73 13.98-1.943 3.443-4.2 6.842-7.02 9.61-4.297 4.216-11.9 9.123-15.34 9.95-8.96 2.151-18.035 2.2-26.74-.69-3.617-1.202-13.177-7.725-16.81-12.57-2.463-3.287-4.697-7.842-5.98-11.04-1.7-4.245-1.806-8.733-1.98-13.25-.17-4.44 1.874-11.784 2.62-13.48.37-.84 5.739-9.646 8.03-12.11 3.528-3.794 7.34-7.253 12.15-9.12 5.122-1.989 12.586-3.703 17.46-3.6"
  />
  <path
    fill="#b07033"
    d="M-378.47 64.89c12.82-.22 25.65-.03 38.47-.1 53.55.04 107.35-.08 160.87.06 1.69 2.56 3.3 4.84 6.4 5.78 3.09.76 6.56.52 9.73.54 42.94.1 85.98-.08 128.91.13.05 7.59-1.52 15.26-2.66 22.75-.61 4.47-2.09 8.74-2.71 13.18-9.04.08-18.1-.17-27.12.11l.6 1.52q-.585-.915-1.2-1.8c-6.56-.5-13.25.08-19.82.05-6.97-.05-13.91-.06-20.88.29l-.56-.13c-3.03-.87-6.43-.56-9.56-.6-84.33.1-168.67 0-253 .04-2.42.02-5.442-.064-7.852-.224.054-.259.202-27.996.382-41.596M164.974 95.272c0 2.06.26 3.96.78 5.95l-.34-1.65c8.11.06 16.24.31 24.35.47.96.12 1.95.31 2.95.56 12.83-.3 25.237.787 37.747.887-1.7-4.244-1.807-8.732-1.98-13.25-.17-4.439 1.873-11.783 2.62-13.48-1.57-.6-3.697-.577-5.357-.757-7.73-.04-15.77-.12-23.42-.96-7.21.14-14.47-.35-21.67-.49-4.73-1.6-10.23.06-14.86-1.3-1.06 7.99-.92 15.92-.82 24.02M321.764 104.422c5.42-.37 10.58 1.02 16.01.11 3.44-.87 6.5.46 9.99.34 6.78-.12 18.512 1.047 20.79.44.8-8.49 1.28-17.05.9-25.58-2.66-.26-5.57.13-8.1-.7-7.52-.14-15.05-.16-22.59-.63-2.2-.66-4.7-.3-7-.41-9.195-.01-18.379-.588-27.533-.789 1.356 4.688 2.166 10.499 1.85 15.046-.29 4.168-1.38 8.581-2.67 11.748 6.166-.495 12.185.804 18.353.425"
  />
  <path
    fill="#9f622b"
    d="M278.964 161.262c.24-8.69.35-17.39.56-26.08.91-2.95.387-6.323.467-9.393-8.96 2.152-18.036 2.2-26.74-.69-.55 10.26-.987 20.273-1.237 30.563-.75 7.16-.39 14.37-.98 21.53.175 1.533.18 3.478-.1 5.018-.52 1.93-.348 3.636-.29 5.402.66 1.35 2.81 1.26 4.11 1.68 6.54 1.08 13.42.72 20.02.49.85.01 2.71.309 3.38-.071-.018-8.915.673-28.179.81-28.449"
  />
  <path
    fill="#454440"
    d="M-423.56 59.48c-2.56 4.25-2 8.88-1.98 13.62-7.1-.29-14.02.72-20.41 3.93l7.27 17.3c3.93-2.35 8.74-3.65 13.16-1.89.01 3.52-.07 7.06.03 10.57.47 5.58 4.22 9.85 9.45 11.62-1.44 7.03-10.15 11.64-16.98 10.28-5.88-.67-10.74-5.19-12.78-10.61-2.59-7.41.57-15.8 7.12-19.97l-7.27-17.3c-9.14 4.84-16 13.64-18.33 23.74-2.47 9.48-.24 20.22 5.34 28.2 7.62 11.54 22.48 16.98 35.84 13.81 8.61-1.57 16.4-7.55 21.02-14.88 2.45-3.8 3.78-8.58 4.94-12.91 3.39-.15 7.19.51 10.32-.74 3.45-1.15 7.778-7.52 7.968-7.764.054-.259.202-27.996.382-41.596-.51-6.68-5.9-11.72-12.51-12.09-7.01 0-14.03.02-21.04 0-4.61.08-9.31 2.55-11.54 6.68"
  />
  <path
    fill="#b07033"
    d="M352.554-20.688c-3.104-2.345-6.57-4.88-9.96-6.92-8.62-5-17.49-10.85-26.93-14.06-4.19-1.48-7.158-2.812-11.298-4.432-15.25-4.88-32.472-5.118-48.362-3.918-27.11 2.31-53.29 12.96-74.32 30.22-5.74 4.97-11.49 9.76-16.39 15.6l22.69 13.71c10.69-11.54 24.41-20.19 38.9-26.13 19.87-7.88 43.03-9.68 63.88-5.06 10.31 2.54 20.66 5.55 29.75 11.18 8.65 5.26 17.11 10.53 24.21 17.82 13 13.25 23.23 28.71 28.34 46.69 6.16 20.03 6.98 42.33 1 62.5-2.94 12.88-8.84 24.77-16.79 35.28-8.58 12.48-19.93 22.31-32.74 30.26-8.81 6-18.5 9.43-28.66 12.39-6.92 1.88-13.92 3.3-21.1 3.53-16.78.87-33.27-.87-48.63-8.03-5.7-2.32-11.7-4.79-16.86-8.16-6-3.73-11.45-8.64-16.81-13.23-9.21-7.8-16.46-18.07-22.63-28.36-17.12-30.99-17.78-70.28-2.16-102.01 4.9-10.88 12.05-20.14 20.3-28.67l-22.69-13.71c-6.49 7.09-11.84 15.01-16.68 23.29-2.73 4.88-5.52 9.58-7.39 14.88-1.38 4.16-2.83 8.29-4.32 12.42-2.89 8.21-4.19 16.63-5.52 25.19-.35 3.5.07 7.23-.85 10.63-.05 3.69-.05 7.42.02 11.11 1.14 3.64.28 7.71 1.25 11.36 2.74 21.31 10.64 41.96 22.87 59.66 20.23 29.32 52.18 51 87.32 57.58 2.93.84 5.97.73 8.89 1.49 3.87.65 8.01.07 11.8 1.09 2.71 0 5.43.03 8.14-.01 4.22-1.08 8.83-.32 13.09-1.15 26.55-3.27 51.61-14.77 71.96-32.06 25.16-21.39 42.29-52.29 46.72-85.03 1.09-3.88.29-8.1 1.38-11.94.83-22.29-2.984-45.056-12.89-65.18-9.048-18.379-21.783-37.161-38.53-49.82"
  />
  <path
    fill="#b07033"
    d="M389.866 35.895c-.43-3.54 1.194-13.355 1.744-16.685 5.26-24.99 10.23-49.12 15.23-74.19 3.15-13.58 5.22-25.19 8.18-38.87 4.03-20.07 8.41-40.08 12.43-60.18.92-4.55 1.66-8.95 2.88-13.46 1.79-8.16-1.65-16.73-9.24-20.56-5.36-2.15-11.41-2.37-17.07-3.54-6.73-1.67-14.4.32-19.04 5.58-5.18 4.91-5.7 14.06-6.77 20.78-4.95 25.05-9.14 50.26-13.81 75.36-4.28 22.94-18.048 102.383-22.678 125.243z"
  />
  <path
    fill="#824c1d"
    d="M226.884-16.618c-14.49 5.94-28.21 14.59-38.9 26.13-8.25 8.53-15.4 17.79-20.3 28.67-15.62 31.73-14.96 71.02 2.16 102.01 6.17 10.29 13.42 20.56 22.63 28.36 5.36 4.59 10.81 9.5 16.81 13.23 5.16 3.37 11.16 5.84 16.86 8.16 15.36 7.16 31.85 8.9 48.63 8.03 7.18-.23 14.18-1.65 21.1-3.53 10.16-2.96 19.85-6.39 28.66-12.39 12.81-7.95 24.16-17.78 32.74-30.26 7.95-10.51 13.85-22.4 16.79-35.28l-8-1.03c-4.28 13.37-10.48 25.9-19.48 36.71-5.94 6.91-12.25 13.47-19.96 18.44-8.9 6.79-19.53 11.61-30.09 15.15-6.11 1.95-12.23 2.78-18.46 4l-.002-.03c-.729.316-2.481.04-3.298.03-6.6.23-13.48.59-20.02-.49-1.3-.42-3.448-.33-4.11-1.677q0 .278-.01.547c-4.32.11-8.72-1.74-12.95-2.5-12.28-4.02-24.26-10.26-34.28-18.44a34.3 34.3 0 0 1-4.68-3.91c-5-5-10.18-10.03-14.23-15.86-1.11-1.54-2.4-2.89-3.31-4.57-7.9-12.75-13.52-26.74-15.43-41.66-.52-1.99-.78-3.89-.78-5.95-.1-8.1-.24-16.03.82-24.02 3-22.62 9.703-31.7 19.67-46.07 5.16-7.44 11.71-13.49 18.84-19.01 3.7-2.83 7.27-5.74 11.35-8.03 11.94-7.31 26.06-11.17 39.82-13.13 1.18-.13 2.37-.28 3.55-.44 8.88-1.24 18.28-.33 27.09 1.15 6.73.386 13.576 2.185 18.68 4.239 5.245 2.127 13.16 7.003 19.06 11.201 4.577 3.258 11.424 9.757 13.61 11.47 6.95 5.45 12.68 12.67 16.93 20.38 10.311 18.707 14.094 25.051 15.06 46.72.38 8.53-.1 17.09-.9 25.58-.795 4.043-1.53 7.152-2.49 10.17l8 1.03c5.98-20.17 5.16-42.47-1-62.5-5.11-17.98-15.34-33.44-28.34-46.69-7.1-7.29-15.56-12.56-24.21-17.82-9.09-5.63-19.44-8.64-29.75-11.18-20.85-4.62-44.01-2.82-63.88 5.06"
  />
</svg>
