<?xml version="1.0" encoding="utf-8"?>
<svg xmlns="http://www.w3.org/2000/svg" viewBox="0 0 74.258 100">
  <path
    d="M 1.079 99.89 C -0.991 98.408 3.377 87.951 4.933 83.231 C 5.053 82.868 17.838 82.194 26.663 82.723 C 36.963 83.341 68.93 82.697 68.93 82.54 C 68.93 82.435 69.048 83.103 69.704 84.86 C 71.919 90.76 74.135 97.223 74.24 98.061 C 74.331 98.757 74.056 99.398 73.479 99.819 C 73.111 100.094 1.173 99.957 1.079 99.89 Z"
    fill="#b6bec0"
  />
  <path
    d="M 60.907 72.196 C 54.181 72.17 19.244 72.026 19.244 71.869 C 19.244 71.751 23.026 21.536 23.066 20.958 C 23.157 19.909 22.823 20.844 40.311 20.844 C 57.812 20.844 57.812 20.844 58.036 20.57 C 58.18 20.386 58.246 21.264 58.495 23.467 C 58.757 25.682 59.17 25.638 59.538 25.56 C 59.852 25.495 59.476 45.106 60.547 45.185 C 61.633 45.265 60.224 45.181 60.409 46.828 C 60.475 47.352 60.933 51.182 60.933 51.299 C 60.933 51.351 60.894 50.84 62.048 61.486 C 62.598 66.494 63.07 70.845 63.11 71.161 C 63.188 71.71 63.188 71.71 65.116 71.71 C 67.161 71.71 67.619 71.777 67.619 72.039 C 67.619 72.183 66.348 72.209 60.907 72.196 Z"
    fill="#b6bec0"
  />
  <path
    d="M 10.438 16.77 C 10.382 16.692 10.252 15.544 10.199 8.967 C 10.147 2.425 10.224 1.245 10.395 0.917 C 10.815 0.118 10.67 0.131 16.386 0.131 C 21.604 0.131 21.604 0.131 22.024 0.512 C 22.456 0.892 22.456 0.892 22.521 4.247 C 22.588 7.394 22.601 7.604 22.849 7.788 C 23.216 8.077 29.273 8.089 29.641 7.801 C 30.033 7.513 30.125 6.792 30.125 3.775 C 30.125 -0.236 29.47 0.157 36.26 0.104 C 41.688 0.066 41.688 0.066 42.003 0.433 C 42.317 0.8 42.317 0.8 42.317 3.999 C 42.317 8.298 41.964 7.932 46.093 7.932 C 50.289 7.932 49.921 8.298 49.921 4.182 C 49.921 2.045 49.973 0.957 50.078 0.721 C 50.393 0.013 50.511 0 56.201 0 C 61.458 0 61.458 0 61.85 0.368 C 62.1 0.577 62.31 0.931 62.375 1.245 C 62.454 1.533 62.506 5.047 62.506 9.138 C 62.494 16.505 62.305 16.786 62.226 16.856 C 62.163 16.912 10.48 16.828 10.438 16.77 Z"
    fill="#b6bec0"
  />
  <path
    d="M 1.048 99.937 C 0.457 99.74 0.205 99.421 0.047 98.85 C -0.54 96.735 4.499 84.874 4.968 83.146 C 5.027 82.93 9.789 74.523 9.973 72.437 C 10.053 71.572 12.558 46.213 12.558 45.871 C 12.558 45.727 12.466 45.622 12.361 45.622 C 12.257 45.622 13.751 25.63 13.986 25.539 C 14.157 25.473 14.83 21.683 14.523 21.313 C 14.216 20.942 23.536 21.166 23.43 21.166 C 23.234 21.166 23.15 21.579 22.849 26.18 C 22.745 27.753 22.574 30.245 22.468 31.727 C 22.351 33.208 22.233 34.95 22.193 35.593 C 22.154 36.249 22.089 37.128 22.063 37.56 C 21.932 39.304 21.604 43.931 21.539 45.229 C 21.485 45.989 21.395 47.183 21.328 47.903 C 21.092 50.434 20.895 50.21 23.413 50.21 C 25.943 50.21 26.035 50.25 26.192 51.313 C 26.284 51.902 26.075 53.003 25.838 53.24 C 25.746 53.331 24.79 53.371 23.348 53.371 C 20.987 53.357 20.987 53.357 20.817 55.625 C 20.726 56.858 20.608 58.378 20.555 58.995 C 20.503 59.611 20.476 60.122 20.476 60.136 C 20.49 60.149 22.141 60.174 24.161 60.201 C 27.817 60.24 27.817 60.24 28.133 60.699 C 28.394 61.092 28.264 62.902 28.067 63.15 C 27.804 63.518 27.804 63.518 24.042 63.518 C 21.984 63.518 20.292 63.544 20.279 63.583 C 20.187 64.16 20.148 64.632 19.822 70.007 C 19.782 70.624 19.729 71.253 19.689 71.422 C 19.637 71.672 19.689 71.71 20.056 71.71 C 20.647 71.724 50.525 71.724 51.101 71.724 C 51.573 71.71 51.573 71.71 51.586 70.964 C 51.638 68.539 51.625 63.675 51.559 63.609 C 51.519 63.571 50.327 63.544 48.898 63.544 C 46.892 63.557 46.251 63.518 46.027 63.386 C 45.345 62.94 45.28 61.026 45.922 60.476 C 46.263 60.174 46.263 60.174 53.945 60.188 C 60.16 60.188 61.905 59.934 61.905 60.066 C 61.905 60.158 62.336 63.589 62.297 63.738 C 62.163 63.831 62.65 63.583 56.895 63.531 C 54.51 63.518 54.51 63.518 54.536 67.635 C 54.576 71.751 54.576 71.751 61.038 71.79 C 68.078 71.83 67.474 71.357 68.354 72.563 C 68.615 72.921 69.704 80.168 69.717 81.412 C 69.717 81.976 69.638 82.252 69.389 82.632 C 69.048 83.117 69.048 83.117 54.181 83.117 C 39.302 83.117 39.302 83.117 39.302 86.46 C 39.302 89.803 39.302 89.803 42.841 89.803 C 46.382 89.803 46.382 89.803 46.591 90.131 C 46.906 90.616 46.959 91.547 46.709 92.097 C 46.486 92.557 46.486 92.557 38.921 92.557 C 34.766 92.557 31.239 92.516 31.095 92.477 C 30.506 92.32 30.348 90.616 30.872 90.039 C 31.056 89.829 36.533 90.341 36.563 89.514 C 36.569 89.344 36.588 87.837 36.602 86.171 C 36.615 83.117 36.615 83.117 26.638 83.117 C 16.648 83.117 16.648 83.117 15.967 85.975 C 15.6 87.534 15.048 89.619 15.048 89.671 C 15.048 89.723 16.832 89.763 19.007 89.763 C 22.836 89.777 22.98 89.777 23.189 90.039 C 23.492 90.419 23.597 91.402 23.4 91.993 C 23.242 92.489 23.242 92.489 18.798 92.557 C 14.354 92.622 14.354 92.622 14.183 93.343 C 13.397 96.567 12.606 99.734 12.579 99.943 C 12.57 99.978 1.362 100.054 1.048 99.937 Z"
    fill="#9aa7ac"
  />
  <path
    d="M 14.543 21.33 C 11.803 19.162 10.386 16.948 10.433 16.762 C 10.569 16.714 22.063 16.741 36.312 16.78 C 53.807 16.825 61.67 16.656 62.23 16.83 C 62.359 16.87 61.271 17.978 60.2 19.049 C 57.523 21.726 58.167 21.239 36.484 21.239 C 14.786 21.239 14.917 21.049 14.543 21.33 Z"
    fill="#8b9aa0"
  />
  <path
    d="M 65.377 92.582 C 58.337 92.557 58.337 92.557 58.115 92.071 C 57.878 91.585 57.905 90.864 58.167 90.156 C 58.311 89.803 58.311 89.803 64.8 89.803 C 68.367 89.803 71.488 89.772 71.488 89.732 C 71.488 89.693 72.524 92.579 72.498 92.592 C 72.472 92.605 69.245 92.609 65.377 92.582 Z"
    fill="#9aa7ac"
  />
  <path
    d="M 54.916 53.357 C 48.819 53.292 48.819 53.292 48.557 52.846 C 48.217 52.269 48.204 51.063 48.532 50.565 C 48.767 50.21 48.767 50.21 54.772 50.21 C 60.777 50.21 60.831 50.21 60.908 50.905 C 61.052 52.23 61.212 53.474 61.159 53.449 C 61.133 53.422 58.259 53.396 54.916 53.357 Z"
    fill="#9aa7ac"
  />
  <path
    d="M 56.043 38.674 C 56.238 38.565 57.402 43.701 57.153 43.241 C 56.904 42.783 56.851 42.866 56.703 42.888 C 56.573 42.907 56.122 43 54.432 42.975 C 52.241 42.935 52.241 42.935 51.979 42.58 C 51.81 42.344 51.704 41.952 51.652 41.323 C 51.598 40.522 51.638 40.339 51.887 39.933 C 52.215 39.396 52.126 39.325 54.325 39.448 C 56.655 39.578 55.589 38.927 56.043 38.674 Z"
    fill="#9aa7ac"
  />
  <path
    d="M 0.896 94.925 C 0.006 97.574 0.004 98.631 0.018 97.836 C 0.033 96.992 0.889 94.182 2.857 88.754 C 3.695 86.408 4.495 84.191 4.627 83.811 C 4.863 83.143 4.863 83.143 4.522 82.723 C 4.324 82.501 4.128 82.161 4.09 81.976 C 3.998 81.622 4.377 78.187 4.888 74.727 C 5.19 72.721 5.204 72.694 5.662 72.274 C 6.134 71.842 6.134 71.842 8.022 71.842 C 9.07 71.842 9.948 71.803 9.988 71.737 C 10.014 71.685 10.224 69.758 10.46 67.45 C 10.683 65.144 11.037 61.578 11.247 59.519 C 11.457 57.461 11.758 54.485 11.902 52.898 C 12.06 51.313 12.482 46.807 12.487 46.806 C 12.528 46.794 12.296 49.884 12.296 50.001 C 12.296 50.184 12.806 50.21 16.727 50.21 C 21.145 50.21 21.145 50.21 21.039 51.746 C 20.974 52.597 20.895 53.319 20.87 53.357 C 20.83 53.384 18.85 53.436 16.452 53.463 C 14.065 53.488 12.072 53.528 12.046 53.567 C 11.981 53.619 11.391 59.204 11.377 59.82 C 11.377 60.174 11.377 60.174 15.914 60.174 C 20.451 60.174 20.451 60.174 20.358 61.787 C 20.306 62.665 20.24 63.426 20.201 63.492 C 20.175 63.544 18.09 63.583 15.586 63.583 C 10.42 63.583 10.985 63.347 10.788 65.616 C 10.735 66.126 10.683 66.769 10.643 67.058 C 10.355 69.889 10.199 71.62 10.238 71.672 C 10.277 71.697 11.993 71.724 14.065 71.71 C 17.829 71.71 17.829 71.71 17.737 72.721 C 17.685 73.284 16.819 81.949 16.765 82.317 C 16.661 82.959 16.675 82.973 17.002 83.025 C 17.5 83.103 14.524 83.143 9.451 83.143 C 5.701 83.143 4.954 83.169 4.954 83.313 C 4.954 83.418 4.875 83.694 4.771 83.93 C 4.548 84.44 2.726 89.579 2.726 89.671 C 2.726 89.711 5.492 89.723 8.887 89.711 C 12.27 89.698 15.048 89.711 15.048 89.75 C 15.048 89.777 14.891 90.431 14.707 91.18 C 14.367 92.557 14.367 92.557 7.983 92.582 C 1.611 92.622 1.67 92.632 0.896 94.925 Z"
    fill="#8b9aa0"
  />
  <path
    d="M 35.211 47.392 C 32.589 46.974 30.806 46.042 28.814 44.05 C 26.415 41.65 25.38 39.12 25.38 35.726 C 25.38 31.071 27.817 27.059 31.921 24.974 C 34.831 23.493 38.988 23.493 41.951 24.987 C 46.172 27.111 48.623 31.071 48.609 35.778 C 48.597 40.065 46.316 44.037 42.711 46.042 C 40.469 47.287 37.703 47.786 35.211 47.392 Z"
    fill="#8b9aa0"
  />
  <path
    d="M 4.102 45.531 C 2.817 45.216 1.585 42.856 0.995 39.605 C 0.68 37.796 0.615 33.902 0.877 32.119 C 1.428 28.292 2.87 25.836 4.503 25.785 C 6.208 25.732 7.524 28.041 7.838 29.038 C 8.375 30.769 8.546 32.408 8.546 35.791 C 8.546 39.382 8.375 40.733 7.681 42.804 C 7.261 44.037 6.357 45.614 4.102 45.531 Z"
    fill="#8b9aa0"
  />
  <path
    d="M 69.332 45.304 C 66.409 46.016 65.429 41.35 65.246 39.67 C 65.154 38.91 65.128 36.983 65.154 35.017 C 65.207 32.159 65.26 31.463 65.509 30.376 C 65.993 28.226 66.649 26.692 67.37 25.983 C 67.724 25.63 67.907 25.564 68.393 25.564 C 68.72 25.564 69.219 25.63 69.494 25.708 C 71.526 26.272 72.929 31.031 72.693 36.576 C 72.51 40.785 71.305 44.824 69.332 45.304 Z"
    fill="#8b9aa0"
  />
  <path
    d="M 4.863 45.491 C 6.187 45.242 7.354 43.105 7.917 39.921 C 8.245 38.072 8.245 33.509 7.917 31.595 C 7.498 29.065 6.856 27.453 5.871 26.468 C 5.283 25.879 5.176 25.826 4.587 25.826 C 3.367 25.826 5.19 25.708 9.044 25.643 C 13.62 25.564 14.17 25.578 14.59 25.774 C 15.914 26.391 17.029 28.632 17.461 31.529 C 17.71 33.194 17.724 37.232 17.487 39.001 C 17.016 42.476 15.992 44.745 14.603 45.373 C 14.105 45.597 13.673 45.61 9.214 45.61 C 6.553 45.597 4.587 45.545 4.863 45.491 Z"
    fill="#75878d"
  />
  <path
    d="M 58.967 45.453 C 58.416 45.308 57.682 44.534 57.17 43.591 C 55.532 40.497 55.205 33.377 56.503 29.235 C 57.066 27.413 57.852 26.22 58.757 25.814 C 59.241 25.591 59.688 25.564 63.817 25.578 C 66.309 25.578 68.396 25.429 68.192 25.592 C 66.407 27.03 66.056 28.827 65.617 30.573 C 65.338 31.68 65.332 32.523 65.305 35.367 C 65.266 38.92 65.614 39.894 66.058 41.65 C 66.401 43.013 66.925 44.129 67.566 44.837 C 67.999 45.308 68.104 45.36 68.694 45.36 C 70.28 45.36 70.005 45.466 64.368 45.518 C 61.615 45.545 59.176 45.505 58.967 45.453 Z"
    fill="#75878d"
  />
  <path
    d="M 34.713 42.436 C 32.407 41.65 30.702 39.709 30.191 37.298 C 29.942 36.118 29.942 35.489 30.204 34.242 C 31.304 28.869 37.663 26.757 41.61 30.454 C 44.585 33.233 44.637 37.849 41.74 40.707 C 40.259 42.162 38.844 42.739 36.746 42.739 C 35.867 42.739 35.343 42.66 34.713 42.436 Z"
    fill="#475d65"
  />
  <path
    d="M 3.854 40.497 C 2.949 39.776 2.529 37.875 2.634 34.872 C 2.713 32.579 2.922 31.621 3.538 30.887 C 4.18 30.113 4.875 30.271 5.4 31.319 C 5.964 32.421 6.173 33.876 6.095 36.105 C 6.016 38.464 5.715 39.644 5.019 40.339 C 4.508 40.85 4.324 40.863 3.854 40.497 Z"
    fill="#475d65"
  />
  <path
    d="M 68.524 40.365 C 67.895 39.736 67.487 37.94 67.487 35.816 C 67.501 32.525 68.17 30.415 69.205 30.415 C 70.176 30.415 70.753 31.896 70.857 34.623 C 71.001 38.097 70.293 40.642 69.18 40.642 C 68.97 40.642 68.681 40.522 68.524 40.365 Z"
    fill="#475d65"
  />
</svg>
