<svg
  xmlns="http://www.w3.org/2000/svg"
  viewBox="-64.375 -232.926 819.005 652.248"
>
  <path
    fill="#b27056"
    d="M-9.345 133.572c-.65 8.35-.68 16.49-.17 24.85 3.33-2 6.63-4.01 9.98-5.99 4.73 3.56 9.54 7.55 15.61 8.44 3.94.61 7.42-.59 10.99-2.14.16 7.87.57 15.71.55 23.58.69 15.1 1.11 30.17.61 45.28-1.52-10.01.22-19.98-1.5-29.93-1.22 4.76-1.93 9.58-2.33 14.47-1.27 15.37-2.56 30.76-3.44 46.16-.03 13.34-.2 26.73-.41 40.07-1.1 10.63-.25 21.19-.44 31.85.87 16.32 1.47 32.68 2.92 48.96.38 5.14 1.43 9.83 3.42 14.6.3 8.53.05 17.02-.22 25.55H.755c-4.5-2.18-9.2-5.34-10.48-10.49-1.34-6.27-.64-13.12-.76-19.51 0-70.66 0-141.34-.03-212-.1-14.1.86-28.6-.14-42.66.43-.36.88-.73 1.31-1.09"
  /><path
    fill="#9e523b"
    d="M27.405 129.932c1.1.99 2.16 2.04 3.24 3.04-1.3 2.05-2.66 3.77-2.91 6.28-.69 5.95-.01 12.16-.43 18.12l-.24 1.36c-3.57 1.55-7.05 2.75-10.99 2.14-6.07-.89-10.88-4.88-15.61-8.44-3.35 1.98-6.65 3.99-9.98 5.99-.51-8.36-.48-16.5.17-24.85 1.28-1.12 2.54-2.24 3.85-3.3 5.34 4.05 12.04 10.21 19.1 10.13 6.14-.1 9.96-6.52 13.8-10.47"
  /><path
    fill="#b76649"
    d="M26.725 197.662c1.72 9.95-.02 19.92 1.5 29.93 1 37.22.48 74.51.04 111.74-.44 18.16-.81 36.3-1.82 54.44-1.99-4.77-3.04-9.46-3.42-14.6-1.45-16.28-2.05-32.64-2.92-48.96.19-10.66-.66-21.22.44-31.85.21-13.34.38-26.73.41-40.07.88-15.4 2.17-30.79 3.44-46.16.4-4.89 1.11-9.71 2.33-14.47"
  /><path
    fill="#c18166"
    d="M32.805 152.602c3.79 2.2 7.57 5.49 11.75 6.81 3.62 1.07 7.62 1.04 11.29.24 3.75-.82 6.13-3.4 8.86-5.88 2.64 2.43 5.54 5.52 9.1 6.49 3.35.87 7.2.78 10.54-.17 3.52-.99 6.22-3.76 8.88-6.11 3.37 3.11 6.62 5.87 11.33 6.59 5.41 1.23 10.41-.08 15.42-2.08l-.15.69c-1.98 7.65-2.52 15.39-3.96 23.13-.85 4.62-1.64 9.24-2.26 13.9-21.55-.69-43.13.11-64.7-.33-.4 9.49-.09 18.95-.1 28.44q-.15 47.955.06 95.91c21.63.09 43.26-.09 64.9.04.22 12 1.09 23.97 1.44 35.96.59 14.06 3.26 27.9 3.89 41.93l1.14-1c-.35 7.38-.43 14.77-.55 22.16h-93.46c.27-8.53.52-17.02.22-25.55 1.01-18.14 1.38-36.28 1.82-54.44.44-37.23.96-74.52-.04-111.74.5-15.11.08-30.18-.61-45.28.02-7.87-.39-15.71-.55-23.58l.24-1.36c1.72-1.7 3.55-3.31 5.5-4.77"
  /><path
    fill="#b76649"
    d="M113.765 320.272h8.78c-1.19 14.13-1.09 28.28-1.52 42.44-.55 11.48-.3 22.97-.79 34.45l-1.14 1c-.63-14.03-3.3-27.87-3.89-41.93-.35-11.99-1.22-23.96-1.44-35.96m6.06-161.09c.27 12.35 1.9 24.6 1.69 36.98-2.63.08-5.27.09-7.91.05.62-4.66 1.41-9.28 2.26-13.9 1.44-7.74 1.98-15.48 3.96-23.13"
  /><path
    fill="#d19378"
    d="M122.505 152.722c4.29 3.02 7.6 6.3 13.17 6.67 6.17.61 10.25-2.88 15.03-6.09 4.72 3.32 8.83 6.82 14.92 7.05 5.74.43 10.27-1.95 15.09-4.66 3.55 3.6 6.47 7.28 12.01 7.36 6.81.18 11-3.87 15.5-8.31 1.92 2.18 4 5.16 6.89 6.01 3.31.99 7.01 1.11 10.4.45 3.67-.76 6.75-3.19 9.76-5.31 2.43 3.05 4.38 6.61 8.65 7.11 7.55.97 13.37-3.06 19.24-7.12 2.61 2.48 5.05 5.31 8.69 6.13 3.62.83 7.77.78 11.37-.12 4.46-1.14 7.74-4.2 11.17-7.07 4.2 4.02 8 8.12 14.28 8.18 5.42.07 8.57-3.69 12.11-7.16 2.5 2.57 4.56 5.43 8.39 5.88 7.12.99 12.42-2.42 18.07-6.11 2.02 2.7 4.22 6.32 7.44 7.64 3.3 1.33 7.73 1.41 11.06.19 3.9-1.45 7.04-5.16 9.85-8.08 1.65 1.75 3.31 3.55 5.07 5.19.01 6.78-.31 13.56-.36 20.35-.2 5.12-.83 10.25-1.4 15.34-5.45-.15-10.88-.32-16.32-.2-.34 28.42.01 56.86-.11 85.28.15 12.96-.24 25.93.19 38.89 5.37.15 10.75.21 16.12.09.32 12.67.88 25.34.94 38.02.11 12.7 1.01 25.37 1.02 38.07.12 7.65.12 15.28-.07 22.93h-46.76c.27-19.33.1-38.67.1-58-.02-52 .07-104-.04-156-.05-9.31.33-18.59-.14-27.89-7.07.15-14.12.36-21.21.32-25.33-.37-50.66-.03-76-.15-17.66-.09-35.33.07-53 .01-5.53-.01-11.1-.21-16.63.15-.21 2.51-.27 5.01-.29 7.53-.02 57.35 0 114.68.01 172.03-.07 20.67.19 41.34-.04 62h-46.99c.12-7.39.2-14.78.55-22.16.49-11.48.24-22.97.79-34.45.43-14.16.33-28.31 1.52-42.44 5.07-.01 10.17-.03 15.25-.06.35-7.3.31-14.59.25-21.89.02-28 .01-56 .01-84 .04-6.09.02-12.17-.21-18.25-5.45-.23-10.87-.16-16.33.09.21-12.38-1.42-24.63-1.69-36.98l.15-.69c.73-1.97 1.58-3.9 2.53-5.77"
  /><path
    fill="#b76649"
    d="M378.785 320.302c2.87-.06 5.74-.12 8.59-.13-.77 10.37-.97 20.74-1.28 31.13-1.14 15.21-2.57 30.41-3.87 45.6l-1.48-.51c-.01-12.7-.91-25.37-1.02-38.07-.06-12.68-.62-25.35-.94-38.02m1.52-139.4c.62 5.16 1.91 10.28 3.22 15.31q-2.325.045-4.62.03c.57-5.09 1.2-10.22 1.4-15.34"
  /><path
    fill="#c18166"
    d="M432.195 154.442c2.78 2.89 5.21 5.76 9.04 7.28 3.71 1.43 7.96 1.9 11.86 1.06 3.45-.77 6.26-3.69 8.85-5.96 3.65 2.43 7.38 4.59 11.69 5.7.58 11.18-.5 22.34.19 33.5-1.19 17.1-1.14 34.16-1.44 51.3.08 19.34-.41 38.68.13 58 .4 20.54-.03 41.24 1.46 61.73-.07 9.19-.32 18.35.31 27.53.59 8.27.81 16.45.6 24.74h-94.21c.19-7.65.19-15.28.07-22.93l1.48.51c1.3-15.19 2.73-30.39 3.87-45.6.31-10.39.51-20.76 1.28-31.13 11.42.09 22.84.15 34.26.06 10.1-.16 20.05.51 30.13-.62.28-30.76.21-61.53.24-92.29-.16-10.4.25-20.78-.19-31.18-14.72-.5-29.46-.07-44.18-.19-8.04-.07-16.08-.1-24.11.26-1.31-5.03-2.6-10.15-3.22-15.31.05-6.79.37-13.57.36-20.35 3.33 2.64 7.26 4.15 11.56 3.37 4.31-.65 7.04-3.79 9.97-6.67 1.87 2.31 4.03 5.62 6.97 6.53 3.84 1.12 8.25.51 11.93-.94 4.5-1.84 7.66-5.11 11.1-8.4"
  /><path
    fill="#b76649"
    d="M59.965 130.692c5.01 4.18 8.42 8.87 15.66 8.74 6.43.17 9.8-3.91 13.92-8.04 2.78 2.71 5.35 5.52 9.09 6.91 4.2 1.49 9.09 1.7 13.34.35 3.82-1.23 6.09-4.68 8.45-7.67 4.56 3.88 8.75 7.43 15.15 7.22 5.65-.08 9.14-3.88 13.03-7.39 5.17 4.46 9.68 8.86 17.02 8.73 6 .05 9.89-3.25 14.25-6.81 1.65 2.54 3.33 5.78 5.85 7.52 3.31 2.07 8 2.01 11.63.87 4.45-1.37 7.43-5.08 10.43-8.4 2.13 2.67 4.56 6.25 7.77 7.61 3.42 1.31 7.53.99 10.96-.11 3.84-1.3 6.41-3.9 9.29-6.61 1.59 2.52 3.32 6.25 6.21 7.43 3.91 1.56 8.79.83 12.63-.7 4.03-1.63 6.77-4.6 9.77-7.62 2.25 3.22 4.44 7.03 8.33 8.47 4.23 1.48 9.18 1.06 13.35-.42 4.09-1.51 6.86-4.85 9.74-7.96 4.13 4.72 7.81 9.21 14.68 9.16 6.31.05 9.54-4.18 13.35-8.45 1.79 2.43 3.67 5.69 6.36 7.16 2.98 1.22 6.73.79 9.75-.09 4.56-1.42 7.57-4.66 10.85-7.94 1.83 2.95 3.83 6.79 6.86 8.63 3.9 2.23 9.1 2.11 13.12.26 3.8-1.76 6.56-5.59 9.15-8.78 1.75 2.25 3.56 4.68 5.66 6.59 4.17 3.81 10.9 4.56 15.79 1.75 2.7-1.58 4.63-4.74 6.36-7.29 1.36 2.65 2.75 6.49 5.59 7.82 4.06 1.95 9.37 1.33 13.49-.12 4.7-1.67 7.63-5.3 10.88-8.87 2.87 3.01 5.72 6.31 9.66 7.92 4.09 1.64 8.9 1.98 13.1.65 3.65-1.17 5.9-4.62 8.18-7.46 2.12 2.08 4.25 4.25 6.55 6.15-2.4 6.95-1.08 15.38-.74 22.67l-.84-.05c-4.31-1.11-8.04-3.27-11.69-5.7-2.59 2.27-5.4 5.19-8.85 5.96-3.9.84-8.15.37-11.86-1.06-3.83-1.52-6.26-4.39-9.04-7.28-3.44 3.29-6.6 6.56-11.1 8.4-3.68 1.45-8.09 2.06-11.93.94-2.94-.91-5.1-4.22-6.97-6.53-2.93 2.88-5.66 6.02-9.97 6.67-4.3.78-8.23-.73-11.56-3.37-1.76-1.64-3.42-3.44-5.07-5.19-2.81 2.92-5.95 6.63-9.85 8.08-3.33 1.22-7.76 1.14-11.06-.19-3.22-1.32-5.42-4.94-7.44-7.64-5.65 3.69-10.95 7.1-18.07 6.11-3.83-.45-5.89-3.31-8.39-5.88-3.54 3.47-6.69 7.23-12.11 7.16-6.28-.06-10.08-4.16-14.28-8.18-3.43 2.87-6.71 5.93-11.17 7.07-3.6.9-7.75.95-11.37.12-3.64-.82-6.08-3.65-8.69-6.13-5.87 4.06-11.69 8.09-19.24 7.12-4.27-.5-6.22-4.06-8.65-7.11-3.01 2.12-6.09 4.55-9.76 5.31-3.39.66-7.09.54-10.4-.45-2.89-.85-4.97-3.83-6.89-6.01-4.5 4.44-8.69 8.49-15.5 8.31-5.54-.08-8.46-3.76-12.01-7.36-4.82 2.71-9.35 5.09-15.09 4.66-6.09-.23-10.2-3.73-14.92-7.05-4.78 3.21-8.86 6.7-15.03 6.09-5.57-.37-8.88-3.65-13.17-6.67-.95 1.87-1.8 3.8-2.53 5.77-5.01 2-10.01 3.31-15.42 2.08-4.71-.72-7.96-3.48-11.33-6.59-2.66 2.35-5.36 5.12-8.88 6.11-3.34.95-7.19 1.04-10.54.17-3.56-.97-6.46-4.06-9.1-6.49-2.73 2.48-5.11 5.06-8.86 5.88-3.67.8-7.67.83-11.29-.24-4.18-1.32-7.96-4.61-11.75-6.81a54 54 0 0 0-5.5 4.77c.42-5.96-.26-12.17.43-18.12.25-2.51 1.61-4.23 2.91-6.28 5.65 4.44 12.6 6.84 19.76 5.15 4.18-.94 6.67-4.61 9.56-7.43m413.86 65.33c1.34 4.37 2.56 8.69 2.89 13.28.79 9.62 1.33 19.25 2.2 28.86.9 9.19.25 18.4 1.12 27.59.78 8.62.38 17.25.95 25.89.36 5.56.15 11.1-.19 16.65-.51 8.7-.01 17.36-.32 26.05-.56 13.02-1.59 25.99-1.97 39.01-.06 4.09-1.62 7.6-3.46 11.16-.1-5.86-.41-11.63-1.07-17.46-1.49-20.49-1.06-41.19-1.46-61.73-.54-19.32-.05-38.66-.13-58 .3-17.14.25-34.2 1.44-51.3"
  /><path
    fill="#b27056"
    d="M489.665 156.742c3.34 1.63 6.78 4.27 10.43 5.03 3.63.63 7.82-1.17 11.22-2.36.13 14.02-.19 28.02.38 42.03-.13 6.96-.47 13.91-.35 20.88-.11 65.67.04 131.34-.15 197h-36.31c.21-8.29-.01-16.47-.6-24.74-.63-9.18-.38-18.34-.31-27.53.66 5.83.97 11.6 1.07 17.46 1.84-3.56 3.4-7.07 3.46-11.16.38-13.02 1.41-25.99 1.97-39.01.31-8.69-.19-17.35.32-26.05.34-5.55.55-11.09.19-16.65-.57-8.64-.17-17.27-.95-25.89-.87-9.19-.22-18.4-1.12-27.59-.87-9.61-1.41-19.24-2.2-28.86-.33-4.59-1.55-8.91-2.89-13.28-.69-11.16.39-22.32-.19-33.5l.84.05c5.94-.14 10.28-2.95 15.19-5.83"
  /><path
    fill="#9e523b"
    d="M497.605 133.072c4.28 3.86 8.43 6.88 13.87 8.94-.22 5.8-.24 11.6-.16 17.4-3.4 1.19-7.59 2.99-11.22 2.36-3.65-.76-7.09-3.4-10.43-5.03-4.91 2.88-9.25 5.69-15.19 5.83-.34-7.29-1.66-15.72.74-22.67 4.38 1.29 9.16 2 13.6.57 3.7-1.22 6.13-4.73 8.79-7.4"
  /><path
    fill="#fcd06f"
    d="M265.585-192.68c11.58 2.44 21.58 7.56 31.9 13.11 10.79 5.88 19.82 13.18 29.8 20.22 6.02 4.31 12.2 8.44 18.12 12.89 15.63 11.77 30.45 24.89 44.65 38.35 9.96 9.701 19.43 19.911 28.98 30.021 13.34 15.11 26.13 30.84 37.69 47.34 7.51 10.37 14.43 21.18 20.51 32.46 4.08 7.28 8.37 14.42 12.23 21.83 2.69 5.1 6.17 9.64 10.1 13.85 5.97 6.511 11.85 13.041 17.31 20.001 5.29 6.59 10.6 13.18 16.02 19.66 4.42 5.29 8.31 10.94 12.92 16.08 5.24 5.82 10.33 11.66 15.195 17.83 1.85 2.44 3.98 5.41 4.39 8.52.36 2.92-.81 6.62-3.52 8.11-3.73 1.77-8.485 1.16-12.135 2.92-2.25 2.63-3.49 6.56-6.1 8.84-2.78 2.08-7 2.24-10.23 1.21-4-1.32-6.69-5.54-9.13-8.76-3.75 5.14-6.9 7.73-12.81 10.21-5.44-2.06-9.59-5.08-13.87-8.94-2.66 2.67-5.09 6.18-8.79 7.4-4.44 1.43-9.22.72-13.6-.57-2.3-1.9-4.43-4.07-6.55-6.15-2.28 2.84-4.53 6.29-8.18 7.46-4.2 1.33-9.01.99-13.1-.65-3.94-1.61-6.79-4.91-9.66-7.92-3.25 3.57-6.18 7.2-10.88 8.87-4.12 1.45-9.43 2.07-13.49.12-2.84-1.33-4.23-5.17-5.59-7.82-1.73 2.55-3.66 5.71-6.36 7.29-4.89 2.81-11.62 2.06-15.79-1.75-2.1-1.91-3.91-4.34-5.66-6.59-2.59 3.19-5.35 7.02-9.15 8.78-4.02 1.85-9.22 1.97-13.12-.26-3.03-1.84-5.03-5.68-6.86-8.63-3.28 3.28-6.29 6.52-10.85 7.94-3.02.88-6.77 1.31-9.75.09-2.69-1.47-4.57-4.73-6.36-7.16-3.81 4.27-7.04 8.5-13.35 8.45-6.87.05-10.55-4.44-14.68-9.16-2.88 3.11-5.65 6.45-9.74 7.96-4.17 1.48-9.12 1.9-13.35.42-3.89-1.44-6.08-5.25-8.33-8.47-3 3.02-5.74 5.99-9.77 7.62-3.84 1.53-8.72 2.26-12.63.7-2.89-1.18-4.62-4.91-6.21-7.43-2.88 2.71-5.45 5.31-9.29 6.61-3.43 1.1-7.54 1.42-10.96.11-3.21-1.36-5.64-4.94-7.77-7.61-3 3.32-5.98 7.03-10.43 8.4-3.63 1.14-8.32 1.2-11.63-.87-2.52-1.74-4.2-4.98-5.85-7.52-4.36 3.56-8.25 6.86-14.25 6.81-7.34.13-11.85-4.27-17.02-8.73-3.89 3.51-7.38 7.31-13.03 7.39-6.4.21-10.59-3.34-15.15-7.22-2.36 2.99-4.63 6.44-8.45 7.67-4.25 1.35-9.14 1.14-13.34-.35-3.74-1.39-6.31-4.2-9.09-6.91-4.12 4.13-7.49 8.21-13.92 8.04-7.24.13-10.65-4.56-15.66-8.74-2.89 2.82-5.38 6.49-9.56 7.43-7.16 1.69-14.11-.71-19.76-5.15-1.08-1-2.14-2.05-3.24-3.04-3.84 3.95-7.66 10.37-13.8 10.47-7.06.08-13.76-6.08-19.1-10.13-1.31 1.06-2.57 2.18-3.85 3.3-.43.36-.88.73-1.31 1.09-4.74 2.17-10.34 5.09-15.65 3.78-5.04-1.07-7.48-6.23-11.58-8.41-6.23-1.43-13.55.54-19.86-1.44-3.02-.99-4.93-3.9-6.63-6.41v-5.31c13.69-18.42 27.8-36.51 42.03-54.51 8.7-10.59 17.84-20.84 26.77-31.251 7.27-8.81 12.43-19.81 18.42-29.59 12.91-21.27 26.1-41.7 42.47-60.51 19.28-24.27 41.09-46.201 64.17-66.841 19.22-16.42 39.36-31.64 60.49-45.53 14.54-10.38 30.37-18.56 48.01-22.05 9.25-2.47 18.43-1.5 27.6.73"
  /><path
    fill="#c18166"
    d="M195.555-70.819c.9 12.73-.1 25.41.5 38.14.82 16.73 2.71 32.4-.16 49.1-5.71.06-11.41-.01-17.1-.15-.196-.56-.393-1.13-.59-1.69.12-23.09.02-46.12.13-69.21 5.44-5.74 11.39-10.86 17.22-16.19"
  /><path
    fill="#d19378"
    d="M249.775-118.67c4.24 2.74 7.69 6.09 11.33 9.52 8.62 8.1 17.87 15.401 26.57 23.411 6.54 6.04 13.53 11.53 19.94 17.69-.93 4.75-1.14 9.55-.95 14.37.43 11.49.12 22.96-.63 34.42-.74 11.96.37 23.64.65 35.58-11.72-.03-23.45.06-35.17.03.72-5.32 1.08-10.66 1.23-16.02 4.55 0 9.1-.08 13.66-.19.08-26.16-.01-52.32 0-78.48-5.29-.01-10.57-.11-15.86-.19-.49-5.49-1.18-10.95-2.17-16.38-.47 5.45-.71 10.9-.8 16.37-12.29-.06-24.59.16-36.87.02-.16-5.02-.5-9.99-1.43-14.93-.43 4.97-.86 9.93-1.48 14.88-4.62-.06-9.3-.14-13.9.19-.32 4.53-.22 9.16-.18 13.7.02 21.64-.2 43.28 0 64.92 4.97.06 9.95.08 14.91.07.15 5.32.41 10.63.96 15.92-11.24.16-22.47.1-33.69.19 2.87-16.7.98-32.37.16-49.1-.6-12.73.4-25.41-.5-38.14 3.96-3.73 8.19-7.11 12.42-10.53 5.35-4.32 9.83-9.47 15.08-13.9 3.98-3.37 8.07-6.561 11.88-10.111 4.9-4.42 9.58-9.36 14.84-13.31"
  /><path
    fill="#d19378"
    d="M232.735.331c11.95.21 23.88.17 35.85 0 .06 5.5.07 10.74 1.93 16-12.93-.02-25.86.19-38.8-.09.66-5.29.95-10.59 1.02-15.91"
  /><path
    fill="#b76649"
    d="M228.625.311c1.37 0 2.74.01 4.11.02-.07 5.32-.36 10.62-1.02 15.91-.71 0-1.42 0-2.13-.01-.55-5.29-.81-10.6-.96-15.92m39.96.02h4.16c-.15 5.36-.51 10.7-1.23 16.02-.333 0-.666-.01-1-.02-1.86-5.26-1.87-10.5-1.93-16m-39.31-93.78c.93 4.94 1.27 9.91 1.43 14.93-.98-.02-1.93-.03-2.91-.05.62-4.95 1.05-9.91 1.48-14.88m39.1-1.46c.99 5.43 1.68 10.89 2.17 16.38-.99-.01-1.99-.01-2.97-.01.09-5.47.33-10.92.8-16.37"
  /><path
    fill="#c18166"
    d="M307.615-68.049c4.62 4.39 9.01 8.77 14.73 11.77.42 9.87.08 19.73.17 29.6-.1 14.01.46 28.06.13 42.06-.056.29-.113.58-.17.86-5.26.09-10.52.12-15.79.08-.28-11.94-1.39-23.62-.65-35.58.75-11.46 1.06-22.93.63-34.42-.19-4.82.02-9.62.95-14.37"
  /><path
    fill="#b27056"
    d="M250.525-137.76c4.6 2.65 8.07 7.63 11.87 11.33 6.5 6.49 13.16 12.82 19.72 19.27 13.49 12.491 27.19 24.761 40.73 37.211-.36 4.55-.58 9.1-.5 13.67-5.72-3-10.11-7.38-14.73-11.77-6.41-6.16-13.4-11.65-19.94-17.69-8.7-8.01-17.95-15.311-26.57-23.411-3.64-3.43-7.09-6.78-11.33-9.52-5.26 3.95-9.94 8.89-14.84 13.31-3.81 3.55-7.9 6.741-11.88 10.111-5.25 4.43-9.73 9.58-15.08 13.9-4.23 3.42-8.46 6.8-12.42 10.53-5.83 5.33-11.78 10.45-17.22 16.19-.05-5.43-.12-10.86-.15-16.29 20.15-18.21 40.25-36.541 59.54-55.661 3.86-3.64 7.69-9.42 12.8-11.18"
  /><path
    fill="#fcd06f"
    d="M247.845-159.78c4.33-1.13 8.52 1.47 11.99 3.79 13.75 9.79 26.45 21.8 39.35 32.7 6.23 5.45 12.28 11.1 18.36 16.69 10.49 10.581 20.97 19.341 28.8 32.321 1.89 3.54 3.77 6.79 2.53 10.92-1.76-1.09-3.35-2.32-5.01-3.57-.29 2.43.66 8.35-3.31 7.66-6.54-.48-12.78-6.72-17.71-10.68-13.54-12.45-27.24-24.72-40.73-37.211-6.56-6.45-13.22-12.78-19.72-19.27-3.8-3.7-7.27-8.68-11.87-11.33-5.11 1.76-8.94 7.54-12.8 11.18-19.29 19.12-39.39 37.451-59.54 55.661-3.58 3.04-7.17 6.08-10.92 8.91-2.12 1.51-4.86 3.4-7.54 3.43-3.08-.21-3.11-5.18-3.95-7.43-1.86.51-3.72.98-5.56 1.47.94-3.95 1.99-7.75 4.36-11.12 6.73-9.7 14.96-18.52 23.9-26.231 8.25-7.09 15.15-15.48 23.64-22.32 11.04-9.05 20.98-19.24 32.51-27.54 3.98-2.88 8.41-6.79 13.22-8.03"
  /><path
    fill="#efa12b"
    d="M261.675-163.62c7.36 4.06 13.4 9.71 18.81 16.06 8.11 9.08 16.84 18.29 26.8 25.33 6.93 5.02 13.25 10.65 19.74 16.23 11.95 10.661 22.49 21.851 29.15 36.621 1.95 4.58 2.8 9.73 2.23 14.69-.38 3.68-3.24 6.72-6.73 7.74-3.7.96-7.82.69-11.45 1.86-2.08 3.69-2.65 8.43-3.69 12.53-3.95 16.19-8.18 32.26-13.89 47.94.33-14-.23-28.05-.13-42.06-.09-9.87.25-19.73-.17-29.6-.08-4.57.14-9.12.5-13.67 4.93 3.96 11.17 10.2 17.71 10.68 3.97.69 3.02-5.23 3.31-7.66 1.66 1.25 3.25 2.48 5.01 3.57 1.24-4.13-.64-7.38-2.53-10.92-7.83-12.98-18.31-21.74-28.8-32.321-6.08-5.59-12.13-11.24-18.36-16.69-12.9-10.9-25.6-22.91-39.35-32.7-3.47-2.32-7.66-4.92-11.99-3.79-4.81 1.24-9.24 5.15-13.22 8.03-11.53 8.3-21.47 18.49-32.51 27.54-8.49 6.84-15.39 15.23-23.64 22.32-8.94 7.711-17.17 16.531-23.9 26.231-2.37 3.37-3.42 7.17-4.36 11.12 1.84-.49 3.7-.96 5.56-1.47.84 2.25.87 7.22 3.95 7.43 2.68-.03 5.42-1.92 7.54-3.43 3.75-2.83 7.34-5.87 10.92-8.91.03 5.43.1 10.86.15 16.29-.11 23.09-.01 46.12-.13 69.21-2.42-5.32-4.86-10.57-6.47-16.21-4.27-14.52-7.19-29.44-12.02-43.83-3.62-.29-7.57-.37-11.03-1.5-3.84-1.36-7.22-4.7-7.46-8.95-.3-10.9 5.4-19.34 11.32-27.9 6.25-9.23 14.22-16.111 22.38-23.581 7.38-6.74 15.66-12.24 23.24-18.74 6.77-5.62 12.71-11.87 18.93-18.09 5.4-5.39 9.03-11.15 15.26-15.63 4.39-3.13 9.56-6.06 14.93-7.01 5.11-.89 9.98.81 14.39 3.24M37.565 35.311c-1.98 3.591-4.13 7.081-6.59 10.361-16.96 22.42-33.14 45.42-49.08 68.56 1.86-4.97 3.67-10 5.8-14.86 2.81-6.46 6.65-12.59 10.18-18.8 6.21-10.96 14.25-20.98 23.01-29.98 5.31-5.41 10.61-10.71 16.68-15.281m57.82 11.091c-2.34 10.08-5.48 19.47-9.84 28.86-4.19 10.18-9.17 19.12-15.68 27.99 1.91-8.42 3.56-16.6 7.16-24.52 3.31-7.18 6.2-14.99 10.52-21.51 2.43-3.73 5.1-7.31 7.84-10.82m72.88-12.101c-2.98 18.551-6.35 37.051-10.43 55.391-1.78 9.02-4.22 17.87-7 26.63-.23-5.35-.4-10.69-.06-16.05.52-10.58 3-21.43 5.14-31.83 2.71-11.73 7.02-23.34 12.35-34.141m61.11 12.001c4.42 20.69.72 40.09-4.59 60.13-1.8-9.72-1.41-19.34-.86-29.15.67-10.47 2.65-20.88 5.45-30.98m58.55-4.85c3.23 7.39 6.56 15.12 8.54 22.93 1.66 6.62 2.76 13.4 3.77 20.15 1.61 10.64 1.36 21.07 1.17 31.8-3.43-10.79-5.12-21.88-7.66-32.87-2.81-13.87-4.47-28-5.82-42.01m80.09 3.81c6.53 7.21 11.02 15.76 14.96 24.59 4.95 11.21 7.17 23.33 8.37 35.45-6.37-12.04-12.01-24.44-16.18-37.44-2.36-7.53-5.2-14.96-7.15-22.6m82.64-11.681c14.98 12.881 27.51 28.571 36.44 46.221 5.23 10.37 11.72 21.16 14.44 32.42-13.43-20.48-27.1-40.82-40.34-61.44-3.69-5.65-7.41-11.21-10.54-17.201M168.275-131.75c-11.67 13.94-22.65 28.44-34.59 42.131-5.16 6.21-10.01 12.64-15.25 18.78-8.12 9.6-15.76 19.57-23.55 29.44-9.26 11.14-17 23.42-26.13 34.67 1.49-3.7 3.09-7.36 5.01-10.86 10.58-19.29 22.42-38.67 36.09-55.92 5.89-6.86 11.12-14 17.7-20.25 8.8-8.521 17.09-17.701 26.36-25.631 4.75-4.16 9.49-8.34 14.36-12.36m165.32 1.42c5.21 3.96 10.25 8.17 15.05 12.63 5.35 5.01 10.97 9.63 16.02 14.98 9.81 10.321 20.06 20.981 28.46 32.461a375 375 0 0 1 24.1 35.93c5.06 8.23 9.88 16.46 13.31 25.53-16.9-21.32-32.66-43.74-50.37-64.4-9.05-11.27-18.13-22.48-27.54-33.461-6.11-8.12-12.51-15.89-19.03-23.67"
  /><path
    fill="#9e523b"
    d="M537.865 194.812c1.03 1.22 2.02 2.5 3.03 3.75 1.92 2.32 3.91 4.71 7.02 5.4 4.73 1.09 9.095-.4 12.985-3.07 1.59 7.14.41 13.91-.08 21.06-3.19.47-6.985 1.3-10.145.48-3.33-.89-6.06-3.91-8.56-6.15.67 10.36.17 20.67.19 31.04.06 57.33.03 114.67.03 172h-31.14c.19-65.66.04-131.33.15-197-.12-6.97.22-13.92.35-20.88 5.03 1.03 9.59 2.14 14.68.73 4.82-1.26 7.76-4.37 11.49-7.36"
  /><path
    fill="#b27056"
    d="M542.115 216.282c2.5 2.24 5.23 5.26 8.56 6.15 3.16.82 6.955-.01 10.145-.48.09 7.1-.19 14.11-1.41 21.11-.98 4.77-2.28 9.35-2.51 14.26-.285 6.37-.265 12.73-1.005 19.08-.95 8.47.67 16.47.61 24.92-.16 14.28-.22 29.31 2.895 43.3.43 5.23.44 10.46.37 15.7-.11 19.67.13 39.33-.08 59h-17.355c0-57.33.03-114.67-.03-172-.02-10.37.48-20.68-.19-31.04"
  /><path
    fill="#b76649"
    d="M559.41 243.062c-.58 11.19 1.42 22.11 1.21 33.26-.2 8.41 1.1 16.59.25 25-.85 8.65.5 17.23-.42 25.85-.54 5.83-1.13 11.59-1.05 17.45-3.115-13.99-3.055-29.02-2.895-43.3.06-8.45-1.56-16.45-.61-24.92.74-6.35.72-12.71 1.005-19.08.23-4.91 1.53-9.49 2.51-14.26"
  /><path
    fill="#c18166"
    d="M569.18 214.202c4.36 4.43 7.6 8.74 14.45 8.85 5.74.34 9.18-2.94 12.76-6.87 2.03 2.31 4.24 5.34 7.32 6.2 3.96 1.13 8.39.69 12.18-.84 4-1.64 7.29-4.89 10.44-7.77 4.5 5.02 9.12 9.08 16.3 8.98 6.16.3 9.76-3.24 13.97-7.04 2.29 1.59 4.61 3.21 7.03 4.61-.11 7.07-.3 14.14-.71 21.2-1.54 17.48-.95 35.26-1.28 52.8-.4 18.69.19 37.34.45 56.04.75 14.59.8 29.22 1.82 43.78.43 8.38.54 16.79.54 25.18H559.69c.21-19.67-.03-39.33.08-59 .07-5.24.06-10.47-.37-15.7-.08-5.86.51-11.62 1.05-17.45.92-8.62-.43-17.2.42-25.85.85-8.41-.45-16.59-.25-25 .21-11.15-1.79-22.07-1.21-33.26 1.22-7 1.5-14.01 1.41-21.11 3.08-2.29 5.73-4.97 8.36-7.75"
  /><path
    fill="#b76649"
    d="M625.58 193.492c3.1 3.23 5.69 7.14 10.06 8.74 3.8 1.38 8.68 1.63 12.6.63 3.78-.93 6.08-4.44 8.45-7.24 2.22 2.16 4.44 4.35 6.6 6.58-.28 6.19.14 12.34 1.03 18.47l-.69-.35c-2.42-1.4-4.74-3.02-7.03-4.61-4.21 3.8-7.81 7.34-13.97 7.04-7.18.1-11.8-3.96-16.3-8.98-3.15 2.88-6.44 6.13-10.44 7.77-3.79 1.53-8.22 1.97-12.18.84-3.08-.86-5.29-3.89-7.32-6.2-3.58 3.93-7.02 7.21-12.76 6.87-6.85-.11-10.09-4.42-14.45-8.85-2.63 2.78-5.28 5.46-8.36 7.75.49-7.15 1.67-13.92.08-21.06 2.01-2.16 3.83-4.51 5.69-6.79 3.87 5.04 6.99 9.98 14.09 10.04 6.34.33 10.02-3.39 13.93-7.72 2.08 2.63 4.3 6.13 7.65 7.21 4.11 1.25 8.92.82 12.84-.9 4.36-1.99 7.19-5.93 10.48-9.24m38.56 44.66c.15 10.54 2.59 20.64 3.56 31.12 1.33 9.41.27 18.83 1.6 28.24 2.01 13.73.89 26.7 1.06 40.53.11 8.8-.75 17.49-1.09 26.28-.71 11.59-1.39 22.78-4.14 34.04-.43-1.4-.86-2.8-1.22-4.22-1.02-14.56-1.07-29.19-1.82-43.78-.26-18.7-.85-37.35-.45-56.04.33-17.54-.26-35.32 1.28-52.8.39-1.13.81-2.25 1.22-3.37"
  /><path
    fill="#b27056"
    d="m704.98 201.882.57-.57c-.11 4.34-.27 8.67-.25 13.01.05 45.99-.05 92 .04 137.99-.11 4.1-.04 36.11.09 38.97-.1 5.48.3 11.13-.5 16.56-1.03 5.73-5.97 9-10.77 11.48h-29.71c0-8.39-.11-16.8-.54-25.18.36 1.42.79 2.82 1.22 4.22 2.75-11.26 3.43-22.45 4.14-34.04.34-8.79 1.2-17.48 1.09-26.28-.17-13.83.95-26.8-1.06-40.53-1.33-9.41-.27-18.83-1.6-28.24-.97-10.48-3.41-20.58-3.56-31.12-.41 1.12-.83 2.24-1.22 3.37.41-7.06.6-14.13.71-21.2l.69.35c3.67.53 7.83.9 11.33-.55 3.03-1.23 5.86-3.17 8.65-4.87 3.45 2.52 7.54 5.86 11.89 6.41 2.94.27 6.15-1.94 8.71-3.18.08-5.53-.09-11.07.08-16.6"
  /><path
    fill="#9e523b"
    d="M685.73 195.322c3.03 2.14 5.87 5.07 9.21 6.66 2.98 1.43 6.94.53 10.04-.1-.17 5.53 0 11.07-.08 16.6-2.56 1.24-5.77 3.45-8.71 3.18-4.35-.55-8.44-3.89-11.89-6.41-2.79 1.7-5.62 3.64-8.65 4.87-3.5 1.45-7.66 1.08-11.33.55-.89-6.13-1.31-12.28-1.03-18.47 3.96.52 8.46 1.33 12.35.11 3.91-1.2 6.92-4.52 10.09-6.99"
  /><path
    fill="#efa12b"
    d="M516.875 57.392c10.57.08 21.1-.55 31.68-.24 4.2 4.27 8.335 8.57 11.895 13.41 7.15 9.52 14.47 18.91 21.39 28.6 3.8 5.35 9.01 10.46 11.7 16.42 2.83 6.06 1.05 13.73-2.55 19.08-2.94 4.35-9.12 5.99-13.81 7.75 2.27 8.16 3.49 16.47 4.93 24.8.72 4.16.75 8.34.53 12.55-4.01-6.91-5.2-14.34-7.96-21.71-1.97-5.43-3.83-10.9-5.5-16.43-3.85 5.48-7.03 11.7-14.585 12.16-5.03.7-8.42-1.75-11.98-4.84.8 16.48.8 33.27-1.72 49.62-1.01-1.25-2-2.53-3.03-3.75-3.73 2.99-6.67 6.1-11.49 7.36-5.09 1.41-9.65.3-14.68-.73-.57-14.01-.25-28.01-.38-42.03-.08-5.8-.06-11.6.16-17.4 5.91-2.48 9.06-5.07 12.81-10.21 2.44 3.22 5.13 7.44 9.13 8.76 3.23 1.03 7.45.87 10.23-1.21 2.61-2.28 3.85-6.21 6.1-8.84 3.65-1.76 8.405-1.15 12.135-2.92 2.71-1.49 3.88-5.19 3.52-8.11-.41-3.11-2.54-6.08-4.39-8.52-4.865-6.17-9.955-12.01-15.195-17.83-4.61-5.14-8.5-10.79-12.92-16.08-5.42-6.48-10.73-13.07-16.02-19.66"
  /><path
    fill="#fcd06f"
    d="M548.555 57.152c24.355-.34 48.715-.15 73.075-.3 7.37-.07 14.42-.16 21.62 1.73 6.15 1.63 12.34 3.92 17.72 7.37 4.61 3 7.41 7.08 10.83 11.25 24.11 28.26 47.79 56.92 71.19 85.77 3.86 4.88 8.19 9.51 11.64 14.7v7.64c-1.85 1.98-4.01 4.32-6.63 5.23-2.86.92-6.08 1.07-9.06 1.38-1.95 3.22-3.86 7.52-7.03 9.68-3.38 1.88-7.98 1.63-11.28-.33-2.99-1.75-5.64-4.38-8.21-6.69-2.33 2.21-4.51 4.55-6.87 6.73l-.57.57c-3.1.63-7.06 1.53-10.04.1-3.34-1.59-6.18-4.52-9.21-6.66-3.17 2.47-6.18 5.79-10.09 6.99-3.89 1.22-8.39.41-12.35-.11-2.16-2.23-4.38-4.42-6.6-6.58-2.37 2.8-4.67 6.31-8.45 7.24-3.92 1-8.8.75-12.6-.63-4.37-1.6-6.96-5.51-10.06-8.74-3.29 3.31-6.12 7.25-10.48 9.24-3.92 1.72-8.73 2.15-12.84.9-3.35-1.08-5.57-4.58-7.65-7.21-3.91 4.33-7.59 8.05-13.93 7.72-7.1-.06-10.22-5-14.09-10.04-1.86 2.28-3.68 4.63-5.69 6.79-3.89 2.67-8.255 4.16-12.985 3.07-3.11-.69-5.1-3.08-7.02-5.4 2.52-16.35 2.52-33.14 1.72-49.62 3.56 3.09 6.95 5.54 11.98 4.84 7.555-.46 10.735-6.68 14.585-12.16 1.67 5.53 3.53 11 5.5 16.43 2.76 7.37 3.95 14.8 7.96 21.71.22-4.21.19-8.39-.53-12.55-1.44-8.33-2.66-16.64-4.93-24.8 4.69-1.76 10.87-3.4 13.81-7.75 3.6-5.35 5.38-13.02 2.55-19.08-2.69-5.96-7.9-11.07-11.7-16.42-6.92-9.69-14.24-19.08-21.39-28.6-3.56-4.84-7.695-9.14-11.895-13.41"
  /><path
    fill="#efa12b"
    d="M589.85 79.872c10.26 8.33 18.06 21.02 25.41 31.9 9.03 13.32 15.8 27.92 20.98 43.12 1.3 3.84 1.92 7.8 2.35 11.82-4.17-5.64-6.95-11.94-10.55-17.92-5.42-9.05-9.93-18.59-15.42-27.61-4-6.45-7.46-13.18-11.11-19.83-3.87-7.14-8.66-14.04-11.66-21.48m50.53 4.49c5.34 3.57 10.09 7.99 14.83 12.36 17.09 15.8 30.83 35.37 40.9 56.31 3.63 7.2 7.67 13.85 9.33 21.87-5-5.45-8.37-11.84-12.76-17.73-6.43-8.65-11.74-17.99-18.51-26.4-6.31-8.39-12.28-16.99-18.85-25.18-5.01-6.95-11-13.66-14.94-21.23"
  /><path
    fill="#ad6c42"
    d="M166.995 177.762c5.53-.36 11.1-.16 16.63-.15 17.67.06 35.34-.1 53-.01 25.34.12 50.67-.22 76 .15 7.09.04 14.14-.17 21.21-.32.47 9.3.09 18.58.14 27.89.11 52 .02 104 .04 156 0 19.33.17 38.67-.1 58h-18.61c-.02-74.69.07-149.39-.07-224.08-6.86-.47-13.72-.46-20.61-.36-26.64.01-53.35 0-80 .01-9.7.05-19.38-.22-29.08.2-.09 3.74-.18 7.49-.2 11.23.05 71 .03 142 .07 213h-18.74c.23-20.66-.03-41.33.04-62-.01-57.35-.03-114.68-.01-172.03.02-2.52.08-5.02.29-7.53m-53.39 18.45c2.64.04 5.28.03 7.91-.05 5.46-.25 10.88-.32 16.33-.09.23 6.08.25 12.16.21 18.25 0 28 .01 56-.01 84 .06 7.3.1 14.59-.25 21.89-5.08.03-10.18.05-15.25.06h-8.78c-21.64-.13-43.27.05-64.9-.04q-.21-47.955-.06-95.91c.01-9.49-.3-18.95.1-28.44 21.57.44 43.15-.36 64.7.33m248.98-.17c5.44-.12 10.87.05 16.32.2q2.295.015 4.62-.03c8.03-.36 16.07-.33 24.11-.26 14.72.12 29.46-.31 44.18.19.44 10.4.03 20.78.19 31.18-.03 30.76.04 61.53-.24 92.29-10.08 1.13-20.03.46-30.13.62-11.42.09-22.84.03-34.26-.06-2.85.01-5.72.07-8.59.13-5.37.12-10.75.06-16.12-.09-.43-12.96-.04-25.93-.19-38.89.12-28.42-.23-56.86.11-85.28m201.425 51.64c5.41-.9 11.14-.38 16.62-.4 23.63.17 47.27-.16 70.9.31.32 6.24.46 12.48.36 18.73-.17 13.33-.01 26.67-.09 40-.08 11.25.28 22.47-.28 33.72-29.23-.09-58.46.01-87.68-.05-.33-7.22-.28-14.44-.22-21.67 0-18-.01-36-.01-54 .06-5.49-.48-11.22.4-16.64M213.895-78.379c4.6-.33 9.28-.25 13.9-.19.98.02 1.93.03 2.91.05 12.28.14 24.58-.08 36.87-.02.98 0 1.98 0 2.97.01 5.29.08 10.57.18 15.86.19-.01 26.16.08 52.32 0 78.48-4.56.11-9.11.19-13.66.19h-4.16c-11.97.17-23.9.21-35.85 0-1.37-.01-2.74-.02-4.11-.02-4.96.01-9.94-.01-14.91-.07-.2-21.64.02-43.28 0-64.92-.04-4.54-.14-9.17.18-13.7"
  /><path
    fill="gray"
    d="M185.545 195.092c9.7-.42 19.38-.15 29.08-.2 26.65-.01 53.36 0 80-.01 6.89-.1 13.75-.11 20.61.36.14 74.69.05 149.39.07 224.08h-129.89c-.04-71-.02-142-.07-213 .02-3.74.11-7.49.2-11.23m-123.36 14.6c4.33-.87 9.04-.57 13.44-.57 16.34.25 32.69-.2 49.01.2.34 9 .19 17.99.2 27-.15 23.59.26 47.19-.18 70.77-20.89-.01-41.79.16-62.68-.03-.11-27.58-.07-55.16-.1-82.74.03-4.83-.39-9.84.31-14.63m314.09.06c3.33-.72 6.95-.63 10.37-.63 17.34.2 34.7-.16 52.05.2.22 6 .28 12 .22 18-.16 26.58.28 53.18-.2 79.76-20.93-.01-41.85.1-62.76-.02.04-26.58-.05-53.16.01-79.74.08-5.81-.49-11.81.31-17.57m200.925 51.09c2.73-.52 5.64-.5 8.42-.51 17.65.17 35.3-.07 52.95.15.26 8.61.09 17.22.11 25.84-.05 13.53.22 27.08-.2 40.61-20.53-.07-41.07-.07-61.61.01-.16-19.89-.01-39.77-.14-59.66.03-2.12.09-4.34.47-6.44M223.425-67.919c10.42-.44 20.79-.12 31.2-.2 7.37-.04 14.74-.09 22.1.21.27 9.42.07 18.82.12 28.23-.04 9.96.26 19.9-.14 29.86-17.73 0-35.46-.06-53.17.01-.42-9.63-.12-19.24-.17-28.87.03-9.75-.26-19.49.06-29.24"
    data-player="true"
  /><path
    fill="#ad7246"
    d="M667.486 18.983c2.886-43.16 26.794-56.248 32.68-86.963 2.327-12.148 5.944-43.9-20.01-50.91-13.87-3.75-25.54-3.2-38.36-4.28-33.524-2.82-67.496-3.04-100.764-5.71-40.98-3.29-82.381-2.81-122.963.95-16.28 1.5-32.55 1.1-48.854.84 7.103 6.17 14.042 12.54 20.84 18.98 9.96 9.702 19.43 19.912 28.98 30.022 13.34 15.11 26.13 30.84 37.69 47.34 7.51 10.37 14.43 21.18 20.51 32.46 4.08 7.28 8.37 14.42 12.23 21.83 2.69 5.1 6.17 9.64 10.1 13.85 5.97 6.51 11.85 13.04 17.31 20 10.57.08 21.1-.55 31.68-.24 24.355-.34 48.715-.15 73.075-.3 7.37-.07 14.42-.16 21.62 1.73 6.15 1.63 12.34 3.92 17.72 7.37 4.61 3 7.41 7.08 10.83 11.25l1.414 1.658c-3.382-19.941-7.058-39.986-5.728-59.877"
  /><path
    fill="#9a653b"
    d="m650.658-142.9 16.435-.16c.323-27.34.499-54.68.967-82.02.151-8.83-17.798-7.73-17.724-.64.29 27.6.215 55.21.322 82.82"
  /><path
    fill="#966534"
    d="M348.284-200.34c36.788-.93 75.091-1.29 110.203-1.21q-.022-5.415-.056-10.83c-27.068.44-54.011.83-79.59.05-25.198-.77-71.446 1.159-96.578 2.499.29 4.25-5.084 6.261.795 10.551 8.341-2.369 53.597-.76 65.226-1.06"
  /><path
    fill="#9a653b"
    d="m458.629-144.46 16.435-.16c.322-27.34.499-54.68.967-82.01.151-8.83-17.799-7.74-17.724-.65.29 27.61.215 55.22.322 82.82"
  /><path
    fill="#966534"
    d="M475.67-201.48c.045-3.72.093-7.45.145-11.17 19.53-.29 38.988-.47 57.906-.11 38.902.74 77.816-.2 116.724-.32.031 4.54.055 9.08.074 13.61-29.065-.01-58.155 1.12-87.193-.17Zm-74.977 21.52c18.903-.34 38.342-.17 57.855.1l.019 10.75c-35.265.22-66.229.86-87.639 1.76l-54.026.485c-5.708-4.15-11.42-8.182-17.697-11.748 32.158-.561 87.973-1.104 101.489-1.347Zm74.633 10.78.105-10.43c27.538.42 54.962.82 80.982.06 31.374-.92 62.775.14 94.163.25l.02 11.43c-19.924.06-41.09.39-63.46-.15Z"
  /><path
    fill="#965e3f"
    d="M540.314-18.035c1.138 2.065 45.892 1.315 46.515-.727.623-2.043-13.847-13.86-22.906-13.989-9.058-.127-24.747 12.651-23.61 14.716"
  /><path
    fill="#f10100"
    d="M573.379-58.932c-4.342 2.977-4.387 8.822-2.011 13.194s8.96 6.362 14.573 4.013c5.614-2.35 7.843-9.604 5.039-14.717s-13.258-5.467-17.6-2.49m-40.601-8.447c-5.416 3.596-5.472 10.655-2.509 15.937 2.963 5.28 12.162 7.683 18.178 4.846 6.016-2.838 9.783-11.6 6.285-17.774-3.498-6.176-16.537-6.603-21.954-3.008m9.821-38.712c-5.09 1.19-7.107 6.5-6.352 11.307.756 4.81 7.266 9.74 12.595 9.284s10.79-5.941 9.882-11.575c-.908-5.636-11.036-10.216-16.125-9.016m33.335 14.791c-4.095 3.249-3.658 8.908-.924 12.937s10.724 5.712 15.35 3.029c4.627-2.683 7.228-9.975 4.005-14.683-3.223-4.71-14.337-4.533-18.431-1.284"
  /><path
    fill="#965e3f"
    d="M617.385-48.137c1.138 2.065 45.892 1.315 46.515-.727.623-2.043-13.847-13.86-22.905-13.988s-24.748 12.65-23.61 14.715"
  /><path
    fill="#568334"
    d="M640.532-103.03c-2.695.47-10.19 11.824-9.992 22.1.207 10.714 7.996 23.35 10.904 23.649s8.737-13.786 9.054-21.404c.37-8.896-7.272-24.805-9.966-24.345"
  /><path
    fill="#78ad2b"
    d="M611.511-87.673c-1.512 1.96.444 14.121 6.869 20.852 6.699 7.017 19.63 10.673 21.752 9.09 2.121-1.581-2.617-14.542-7.07-19.815-5.201-6.158-20.04-12.087-21.551-10.127m59.596-.301c-2.027-1.42-14.086 1.083-20.52 7.805-6.707 7.01-9.774 20.093-8.098 22.141s14.41-3.271 19.476-7.959c5.916-5.474 11.169-20.566 9.142-21.987"
  /><path
    fill="#965e3f"
    d="M604.15 35.681c1.138 2.066 45.893 1.316 46.516-.727.622-2.042-13.847-13.86-22.906-13.988s-24.748 12.65-23.61 14.715"
  /><path
    fill="#568334"
    d="M627.859-19.971c-2.694.466-10.19 11.82-9.992 22.096.207 10.714 7.996 23.351 10.904 23.65 2.908.297 8.737-13.787 9.054-21.405.37-8.895-7.272-24.807-9.966-24.341"
  /><path
    fill="#78ad2b"
    d="M598.838-4.618c-1.511 1.961.444 14.121 6.87 20.852 6.698 7.017 19.63 10.673 21.751 9.091s-2.616-14.542-7.07-19.816c-5.201-6.157-20.04-12.087-21.551-10.127m59.596-.301c-2.027-1.42-14.086 1.083-20.52 7.806-6.706 7.009-9.774 20.093-8.098 22.14 1.677 2.048 14.41-3.271 19.476-7.959 5.916-5.474 11.169-20.565 9.142-21.986"
  /><path
    fill="#193a09"
    d="M561.374-28.285c.954.682 2.587.966 3.51.242.795-.624-.745-25.261-1.16-37.196 2.502-2.357 4.165-2.988 7.485-2.26 2.495.547 4.48 2.86 4.813 4.712.058.326-2.621 2.22-2.543 2.543.08.322 3.05.309 3.39.726s.389 2.919.721 3.154c.333.235 1.67-3.468 2.04-3.646.369-.177 5.094 1.786 5.35 1.34.256-.447-2.616-3.09-2.542-3.511s3.264-1.692 3.268-2.18c.005-.487-5.062-.066-5.447-.242-3.192-1.457-5.656-4.559-9.08-5.326-2.429-.545-4.959.445-7.439.668l2.272-24.962c1.776-1.573 4.358-2.43 6.642-3.073 2.21-.622 4.962.806 5.183 3.034.033.331-2.555 2.477-2.267 2.792.29.315 3.915-.73 4.348-.41.434.318.323 4.23.739 4.308.415.08 1.56-4.064 1.927-4.374.366-.31 4.222 2.322 4.454 1.921s-2.879-3.615-2.727-4.041c.15-.427 2.44-2.416 2.148-2.973s-4.87.592-5.232.477c-2.705-.86-5.01-3.368-7.84-3.588-2.712-.22-4.629 1.288-7.171 2.256.323-4.076-1.13-9.446.618-13.136 1.915-4.05 9.922-7.75 10.035-8.41.155-.9-.52-2.26-1.427-2.33-.888-.07-6.587 3.1-9.037 5.83-1.557 1.74-3.014 3.44-3.942 5.58-2.34-1.21-3.728-3.21-6.805-3-2.748.18-6.166 5.16-6.996 5.42-.199.06-5.33-.96-5.447-.61-.117.36 3.003 2.39 3.063 2.72.059.33-1.629 3.47-1.368 3.7s3.106-1.55 3.39-1.45c.282.1.87 2.8 1.21 2.78s1.482-2.9 1.695-3.03c.212-.12 2.824.14 2.999-.16.174-.3-2.324-3.15-2.328-3.44-.026-1.69 2.577-3.56 4.282-3.54 2.85.03 4.47 3.33 6.003 4.55.161 3.39-.134 7.19-.182 10.585-.09 6.393-.969 12.75-1.453 19.127-2.502-1.332-4.917-3.028-7.75-3.013-3.035.015-5.67 1.163-7.745 3.376-1.31 1.396-1.15 3.661-2.281 5.205-.167.228-5.546-1.382-5.814-.84-.269.541 3.218 2.578 3.22 3 0 .422-2.432 3.394-2.16 3.721.274.327 4.544-2.115 4.85-2.069s2.317 4.07 2.669 3.936.538-4.181.751-4.424 4.913.025 5.06-.418-4.381-2.618-4.432-2.927c-.279-1.714 1.78-4.386 3.342-5.063 1.865-.808 4.471-.55 6.053.726 1.729 1.394 2.154 1.567 2.88 3.665-.162 8.244-.24 16.638.265 24.868.387 6.324 1.194 18.147 1.94 18.68"
  /><path
    fill="#f10100"
    d="M572.812 2.877c4.864 1.431 6.54 6.725 5.557 11.391s-7.542 9.152-12.676 8.431c-5.134-.72-10.133-6.37-8.96-11.834 1.174-5.464 11.216-9.42 16.08-7.988m-33.039 12.746c3.793 3.39 3.075 8.904.218 12.704-2.856 3.8-10.679 5.034-15.016 2.17-4.338-2.865-6.475-10.132-3.109-14.571 3.366-4.44 14.114-3.693 17.907-.303m19.114 27.44c-2.669 4.217-1.766 9.938 1.064 13.966 7.321-.06 14.642-.082 21.963-.094 3.121-5.01 3.42-11.892-1.62-15.679-5.055-3.797-17.699-4.053-21.407 1.807m-35.498 5.882c-1.538 2.504-1.81 5.633-.984 8.433 6.952-.077 13.894-.338 20.851-.31.944-3.504.33-7.3-2.701-9.65-4.048-3.136-14.185-3.33-17.166 1.527"
  /><path
    fill="#193a09"
    d="M554.984 35.534c.813-2.015 1.233-2.163 2.98-3.436 1.597-1.166 4.133-1.284 5.896-.398 1.477.743 3.33 3.463 2.97 5.125-.065.3-4.561 2.194-4.442 2.635s4.682.422 4.875.67c.193.25.163 4.217.496 4.367s2.49-3.682 2.79-3.712c.298-.03 4.303 2.58 4.585 2.275.28-.306-1.918-3.34-1.895-3.752.023-.413 3.505-2.225 3.273-2.769s-5.522.754-5.672.522c-1.013-1.569-.741-3.777-1.935-5.21-1.893-2.272-4.384-3.531-7.32-3.703-2.742-.161-5.168 1.373-7.66 2.546-.135-6.262-.653-12.527-.406-18.786.131-3.322.044-7.06.377-10.368 1.548-1.105 3.287-4.249 6.048-4.135 1.651.069 4.074 2.03 3.96 3.682-.02.281-2.586 2.94-2.433 3.245s2.695.186 2.894.317c.2.132 1.155 3.012 1.482 3.049.328.037 1.038-2.577 1.318-2.661s2.94 1.812 3.205 1.596c.264-.216-1.205-3.375-1.13-3.694.074-.32 3.2-2.142 3.105-2.495s-5.114.38-5.304.31c-.79-.291-3.838-5.343-6.487-5.666-2.968-.362-4.416 1.521-6.744 2.584-.787-2.14-2.108-3.879-3.524-5.657-2.229-2.798-7.58-6.198-8.443-6.173-.882.024-1.605 1.318-1.502 2.204.075.648 7.63 4.684 9.273 8.745 1.499 3.706-.188 8.881-.088 12.885-2.41-1.079-4.188-2.649-6.824-2.58-2.75.07-5.113 2.405-7.776 3.106-.356.094-4.728-1.266-5.04-.737-.31.53 1.801 2.594 1.925 3.019s-3.054 3.408-2.85 3.813c.203.404 4.072-1.972 4.41-1.65.34.323 1.231 4.435 1.638 4.38.406-.057.504-3.889.94-4.178s3.89.92 4.186.627-2.097-2.526-2.048-2.848c.33-2.17 3.07-3.423 5.176-2.7 2.177.746 4.632 1.718 6.268 3.35l.894 24.535c-2.388-.346-4.785-1.445-7.165-1.038-3.354.574-5.901 3.48-9.067 4.741-.382.152-5.264-.522-5.285-.045s3 1.884 3.05 2.3c.05.417-2.869 2.854-2.644 3.304.224.45 4.9-1.226 5.248-1.034.348.193 1.45 3.885 1.783 3.672.335-.213.512-2.657.864-3.048.351-.39 3.225-.224 3.318-.535s-2.401-2.303-2.327-2.618c.418-1.796 2.46-3.956 4.904-4.362 3.251-.54 4.828.163 7.128 2.599-.363 4.115-.944 9.774-1.512 15.401a1393 1393 0 0 1 5.002-.062c.706-7.142 1.02-14.404 1.262-21.554"
  /><path
    fill="#965e3f"
    d="M505.89-14.323c.623-2.043-13.846-13.861-22.905-13.989-5.483-.077-13.396 4.574-18.535 8.716a294 294 0 0 1 4.56 7.117c13.501.413 36.436-.386 36.88-1.844"
  /><path
    fill="#193a09"
    d="m484.967-43.19 1.315-2.167c1.402-.987 4.124-2.143 4.46-2.592.223-.296-2.128-.476-3.003-.027l2.993-4.428c3.982-1.695 9.422-1.975 12.437-5.42 1.034-1.182-7.642 1.119-11.218 1.511l2.394-3.058c3.307-1.272 7.052-.83 9.589-3.165.581-.536-4.976.455-7.275.398l1.599-2.688c2.812-.96 6.242-.993 8.436-2.88.404-.347-4.358-.074-6.393-.11l2.099-3.114c2.622-1.213 5.642-1.14 7.473-3.256.481-.555-3.741.001-5.41.062.523-2.184 2.91-5.93 2.27-6.394s-3.326 3.383-4.988 5.046c-.932-1.317-2.891-4.69-3.091-4.045-.758 2.44.788 4.83.982 7.362l-1.835 3.183c-1.072-1.667-3.279-5.762-3.508-5.095-.883 2.567 1.079 5.297 1.618 7.946l-1.944 2.516c-1.069-1.712-3.071-5.932-3.207-5.137-.503 2.962 1.464 5.4 1.92 8.37l-2.032 3.105c-1.272-2.643-3.512-8.794-3.815-7.93-1.407 4.02.945 7.84 1.417 11.759l-2.209 4.135c-.327-1.073-.857-3.416-.982-3.22-1.016 1.594-.52 3.669-.78 5.503l-1.444 2.643-1.028-1.822c-.166-1.632.145-4.443-.07-4.935-.144-.324-1.395 1.552-1.43 2.493l-2.29-4.57c.452-4.115 2.768-8.783 1.308-12.911-.5-1.416-2.647 6.897-3.996 10.063l-1.427-3.429c.488-3.354 2.612-6.27 1.853-9.479-.174-.736-1.952 4.363-3.077 6.253l-1.492-2.593c.518-2.794 2.097-5.67 1.553-8.383-.1-.5-2.104 3.6-3.088 5.28l-1.613-3.21c.217-2.755 1.694-5.239.788-7.757-.238-.662-1.753 3.12-2.483 4.54-1.577-1.458-3.58-5.204-4.268-4.887s1.262 4.358 1.87 6.523c-1.535.16-5.264.214-4.821.683 1.678 1.774 4.396 1.605 6.598 2.63l1.794 3.021c-1.892.113-6.34.035-5.892.54 1.727 1.938 4.922 1.58 7.383 2.371l1.187 2.8c-1.928.09-6.385-.217-5.785.268 2.233 1.807 5.188 1.309 7.877 2.319l1.637 3.15c-2.8-.178-8.977-1.19-8.398-.533 2.692 3.057 6.978 2.884 10.466 4.326l2.414 3.779c-1.049-.23-3.25-.885-3.145-.689.852 1.594 2.815 2.152 4.222 3.227l1.558 2.494 1.958-1.273-.108-.19z"
  /><path
    fill="#568334"
    d="m481.261-44.577-.179-4.12c-.937-2.343-2.865-4.506-2.81-7.029.006-.31 2.149 2.15 3.224 3.225l-.33-6.284c-3.131-4.373-8.26-7.466-9.393-13.12-.243-1.214 6.317 4.723 9.475 7.084l.163-4.95c-2.48-3.253-6.267-4.94-7.687-8.776-.382-1.029 4.63 2.757 6.945 4.135l.458-4.194c-2.357-2.82-6.331-4.858-7.073-8.457-.192-.935 4.961 2.576 7.249 3.899l-.105-4.921c-1.902-2.894-5.193-4.785-5.986-8.156-.21-.89 4.19 1.914 6.09 2.906.717-3.004 1.102-9.245 2.116-9.085 1.013.16.887 6.091 1.769 9.013 1.791-1.103 6.058-4.37 5.9-3.413-.601 3.648-3.967 5.424-6.038 8.487l-.23 5c2.26-1.212 7.308-4.476 7.095-3.813-1.153 3.598-4.897 5.755-7.346 8.632l.035 4.186c2.563-1.35 8.007-5.96 7.725-4.963-1.23 4.345-5.638 6.13-8.422 9.685l-.591 5.116c3.666-2.674 11.66-10.766 11.313-8.722-1.015 5.961-6.804 9.651-10.048 14.126l-.335 7.117c.661-1.075 3.364-2.312 3.317-1.823-.071.743-2.29 3.799-3.172 5.839v3.39z"
  /><path
    fill="#fc7f11"
    d="M473.262-25.369c6.959-1.602 14.591-1.204 19.49.121 1.603-6.318 1.852-14.256-1.09-17.432-2.941-3.176-14.066-2.82-17.432-.121s-2.288 11.98-.968 17.432"
  /><path
    fill="#d85505"
    d="M485.728-29.664c-.278.118-.377 1.228-.139 1.465.239.238 5.16.194 7.739.291q.144-.801.257-1.608c-2.62-.05-7.579-.266-7.857-.148m-5.503-4.434c.338-.144 1.338-1.294 1.208-1.543-.13-.25-6.288-.266-9.432-.399-.023.743-.013 1.51.024 2.285 2.733-.114 7.862-.198 8.2-.343"
  /><path
    fill="#568334"
    d="M492.872 24.271c.13-.756-.882-.126-2.394 1.103q.633 1.089 1.31 2.148c.521-1.024.886-2.12 1.085-3.251m-2.301-6.08c.148-.52-1.266.49-3.017 1.764q.49.903.975 1.812c.907-1.02 1.643-2.162 2.043-3.575m-.414-7.855c.186-.58-3.66 1.849-6.137 3.277a492 492 0 0 1 1.502 2.661c1.93-1.765 3.863-3.529 4.635-5.938m-6.865-1.187c2.071-3.063 5.437-4.839 6.039-8.487.157-.958-4.11 2.31-5.9 3.412-.883-2.921-.757-8.852-1.77-9.01-1.014-.157-1.398 6.079-2.115 9.083a45 45 0 0 1-1.369-.76c1.648 2.912 3.321 5.806 4.98 8.71z"
  /><path
    fill="#193a09"
    d="M502.222 34.914c.412-.38-2.26.007-4.67.244q.645.742 1.309 1.47c1.236-.331 2.387-.818 3.36-1.714m-5.675-2.291c2.812-.96 6.242-.993 8.436-2.879.404-.347-4.358-.074-6.394-.11l2.1-3.114c2.622-1.214 5.642-1.14 7.473-3.256.481-.556-3.741 0-5.41.062.523-2.184 2.91-5.93 2.27-6.394s-3.326 3.383-4.988 5.045c-.932-1.317-2.891-4.689-3.091-4.045-.758 2.44.788 4.83.982 7.363l-1.835 3.183c-1.072-1.667-3.28-5.762-3.508-5.095-.83 2.413.854 4.97 1.507 7.47a68 68 0 0 0 1.99 2.556z"
  /><path
    fill="#568334"
    d="M405.567-102.79c-1.115.19-3.051 2.25-4.925 5.322 4.945 5.101 9.815 10.278 14.687 15.45-1.236-9.004-7.4-21.182-9.762-20.772"
  /><path
    fill="#78ad2b"
    d="M436.142-87.738c-1.938-1.36-13.058.873-19.65 6.954q1.27 1.35 2.543 2.696a680 680 0 0 1 9.376 10.842c5.303-6.318 9.595-19.185 7.731-20.492"
  /><path
    fill="#9a653b"
    d="M266.089-226.57c-.074-7.09 17.875-8.2 17.724.63a5966 5966 0 0 0-.519 39.218c-5.45-2.447-11.05-4.494-17.073-5.82Z"
  />
</svg>
