<svg
  xmlns="http://www.w3.org/2000/svg"
  viewBox="-93.814 -123.784 629.839 614.185"
>
  <path
    fill="#b27056"
    d="M-38.784 204.651c-.65 8.35-.68 16.49-.17 24.85 3.33-2 6.63-4.01 9.98-5.99 4.73 3.56 9.54 7.55 15.61 8.44 3.94.61 7.42-.59 10.99-2.14.16 7.87.57 15.71.55 23.58.69 15.1 1.11 30.17.61 45.28-1.52-10.01.22-19.98-1.5-29.93-1.22 4.76-1.93 9.58-2.33 14.47-1.27 15.37-2.56 30.76-3.44 46.16-.03 13.34-.2 26.73-.41 40.07-1.1 10.63-.25 21.19-.44 31.85.87 16.32 1.47 32.68 2.92 48.96.38 5.14 1.43 9.83 3.42 14.6.3 8.53.05 17.02-.22 25.55h-25.47c-4.5-2.18-9.2-5.34-10.48-10.49-1.34-6.27-.64-13.12-.76-19.51 0-70.66 0-141.34-.03-212-.1-14.1.86-28.6-.14-42.66.43-.36.88-.73 1.31-1.09"
  /><path
    fill="#9e523b"
    d="M-2.034 201.011c1.1.99 2.16 2.04 3.24 3.04-1.3 2.05-2.66 3.77-2.91 6.28-.69 5.95-.01 12.16-.43 18.12l-.24 1.36c-3.57 1.55-7.05 2.75-10.99 2.14-6.07-.89-10.88-4.88-15.61-8.44-3.35 1.98-6.65 3.99-9.98 5.99-.51-8.36-.48-16.5.17-24.85 1.28-1.12 2.54-2.24 3.85-3.3 5.34 4.05 12.04 10.21 19.1 10.13 6.14-.1 9.96-6.52 13.8-10.47"
  /><path
    fill="#b76649"
    d="M-2.714 268.741c1.72 9.95-.02 19.92 1.5 29.93 1 37.22.48 74.51.04 111.74-.44 18.16-.81 36.3-1.82 54.44-1.99-4.77-3.04-9.46-3.42-14.6-1.45-16.28-2.05-32.64-2.92-48.96.19-10.66-.66-21.22.44-31.85.21-13.34.38-26.73.41-40.07.88-15.4 2.17-30.79 3.44-46.16.4-4.89 1.11-9.71 2.33-14.47"
  /><path
    fill="#c18166"
    d="M3.366 223.681c3.79 2.2 7.57 5.49 11.75 6.81 3.62 1.07 7.62 1.04 11.29.24 3.75-.82 6.13-3.4 8.86-5.88 2.64 2.43 5.54 5.52 9.1 6.49 3.35.87 7.2.78 10.54-.17 3.52-.99 6.22-3.76 8.88-6.11 3.37 3.11 6.62 5.87 11.33 6.59 5.41 1.23 10.41-.08 15.42-2.08l-.15.69c-1.98 7.65-2.52 15.39-3.96 23.13-.85 4.62-1.64 9.24-2.26 13.9-21.55-.69-43.13.11-64.7-.33-.4 9.49-.09 18.95-.1 28.44q-.15 47.955.06 95.91c21.63.09 43.26-.09 64.9.04.22 12 1.09 23.97 1.44 35.96.59 14.06 3.26 27.9 3.89 41.93l1.14-1c-.35 7.38-.43 14.77-.55 22.16h-93.46c.27-8.53.52-17.02.22-25.55 1.01-18.14 1.38-36.28 1.82-54.44.44-37.23.96-74.52-.04-111.74.5-15.11.08-30.18-.61-45.28.02-7.87-.39-15.71-.55-23.58l.24-1.36c1.72-1.7 3.55-3.31 5.5-4.77"
  /><path
    fill="#b76649"
    d="M84.326 391.351h8.78c-1.19 14.13-1.09 28.28-1.52 42.44-.55 11.48-.3 22.97-.79 34.45l-1.14 1c-.63-14.03-3.3-27.87-3.89-41.93-.35-11.99-1.22-23.96-1.44-35.96M90.386 230.261c.27 12.35 1.9 24.6 1.69 36.98-2.63.08-5.27.09-7.91.05.62-4.66 1.41-9.28 2.26-13.9 1.44-7.74 1.98-15.48 3.96-23.13"
  /><path
    fill="#d19378"
    d="M93.066 223.801c4.29 3.02 7.6 6.3 13.17 6.67 6.17.61 10.25-2.88 15.03-6.09 4.72 3.32 8.83 6.82 14.92 7.05 5.74.43 10.27-1.95 15.09-4.66 3.55 3.6 6.47 7.28 12.01 7.36 6.81.18 11-3.87 15.5-8.31 1.92 2.18 4 5.16 6.89 6.01 3.31.99 7.01 1.11 10.4.45 3.67-.76 6.75-3.19 9.76-5.31 2.43 3.05 4.38 6.61 8.65 7.11 7.55.97 13.37-3.06 19.24-7.12 2.61 2.48 5.05 5.31 8.69 6.13 3.62.83 7.77.78 11.37-.12 4.46-1.14 7.74-4.2 11.17-7.07 4.2 4.02 8 8.12 14.28 8.18 5.42.07 8.57-3.69 12.11-7.16 2.5 2.57 4.56 5.43 8.39 5.88 7.12.99 12.42-2.42 18.07-6.11 2.02 2.7 4.22 6.32 7.44 7.64 3.3 1.33 7.73 1.41 11.06.19 3.9-1.45 7.04-5.16 9.85-8.08 1.65 1.75 3.31 3.55 5.07 5.19.01 6.78-.31 13.56-.36 20.35-.2 5.12-.83 10.25-1.4 15.34-5.45-.15-10.88-.32-16.32-.2-.34 28.42.01 56.86-.11 85.28.15 12.96-.24 25.93.19 38.89 5.37.15 10.75.21 16.12.09.32 12.67.88 25.34.94 38.02.11 12.7 1.01 25.37 1.02 38.07.12 7.65.12 15.28-.07 22.93h-46.76c.27-19.33.1-38.67.1-58-.02-52 .07-104-.04-156-.05-9.31.33-18.59-.14-27.89-7.07.15-14.12.36-21.21.32-25.33-.37-50.66-.03-76-.15-17.66-.09-35.33.07-53 .01-5.53-.01-11.1-.21-16.63.15-.21 2.51-.27 5.01-.29 7.53-.02 57.35 0 114.68.01 172.03-.07 20.67.19 41.34-.04 62h-46.99c.12-7.39.2-14.78.55-22.16.49-11.48.24-22.97.79-34.45.43-14.16.33-28.31 1.52-42.44 5.07-.01 10.17-.03 15.25-.06.35-7.3.31-14.59.25-21.89.02-28 .01-56 .01-84 .04-6.09.02-12.17-.21-18.25-5.45-.23-10.87-.16-16.33.09.21-12.38-1.42-24.63-1.69-36.98l.15-.69c.73-1.97 1.58-3.9 2.53-5.77"
  /><path
    fill="#b76649"
    d="M349.346 391.381c2.87-.06 5.74-.12 8.59-.13-.77 10.37-.97 20.74-1.28 31.13-1.14 15.21-2.57 30.41-3.87 45.6l-1.48-.51c-.01-12.7-.91-25.37-1.02-38.07-.06-12.68-.62-25.35-.94-38.02M350.866 251.981c.62 5.16 1.91 10.28 3.22 15.31q-2.325.045-4.62.03c.57-5.09 1.2-10.22 1.4-15.34"
  /><path
    fill="#c18166"
    d="M402.756 225.521c2.78 2.89 5.21 5.76 9.04 7.28 3.71 1.43 7.96 1.9 11.86 1.06 3.45-.77 6.26-3.69 8.85-5.96 3.65 2.43 7.38 4.59 11.69 5.7.58 11.18-.5 22.34.19 33.5-1.19 17.1-1.14 34.16-1.44 51.3.08 19.34-.41 38.68.13 58 .4 20.54-.03 41.24 1.46 61.73-.07 9.19-.32 18.35.31 27.53.59 8.27.81 16.45.6 24.74h-94.21c.19-7.65.19-15.28.07-22.93l1.48.51c1.3-15.19 2.73-30.39 3.87-45.6.31-10.39.51-20.76 1.28-31.13 11.42.09 22.84.15 34.26.06 10.1-.16 20.05.51 30.13-.62.28-30.76.21-61.53.24-92.29-.16-10.4.25-20.78-.19-31.18-14.72-.5-29.46-.07-44.18-.19-8.04-.07-16.08-.1-24.11.26-1.31-5.03-2.6-10.15-3.22-15.31.05-6.79.37-13.57.36-20.35 3.33 2.64 7.26 4.15 11.56 3.37 4.31-.65 7.04-3.79 9.97-6.67 1.87 2.31 4.03 5.62 6.97 6.53 3.84 1.12 8.25.51 11.93-.94 4.5-1.84 7.66-5.11 11.1-8.4"
  /><path
    fill="#b76649"
    d="M30.526 201.771c5.01 4.18 8.42 8.87 15.66 8.74 6.43.17 9.8-3.91 13.92-8.04 2.78 2.71 5.35 5.52 9.09 6.91 4.2 1.49 9.09 1.7 13.34.35 3.82-1.23 6.09-4.68 8.45-7.67 4.56 3.88 8.75 7.43 15.15 7.22 5.65-.08 9.14-3.88 13.03-7.39 5.17 4.46 9.68 8.86 17.02 8.73 6 .05 9.89-3.25 14.25-6.81 1.65 2.54 3.33 5.78 5.85 7.52 3.31 2.07 8 2.01 11.63.87 4.45-1.37 7.43-5.08 10.43-8.4 2.13 2.67 4.56 6.25 7.77 7.61 3.42 1.31 7.53.99 10.96-.11 3.84-1.3 6.41-3.9 9.29-6.61 1.59 2.52 3.32 6.25 6.21 7.43 3.91 1.56 8.79.83 12.63-.7 4.03-1.63 6.77-4.6 9.77-7.62 2.25 3.22 4.44 7.03 8.33 8.47 4.23 1.48 9.18 1.06 13.35-.42 4.09-1.51 6.86-4.85 9.74-7.96 4.13 4.72 7.81 9.21 14.68 9.16 6.31.05 9.54-4.18 13.35-8.45 1.79 2.43 3.67 5.69 6.36 7.16 2.98 1.22 6.73.79 9.75-.09 4.56-1.42 7.57-4.66 10.85-7.94 1.83 2.95 3.83 6.79 6.86 8.63 3.9 2.23 9.1 2.11 13.12.26 3.8-1.76 6.56-5.59 9.15-8.78 1.75 2.25 3.56 4.68 5.66 6.59 4.17 3.81 10.9 4.56 15.79 1.75 2.7-1.58 4.63-4.74 6.36-7.29 1.36 2.65 2.75 6.49 5.59 7.82 4.06 1.95 9.37 1.33 13.49-.12 4.7-1.67 7.63-5.3 10.88-8.87 2.87 3.01 5.72 6.31 9.66 7.92 4.09 1.64 8.9 1.98 13.1.65 3.65-1.17 5.9-4.62 8.18-7.46 2.12 2.08 4.25 4.25 6.55 6.15-2.4 6.95-1.08 15.38-.74 22.67l-.84-.05c-4.31-1.11-8.04-3.27-11.69-5.7-2.59 2.27-5.4 5.19-8.85 5.96-3.9.84-8.15.37-11.86-1.06-3.83-1.52-6.26-4.39-9.04-7.28-3.44 3.29-6.6 6.56-11.1 8.4-3.68 1.45-8.09 2.06-11.93.94-2.94-.91-5.1-4.22-6.97-6.53-2.93 2.88-5.66 6.02-9.97 6.67-4.3.78-8.23-.73-11.56-3.37-1.76-1.64-3.42-3.44-5.07-5.19-2.81 2.92-5.95 6.63-9.85 8.08-3.33 1.22-7.76 1.14-11.06-.19-3.22-1.32-5.42-4.94-7.44-7.64-5.65 3.69-10.95 7.1-18.07 6.11-3.83-.45-5.89-3.31-8.39-5.88-3.54 3.47-6.69 7.23-12.11 7.16-6.28-.06-10.08-4.16-14.28-8.18-3.43 2.87-6.71 5.93-11.17 7.07-3.6.9-7.75.95-11.37.12-3.64-.82-6.08-3.65-8.69-6.13-5.87 4.06-11.69 8.09-19.24 7.12-4.27-.5-6.22-4.06-8.65-7.11-3.01 2.12-6.09 4.55-9.76 5.31-3.39.66-7.09.54-10.4-.45-2.89-.85-4.97-3.83-6.89-6.01-4.5 4.44-8.69 8.49-15.5 8.31-5.54-.08-8.46-3.76-12.01-7.36-4.82 2.71-9.35 5.09-15.09 4.66-6.09-.23-10.2-3.73-14.92-7.05-4.78 3.21-8.86 6.7-15.03 6.09-5.57-.37-8.88-3.65-13.17-6.67-.95 1.87-1.8 3.8-2.53 5.77-5.01 2-10.01 3.31-15.42 2.08-4.71-.72-7.96-3.48-11.33-6.59-2.66 2.35-5.36 5.12-8.88 6.11-3.34.95-7.19 1.04-10.54.17-3.56-.97-6.46-4.06-9.1-6.49-2.73 2.48-5.11 5.06-8.86 5.88-3.67.8-7.67.83-11.29-.24-4.18-1.32-7.96-4.61-11.75-6.81a54 54 0 0 0-5.5 4.77c.42-5.96-.26-12.17.43-18.12.25-2.51 1.61-4.23 2.91-6.28 5.65 4.44 12.6 6.84 19.76 5.15 4.18-.94 6.67-4.61 9.56-7.43M444.386 267.101c1.34 4.37 2.56 8.69 2.89 13.28.79 9.62 1.33 19.25 2.2 28.86.9 9.19.25 18.4 1.12 27.59.78 8.62.38 17.25.95 25.89.36 5.56.15 11.1-.19 16.65-.51 8.7-.01 17.36-.32 26.05-.56 13.02-1.59 25.99-1.97 39.01-.06 4.09-1.62 7.6-3.46 11.16-.1-5.86-.41-11.63-1.07-17.46-1.49-20.49-1.06-41.19-1.46-61.73-.54-19.32-.05-38.66-.13-58 .3-17.14.25-34.2 1.44-51.3"
  /><path
    fill="#b27056"
    d="M460.226 227.821c3.34 1.63 6.78 4.27 10.43 5.03 3.63.63 7.82-1.17 11.22-2.36.13 14.02-.19 28.02.38 42.03-.13 6.96-.47 13.91-.35 20.88-.11 65.67.04 131.34-.15 197h-36.31c.21-8.29-.01-16.47-.6-24.74-.63-9.18-.38-18.34-.31-27.53.66 5.83.97 11.6 1.07 17.46 1.84-3.56 3.4-7.07 3.46-11.16.38-13.02 1.41-25.99 1.97-39.01.31-8.69-.19-17.35.32-26.05.34-5.55.55-11.09.19-16.65-.57-8.64-.17-17.27-.95-25.89-.87-9.19-.22-18.4-1.12-27.59-.87-9.61-1.41-19.24-2.2-28.86-.33-4.59-1.55-8.91-2.89-13.28-.69-11.16.39-22.32-.19-33.5l.84.05c5.94-.14 10.28-2.95 15.19-5.83"
  /><path
    fill="#9e523b"
    d="M468.166 204.151c4.28 3.86 8.43 6.88 13.87 8.94-.22 5.8-.24 11.6-.16 17.4-3.4 1.19-7.59 2.99-11.22 2.36-3.65-.76-7.09-3.4-10.43-5.03-4.91 2.88-9.25 5.69-15.19 5.83-.34-7.29-1.66-15.72.74-22.67 4.38 1.29 9.16 2 13.6.57 3.7-1.22 6.13-4.73 8.79-7.4"
  /><path
    fill="#fcd06f"
    d="M236.146-121.6c11.58 2.44 21.58 7.56 31.9 13.11 10.79 5.88 19.82 13.181 29.8 20.221 6.02 4.31 12.2 8.44 18.12 12.89 15.63 11.77 30.45 24.89 44.65 38.35 9.96 9.7 19.43 19.91 28.98 30.02 13.34 15.11 26.13 30.84 37.69 47.34 7.51 10.37 14.43 21.18 20.51 32.46 4.08 7.28 8.37 14.42 12.23 21.83 2.69 5.1 6.17 9.64 10.1 13.85 5.97 6.51 11.85 13.04 17.31 20 5.29 6.59 10.6 13.18 16.02 19.66 4.42 5.29 8.31 10.94 12.92 16.08 5.24 5.82 10.33 11.66 15.195 17.83 1.85 2.44 3.98 5.41 4.39 8.52.36 2.92-.81 6.62-3.52 8.11-3.73 1.77-8.485 1.16-12.135 2.92-2.25 2.63-3.49 6.56-6.1 8.84-2.78 2.08-7 2.24-10.23 1.21-4-1.32-6.69-5.54-9.13-8.76-3.75 5.14-6.9 7.73-12.81 10.21-5.44-2.06-9.59-5.08-13.87-8.94-2.66 2.67-5.09 6.18-8.79 7.4-4.44 1.43-9.22.72-13.6-.57-2.3-1.9-4.43-4.07-6.55-6.15-2.28 2.84-4.53 6.29-8.18 7.46-4.2 1.33-9.01.99-13.1-.65-3.94-1.61-6.79-4.91-9.66-7.92-3.25 3.57-6.18 7.2-10.88 8.87-4.12 1.45-9.43 2.07-13.49.12-2.84-1.33-4.23-5.17-5.59-7.82-1.73 2.55-3.66 5.71-6.36 7.29-4.89 2.81-11.62 2.06-15.79-1.75-2.1-1.91-3.91-4.34-5.66-6.59-2.59 3.19-5.35 7.02-9.15 8.78-4.02 1.85-9.22 1.97-13.12-.26-3.03-1.84-5.03-5.68-6.86-8.63-3.28 3.28-6.29 6.52-10.85 7.94-3.02.88-6.77 1.31-9.75.09-2.69-1.47-4.57-4.73-6.36-7.16-3.81 4.27-7.04 8.5-13.35 8.45-6.87.05-10.55-4.44-14.68-9.16-2.88 3.11-5.65 6.45-9.74 7.96-4.17 1.48-9.12 1.9-13.35.42-3.89-1.44-6.08-5.25-8.33-8.47-3 3.02-5.74 5.99-9.77 7.62-3.84 1.53-8.72 2.26-12.63.7-2.89-1.18-4.62-4.91-6.21-7.43-2.88 2.71-5.45 5.31-9.29 6.61-3.43 1.1-7.54 1.42-10.96.11-3.21-1.36-5.64-4.94-7.77-7.61-3 3.32-5.98 7.03-10.43 8.4-3.63 1.14-8.32 1.2-11.63-.87-2.52-1.74-4.2-4.98-5.85-7.52-4.36 3.56-8.25 6.86-14.25 6.81-7.34.13-11.85-4.27-17.02-8.73-3.89 3.51-7.38 7.31-13.03 7.39-6.4.21-10.59-3.34-15.15-7.22-2.36 2.99-4.63 6.44-8.45 7.67-4.25 1.35-9.14 1.14-13.34-.35-3.74-1.39-6.31-4.2-9.09-6.91-4.12 4.13-7.49 8.21-13.92 8.04-7.24.13-10.65-4.56-15.66-8.74-2.89 2.82-5.38 6.49-9.56 7.43-7.16 1.69-14.11-.71-19.76-5.15-1.08-1-2.14-2.05-3.24-3.04-3.84 3.95-7.66 10.37-13.8 10.47-7.06.08-13.76-6.08-19.1-10.13-1.31 1.06-2.57 2.18-3.85 3.3-.43.36-.88.73-1.31 1.09-4.74 2.17-10.34 5.09-15.65 3.78-5.04-1.07-7.48-6.23-11.58-8.41-6.23-1.43-13.55.54-19.86-1.44-3.02-.99-4.93-3.9-6.63-6.41v-5.31c13.69-18.42 27.8-36.51 42.03-54.51 8.7-10.59 17.84-20.84 26.77-31.25 7.27-8.81 12.43-19.81 18.42-29.59 12.91-21.27 26.1-41.7 42.47-60.51 19.28-24.27 41.09-46.2 64.17-66.84 19.22-16.42 39.36-31.64 60.49-45.531 14.54-10.38 30.37-18.56 48.01-22.05 9.25-2.47 18.43-1.5 27.6.73"
  /><path
    fill="#c18166"
    d="M166.116.261c.9 12.73-.1 25.41.5 38.14.82 16.73 2.71 32.4-.16 49.1-5.71.06-11.41-.01-17.1-.15l-.59-1.69c.12-23.09.02-46.12.13-69.21 5.44-5.74 11.39-10.86 17.22-16.19"
  /><path
    fill="#d19378"
    d="M220.336-47.589c4.24 2.74 7.69 6.09 11.33 9.52 8.62 8.1 17.87 15.4 26.57 23.41 6.54 6.04 13.53 11.53 19.94 17.69-.93 4.75-1.14 9.55-.95 14.37.43 11.49.12 22.96-.63 34.42-.74 11.96.37 23.64.65 35.58-11.72-.03-23.45.06-35.17.03.72-5.32 1.08-10.66 1.23-16.02 4.55 0 9.1-.08 13.66-.19.08-26.16-.01-52.32 0-78.48-5.29-.01-10.57-.11-15.86-.19-.49-5.49-1.18-10.95-2.17-16.38-.47 5.45-.71 10.9-.8 16.37-12.29-.06-24.59.16-36.87.02-.16-5.02-.5-9.99-1.43-14.93-.43 4.97-.86 9.93-1.48 14.88-4.62-.06-9.3-.14-13.9.19-.32 4.53-.22 9.16-.18 13.7.02 21.64-.2 43.28 0 64.92 4.97.06 9.95.08 14.91.07.15 5.32.41 10.63.96 15.92-11.24.16-22.47.1-33.69.19 2.87-16.7.98-32.37.16-49.1-.6-12.73.4-25.41-.5-38.14 3.96-3.73 8.19-7.11 12.42-10.53 5.35-4.32 9.83-9.47 15.08-13.9 3.98-3.37 8.07-6.56 11.88-10.11 4.9-4.42 9.58-9.36 14.84-13.31"
  /><path
    fill="#d19378"
    d="M203.296 71.411c11.95.21 23.88.17 35.85 0 .06 5.5.07 10.74 1.93 16-12.93-.02-25.86.19-38.8-.09.66-5.29.95-10.59 1.02-15.91"
  /><path
    fill="#b76649"
    d="M199.186 71.391c1.37 0 2.74.01 4.11.02-.07 5.32-.36 10.62-1.02 15.91l-2.13-.01c-.55-5.29-.81-10.6-.96-15.92M239.146 71.411h4.16c-.15 5.36-.51 10.7-1.23 16.02l-1-.02c-1.86-5.26-1.87-10.5-1.93-16M199.836-22.369c.93 4.94 1.27 9.91 1.43 14.93-.98-.02-1.93-.03-2.91-.05.62-4.95 1.05-9.91 1.48-14.88M238.936-23.829c.99 5.43 1.68 10.89 2.17 16.38-.99-.01-1.99-.01-2.97-.01.09-5.47.33-10.92.8-16.37"
  /><path
    fill="#c18166"
    d="M278.176 3.031c4.62 4.39 9.01 8.77 14.73 11.77.42 9.87.08 19.73.17 29.6-.1 14.01.46 28.06.13 42.06l-.17.86c-5.26.09-10.52.12-15.79.08-.28-11.94-1.39-23.62-.65-35.58.75-11.46 1.06-22.93.63-34.42-.19-4.82.02-9.62.95-14.37"
  /><path
    fill="#b27056"
    d="M221.086-66.679c4.6 2.65 8.07 7.63 11.87 11.33 6.5 6.49 13.16 12.82 19.72 19.27 13.49 12.49 27.19 24.76 40.73 37.21-.36 4.55-.58 9.1-.5 13.67-5.72-3-10.11-7.38-14.73-11.77-6.41-6.16-13.4-11.65-19.94-17.69-8.7-8.01-17.95-15.31-26.57-23.41-3.64-3.43-7.09-6.78-11.33-9.52-5.26 3.95-9.94 8.89-14.84 13.31-3.81 3.55-7.9 6.74-11.88 10.11-5.25 4.43-9.73 9.58-15.08 13.9-4.23 3.42-8.46 6.8-12.42 10.53-5.83 5.33-11.78 10.45-17.22 16.19-.05-5.43-.12-10.86-.15-16.29 20.15-18.21 40.25-36.54 59.54-55.66 3.86-3.64 7.69-9.42 12.8-11.18"
  /><path
    fill="#fcd06f"
    d="M218.406-88.699c4.33-1.13 8.52 1.47 11.99 3.79 13.75 9.79 26.45 21.8 39.35 32.7 6.23 5.45 12.28 11.1 18.36 16.69 10.49 10.58 20.97 19.34 28.8 32.32 1.89 3.54 3.77 6.79 2.53 10.92-1.76-1.09-3.35-2.32-5.01-3.57-.29 2.43.66 8.35-3.31 7.66-6.54-.48-12.78-6.72-17.71-10.68-13.54-12.45-27.24-24.72-40.73-37.21-6.56-6.45-13.22-12.78-19.72-19.27-3.8-3.7-7.27-8.68-11.87-11.33-5.11 1.76-8.94 7.54-12.8 11.18-19.29 19.12-39.39 37.45-59.54 55.66-3.58 3.04-7.17 6.08-10.92 8.91-2.12 1.51-4.86 3.4-7.54 3.43-3.08-.21-3.11-5.18-3.95-7.43-1.86.51-3.72.98-5.56 1.47.94-3.95 1.99-7.75 4.36-11.12 6.73-9.7 14.96-18.52 23.9-26.23 8.25-7.09 15.15-15.48 23.64-22.32 11.04-9.05 20.98-19.24 32.51-27.54 3.98-2.88 8.41-6.79 13.22-8.03"
  /><path
    fill="#efa12b"
    d="M232.236-92.539c7.36 4.06 13.4 9.71 18.81 16.06 8.11 9.08 16.84 18.29 26.8 25.33 6.93 5.02 13.25 10.65 19.74 16.23 11.95 10.66 22.49 21.85 29.15 36.62 1.95 4.58 2.8 9.73 2.23 14.69-.38 3.68-3.24 6.72-6.73 7.74-3.7.96-7.82.69-11.45 1.86-2.08 3.69-2.65 8.43-3.69 12.53-3.95 16.19-8.18 32.26-13.89 47.94.33-14-.23-28.05-.13-42.06-.09-9.87.25-19.73-.17-29.6-.08-4.57.14-9.12.5-13.67 4.93 3.96 11.17 10.2 17.71 10.68 3.97.69 3.02-5.23 3.31-7.66 1.66 1.25 3.25 2.48 5.01 3.57 1.24-4.13-.64-7.38-2.53-10.92-7.83-12.98-18.31-21.74-28.8-32.32-6.08-5.59-12.13-11.24-18.36-16.69-12.9-10.9-25.6-22.91-39.35-32.7-3.47-2.32-7.66-4.92-11.99-3.79-4.81 1.24-9.24 5.15-13.22 8.03-11.53 8.3-21.47 18.49-32.51 27.54-8.49 6.84-15.39 15.23-23.64 22.32-8.94 7.71-17.17 16.53-23.9 26.23-2.37 3.37-3.42 7.17-4.36 11.12 1.84-.49 3.7-.96 5.56-1.47.84 2.25.87 7.22 3.95 7.43 2.68-.03 5.42-1.92 7.54-3.43 3.75-2.83 7.34-5.87 10.92-8.91.03 5.43.1 10.86.15 16.29-.11 23.09-.01 46.12-.13 69.21-2.42-5.32-4.86-10.57-6.47-16.21-4.27-14.52-7.19-29.44-12.02-43.83-3.62-.29-7.57-.37-11.03-1.5-3.84-1.36-7.22-4.7-7.46-8.95-.3-10.9 5.4-19.34 11.32-27.9 6.25-9.23 14.22-16.11 22.38-23.58 7.38-6.74 15.66-12.24 23.24-18.74 6.77-5.62 12.71-11.87 18.93-18.09 5.4-5.39 9.03-11.15 15.26-15.63 4.39-3.13 9.56-6.06 14.93-7.01 5.11-.89 9.98.81 14.39 3.24M8.126 106.391c-1.98 3.59-4.13 7.08-6.59 10.36-16.96 22.42-33.14 45.42-49.08 68.56 1.86-4.97 3.67-10 5.8-14.86 2.81-6.46 6.65-12.59 10.18-18.8 6.21-10.96 14.25-20.98 23.01-29.98 5.31-5.41 10.61-10.71 16.68-15.28M65.946 117.481c-2.34 10.08-5.48 19.47-9.84 28.86-4.19 10.18-9.17 19.12-15.68 27.99 1.91-8.42 3.56-16.6 7.16-24.52 3.31-7.18 6.2-14.99 10.52-21.51 2.43-3.73 5.1-7.31 7.84-10.82M138.826 105.381c-2.98 18.55-6.35 37.05-10.43 55.39-1.78 9.02-4.22 17.87-7 26.63-.23-5.35-.4-10.69-.06-16.05.52-10.58 3-21.43 5.14-31.83 2.71-11.73 7.02-23.34 12.35-34.14M199.936 117.381c4.42 20.69.72 40.09-4.59 60.13-1.8-9.72-1.41-19.34-.86-29.15.67-10.47 2.65-20.88 5.45-30.98M258.486 112.531c3.23 7.39 6.56 15.12 8.54 22.93 1.66 6.62 2.76 13.4 3.77 20.15 1.61 10.64 1.36 21.07 1.17 31.8-3.43-10.79-5.12-21.88-7.66-32.87-2.81-13.87-4.47-28-5.82-42.01M338.576 116.341c6.53 7.21 11.02 15.76 14.96 24.59 4.95 11.21 7.17 23.33 8.37 35.45-6.37-12.04-12.01-24.44-16.18-37.44-2.36-7.53-5.2-14.96-7.15-22.6M421.216 104.661c14.98 12.88 27.51 28.57 36.44 46.22 5.23 10.37 11.72 21.16 14.44 32.42-13.43-20.48-27.1-40.82-40.34-61.44-3.69-5.65-7.41-11.21-10.54-17.2M138.836-60.669c-11.67 13.94-22.65 28.44-34.59 42.13-5.16 6.21-10.01 12.64-15.25 18.78-8.12 9.6-15.76 19.57-23.55 29.44-9.26 11.14-17 23.42-26.13 34.67 1.49-3.7 3.09-7.36 5.01-10.86 10.58-19.29 22.42-38.67 36.09-55.92 5.89-6.86 11.12-14 17.7-20.25 8.8-8.52 17.09-17.7 26.36-25.63 4.75-4.16 9.49-8.34 14.36-12.36M304.156-59.249c5.21 3.96 10.25 8.17 15.05 12.63 5.35 5.01 10.97 9.63 16.02 14.98 9.81 10.32 20.06 20.98 28.46 32.46a376 376 0 0 1 24.1 35.93c5.06 8.23 9.88 16.46 13.31 25.53-16.9-21.32-32.66-43.74-50.37-64.4-9.05-11.27-18.13-22.48-27.54-33.46-6.11-8.12-12.51-15.89-19.03-23.67"
  /><path
    fill="#ad6c42"
    d="M137.556 248.841c5.53-.36 11.1-.16 16.63-.15 17.67.06 35.34-.1 53-.01 25.34.12 50.67-.22 76 .15 7.09.04 14.14-.17 21.21-.32.47 9.3.09 18.58.14 27.89.11 52 .02 104 .04 156 0 19.33.17 38.67-.1 58h-18.61c-.02-74.69.07-149.39-.07-224.08-6.86-.47-13.72-.46-20.61-.36-26.64.01-53.35 0-80 .01-9.7.05-19.38-.22-29.08.2-.09 3.74-.18 7.49-.2 11.23.05 71 .03 142 .07 213h-18.74c.23-20.66-.03-41.33.04-62-.01-57.35-.03-114.68-.01-172.03.02-2.52.08-5.02.29-7.53M84.166 267.291c2.64.04 5.28.03 7.91-.05 5.46-.25 10.88-.32 16.33-.09.23 6.08.25 12.16.21 18.25 0 28 .01 56-.01 84 .06 7.3.1 14.59-.25 21.89-5.08.03-10.18.05-15.25.06h-8.78c-21.64-.13-43.27.05-64.9-.04q-.21-47.955-.06-95.91c.01-9.49-.3-18.95.1-28.44 21.57.44 43.15-.36 64.7.33M333.146 267.121c5.44-.12 10.87.05 16.32.2q2.295.015 4.62-.03c8.03-.36 16.07-.33 24.11-.26 14.72.12 29.46-.31 44.18.19.44 10.4.03 20.78.19 31.18-.03 30.76.04 61.53-.24 92.29-10.08 1.13-20.03.46-30.13.62-11.42.09-22.84.03-34.26-.06-2.85.01-5.72.07-8.59.13-5.37.12-10.75.06-16.12-.09-.43-12.96-.04-25.93-.19-38.89.12-28.42-.23-56.86.11-85.28M184.456-7.299c4.6-.33 9.28-.25 13.9-.19.98.02 1.93.03 2.91.05 12.28.14 24.58-.08 36.87-.02.98 0 1.98 0 2.97.01 5.29.08 10.57.18 15.86.19-.01 26.16.08 52.32 0 78.48-4.56.11-9.11.19-13.66.19h-4.16c-11.97.17-23.9.21-35.85 0-1.37-.01-2.74-.02-4.11-.02-4.96.01-9.94-.01-14.91-.07-.2-21.64.02-43.28 0-64.92-.04-4.54-.14-9.17.18-13.7"
  /><path
    fill="gray"
    d="M156.106 266.171c9.7-.42 19.38-.15 29.08-.2 26.65-.01 53.36 0 80-.01 6.89-.1 13.75-.11 20.61.36.14 74.69.05 149.39.07 224.08h-129.89c-.04-71-.02-142-.07-213 .02-3.74.11-7.49.2-11.23M32.746 280.771c4.33-.87 9.04-.57 13.44-.57 16.34.25 32.69-.2 49.01.2.34 9 .19 17.99.2 27-.15 23.59.26 47.19-.18 70.77-20.89-.01-41.79.16-62.68-.03-.11-27.58-.07-55.16-.1-82.74.03-4.83-.39-9.84.31-14.63M346.836 280.831c3.33-.72 6.95-.63 10.37-.63 17.34.2 34.7-.16 52.05.2.22 6 .28 12 .22 18-.16 26.58.28 53.18-.2 79.76-20.93-.01-41.85.1-62.76-.02.04-26.58-.05-53.16.01-79.74.08-5.81-.49-11.81.31-17.57M193.986 3.161c10.42-.44 20.79-.12 31.2-.2 7.37-.04 14.74-.09 22.1.21.27 9.42.07 18.82.12 28.23-.04 9.96.26 19.9-.14 29.86-17.73 0-35.46-.06-53.17.01-.42-9.63-.12-19.24-.17-28.87.03-9.75-.26-19.49.06-29.24"
    data-player="true"
  />
</svg>
