<svg xmlns="http://www.w3.org/2000/svg" viewBox="0 0 819.005 743.66">
  <path
    fill="#b27056"
    d="M55.03 457.91c-.65 8.35-.68 16.49-.17 24.85 3.33-2 6.63-4.01 9.98-5.99 4.73 3.56 9.54 7.55 15.61 8.44 3.94.61 7.42-.59 10.99-2.14.16 7.87.57 15.71.55 23.58.69 15.1 1.11 30.17.61 45.28-1.52-10.01.22-19.98-1.5-29.93-1.22 4.76-1.93 9.58-2.33 14.47-1.27 15.37-2.56 30.76-3.44 46.16-.03 13.34-.2 26.73-.41 40.07-1.1 10.63-.25 21.19-.44 31.85.87 16.32 1.47 32.68 2.92 48.96.38 5.14 1.43 9.83 3.42 14.6.3 8.53.05 17.02-.22 25.55H65.13c-4.5-2.18-9.2-5.34-10.48-10.49-1.34-6.27-.64-13.12-.76-19.51 0-70.66 0-141.34-.03-212-.1-14.1.86-28.6-.14-42.66.43-.36.88-.73 1.31-1.09Z"
  /><path
    fill="#9e523b"
    d="M91.78 454.27c1.1.99 2.16 2.04 3.24 3.04-1.3 2.05-2.66 3.77-2.91 6.28-.69 5.95-.01 12.16-.43 18.12l-.24 1.36c-3.57 1.55-7.05 2.75-10.99 2.14-6.07-.89-10.88-4.88-15.61-8.44-3.35 1.98-6.65 3.99-9.98 5.99-.51-8.36-.48-16.5.17-24.85 1.28-1.12 2.54-2.24 3.85-3.3 5.34 4.05 12.04 10.21 19.1 10.13 6.14-.1 9.96-6.52 13.8-10.47Z"
  /><path
    fill="#b76649"
    d="M91.1 522c1.72 9.95-.02 19.92 1.5 29.93 1 37.22.48 74.51.04 111.74-.44 18.16-.81 36.3-1.82 54.44-1.99-4.77-3.04-9.46-3.42-14.6-1.45-16.28-2.05-32.64-2.92-48.96.19-10.66-.66-21.22.44-31.85.21-13.34.38-26.73.41-40.07.88-15.4 2.17-30.79 3.44-46.16.4-4.89 1.11-9.71 2.33-14.47Z"
  /><path
    fill="#c18166"
    d="M97.18 476.94c3.79 2.2 7.57 5.49 11.75 6.81 3.62 1.07 7.62 1.04 11.29.24 3.75-.82 6.13-3.4 8.86-5.88 2.64 2.43 5.54 5.52 9.1 6.49 3.35.87 7.2.78 10.54-.17 3.52-.99 6.22-3.76 8.88-6.11 3.37 3.11 6.62 5.87 11.33 6.59 5.41 1.23 10.41-.08 15.42-2.08l-.15.69c-1.98 7.65-2.52 15.39-3.96 23.13-.85 4.62-1.64 9.24-2.26 13.9-21.55-.69-43.13.11-64.7-.33-.4 9.49-.09 18.95-.1 28.44-.1 31.97-.08 63.94.06 95.91 21.63.09 43.26-.09 64.9.04.22 12 1.09 23.97 1.44 35.96.59 14.06 3.26 27.9 3.89 41.93l1.14-1c-.35 7.38-.43 14.77-.55 22.16H90.6c.27-8.53.52-17.02.22-25.55 1.01-18.14 1.38-36.28 1.82-54.44.44-37.23.96-74.52-.04-111.74.5-15.11.08-30.18-.61-45.28.02-7.87-.39-15.71-.55-23.58l.24-1.36c1.72-1.7 3.55-3.31 5.5-4.77Z"
  /><path
    fill="#b76649"
    d="M178.14 644.61h8.78c-1.19 14.13-1.09 28.28-1.52 42.44-.55 11.48-.3 22.97-.79 34.45l-1.14 1c-.63-14.03-3.3-27.87-3.89-41.93-.35-11.99-1.22-23.96-1.44-35.96Zm6.06-161.09c.27 12.35 1.9 24.6 1.69 36.98-2.63.08-5.27.09-7.91.05.62-4.66 1.41-9.28 2.26-13.9 1.44-7.74 1.98-15.48 3.96-23.13Z"
  /><path
    fill="#d19378"
    d="M186.88 477.06c4.29 3.02 7.6 6.3 13.17 6.67 6.17.61 10.25-2.88 15.03-6.09 4.72 3.32 8.83 6.82 14.92 7.05 5.74.43 10.27-1.95 15.09-4.66 3.55 3.6 6.47 7.28 12.01 7.36 6.81.18 11-3.87 15.5-8.31 1.92 2.18 4 5.16 6.89 6.01 3.31.99 7.01 1.11 10.4.45 3.67-.76 6.75-3.19 9.76-5.31 2.43 3.05 4.38 6.61 8.65 7.11 7.55.97 13.37-3.06 19.24-7.12 2.61 2.48 5.05 5.31 8.69 6.13 3.62.83 7.77.78 11.37-.12 4.46-1.14 7.74-4.2 11.17-7.07 4.2 4.02 8 8.12 14.28 8.18 5.42.07 8.57-3.69 12.11-7.16 2.5 2.57 4.56 5.43 8.39 5.88 7.12.99 12.42-2.42 18.07-6.11 2.02 2.7 4.22 6.32 7.44 7.64 3.3 1.33 7.73 1.41 11.06.19 3.9-1.45 7.04-5.16 9.85-8.08 1.65 1.75 3.31 3.55 5.07 5.19.01 6.78-.31 13.56-.36 20.35-.2 5.12-.83 10.25-1.4 15.34-5.45-.15-10.88-.32-16.32-.2-.34 28.42.01 56.86-.11 85.28.15 12.96-.24 25.93.19 38.89 5.37.15 10.75.21 16.12.09.32 12.67.88 25.34.94 38.02.11 12.7 1.01 25.37 1.02 38.07.12 7.65.12 15.28-.07 22.93h-46.76c.27-19.33.1-38.67.1-58-.02-52 .07-104-.04-156-.05-9.31.33-18.59-.14-27.89-7.07.15-14.12.36-21.21.32-25.33-.37-50.66-.03-76-.15-17.66-.09-35.33.07-53 .01-5.53-.01-11.1-.21-16.63.15-.21 2.51-.27 5.01-.29 7.53-.02 57.35 0 114.68.01 172.03-.07 20.67.19 41.34-.04 62h-46.99c.12-7.39.2-14.78.55-22.16.49-11.48.24-22.97.79-34.45.43-14.16.33-28.31 1.52-42.44 5.07-.01 10.17-.03 15.25-.06.35-7.3.31-14.59.25-21.89.02-28 .01-56 .01-84 .04-6.09.02-12.17-.21-18.25-5.45-.23-10.87-.16-16.33.09.21-12.38-1.42-24.63-1.69-36.98l.15-.69c.73-1.97 1.58-3.9 2.53-5.77Z"
  /><path
    fill="#b76649"
    d="M443.16 644.64c2.87-.06 5.74-.12 8.59-.13-.77 10.37-.97 20.74-1.28 31.13-1.14 15.21-2.57 30.41-3.87 45.6l-1.48-.51c-.01-12.7-.91-25.37-1.02-38.07-.06-12.68-.62-25.35-.94-38.02Zm1.52-139.4c.62 5.16 1.91 10.28 3.22 15.31-1.55.03-3.09.04-4.62.03.57-5.09 1.2-10.22 1.4-15.34Z"
  /><path
    fill="#c18166"
    d="M496.57 478.78c2.78 2.89 5.21 5.76 9.04 7.28 3.71 1.43 7.96 1.9 11.86 1.06 3.45-.77 6.26-3.69 8.85-5.96 3.65 2.43 7.38 4.59 11.69 5.7.58 11.18-.5 22.34.19 33.5-1.19 17.1-1.14 34.16-1.44 51.3.08 19.34-.41 38.68.13 58 .4 20.54-.03 41.24 1.46 61.73-.07 9.19-.32 18.35.31 27.53.59 8.27.81 16.45.6 24.74h-94.21c.19-7.65.19-15.28.07-22.93l1.48.51c1.3-15.19 2.73-30.39 3.87-45.6.31-10.39.51-20.76 1.28-31.13 11.42.09 22.84.15 34.26.06 10.1-.16 20.05.51 30.13-.62.28-30.76.21-61.53.24-92.29-.16-10.4.25-20.78-.19-31.18-14.72-.5-29.46-.07-44.18-.19-8.04-.07-16.08-.1-24.11.26-1.31-5.03-2.6-10.15-3.22-15.31.05-6.79.37-13.57.36-20.35 3.33 2.64 7.26 4.15 11.56 3.37 4.31-.65 7.04-3.79 9.97-6.67 1.87 2.31 4.03 5.62 6.97 6.53 3.84 1.12 8.25.51 11.93-.94 4.5-1.84 7.66-5.11 11.1-8.4Z"
  /><path
    fill="#b76649"
    d="M124.34 455.03c5.01 4.18 8.42 8.87 15.66 8.74 6.43.17 9.8-3.91 13.92-8.04 2.78 2.71 5.35 5.52 9.09 6.91 4.2 1.49 9.09 1.7 13.34.35 3.82-1.23 6.09-4.68 8.45-7.67 4.56 3.88 8.75 7.43 15.15 7.22 5.65-.08 9.14-3.88 13.03-7.39 5.17 4.46 9.68 8.86 17.02 8.73 6 .05 9.89-3.25 14.25-6.81 1.65 2.54 3.33 5.78 5.85 7.52 3.31 2.07 8 2.01 11.63.87 4.45-1.37 7.43-5.08 10.43-8.4 2.13 2.67 4.56 6.25 7.77 7.61 3.42 1.31 7.53.99 10.96-.11 3.84-1.3 6.41-3.9 9.29-6.61 1.59 2.52 3.32 6.25 6.21 7.43 3.91 1.56 8.79.83 12.63-.7 4.03-1.63 6.77-4.6 9.77-7.62 2.25 3.22 4.44 7.03 8.33 8.47 4.23 1.48 9.18 1.06 13.35-.42 4.09-1.51 6.86-4.85 9.74-7.96 4.13 4.72 7.81 9.21 14.68 9.16 6.31.05 9.54-4.18 13.35-8.45 1.79 2.43 3.67 5.69 6.36 7.16 2.98 1.22 6.73.79 9.75-.09 4.56-1.42 7.57-4.66 10.85-7.94 1.83 2.95 3.83 6.79 6.86 8.63 3.9 2.23 9.1 2.11 13.12.26 3.8-1.76 6.56-5.59 9.15-8.78 1.75 2.25 3.56 4.68 5.66 6.59 4.17 3.81 10.9 4.56 15.79 1.75 2.7-1.58 4.63-4.74 6.36-7.29 1.36 2.65 2.75 6.49 5.59 7.82 4.06 1.95 9.37 1.33 13.49-.12 4.7-1.67 7.63-5.3 10.88-8.87 2.87 3.01 5.72 6.31 9.66 7.92 4.09 1.64 8.9 1.98 13.1.65 3.65-1.17 5.9-4.62 8.18-7.46 2.12 2.08 4.25 4.25 6.55 6.15-2.4 6.95-1.08 15.38-.74 22.67l-.84-.05c-4.31-1.11-8.04-3.27-11.69-5.7-2.59 2.27-5.4 5.19-8.85 5.96-3.9.84-8.15.37-11.86-1.06-3.83-1.52-6.26-4.39-9.04-7.28-3.44 3.29-6.6 6.56-11.1 8.4-3.68 1.45-8.09 2.06-11.93.94-2.94-.91-5.1-4.22-6.97-6.53-2.93 2.88-5.66 6.02-9.97 6.67-4.3.78-8.23-.73-11.56-3.37-1.76-1.64-3.42-3.44-5.07-5.19-2.81 2.92-5.95 6.63-9.85 8.08-3.33 1.22-7.76 1.14-11.06-.19-3.22-1.32-5.42-4.94-7.44-7.64-5.65 3.69-10.95 7.1-18.07 6.11-3.83-.45-5.89-3.31-8.39-5.88-3.54 3.47-6.69 7.23-12.11 7.16-6.28-.06-10.08-4.16-14.28-8.18-3.43 2.87-6.71 5.93-11.17 7.07-3.6.9-7.75.95-11.37.12-3.64-.82-6.08-3.65-8.69-6.13-5.87 4.06-11.69 8.09-19.24 7.12-4.27-.5-6.22-4.06-8.65-7.11-3.01 2.12-6.09 4.55-9.76 5.31-3.39.66-7.09.54-10.4-.45-2.89-.85-4.97-3.83-6.89-6.01-4.5 4.44-8.69 8.49-15.5 8.31-5.54-.08-8.46-3.76-12.01-7.36-4.82 2.71-9.35 5.09-15.09 4.66-6.09-.23-10.2-3.73-14.92-7.05-4.78 3.21-8.86 6.7-15.03 6.09-5.57-.37-8.88-3.65-13.17-6.67-.95 1.87-1.8 3.8-2.53 5.77-5.01 2-10.01 3.31-15.42 2.08-4.71-.72-7.96-3.48-11.33-6.59-2.66 2.35-5.36 5.12-8.88 6.11-3.34.95-7.19 1.04-10.54.17-3.56-.97-6.46-4.06-9.1-6.49-2.73 2.48-5.11 5.06-8.86 5.88-3.67.8-7.67.83-11.29-.24-4.18-1.32-7.96-4.61-11.75-6.81a54.347 54.347 0 0 0-5.5 4.77c.42-5.96-.26-12.17.43-18.12.25-2.51 1.61-4.23 2.91-6.28 5.65 4.44 12.6 6.84 19.76 5.15 4.18-.94 6.67-4.61 9.56-7.43Zm413.86 65.33c1.34 4.37 2.56 8.69 2.89 13.28.79 9.62 1.33 19.25 2.2 28.86.9 9.19.25 18.4 1.12 27.59.78 8.62.38 17.25.95 25.89.36 5.56.15 11.1-.19 16.65-.51 8.7-.01 17.36-.32 26.05-.56 13.02-1.59 25.99-1.97 39.01-.06 4.09-1.62 7.6-3.46 11.16-.1-5.86-.41-11.63-1.07-17.46-1.49-20.49-1.06-41.19-1.46-61.73-.54-19.32-.05-38.66-.13-58 .3-17.14.25-34.2 1.44-51.3Z"
  /><path
    fill="#b27056"
    d="M554.04 481.08c3.34 1.63 6.78 4.27 10.43 5.03 3.63.63 7.82-1.17 11.22-2.36.13 14.02-.19 28.02.38 42.03-.13 6.96-.47 13.91-.35 20.88-.11 65.67.04 131.34-.15 197h-36.31c.21-8.29-.01-16.47-.6-24.74-.63-9.18-.38-18.34-.31-27.53.66 5.83.97 11.6 1.07 17.46 1.84-3.56 3.4-7.07 3.46-11.16.38-13.02 1.41-25.99 1.97-39.01.31-8.69-.19-17.35.32-26.05.34-5.55.55-11.09.19-16.65-.57-8.64-.17-17.27-.95-25.89-.87-9.19-.22-18.4-1.12-27.59-.87-9.61-1.41-19.24-2.2-28.86-.33-4.59-1.55-8.91-2.89-13.28-.69-11.16.39-22.32-.19-33.5l.84.05c5.94-.14 10.28-2.95 15.19-5.83Z"
  /><path
    fill="#9e523b"
    d="M561.98 457.41c4.28 3.86 8.43 6.88 13.87 8.94-.22 5.8-.24 11.6-.16 17.4-3.4 1.19-7.59 2.99-11.22 2.36-3.65-.76-7.09-3.4-10.43-5.03-4.91 2.88-9.25 5.69-15.19 5.83-.34-7.29-1.66-15.72.74-22.67 4.38 1.29 9.16 2 13.6.57 3.7-1.22 6.13-4.73 8.79-7.4Z"
  /><path
    fill="#fcd06f"
    d="M329.96 131.66c11.58 2.44 21.58 7.56 31.9 13.11 10.79 5.88 19.82 13.18 29.8 20.22 6.02 4.31 12.2 8.44 18.12 12.89 15.63 11.77 30.45 24.89 44.65 38.35 9.96 9.7 19.43 19.91 28.98 30.02 13.34 15.11 26.13 30.84 37.69 47.34 7.51 10.37 14.43 21.18 20.51 32.46 4.08 7.28 8.37 14.42 12.23 21.83 2.69 5.1 6.17 9.64 10.1 13.85 5.97 6.51 11.85 13.04 17.31 20 5.29 6.59 10.6 13.18 16.02 19.66 4.42 5.29 8.31 10.94 12.92 16.08 5.24 5.82 10.33 11.66 15.195 17.83 1.85 2.44 3.98 5.41 4.39 8.52.36 2.92-.81 6.62-3.52 8.11-3.73 1.77-8.485 1.16-12.135 2.92-2.25 2.63-3.49 6.56-6.1 8.84-2.78 2.08-7 2.24-10.23 1.21-4-1.32-6.69-5.54-9.13-8.76-3.75 5.14-6.9 7.73-12.81 10.21-5.44-2.06-9.59-5.08-13.87-8.94-2.66 2.67-5.09 6.18-8.79 7.4-4.44 1.43-9.22.72-13.6-.57-2.3-1.9-4.43-4.07-6.55-6.15-2.28 2.84-4.53 6.29-8.18 7.46-4.2 1.33-9.01.99-13.1-.65-3.94-1.61-6.79-4.91-9.66-7.92-3.25 3.57-6.18 7.2-10.88 8.87-4.12 1.45-9.43 2.07-13.49.12-2.84-1.33-4.23-5.17-5.59-7.82-1.73 2.55-3.66 5.71-6.36 7.29-4.89 2.81-11.62 2.06-15.79-1.75-2.1-1.91-3.91-4.34-5.66-6.59-2.59 3.19-5.35 7.02-9.15 8.78-4.02 1.85-9.22 1.97-13.12-.26-3.03-1.84-5.03-5.68-6.86-8.63-3.28 3.28-6.29 6.52-10.85 7.94-3.02.88-6.77 1.31-9.75.09-2.69-1.47-4.57-4.73-6.36-7.16-3.81 4.27-7.04 8.5-13.35 8.45-6.87.05-10.55-4.44-14.68-9.16-2.88 3.11-5.65 6.45-9.74 7.96-4.17 1.48-9.12 1.9-13.35.42-3.89-1.44-6.08-5.25-8.33-8.47-3 3.02-5.74 5.99-9.77 7.62-3.84 1.53-8.72 2.26-12.63.7-2.89-1.18-4.62-4.91-6.21-7.43-2.88 2.71-5.45 5.31-9.29 6.61-3.43 1.1-7.54 1.42-10.96.11-3.21-1.36-5.64-4.94-7.77-7.61-3 3.32-5.98 7.03-10.43 8.4-3.63 1.14-8.32 1.2-11.63-.87-2.52-1.74-4.2-4.98-5.85-7.52-4.36 3.56-8.25 6.86-14.25 6.81-7.34.13-11.85-4.27-17.02-8.73-3.89 3.51-7.38 7.31-13.03 7.39-6.4.21-10.59-3.34-15.15-7.22-2.36 2.99-4.63 6.44-8.45 7.67-4.25 1.35-9.14 1.14-13.34-.35-3.74-1.39-6.31-4.2-9.09-6.91-4.12 4.13-7.49 8.21-13.92 8.04-7.24.13-10.65-4.56-15.66-8.74-2.89 2.82-5.38 6.49-9.56 7.43-7.16 1.69-14.11-.71-19.76-5.15-1.08-1-2.14-2.05-3.24-3.04-3.84 3.95-7.66 10.37-13.8 10.47-7.06.08-13.76-6.08-19.1-10.13-1.31 1.06-2.57 2.18-3.85 3.3-.43.36-.88.73-1.31 1.09-4.74 2.17-10.34 5.09-15.65 3.78-5.04-1.07-7.48-6.23-11.58-8.41-6.23-1.43-13.55.54-19.86-1.44-3.02-.99-4.93-3.9-6.63-6.41v-5.31c13.69-18.42 27.8-36.51 42.03-54.51 8.7-10.59 17.84-20.84 26.77-31.25 7.27-8.81 12.43-19.81 18.42-29.59 12.91-21.27 26.1-41.7 42.47-60.51 19.28-24.27 41.09-46.2 64.17-66.84 19.22-16.42 39.36-31.64 60.49-45.53 14.54-10.38 30.37-18.56 48.01-22.05 9.25-2.47 18.43-1.5 27.6.73Z"
  /><path
    fill="#c18166"
    d="M259.93 253.52c.9 12.73-.1 25.41.5 38.14.82 16.73 2.71 32.4-.16 49.1-5.71.06-11.41-.01-17.1-.15l-.59-1.69c.12-23.09.02-46.12.13-69.21 5.44-5.74 11.39-10.86 17.22-16.19Z"
  /><path
    fill="#d19378"
    d="M314.15 205.67c4.24 2.74 7.69 6.09 11.33 9.52 8.62 8.1 17.87 15.4 26.57 23.41 6.54 6.04 13.53 11.53 19.94 17.69-.93 4.75-1.14 9.55-.95 14.37.43 11.49.12 22.96-.63 34.42-.74 11.96.37 23.64.65 35.58-11.72-.03-23.45.06-35.17.03.72-5.32 1.08-10.66 1.23-16.02 4.55 0 9.1-.08 13.66-.19.08-26.16-.01-52.32 0-78.48-5.29-.01-10.57-.11-15.86-.19-.49-5.49-1.18-10.95-2.17-16.38-.47 5.45-.71 10.9-.8 16.37-12.29-.06-24.59.16-36.87.02-.16-5.02-.5-9.99-1.43-14.93-.43 4.97-.86 9.93-1.48 14.88-4.62-.06-9.3-.14-13.9.19-.32 4.53-.22 9.16-.18 13.7.02 21.64-.2 43.28 0 64.92 4.97.06 9.95.08 14.91.07.15 5.32.41 10.63.96 15.92-11.24.16-22.47.1-33.69.19 2.87-16.7.98-32.37.16-49.1-.6-12.73.4-25.41-.5-38.14 3.96-3.73 8.19-7.11 12.42-10.53 5.35-4.32 9.83-9.47 15.08-13.9 3.98-3.37 8.07-6.56 11.88-10.11 4.9-4.42 9.58-9.36 14.84-13.31Z"
  /><path
    fill="#d19378"
    d="M297.11 324.67c11.95.21 23.88.17 35.85 0 .06 5.5.07 10.74 1.93 16-12.93-.02-25.86.19-38.8-.09.66-5.29.95-10.59 1.02-15.91Z"
  /><path
    fill="#b76649"
    d="M293 324.65c1.37 0 2.74.01 4.11.02-.07 5.32-.36 10.62-1.02 15.91l-2.13-.01c-.55-5.29-.81-10.6-.96-15.92Zm39.96.02h4.16c-.15 5.36-.51 10.7-1.23 16.02l-1-.02c-1.86-5.26-1.87-10.5-1.93-16Zm-39.31-93.78c.93 4.94 1.27 9.91 1.43 14.93-.98-.02-1.93-.03-2.91-.05.62-4.95 1.05-9.91 1.48-14.88Zm39.1-1.46c.99 5.43 1.68 10.89 2.17 16.38-.99-.01-1.99-.01-2.97-.01.09-5.47.33-10.92.8-16.37Z"
  /><path
    fill="#c18166"
    d="M371.99 256.29c4.62 4.39 9.01 8.77 14.73 11.77.42 9.87.08 19.73.17 29.6-.1 14.01.46 28.06.13 42.06l-.17.86c-5.26.09-10.52.12-15.79.08-.28-11.94-1.39-23.62-.65-35.58.75-11.46 1.06-22.93.63-34.42-.19-4.82.02-9.62.95-14.37Z"
  /><path
    fill="#b27056"
    d="M314.9 186.58c4.6 2.65 8.07 7.63 11.87 11.33 6.5 6.49 13.16 12.82 19.72 19.27 13.49 12.49 27.19 24.76 40.73 37.21-.36 4.55-.58 9.1-.5 13.67-5.72-3-10.11-7.38-14.73-11.77-6.41-6.16-13.4-11.65-19.94-17.69-8.7-8.01-17.95-15.31-26.57-23.41-3.64-3.43-7.09-6.78-11.33-9.52-5.26 3.95-9.94 8.89-14.84 13.31-3.81 3.55-7.9 6.74-11.88 10.11-5.25 4.43-9.73 9.58-15.08 13.9-4.23 3.42-8.46 6.8-12.42 10.53-5.83 5.33-11.78 10.45-17.22 16.19-.05-5.43-.12-10.86-.15-16.29 20.15-18.21 40.25-36.54 59.54-55.66 3.86-3.64 7.69-9.42 12.8-11.18Z"
  /><path
    fill="#fcd06f"
    d="M312.22 164.56c4.33-1.13 8.52 1.47 11.99 3.79 13.75 9.79 26.45 21.8 39.35 32.7 6.23 5.45 12.28 11.1 18.36 16.69 10.49 10.58 20.97 19.34 28.8 32.32 1.89 3.54 3.77 6.79 2.53 10.92-1.76-1.09-3.35-2.32-5.01-3.57-.29 2.43.66 8.35-3.31 7.66-6.54-.48-12.78-6.72-17.71-10.68-13.54-12.45-27.24-24.72-40.73-37.21-6.56-6.45-13.22-12.78-19.72-19.27-3.8-3.7-7.27-8.68-11.87-11.33-5.11 1.76-8.94 7.54-12.8 11.18-19.29 19.12-39.39 37.45-59.54 55.66-3.58 3.04-7.17 6.08-10.92 8.91-2.12 1.51-4.86 3.4-7.54 3.43-3.08-.21-3.11-5.18-3.95-7.43-1.86.51-3.72.98-5.56 1.47.94-3.95 1.99-7.75 4.36-11.12 6.73-9.7 14.96-18.52 23.9-26.23 8.25-7.09 15.15-15.48 23.64-22.32 11.04-9.05 20.98-19.24 32.51-27.54 3.98-2.88 8.41-6.79 13.22-8.03Z"
  /><path
    fill="#efa12b"
    d="M326.05 160.72c7.36 4.06 13.4 9.71 18.81 16.06 8.11 9.08 16.84 18.29 26.8 25.33 6.93 5.02 13.25 10.65 19.74 16.23 11.95 10.66 22.49 21.85 29.15 36.62 1.95 4.58 2.8 9.73 2.23 14.69-.38 3.68-3.24 6.72-6.73 7.74-3.7.96-7.82.69-11.45 1.86-2.08 3.69-2.65 8.43-3.69 12.53-3.95 16.19-8.18 32.26-13.89 47.94.33-14-.23-28.05-.13-42.06-.09-9.87.25-19.73-.17-29.6-.08-4.57.14-9.12.5-13.67 4.93 3.96 11.17 10.2 17.71 10.68 3.97.69 3.02-5.23 3.31-7.66 1.66 1.25 3.25 2.48 5.01 3.57 1.24-4.13-.64-7.38-2.53-10.92-7.83-12.98-18.31-21.74-28.8-32.32-6.08-5.59-12.13-11.24-18.36-16.69-12.9-10.9-25.6-22.91-39.35-32.7-3.47-2.32-7.66-4.92-11.99-3.79-4.81 1.24-9.24 5.15-13.22 8.03-11.53 8.3-21.47 18.49-32.51 27.54-8.49 6.84-15.39 15.23-23.64 22.32-8.94 7.71-17.17 16.53-23.9 26.23-2.37 3.37-3.42 7.17-4.36 11.12 1.84-.49 3.7-.96 5.56-1.47.84 2.25.87 7.22 3.95 7.43 2.68-.03 5.42-1.92 7.54-3.43 3.75-2.83 7.34-5.87 10.92-8.91.03 5.43.1 10.86.15 16.29-.11 23.09-.01 46.12-.13 69.21-2.42-5.32-4.86-10.57-6.47-16.21-4.27-14.52-7.19-29.44-12.02-43.83-3.62-.29-7.57-.37-11.03-1.5-3.84-1.36-7.22-4.7-7.46-8.95-.3-10.9 5.4-19.34 11.32-27.9 6.25-9.23 14.22-16.11 22.38-23.58 7.38-6.74 15.66-12.24 23.24-18.74 6.77-5.62 12.71-11.87 18.93-18.09 5.4-5.39 9.03-11.15 15.26-15.63 4.39-3.13 9.56-6.06 14.93-7.01 5.11-.89 9.98.81 14.39 3.24ZM101.94 359.65c-1.98 3.59-4.13 7.08-6.59 10.36-16.96 22.42-33.14 45.42-49.08 68.56 1.86-4.97 3.67-10 5.8-14.86 2.81-6.46 6.65-12.59 10.18-18.8 6.21-10.96 14.25-20.98 23.01-29.98 5.31-5.41 10.61-10.71 16.68-15.28Zm57.82 11.09c-2.34 10.08-5.48 19.47-9.84 28.86-4.19 10.18-9.17 19.12-15.68 27.99 1.91-8.42 3.56-16.6 7.16-24.52 3.31-7.18 6.2-14.99 10.52-21.51 2.43-3.73 5.1-7.31 7.84-10.82Zm72.88-12.1c-2.98 18.55-6.35 37.05-10.43 55.39-1.78 9.02-4.22 17.87-7 26.63-.23-5.35-.4-10.69-.06-16.05.52-10.58 3-21.43 5.14-31.83 2.71-11.73 7.02-23.34 12.35-34.14Zm61.11 12c4.42 20.69.72 40.09-4.59 60.13-1.8-9.72-1.41-19.34-.86-29.15.67-10.47 2.65-20.88 5.45-30.98Zm58.55-4.85c3.23 7.39 6.56 15.12 8.54 22.93 1.66 6.62 2.76 13.4 3.77 20.15 1.61 10.64 1.36 21.07 1.17 31.8-3.43-10.79-5.12-21.88-7.66-32.87-2.81-13.87-4.47-28-5.82-42.01Zm80.09 3.81c6.53 7.21 11.02 15.76 14.96 24.59 4.95 11.21 7.17 23.33 8.37 35.45-6.37-12.04-12.01-24.44-16.18-37.44-2.36-7.53-5.2-14.96-7.15-22.6Zm82.64-11.68c14.98 12.88 27.51 28.57 36.44 46.22 5.23 10.37 11.72 21.16 14.44 32.42-13.43-20.48-27.1-40.82-40.34-61.44-3.69-5.65-7.41-11.21-10.54-17.2ZM232.65 192.59c-11.67 13.94-22.65 28.44-34.59 42.13-5.16 6.21-10.01 12.64-15.25 18.78-8.12 9.6-15.76 19.57-23.55 29.44-9.26 11.14-17 23.42-26.13 34.67 1.49-3.7 3.09-7.36 5.01-10.86 10.58-19.29 22.42-38.67 36.09-55.92 5.89-6.86 11.12-14 17.7-20.25 8.8-8.52 17.09-17.7 26.36-25.63 4.75-4.16 9.49-8.34 14.36-12.36Zm165.32 1.42c5.21 3.96 10.25 8.17 15.05 12.63 5.35 5.01 10.97 9.63 16.02 14.98 9.81 10.32 20.06 20.98 28.46 32.46a375.743 375.743 0 0 1 24.1 35.93c5.06 8.23 9.88 16.46 13.31 25.53-16.9-21.32-32.66-43.74-50.37-64.4-9.05-11.27-18.13-22.48-27.54-33.46-6.11-8.12-12.51-15.89-19.03-23.67Z"
  /><path
    fill="#9e523b"
    d="M602.24 519.15c1.03 1.22 2.02 2.5 3.03 3.75 1.92 2.32 3.91 4.71 7.02 5.4 4.73 1.09 9.095-.4 12.985-3.07 1.59 7.14.41 13.91-.08 21.06-3.19.47-6.985 1.3-10.145.48-3.33-.89-6.06-3.91-8.56-6.15.67 10.36.17 20.67.19 31.04.06 57.33.03 114.67.03 172h-31.14c.19-65.66.04-131.33.15-197-.12-6.97.22-13.92.35-20.88 5.03 1.03 9.59 2.14 14.68.73 4.82-1.26 7.76-4.37 11.49-7.36Z"
  /><path
    fill="#b27056"
    d="M606.49 540.62c2.5 2.24 5.23 5.26 8.56 6.15 3.16.82 6.955-.01 10.145-.48.09 7.1-.19 14.11-1.41 21.11-.98 4.77-2.28 9.35-2.51 14.26-.285 6.37-.265 12.73-1.005 19.08-.95 8.47.67 16.47.61 24.92-.16 14.28-.22 29.31 2.895 43.3.43 5.23.44 10.46.37 15.7-.11 19.67.13 39.33-.08 59H606.71c0-57.33.03-114.67-.03-172-.02-10.37.48-20.68-.19-31.04Z"
  /><path
    fill="#b76649"
    d="M623.785 567.4c-.58 11.19 1.42 22.11 1.21 33.26-.2 8.41 1.1 16.59.25 25-.85 8.65.5 17.23-.42 25.85-.54 5.83-1.13 11.59-1.05 17.45-3.115-13.99-3.055-29.02-2.895-43.3.06-8.45-1.56-16.45-.61-24.92.74-6.35.72-12.71 1.005-19.08.23-4.91 1.53-9.49 2.51-14.26Z"
  /><path
    fill="#c18166"
    d="M633.555 538.54c4.36 4.43 7.6 8.74 14.45 8.85 5.74.34 9.18-2.94 12.76-6.87 2.03 2.31 4.24 5.34 7.32 6.2 3.96 1.13 8.39.69 12.18-.84 4-1.64 7.29-4.89 10.44-7.77 4.5 5.02 9.12 9.08 16.3 8.98 6.16.3 9.76-3.24 13.97-7.04 2.29 1.59 4.61 3.21 7.03 4.61-.11 7.07-.3 14.14-.71 21.2-1.54 17.48-.95 35.26-1.28 52.8-.4 18.69.19 37.34.45 56.04.75 14.59.8 29.22 1.82 43.78.43 8.38.54 16.79.54 25.18h-104.76c.21-19.67-.03-39.33.08-59 .07-5.24.06-10.47-.37-15.7-.08-5.86.51-11.62 1.05-17.45.92-8.62-.43-17.2.42-25.85.85-8.41-.45-16.59-.25-25 .21-11.15-1.79-22.07-1.21-33.26 1.22-7 1.5-14.01 1.41-21.11 3.08-2.29 5.73-4.97 8.36-7.75Z"
  /><path
    fill="#b76649"
    d="M689.955 517.83c3.1 3.23 5.69 7.14 10.06 8.74 3.8 1.38 8.68 1.63 12.6.63 3.78-.93 6.08-4.44 8.45-7.24 2.22 2.16 4.44 4.35 6.6 6.58-.28 6.19.14 12.34 1.03 18.47l-.69-.35c-2.42-1.4-4.74-3.02-7.03-4.61-4.21 3.8-7.81 7.34-13.97 7.04-7.18.1-11.8-3.96-16.3-8.98-3.15 2.88-6.44 6.13-10.44 7.77-3.79 1.53-8.22 1.97-12.18.84-3.08-.86-5.29-3.89-7.32-6.2-3.58 3.93-7.02 7.21-12.76 6.87-6.85-.11-10.09-4.42-14.45-8.85-2.63 2.78-5.28 5.46-8.36 7.75.49-7.15 1.67-13.92.08-21.06 2.01-2.16 3.83-4.51 5.69-6.79 3.87 5.04 6.99 9.98 14.09 10.04 6.34.33 10.02-3.39 13.93-7.72 2.08 2.63 4.3 6.13 7.65 7.21 4.11 1.25 8.92.82 12.84-.9 4.36-1.99 7.19-5.93 10.48-9.24Zm38.56 44.66c.15 10.54 2.59 20.64 3.56 31.12 1.33 9.41.27 18.83 1.6 28.24 2.01 13.73.89 26.7 1.06 40.53.11 8.8-.75 17.49-1.09 26.28-.71 11.59-1.39 22.78-4.14 34.04-.43-1.4-.86-2.8-1.22-4.22-1.02-14.56-1.07-29.19-1.82-43.78-.26-18.7-.85-37.35-.45-56.04.33-17.54-.26-35.32 1.28-52.8.39-1.13.81-2.25 1.22-3.37Z"
  /><path
    fill="#b27056"
    d="m769.355 526.22.57-.57c-.11 4.34-.27 8.67-.25 13.01.05 45.99-.05 92 .04 137.99-.11 4.1-.04 36.11.09 38.97-.1 5.48.3 11.13-.5 16.56-1.03 5.73-5.97 9-10.77 11.48h-29.71c0-8.39-.11-16.8-.54-25.18.36 1.42.79 2.82 1.22 4.22 2.75-11.26 3.43-22.45 4.14-34.04.34-8.79 1.2-17.48 1.09-26.28-.17-13.83.95-26.8-1.06-40.53-1.33-9.41-.27-18.83-1.6-28.24-.97-10.48-3.41-20.58-3.56-31.12-.41 1.12-.83 2.24-1.22 3.37.41-7.06.6-14.13.71-21.2l.69.35c3.67.53 7.83.9 11.33-.55 3.03-1.23 5.86-3.17 8.65-4.87 3.45 2.52 7.54 5.86 11.89 6.41 2.94.27 6.15-1.94 8.71-3.18.08-5.53-.09-11.07.08-16.6Z"
  /><path
    fill="#9e523b"
    d="M750.105 519.66c3.03 2.14 5.87 5.07 9.21 6.66 2.98 1.43 6.94.53 10.04-.1-.17 5.53 0 11.07-.08 16.6-2.56 1.24-5.77 3.45-8.71 3.18-4.35-.55-8.44-3.89-11.89-6.41-2.79 1.7-5.62 3.64-8.65 4.87-3.5 1.45-7.66 1.08-11.33.55-.89-6.13-1.31-12.28-1.03-18.47 3.96.52 8.46 1.33 12.35.11 3.91-1.2 6.92-4.52 10.09-6.99Z"
  /><path
    fill="#efa12b"
    d="M581.25 381.73c10.57.08 21.1-.55 31.68-.24 4.2 4.27 8.335 8.57 11.895 13.41 7.15 9.52 14.47 18.91 21.39 28.6 3.8 5.35 9.01 10.46 11.7 16.42 2.83 6.06 1.05 13.73-2.55 19.08-2.94 4.35-9.12 5.99-13.81 7.75 2.27 8.16 3.49 16.47 4.93 24.8.72 4.16.75 8.34.53 12.55-4.01-6.91-5.2-14.34-7.96-21.71-1.97-5.43-3.83-10.9-5.5-16.43-3.85 5.48-7.03 11.7-14.585 12.16-5.03.7-8.42-1.75-11.98-4.84.8 16.48.8 33.27-1.72 49.62-1.01-1.25-2-2.53-3.03-3.75-3.73 2.99-6.67 6.1-11.49 7.36-5.09 1.41-9.65.3-14.68-.73-.57-14.01-.25-28.01-.38-42.03-.08-5.8-.06-11.6.16-17.4 5.91-2.48 9.06-5.07 12.81-10.21 2.44 3.22 5.13 7.44 9.13 8.76 3.23 1.03 7.45.87 10.23-1.21 2.61-2.28 3.85-6.21 6.1-8.84 3.65-1.76 8.405-1.15 12.135-2.92 2.71-1.49 3.88-5.19 3.52-8.11-.41-3.11-2.54-6.08-4.39-8.52-4.865-6.17-9.955-12.01-15.195-17.83-4.61-5.14-8.5-10.79-12.92-16.08-5.42-6.48-10.73-13.07-16.02-19.66Z"
  /><path
    fill="#fcd06f"
    d="M612.93 381.49c24.355-.34 48.715-.15 73.075-.3 7.37-.07 14.42-.16 21.62 1.73 6.15 1.63 12.34 3.92 17.72 7.37 4.61 3 7.41 7.08 10.83 11.25 24.11 28.26 47.79 56.92 71.19 85.77 3.86 4.88 8.19 9.51 11.64 14.7v7.64c-1.85 1.98-4.01 4.32-6.63 5.23-2.86.92-6.08 1.07-9.06 1.38-1.95 3.22-3.86 7.52-7.03 9.68-3.38 1.88-7.98 1.63-11.28-.33-2.99-1.75-5.64-4.38-8.21-6.69-2.33 2.21-4.51 4.55-6.87 6.73l-.57.57c-3.1.63-7.06 1.53-10.04.1-3.34-1.59-6.18-4.52-9.21-6.66-3.17 2.47-6.18 5.79-10.09 6.99-3.89 1.22-8.39.41-12.35-.11-2.16-2.23-4.38-4.42-6.6-6.58-2.37 2.8-4.67 6.31-8.45 7.24-3.92 1-8.8.75-12.6-.63-4.37-1.6-6.96-5.51-10.06-8.74-3.29 3.31-6.12 7.25-10.48 9.24-3.92 1.72-8.73 2.15-12.84.9-3.35-1.08-5.57-4.58-7.65-7.21-3.91 4.33-7.59 8.05-13.93 7.72-7.1-.06-10.22-5-14.09-10.04-1.86 2.28-3.68 4.63-5.69 6.79-3.89 2.67-8.255 4.16-12.985 3.07-3.11-.69-5.1-3.08-7.02-5.4 2.52-16.35 2.52-33.14 1.72-49.62 3.56 3.09 6.95 5.54 11.98 4.84 7.555-.46 10.735-6.68 14.585-12.16 1.67 5.53 3.53 11 5.5 16.43 2.76 7.37 3.95 14.8 7.96 21.71.22-4.21.19-8.39-.53-12.55-1.44-8.33-2.66-16.64-4.93-24.8 4.69-1.76 10.87-3.4 13.81-7.75 3.6-5.35 5.38-13.02 2.55-19.08-2.69-5.96-7.9-11.07-11.7-16.42-6.92-9.69-14.24-19.08-21.39-28.6-3.56-4.84-7.695-9.14-11.895-13.41Z"
  /><path
    fill="#efa12b"
    d="M654.225 404.21c10.26 8.33 18.06 21.02 25.41 31.9 9.03 13.32 15.8 27.92 20.98 43.12 1.3 3.84 1.92 7.8 2.35 11.82-4.17-5.64-6.95-11.94-10.55-17.92-5.42-9.05-9.93-18.59-15.42-27.61-4-6.45-7.46-13.18-11.11-19.83-3.87-7.14-8.66-14.04-11.66-21.48Zm50.53 4.49c5.34 3.57 10.09 7.99 14.83 12.36 17.09 15.8 30.83 35.37 40.9 56.31 3.63 7.2 7.67 13.85 9.33 21.87-5-5.45-8.37-11.84-12.76-17.73-6.43-8.65-11.74-17.99-18.51-26.4-6.31-8.39-12.28-16.99-18.85-25.18-5.01-6.95-11-13.66-14.94-21.23Z"
  /><path
    fill="#ad6c42"
    d="M231.37 502.1c5.53-.36 11.1-.16 16.63-.15 17.67.06 35.34-.1 53-.01 25.34.12 50.67-.22 76 .15 7.09.04 14.14-.17 21.21-.32.47 9.3.09 18.58.14 27.89.11 52 .02 104 .04 156 0 19.33.17 38.67-.1 58h-18.61c-.02-74.69.07-149.39-.07-224.08-6.86-.47-13.72-.46-20.61-.36-26.64.01-53.35 0-80 .01-9.7.05-19.38-.22-29.08.2-.09 3.74-.18 7.49-.2 11.23.05 71 .03 142 .07 213h-18.74c.23-20.66-.03-41.33.04-62-.01-57.35-.03-114.68-.01-172.03.02-2.52.08-5.02.29-7.53Zm-53.39 18.45c2.64.04 5.28.03 7.91-.05 5.46-.25 10.88-.32 16.33-.09.23 6.08.25 12.16.21 18.25 0 28 .01 56-.01 84 .06 7.3.1 14.59-.25 21.89-5.08.03-10.18.05-15.25.06h-8.78c-21.64-.13-43.27.05-64.9-.04-.14-31.97-.16-63.94-.06-95.91.01-9.49-.3-18.95.1-28.44 21.57.44 43.15-.36 64.7.33Zm248.98-.17c5.44-.12 10.87.05 16.32.2 1.53.01 3.07 0 4.62-.03 8.03-.36 16.07-.33 24.11-.26 14.72.12 29.46-.31 44.18.19.44 10.4.03 20.78.19 31.18-.03 30.76.04 61.53-.24 92.29-10.08 1.13-20.03.46-30.13.62-11.42.09-22.84.03-34.26-.06-2.85.01-5.72.07-8.59.13-5.37.12-10.75.06-16.12-.09-.43-12.96-.04-25.93-.19-38.89.12-28.42-.23-56.86.11-85.28Zm201.425 51.64c5.41-.9 11.14-.38 16.62-.4 23.63.17 47.27-.16 70.9.31.32 6.24.46 12.48.36 18.73-.17 13.33-.01 26.67-.09 40-.08 11.25.28 22.47-.28 33.72-29.23-.09-58.46.01-87.68-.05-.33-7.22-.28-14.44-.22-21.67 0-18-.01-36-.01-54 .06-5.49-.48-11.22.4-16.64ZM278.27 245.96c4.6-.33 9.28-.25 13.9-.19.98.02 1.93.03 2.91.05 12.28.14 24.58-.08 36.87-.02.98 0 1.98 0 2.97.01 5.29.08 10.57.18 15.86.19-.01 26.16.08 52.32 0 78.48-4.56.11-9.11.19-13.66.19h-4.16c-11.97.17-23.9.21-35.85 0-1.37-.01-2.74-.02-4.11-.02-4.96.01-9.94-.01-14.91-.07-.2-21.64.02-43.28 0-64.92-.04-4.54-.14-9.17.18-13.7Z"
  /><path
    fill="#fff"
    d="M249.92 519.43c9.7-.42 19.38-.15 29.08-.2 26.65-.01 53.36 0 80-.01 6.89-.1 13.75-.11 20.61.36.14 74.69.05 149.39.07 224.08H249.79c-.04-71-.02-142-.07-213 .02-3.74.11-7.49.2-11.23Zm-123.36 14.6c4.33-.87 9.04-.57 13.44-.57 16.34.25 32.69-.2 49.01.2.34 9 .19 17.99.2 27-.15 23.59.26 47.19-.18 70.77-20.89-.01-41.79.16-62.68-.03-.11-27.58-.07-55.16-.1-82.74.03-4.83-.39-9.84.31-14.63Zm314.09.06c3.33-.72 6.95-.63 10.37-.63 17.34.2 34.7-.16 52.05.2.22 6 .28 12 .22 18-.16 26.58.28 53.18-.2 79.76-20.93-.01-41.85.1-62.76-.02.04-26.58-.05-53.16.01-79.74.08-5.81-.49-11.81.31-17.57Zm200.925 51.09c2.73-.52 5.64-.5 8.42-.51 17.65.17 35.3-.07 52.95.15.26 8.61.09 17.22.11 25.84-.05 13.53.22 27.08-.2 40.61-20.53-.07-41.07-.07-61.61.01-.16-19.89-.01-39.77-.14-59.66.03-2.12.09-4.34.47-6.44ZM287.8 256.42c10.42-.44 20.79-.12 31.2-.2 7.37-.04 14.74-.09 22.1.21.27 9.42.07 18.82.12 28.23-.04 9.96.26 19.9-.14 29.86-17.73 0-35.46-.06-53.17.01-.42-9.63-.12-19.24-.17-28.87.03-9.75-.26-19.49.06-29.24Z"
    data-player="true"
  /><path
    fill="#9b8a80"
    d="M713.862 266.776c-.02 14.88.03 29.77-.03 44.65-47.629.031-95.264.069-142.895.036-3.251-.136-27.866-.132-37.729.114a279.535 279.535 0 0 0-2.364-3.737c.019-12.634-.064-40.467-.085-58.131.013-2.284.03-4.568.053-6.852 9.738-.319 19.477-.404 29.217-.405 11.255.001 22.511.115 33.766.115 2.552 0 5.105-.006 7.657-.02 7.974 0 15.942-.067 23.913-.067 2.609 0 5.218.007 7.827.027 4.789.032 9.578.044 14.367.044 15.357.001 30.712-.127 46.068-.128 6.581 0 13.163.025 19.745.094v-.007l.457.005c-.107 8.088.071 16.163.033 24.262Z"
  /><path
    fill="#7a6b63"
    d="M530.942 234.736c8.78-.24 17.55-.42 26.35-.26 52.24.23 104.51-.31 156.75.25 0 2.6.01 5.19.01 7.79-26.83-.28-53.65.17-80.48-.01-10.71-.08-21.41.04-32.12.04-23.55.13-47.1-.46-70.64.31.03-2.7.07-5.41.13-8.12Z"
  /><path
    fill="#9b8a80"
    d="M707.352 203.08c6.312.389 10.84.356 15.81.596.59 10.07.48 20.12.2 30.21a979.79 979.79 0 0 1-9.32 1.188v-.348c-19.535-.209-39.073-.265-58.613-.265-22.507 0-45.017.075-67.523.076-10.206-.001-20.41-.016-30.614-.061a389.153 389.153 0 0 0-6.999-.061c-6.453 0-12.899.144-19.351.321-2.94-.03-6.12-.03-8.97-.83-1.34-2.69-1.28-6.17-1.34-9.12.03-7 .12-13.99.69-20.98 4.798-.258 2.746.055 15.979-.851 6.218.248 11.502.445 17.533-.013 10.319.757 15.583.389 23.358.404 36.99.073 74.02.06 111-.04 6.795-.236 12.457-.003 18.16-.226Z"
  /><path
    fill="#7a6b63"
    d="M571.622 243.216c1.36 4.97 1.79 10.05 1.99 15.18 7.9-.38 15.74-.37 23.64-.05 9.92.45 18.92-.84 28.6 2.22-8.5 2.23-16.86 1.81-25.54 2.12.35 5.51.23 10.88-1.22 16.24-3.23-5.23-2.6-10.38-2-16.19-12.87.07-25.73.11-38.6-.35-4.57-.19-9.07-.93-13.51-1.99 7.97-2.01 15.98-1.97 24.14-1.87-.05-5.45-.46-10.44 2.5-15.31ZM579.142 294.216c4.23-.02 8.21 1.02 12.13 2.55-3.6 1.14-7.24 2-11.03 2.12-7.387.19-14.314.464-21.668-.059-4.663-.332-4.245-1.297-7.813-1.766 3.01-.866 4.519-2.019 6.646-2.255 7.392-.82 14.271-.581 21.735-.59ZM670.942 270.306c2.75 6.01 2.25 12.01 1.54 18.37 6.57.08 13.15.04 19.72.19 3.67.08 7.11.98 10.53 2.28-9.75 2.37-20.52 2.13-30.54 2.45-11.05.02-21.13 1.06-31.92-2.03 9.74-3.51 18.87-2.46 28.99-2.88-.16-6.3-.4-12.32 1.68-18.38ZM711.922 254.036c-8.76 3-19.15 3.47-27.81-.11a40.127 40.127 0 0 1 27.81.11Z"
  /><path
    d="M536.432 94.806c6.35-.52 12.66-.14 19.01.16.08 8.22.05 16.44-.06 24.66-.04 3.68-.03 7.36.02 11.04.19 18.37-.02 36.74.09 55.11.06 5.63-.097 11.566-.527 17.186-6.01.89-11.733.744-17.763-.056-.37-6.71-.44-13.41-.33-20.13.04-24.67-.06-49.33.02-74 0-4.4-.31-8.78-.47-13.18l.01-.79ZM689.112 94.596c6.14-.24 12.23-.12 18.37.02.1 29.05.07 58.11.05 87.16.07 7.07.04 14.39-.18 21.46-6.06.71-12.08.37-18.16.07-.4-9.81-.18-19.69-.22-29.53.05-14.38-.05-28.76.06-43.13.04-3.67.03-7.34 0-11-.06-8.35-.18-16.71.08-25.05Z"
    fill="#b27056"
  /><path
    d="M555.382 119.626c44.55-.09 89.1-.11 133.65.02.03 3.66.04 7.33 0 11-18.98.34-37.84.45-56.84.09-16.99.38-34 .09-51 .2-8.6.11-17.19-.46-25.79-.27-.05-3.68-.06-7.36-.02-11.04Z"
    fill="#9e523b"
  /><path
    d="M520.322 42.976c4.83-8.04 11.913-24.938 14.75-29.38 10.17.09 51.57.01 61.12.06 37.75.01 75.48-.03 113.23 0 .736 1.987 6.61 13.65 8.83 18.05 6.89 13.68 14.45 26.99 21.37 40.65 3.81 7.33 8.26 14.1 10.86 22.03-14.08.52-136 .24-173.29.25-7.26-.21-14.5.32-21.75.33-6.35-.3-12.66-.68-19.01-.16-4.41.06-8.83-.15-13.24-.17-10.03-.15-20.01.56-30.04-.19 2.77-6.54 6.45-12.56 9.8-18.8 5.56-11 11.33-21.92 17.37-32.67Z"
    fill="#fcd06f"
  /><path
    d="M553.192.076c45.67.03 91.33.02 137 .01 6.59.02 13.03-.49 19.41.76.09 4.27-.01 8.54-.18 12.81-37.75-.03-75.48.01-113.23 0-9.55-.05-19.1-.1-28.64.11l-1.98.05c-10.17-.26-20.33-.13-30.5-.22-.18-4.37-.28-8.74-.25-13.11 6.05-.63 12.29-.4 18.37-.41Z"
    fill="#b27056"
  /><path
    d="m565.502 13.665 1.98-.05c-1.69 9.65-5.47 18.26-8.99 27.33-1.66 4.23-3.76 8.13-6.32 11.89.77-8.37 3.66-15.9 6.47-23.73 1.98-5.25 4.11-10.54 6.86-15.44ZM600.912 14.376c.86 8.47-.14 16.71-1.11 25.1-1.01 8.21-1.54 16.05-4.9 23.73-.99-11.61.66-23.87 2.29-35.39.63-4.7 1.88-9.08 3.72-13.44ZM685.522 15.846c5.42 3.46 7.74 9.44 10.74 14.85 6.12 12.15 12.8 22.8 15.81 36.15-7.36-9.17-12.64-20.43-18.08-30.84-3.06-6.47-7.5-13.1-8.47-20.16ZM648.232 25.286c1.95 2.81 3.46 5.78 4.47 9.05 2.26 7.4 3.91 14.94 4.1 22.7-2.38-3.64-4.18-7.44-5.28-11.66-1.78-6.8-3.92-12.94-3.29-20.09ZM537.912 42.146c-.81 5.64-2.9 10.79-5.58 15.77-4.58 8.51-8.21 16.74-14.53 24.03.89-5.66 3.06-10.78 5.75-15.8 4.41-8.31 7.82-17.25 14.36-24ZM623.842 51.326c3.36 10.13 3.86 21.51 1.71 31.95-1.29-3.42-2.21-6.87-2.5-10.52-.58-7.29-1.11-14.25.79-21.43ZM571.892 58.416c.05 4.9-.36 9.71-1.52 14.49-1.94 7.66-3.25 14.86-7.64 21.6-1-3.62-.98-6.53-.08-10.17 2.28-9.1 3.99-18.08 9.24-25.92ZM687.032 64.254c7.14 8.13 9.95 20.08 13.32 30.23-.81-.008-2.56-.008-3.04.01-3.22-10.86-9.78-18.58-10.28-30.24Z"
    fill="#efa12b"
  />
</svg>
