<svg xmlns="http://www.w3.org/2000/svg" viewBox="0 0 55.932 100">
  <path
    fill="#8e2b27"
    d="M40.881 0c-.563 2.012-1.318 3.946-2.016 5.914a2218.247 2218.247 0 0 1-11.081 30.694c8.828 7.338 18.904 13.41 28.148 20.303-1.816 1.747-3.783 3.331-5.538 5.139-4.322 3.987-8.775 7.823-12.958 11.945-3.987 3.355-7.419 7.277-11.345 10.709-3.335 2.922-6.261 6.256-9.648 9.138-2.31 1.946-4.187 4.313-6.587 6.158.71-2.334 1.812-4.461 2.771-6.689 2.277-5.232 4.53-10.472 6.852-15.684 3.135-6.893 5.967-13.916 9.13-20.797-6.33-3.596-12.276-7.763-18.488-11.546C6.713 43.191 3.31 41.077 0 38.832c3.828-4.342 8.379-7.824 12.382-11.978 3.22-2.91 6.338-5.84 9.407-8.909 2.771-2.404 5.355-4.963 8.024-7.469C33.714 7.203 37.032 3.318 40.881 0Z"
  />
</svg>
