<svg xmlns="http://www.w3.org/2000/svg" viewBox="0 0 49.508 100">
  <path
    d="M6.942 80.647 5.864 83.68 25.538 100v-3.922L6.942 80.647Z"
    fill="#ecac5a"
  /><path
    d="m44.134 80.647 1.268 3.033L25.538 100v-3.922l18.596-15.431Z"
    fill="#d38f50"
  /><path
    d="m25.551 65.085 18.583 15.562-18.596 15.431L6.942 80.647l18.609-15.562Z"
    fill="#f0b863"
  /><path
    d="m9.107 76.37-.054 3.717 16.485 13.159v-3.367L9.107 76.37Z"
    fill="#cc8146"
  /><path
    d="m41.638 76.667.018 3.818-16.118 12.749v-3.355l16.1-13.212Z"
    fill="#af6541"
  /><path
    d="M6.942 71.283v3.314l18.596 15.282v-3.165L6.942 71.283Z"
    fill="#ecac5a"
  /><path
    d="M44.134 71.283v3.341L25.538 89.879v-3.165l18.596-15.431Z"
    fill="#d38f50"
  /><path
    d="m25.551 58.886 18.583 12.397-18.596 15.431L6.942 71.283l18.609-12.397Z"
    fill="#f0b863"
  /><ellipse
    cx="25.538"
    cy="71.283"
    rx="4.959"
    ry="4.029"
    fill="#af6541"
  /><path
    data-player="true"
    d="M35.72 29.586s4.269-.134 4.227 6.906C39.914 42.221 9.49 52.799 9.49 59.829c0 7.094 5.926 6.962 5.926 6.962s-4.164-.509-4.006-7.054c.162-6.678 30.338-16.049 30.338-23.196 0-6.615-6.035-6.969-6.028-6.955Z"
    fill="#588076"
  /><path
    data-player="true"
    d="m16.797 59.532-.044-26.362 8.771-8.797.027 43.919-8.754-8.76Z"
    fill="#4e8074"
  /><path
    data-player="true"
    d="m25.53 24.375 8.791 8.795v26.348l-8.771 8.776-.02-43.919Z"
    fill="#31736e"
  /><path
    data-player="true"
    d="M15.518 26.315s-4.269-.136-4.228 6.961c.034 5.772 30.458 16.435 30.458 23.518 0 7.152-5.927 7.018-5.927 7.018s4.165-.513 4.006-7.109C39.666 49.971 9.49 40.527 9.49 33.324c0-6.666 6.035-7.024 6.028-7.009Z"
    fill="#588076"
  /><path
    data-player="true"
    d="M11.662 7.366c-.489 0-.235-2.076-.921-2.762-.686-.685-2.763-.489-2.763-.919 0-.462 2.077-.237 2.763-.922.686-.687.46-2.763.921-2.763.477 0 .234 2.076.92 2.763.686.685 2.762.478 2.762.922 0 .42-2.076.234-2.762.919-.686.686-.421 2.762-.92 2.762ZM44.668 21.663c-.642 0-.309-2.728-1.21-3.631-.902-.902-3.631-.643-3.631-1.21 0-.605 2.729-.308 3.631-1.21.901-.902.605-3.63 1.21-3.63.627 0 .308 2.728 1.21 3.63.902.902 3.63.628 3.63 1.21 0 .552-2.728.308-3.63 1.21-.902.903-.554 3.631-1.21 3.631ZM3.989 24.373c-.529 0-.254-2.249-.998-2.992C2.249 20.636 0 20.85 0 20.383c0-.499 2.249-.254 2.991-.998.744-.743.499-2.992.998-2.992.517 0 .253 2.249.997 2.992.744.744 2.992.518 2.992.998 0 .455-2.248.253-2.992.998-.744.743-.455 2.992-.997 2.992Z"
    fill="#4e8074"
  /><path
    data-player="true"
    d="M25.543 19.653c-1.163 0-.559-4.951-2.195-6.588-1.637-1.636-6.587-1.165-6.587-2.195 0-1.099 4.95-.559 6.587-2.195 1.636-1.637 1.098-6.587 2.195-6.587 1.139 0 .559 4.95 2.196 6.587 1.636 1.636 6.587 1.137 6.587 2.195 0 1.003-4.951.559-6.587 2.195-1.637 1.637-1.005 6.588-2.196 6.588Z"
    fill="#4e8074"
  />
</svg>
