<svg xmlns="http://www.w3.org/2000/svg" viewBox="0 0 93.297 99.917">
  <path
    fill="#8e2b27"
    d="M89.874 0c-.072.3-.167.592-.28.879-.848 2.189-1.733 4.369-2.717 6.502 1.659 1.213 3.256 2.505 4.942 3.678.25.177.49.366.727.56-.19.207-.38.413-.583.608-1.762 1.629-3.51 3.235-5.388 4.734-.898.712-1.802 1.418-2.691 2.14.786-2.181 1.471-4.394 2.336-6.545-2.084-1.529-4.346-2.783-6.376-4.405.378-.434.828-.773 1.263-1.145 1.725-1.463 3.534-2.824 5.26-4.286.902-.752 1.846-1.449 2.75-2.198.238-.198.487-.372.757-.522ZM3.107 1.165c.237.138.457.305.662.484 1.05.904 2.055 1.86 3.099 2.77 1.498 1.407 3.097 2.715 4.638 4.077-.615.624-1.299 1.165-1.924 1.777-.47.452-.984.854-1.437 1.326-.527.545-1.091 1.057-1.594 1.624 1.074 1.989 2.238 3.938 3.237 5.965-1.698-1.056-3.419-2.067-5.098-3.153-1.289-.822-2.557-1.676-3.843-2.499.392-.459.832-.877 1.225-1.338.497-.577 1.071-1.078 1.564-1.66.51-.618 1.121-1.124 1.578-1.791-.551-1.883-1.064-3.776-1.617-5.658-.172-.634-.388-1.272-.49-1.924Z"
    style="stroke-width: 1"
  /><path
    fill="#4d5d65"
    d="M46.03 12.433c1.88.011 3.766-.032 5.642.047.885.07 1.769.052 2.651.147 2.581.198 5.169.42 7.728.815 4.786.791 9.461 1.89 13.948 3.774 2.271.962 4.424 2.118 6.379 3.631 1.222.977 2.316 2.076 3.145 3.41.633 1.055 1.099 2.228 1.156 3.469-.043.504-.1 1.006-.149 1.509-.06.657-.339 1.315-.616 1.91-.737 1.533-1.954 2.801-3.236 3.899-3.105 2.546-7.019 4.285-10.812 5.525-5.919 1.946-12.055 2.984-18.267 3.342-1.49.062-2.97.187-4.462.166-3.147.037-6.29.06-9.431-.213-2.722-.171-5.414-.555-8.1-1.012-5.756-1.03-11.397-2.525-16.594-5.269-1.736-.948-3.408-2.073-4.849-3.432-1.228-1.197-2.215-2.563-2.669-4.237-.094-.427-.136-.865-.221-1.293-.197-2.529 1.087-4.915 2.875-6.621.86-.889 1.849-1.62 2.88-2.299 2.434-1.595 5.093-2.73 7.842-3.666 6.131-2.1 12.768-3.076 19.224-3.432.777-.083 1.553-.031 2.333-.092 1.192-.086 2.406-.077 3.603-.078Zm-2.302 16.553c-.762.031-1.522-.009-2.285.071-4.226.259-8.568.728-12.677 1.781a46.78 46.78 0 0 0-9.195 3.232c-.535.257-1.072.499-1.568.832 2.913 1.575 6.11 2.67 9.31 3.503a61.53 61.53 0 0 0 7.426 1.438c2.87.385 5.751.685 8.645.778 1.497-.008 2.991.071 4.488.029 1.151-.042 2.303-.003 3.454-.049.919-.093 1.841-.084 2.759-.177 3.602-.219 7.201-.703 10.72-1.508 3.487-.816 7.087-1.878 10.276-3.527.263-.127.476-.281.683-.488-3.195-1.837-6.661-3.002-10.223-3.891a72.302 72.302 0 0 0-10.416-1.744c-1.387-.078-2.759-.263-4.148-.278-1.804-.121-3.602-.104-5.407-.098-.615.007-1.226.071-1.842.096Z"
    style="stroke-width: 1"
  /><path
    fill="#273336"
    d="M45.57 15.658c1.267 0 2.531-.013 3.797.012.921.016 1.839.098 2.761.097 3.472.142 6.913.575 10.335 1.174 3.163.561 6.262 1.35 9.28 2.458 2.933 1.124 5.833 2.442 8.136 4.636.909.938 1.782 2.128 1.965 3.455.201 1.353-.305 2.688-1.135 3.745-1.253 1.589-3.027 2.775-4.779 3.754a6.66 6.66 0 0 1-.166-.088c-3.195-1.837-6.661-3.002-10.223-3.891a72.302 72.302 0 0 0-10.416-1.744c-1.387-.078-2.759-.263-4.148-.278-1.804-.121-3.602-.104-5.407-.098-.615.007-1.226.071-1.842.096-.762.031-1.522-.009-2.285.071-4.226.259-8.568.728-12.677 1.781a46.78 46.78 0 0 0-9.195 3.232c-.535.257-1.072.499-1.568.832-.82-.383-1.598-.901-2.345-1.416-1.331-.953-2.525-2.037-3.265-3.525-.634-1.283-.577-2.852.125-4.097.973-1.737 2.592-2.991 4.253-4.03 2.079-1.258 4.401-2.203 6.704-2.962a60.784 60.784 0 0 1 6.861-1.768c3.768-.723 7.609-1.102 11.434-1.326 1.27-.003 2.531-.129 3.8-.12Z"
    style="stroke-width: 1"
  /><path
    fill="#273336"
    d="M86.679 27.726c.065.845.068 1.695.083 2.542.005 4.142-.002 8.287.004 12.428-.022 1.521-.619 3.047-1.449 4.306-.688 1.075-1.623 1.987-2.56 2.851a21.989 21.989 0 0 1-3.003 2.173c-3.838 2.359-8.333 3.85-12.69 4.913-3.787.911-7.644 1.482-11.523 1.813-1.218.151-2.441.16-3.658.313.453 1.325 1.032 2.612 1.547 3.914-.733.082-1.468.152-2.204.2-.813-1.709-1.573-3.445-2.379-5.155-.063-.127-.122-.253-.183-.38-.462.008-.917.054-1.376.094-.647.059-1.293-.165-1.916-.066-.176.223-.284.513-.395.769a194.087 194.087 0 0 1-2.072 4.635c-.699.007-1.38-.113-2.075-.174.483-1.287 1.027-2.552 1.49-3.848-2.554-.196-5.117-.394-7.657-.74-3.709-.527-7.447-1.23-11.035-2.305-2.754-.845-5.419-1.837-7.964-3.2-2.43-1.283-4.635-2.864-6.382-5.006-.88-1.117-1.565-2.352-1.898-3.743-.164-.678-.179-1.362-.185-2.056.006-3.489.002-6.98.003-10.47.003-.974-.011-1.942.071-2.913.085.428.127.866.221 1.293.454 1.674 1.441 3.04 2.669 4.237 1.441 1.359 3.113 2.484 4.849 3.432 5.197 2.744 10.838 4.239 16.594 5.269 2.686.457 5.378.841 8.1 1.012 3.141.273 6.284.25 9.431.213 1.492.021 2.972-.104 4.462-.166 6.212-.358 12.348-1.396 18.267-3.342 3.793-1.24 7.707-2.979 10.812-5.525 1.282-1.098 2.499-2.366 3.236-3.899.277-.595.556-1.253.616-1.91.049-.503.106-1.005.149-1.509Z"
    style="stroke-width: 1"
  /><path
    fill="#f6bb40"
    d="M19.485 43.655c1.653-.233 3.291.942 3.737 2.523.447 1.422-.172 3.015-1.394 3.841-.813.589-1.935.686-2.881.424-1.379-.474-2.45-1.895-2.388-3.376-.039-1.668 1.291-3.168 2.926-3.412ZM73.694 43.668c1.062-.178 2.172.248 2.916 1.012a3.485 3.485 0 0 1 .675 3.838c-.53 1.222-1.821 2.149-3.18 2.052-1.575-.001-2.954-1.262-3.259-2.775-.425-1.867.975-3.838 2.848-4.127ZM46.656 47.467c.623-.096 1.24.023 1.816.267 1.578.646 2.519 2.601 1.997 4.233a3.604 3.604 0 0 1-1.82 2.205 3.52 3.52 0 0 1-3.725-.358c-.904-.688-1.421-1.813-1.403-2.942.072-.988.529-1.961 1.297-2.599a3.712 3.712 0 0 1 1.838-.806Z"
    style="stroke-width: 1"
  /><path
    fill="#b8322c"
    d="M45.372 57.672c.623-.099 1.269.125 1.916.066.459-.04.914-.086 1.376-.094.061.127.12.253.183.38a7.949 7.949 0 0 0-.354-.186c-.471-.02-.949.058-1.42.074-.012 12.417-.004 24.833-.011 37.252.011 1.036-.015 2.073.007 3.108.007.285-.042.559-.114.832-.551-.932-1.047-1.9-1.542-2.862a589.65 589.65 0 0 1-3.608-6.978c-.542-1.107-1.144-2.17-1.651-3.296-.19-.425-.304-.869-.405-1.322-.654-2.931-1.266-5.872-1.913-8.802-.741.783-1.478 1.564-2.245 2.324-.444.457-.849.951-1.32 1.386a6.81 6.81 0 0 1-.399-.884c-1.724-4.603-3.482-9.193-5.182-13.805-.196-.517-.365-1.005-.267-1.569.127-.676.73-1.169 1.396-1.253.375-.022.766.051 1.137.089 2.499.264 5.004.398 7.502.66.809.039 1.564.195 2.372.11.695.061 1.376.181 2.075.174a194.087 194.087 0 0 0 2.072-4.635c.111-.256.219-.546.395-.769Z"
    style="stroke-width: 1"
  /><path
    fill="#a32b28"
    d="M48.493 57.838c.12.06.237.12.354.186.806 1.71 1.566 3.446 2.379 5.155a47.837 47.837 0 0 0 2.204-.2c3.383-.342 6.779-.521 10.16-.896.204-.023.409-.045.616-.044.65.026 1.28.413 1.472 1.057.228.648-.08 1.223-.296 1.825-1.816 4.877-3.561 9.758-5.473 14.595-.51-.434-.938-.947-1.422-1.412-.756-.737-1.403-1.595-2.201-2.28-.535 2.259-.988 4.542-1.502 6.805-.274 1.216-.477 2.577-1.023 3.696-1.371 2.859-2.853 5.659-4.283 8.491-.768 1.508-1.516 3.047-2.398 4.493-.043-.068-.083-.136-.125-.205.072-.273.121-.547.114-.832-.022-1.035.004-2.072-.007-3.108.007-12.419-.001-24.835.011-37.252.471-.016.949-.094 1.42-.074Z"
    style="stroke-width: 1"
  /><path
    fill="#8e2b27"
    d="M10.574 58.786c-.623 1.269-1.354 2.487-2.015 3.74-.617 1.186-1.315 2.331-1.921 3.524.414.295.85.562 1.279.835 2.063 1.333 4.103 2.723 6.03 4.248-.434.497-.955.879-1.436 1.327a326.27 326.27 0 0 1-3.273 2.824c-1.69 1.376-3.279 2.865-4.977 4.227-.581.452-1.114.967-1.722 1.381.872-1.846 1.863-3.615 2.923-5.359.794-1.327 1.575-2.658 2.376-3.982-.261-.235-.529-.46-.808-.672-2.271-1.757-4.651-3.375-7.03-4.98.336-.273.697-.511 1.065-.744 2.336-1.527 4.704-3.024 6.979-4.642.848-.572 1.67-1.178 2.53-1.727ZM26.122 74.922c-.138.493-.323.967-.494 1.449a543.466 543.466 0 0 1-2.715 7.521c2.163 1.798 4.632 3.286 6.897 4.975-.445.428-.927.816-1.357 1.259-1.059.977-2.15 1.917-3.175 2.927-.977.822-1.818 1.783-2.78 2.624-.817.716-1.534 1.533-2.364 2.239-.566.477-1.026 1.057-1.614 1.509.174-.572.444-1.093.679-1.639.558-1.282 1.11-2.566 1.679-3.843.768-1.689 1.462-3.41 2.237-5.096-1.551-.881-3.008-1.902-4.53-2.829a65.389 65.389 0 0 1-2.48-1.581c.938-1.064 2.053-1.917 3.034-2.935a62.502 62.502 0 0 0 2.305-2.183c.679-.589 1.312-1.216 1.966-1.83.956-.802 1.769-1.754 2.712-2.567Z"
    style="stroke-width: 1"
  /><path
    fill="#8e2b27"
    d="M89.925 81.382c-.624-1.269-1.354-2.488-2.016-3.74-.616-1.187-1.314-2.333-1.921-3.525.415-.294.85-.561 1.28-.836 2.062-1.331 4.102-2.722 6.029-4.247-.433-.497-.955-.878-1.435-1.327a339.841 339.841 0 0 0-3.273-2.825c-1.691-1.374-3.278-2.864-4.978-4.226-.581-.452-1.114-.966-1.722-1.381.872 1.846 1.863 3.616 2.923 5.36.794 1.325 1.576 2.658 2.377 3.981-.262.235-.53.46-.808.673-2.271 1.757-4.652 3.375-7.031 4.978.336.275.698.513 1.065.745 2.336 1.528 4.704 3.024 6.98 4.642.847.573 1.669 1.178 2.53 1.728ZM73.502 99.917c-.138-.494-.322-.967-.494-1.45a530.737 530.737 0 0 0-2.715-7.521c2.163-1.797 4.632-3.286 6.897-4.974-.445-.429-.927-.816-1.357-1.261-1.059-.977-2.149-1.915-3.174-2.925-.977-.823-1.818-1.783-2.78-2.626-.817-.715-1.535-1.531-2.365-2.238-.566-.477-1.026-1.057-1.614-1.509.174.572.444 1.093.679 1.639.559 1.281 1.11 2.567 1.679 3.844.769 1.688 1.462 3.409 2.237 5.096-1.55.88-3.008 1.901-4.53 2.828a65.35 65.35 0 0 0-2.479 1.581c.938 1.065 2.052 1.918 3.033 2.936a60.11 60.11 0 0 1 2.305 2.183c.679.588 1.312 1.215 1.967 1.829.956.802 1.768 1.754 2.711 2.568Z"
    style="stroke-width: 1; transform-box: fill-box; transform-origin: 50% 50%"
    transform="rotate(180 0 0)"
  />
</svg>
