<svg xmlns="http://www.w3.org/2000/svg" viewBox="0 0 392.582 392.582">
  <path
    d="M196.267 88.655c-64.388 0-125.349 38.141-172.347 107.701 46.933 69.56 107.895 107.701 172.347 107.701s125.349-38.141 172.347-107.701c-46.998-69.56-107.959-107.701-172.347-107.701z"
    fill="#56ace0"
  /><path
    d="M390.788 190.408C339.2 110.764 270.158 66.739 196.267 66.739S53.333 110.634 1.745 190.408c-2.327 3.62-2.327 8.275 0 11.83 51.653 79.709 120.695 123.604 194.521 123.604 73.891 0 142.933-43.895 194.521-123.669 2.393-3.49 2.393-8.145.001-11.765zM196.267 304.057c-64.388 0-125.349-38.141-172.347-107.701 46.933-69.56 107.895-107.701 172.347-107.701s125.349 38.141 172.347 107.701c-46.998 69.559-107.959 107.701-172.347 107.701z"
    fill="#194f82"
  /><path
    d="M196.267 125.051c-3.62 0-7.176.323-10.731.84 3.556 6.4 5.56 13.77 5.56 21.333 0 24.242-19.717 43.96-43.96 43.96-7.564 0-14.933-1.939-21.333-5.56-.517 3.556-.84 7.111-.84 10.731 0 39.305 32 71.305 71.305 71.305s71.305-32 71.305-71.305-32.001-71.304-71.306-71.304z"
    fill="#fff"
  /><path
    d="M196.267 103.265c-11.766 0-23.337 2.263-34.392 6.659-3.685 1.487-6.335 4.848-6.788 8.857-.453 4.008 1.293 7.887 4.655 10.214 6.012 4.202 9.568 10.99 9.568 18.23 0 12.218-9.891 22.109-22.109 22.109-7.24 0-14.093-3.556-18.23-9.568-2.327-3.297-6.271-5.042-10.214-4.655-4.008.453-7.434 3.103-8.857 6.788-4.396 11.055-6.659 22.626-6.659 34.392 0 51.329 41.826 93.091 93.091 93.091s93.091-41.697 93.091-93.091-41.827-93.026-93.156-93.026zm0 164.396c-39.305 0-71.305-32-71.305-71.305 0-3.62.323-7.176.84-10.731 6.4 3.556 13.77 5.56 21.333 5.56 24.242 0 43.96-19.717 43.96-43.96 0-7.564-1.939-14.933-5.56-21.333 3.556-.517 7.111-.84 10.731-.84 39.305 0 71.305 32 71.305 71.305s-31.999 71.304-71.304 71.304z"
    fill="#194f82"
  /><path
    data-player="true"
    d="M196.137 245.81c-21.463 0-39.822-13.77-46.675-32.905 34.263-1.293 61.867-28.897 63.224-63.224 19.135 6.788 32.905 25.212 32.905 46.675.001 27.28-22.173 49.454-49.454 49.454z"
    fill="#808080"
  />
</svg>
