<svg xmlns="http://www.w3.org/2000/svg" viewBox="-0.001 -0.001 94.98 100.002">
  <path
    d="m47.386-.001.966.144c.533.089 1.476.289 2.086.455.622.167 1.71.577 2.498.955.754.377 1.887.977 2.497 1.354.61.377 1.598 1.032 2.198 1.465.61.433 1.731 1.31 2.497 1.953a43.333 43.333 0 0 1 2.697 2.453c.71.722 1.71 1.82 2.22 2.464.51.633 1.165 1.554 1.454 2.042.3.489.71 1.288.92 1.776.223.5.523 1.388.678 1.987.2.81.289 1.498.333 2.653.044 1.043 0 2.075-.111 3.163-.1.877-.278 2.575-.4 3.774a193.066 193.066 0 0 1-.455 3.773 84.43 84.43 0 0 1-.5 2.941 100.39 100.39 0 0 0-.488 2.742c-.122.777-.477 2.72-.776 4.317-.311 1.61-.855 4.396-1.221 6.205-.356 1.798-.866 4.24-1.121 5.438-.245 1.188-.9 4.085-1.443 6.438a490.03 490.03 0 0 1-2.264 9.378c-.7 2.808-1.554 6.105-1.898 7.326-.344 1.22-.866 3.04-1.177 4.05-.3 1-.821 2.676-1.143 3.719a407.01 407.01 0 0 1-1.476 4.44 165.871 165.871 0 0 1-2.076 5.538c-.655 1.643-1.51 3.652-1.909 4.462-.444.899-.91 1.665-1.187 1.964-.311.344-.589.522-.844.566-.222.034-.433.067-.477.067h-.078V-.001M76.466 75.583v-.066c0-.034.066-.09.155-.123s.433-.477.777-.998c.344-.511.766-1.088.932-1.288.178-.2.577-.755.9-1.232.31-.477.82-1.443 1.11-2.164.288-.71.81-1.943 1.142-2.73.344-.8.81-2.12 1.033-2.942.222-.832.532-1.876.677-2.33.144-.445.31-.877.366-.944.055-.067.2-.7.322-1.398.122-.7.277-1.72.366-2.265.078-.555.133-1.653.133-2.441-.01-.8-.089-3.441-.189-5.883s-.233-4.917-.3-5.494c-.066-.588-.188-1.687-.277-2.442a56.97 56.97 0 0 0-.322-2.552c-.1-.644-.255-1.521-.344-1.943-.077-.433-.21-1.076-.266-1.443-.067-.355-1.498-5.882-1.676-6.27-.166-.4-.588-2.476-.61-2.587l-.045-.188 1.132.044a9.279 9.279 0 0 1 2.176.344c.577.155 1.565.51 2.197.777.633.277 1.61.755 2.176 1.066.566.31 1.354.788 1.753 1.076.389.278 1.066.788 1.499 1.132a25.687 25.687 0 0 1 1.665 1.565c.5.51 1.043 1.154 1.232 1.432.188.266.421.721.543.999.167.41.211.866.245 2.586.033 1.143-.011 3.019-.078 4.162a94.36 94.36 0 0 1-.344 4.073 86.804 86.804 0 0 1-.389 3.02 59.016 59.016 0 0 1-.999 4.806c-.155.576-.41 1.453-.566 1.942a66.254 66.254 0 0 1-.843 2.386c-.3.821-.877 2.22-1.265 3.108a48.613 48.613 0 0 1-1.388 2.83 60.754 60.754 0 0 1-1.82 2.941 47.95 47.95 0 0 1-1.987 2.775 51.927 51.927 0 0 1-1.72 1.998c-.477.532-1.343 1.331-1.91 1.798a35.917 35.917 0 0 1-1.975 1.465c-.521.344-1.298.799-1.72 1.01-.433.21-.91.388-1.054.4-.156 0-.322 0-.367-.012h-.077M14.09 25.86h.52c.29 0 .844.066 1.233.166.377.089 1.043.31 1.465.488.422.178 1.132.533 1.565.788.433.256 1.187.844 1.665 1.3.488.465 1.099 1.176 1.376 1.586.277.422.644 1.077.821 1.454.167.389.422 1.077.544 1.543.133.455.278 1.254.344 1.776.056.577.067 1.254 0 1.742-.055.455-.466 1.92-.921 3.33a194.47 194.47 0 0 0-1.11 3.474c-.155.51-.533 1.842-.832 2.941a89.164 89.164 0 0 0-.944 3.774 76.134 76.134 0 0 0-.732 3.718 92.587 92.587 0 0 0-.5 3.44c-.1.822-.233 2.554-.3 3.852a38.04 38.04 0 0 0 0 4.773c.067 1.332.212 3.063.3 3.862.09.788.244 1.687.333 1.998.09.3.2.932.233 1.398.045.555.023 1.033-.066 1.355-.078.277-.233.599-.355.732-.123.122-.233.233-.267.233h-.044l-.022-.033c0-.011-.3-.3-.666-.633-.433-.4-1.088-1.254-1.943-2.553-1.087-1.62-1.42-2.242-2.042-3.729a50.159 50.159 0 0 1-1.298-3.496c-.3-.943-.61-2.064-.689-2.486a186.94 186.94 0 0 0-.455-2.442c-.166-.921-.388-2.098-.477-2.608-.1-.522-.244-1.377-.322-1.887-.1-.666-.133-2.242-.122-5.194.011-2.342.067-4.662.133-5.161.067-.511.2-1.588.289-2.409.1-.832.222-1.853.288-2.275.067-.433.367-2.131.678-3.774.3-1.654.699-3.73.887-4.606.19-.888.478-2.064.644-2.608.178-.555.366-1.254.433-1.554.067-.31.167-.943.233-1.42l.122-.855"
    fill="#e0cba3"
  />
  <path
    d="M47.386-.001v100.002l-.033-.011a3.67 3.67 0 0 1-.366-.156c-.189-.077-.5-.3-.689-.499-.2-.2-.554-.688-.799-1.099-.244-.4-.721-1.387-1.065-2.175-.344-.8-1.099-2.642-1.665-4.107a185.637 185.637 0 0 1-2.02-5.55 260.071 260.071 0 0 1-1.731-5.16c-.4-1.255-.922-2.953-1.166-3.774a291.892 291.892 0 0 1-2.23-8.102c-.312-1.199-1.11-4.44-1.777-7.215a691.297 691.297 0 0 1-1.942-8.324c-.41-1.809-1.032-4.75-1.398-6.537a349.306 349.306 0 0 1-1.266-6.604c-.333-1.843-.71-4.018-.832-4.84a47.167 47.167 0 0 0-.344-1.942 86.736 86.736 0 0 1-.821-5.66c-.1-.921-.29-2.52-.422-3.552-.189-1.443-.244-2.464-.244-4.328 0-2.242.01-2.52.255-3.386.155-.521.455-1.376.677-1.886.222-.522.61-1.31.877-1.754a20.47 20.47 0 0 1 1.143-1.665c.377-.466 1.387-1.576 2.253-2.453.855-.877 2.009-1.975 2.564-2.453a51.168 51.168 0 0 1 2.13-1.709 55.754 55.754 0 0 1 2.476-1.731 31.72 31.72 0 0 1 2.808-1.61c.8-.388 1.987-.899 2.63-1.11.633-.21 1.565-.432 2.054-.5.488-.055.899-.11.91-.11h.033M14.09 25.86l-.123.854a25.45 25.45 0 0 1-.233 1.42c-.067.3-.255 1-.433 1.555-.166.544-.455 1.72-.644 2.608-.188.877-.588 2.952-.887 4.606-.311 1.643-.61 3.34-.678 3.774-.066.422-.188 1.443-.288 2.275-.089.821-.222 1.898-.289 2.409-.066.499-.122 2.819-.133 5.16-.011 2.953.022 4.529.122 5.195.078.51.222 1.365.322 1.887.089.51.31 1.687.477 2.608.178.91.378 2.009.455 2.442.078.422.389 1.543.689 2.486.3.943.887 2.52 1.298 3.496.622 1.487.955 2.109 2.042 3.73.855 1.298 1.51 2.153 1.943 2.552.366.333.666.622.666.633l.022.033h-.045c-.022 0-.066.022-.1.056-.022.033-.3-.023-.599-.122-.3-.1-1.12-.533-1.842-.955-.722-.422-1.743-1.132-2.276-1.576a34.778 34.778 0 0 1-2.03-1.92c-.578-.6-1.377-1.52-1.777-2.031a43.908 43.908 0 0 1-1.62-2.276 74.15 74.15 0 0 1-1.632-2.586A62.941 62.941 0 0 1 5.1 61.61c-.355-.722-1.021-2.254-1.476-3.408-.455-1.154-.988-2.575-1.177-3.152a48.949 48.949 0 0 1-.721-2.608 62.114 62.114 0 0 1-.666-2.997c-.155-.8-.41-2.52-.566-3.83-.155-1.32-.333-3.185-.4-4.161-.066-.977-.11-2.908-.088-4.273.044-2.498.044-2.498.388-3.22.189-.399.688-1.12 1.11-1.608.422-.489 1.265-1.31 1.876-1.82.61-.511 1.554-1.222 2.108-1.588.544-.366 1.643-.977 2.442-1.365.788-.388 1.832-.844 2.309-.999.477-.166 1.31-.388 1.831-.51.533-.111 1.199-.211 1.487-.211h.533M80.35 25.86l.045.188c.022.111.444 2.187.61 2.586.178.389.644 1.92.844 2.464.2.533.4 1.277.444 1.643.033.366.899 4.906.998 5.55.1.632.245 1.786.322 2.552.09.755.211 1.854.278 2.442.066.577.2 3.052.3 5.494.1 2.442.177 5.083.188 5.883 0 .788-.055 1.886-.133 2.441-.089.544-.244 1.565-.366 2.265-.122.699-.267 1.331-.322 1.398-.056.067-.222.5-.366.943a63.159 63.159 0 0 0-.677 2.331 26.45 26.45 0 0 1-1.033 2.941c-.333.788-.854 2.02-1.143 2.73-.288.722-.799 1.688-1.11 2.165-.322.477-.721 1.032-.899 1.232-.166.2-.588.777-.932 1.288-.344.521-.688.965-.777.998-.089.034-.155.09-.155.123v.066h-.045c-.022 0-.089-.066-.144-.144a4.56 4.56 0 0 1-.266-.466c-.111-.211-.156-.655-.156-1.388.011-.621.089-1.343.189-1.72.1-.366.266-1.32.355-2.109.089-.799.21-2.175.277-3.052.067-.888.111-2.32.111-3.185 0-.866-.044-2.342-.11-3.275a83.72 83.72 0 0 0-.334-3.53 70.107 70.107 0 0 0-.499-3.384c-.166-.855-.488-2.431-.721-3.497a99.352 99.352 0 0 0-1.055-4.14c-.333-1.21-1.065-3.562-1.631-5.216-1.021-3.019-1.021-3.019-1.021-4.573 0-1.254.044-1.742.244-2.497.144-.522.455-1.365.699-1.887.244-.51.666-1.243.932-1.62.278-.378.844-1 1.266-1.399a12.986 12.986 0 0 1 1.664-1.243c.5-.3 1.388-.71 1.987-.91.6-.2 1.32-.4 1.61-.433l.532-.055"
    fill="#f6e4c3"
  />
</svg>
