<svg xmlns="http://www.w3.org/2000/svg" viewBox="0 0.001 100 94.998">
  <path
    fill="#d8741e"
    d="M32.793.01c-.491-.057-.924.156-1.334.397-1.035.614-1.913 1.593-2.754 2.456-2.226 2.496-3.935 5.517-5.176 8.611-.622 1.61-1.234 3.289-1.502 4.999.595-.061 1.062-.355 1.615-.545a20.396 20.396 0 0 1 5.143-1.152c1.22-.177 2.431-.084 3.654-.138.719-1.154 1.438-2.3 2.283-3.37.764-.969 1.599-1.887 2.435-2.794a54.285 54.285 0 0 0-2.196-5.735c-.314-.673-.653-1.354-1.076-1.966-.267-.379-.613-.703-1.092-.763Z"
  /><path
    fill="#f6982d"
    d="M48.507.371c-.585-.164-1.194.026-1.73.267-.819.375-1.602.837-2.346 1.343-2.031 1.4-3.912 3.023-5.635 4.786-.56.558-1.125 1.108-1.64 1.707-.836.907-1.671 1.825-2.435 2.794-.845 1.07-1.564 2.216-2.283 3.37-1.223.054-2.434-.039-3.654.138-1.757.16-3.485.547-5.143 1.152-.553.19-1.02.484-1.615.545-.497.408-1.076.654-1.605 1.011-1.218.8-2.332 1.691-3.228 2.853-.848 1.051-1.423 2.235-1.96 3.468-.365.824-.585 1.695-.955 2.516-.394.899-.904 1.825-1.593 2.532-.862.843-1.916 1.251-3.033 1.633-1.394.468-2.791 1.089-4.217 1.391.312.223.58.489.733.846.334.741.302 1.673.177 2.461 2.35.504 4.728.854 7.128 1.018.869.06 1.739.169 2.61.174 1.087-.001 2.169.101 3.256.089 2.462-.068 4.888-.175 7.301-.711 2.932-.582 5.536-1.833 8.409-2.557 1.552-.391 3.219-.534 4.805-.301 1.962.284 3.792 1.235 5.187 2.636.94.92 1.921 1.941 2.532 3.115-1.246-.083-2.449-.249-3.704-.178-.852.052-1.686.067-2.511.215.396.259.815.476 1.215.727 1.387.89 2.603 2.023 3.681 3.265.66.821 1.382 1.705 1.757 2.699-.464-.068-.922-.165-1.383-.248-1.67-.279-3.347-.423-5.037-.494-1.194-.013-2.367-.034-3.556.108.586.551 1.194 1.113 1.719 1.723 2.3 2.726 3.646 6.291 3.46 9.875-1.701-1.24-3.437-2.358-5.385-3.176a5.019 5.019 0 0 0-1.191-.395c-.301.614-.53 1.255-.737 1.904a25.145 25.145 0 0 0-1.148 7.864c.127 4.491 1.208 8.7 2.141 13.051.028.199.049.397.068.597.472 2.388 1.072 4.732 1.42 7.147a33.99 33.99 0 0 1 .378 4.016c-.804.089-1.571.235-2.259.687a4.804 4.804 0 0 0-1.968 2.723c-.216.959-.161 2.011.229 2.921.329.517.77.941 1.365 1.127.562.168 1.191.187 1.774.191 2.28-.007 4.561-.002 6.84-.002.969-.021 1.964-.137 2.793-.68 1.051-.675 1.728-1.876 2.048-3.058.53-2.034.559-4.066.69-6.142.016-3.107-.004-6.221.006-9.329.01-1.235-.096-2.464-.111-3.696.02-1.119-.111-2.229-.089-3.347.757-.119 1.515-.157 2.26-.343 2.374-.555 4.606-1.265 7.056-1.507.618-.054 1.224-.121 1.846-.122.974.003 1.921-.034 2.886.14a16.846 16.846 0 0 0 2.033 6.477c1.016 1.682 2.228 3.216 3.749 4.472.391.306.734.656 1.092.997.617.339 1.098.822 1.645 1.257.662.563 1.395 1.089 1.826 1.864.528.939.753 2.067.771 3.136 0 .73.039 1.438-.12 2.155-.686.16-1.304.199-1.926.468-.89.367-1.619 1.088-2.124 1.895-.579.914-.731 2.051-.528 3.101.134.706.462 1.355 1.054 1.782.534.385 1.153.47 1.796.481 2.135-.001 4.272-.007 6.407.001.974.017 2.086-.044 2.961-.518 1.203-.683 1.976-1.812 2.445-3.092.669-1.86.985-3.879 1.216-5.837.149-1.121.117-2.238.118-3.365a8.781 8.781 0 0 0-.952-3.945c-.929-1.697-1.722-3.543-2.096-5.448 1.011.082 2.029.074 3.042.049 2.535-.187 4.902-1.33 6.897-2.859 1.35-1.052 2.594-2.301 3.551-3.724 1.813-2.718 2.758-6.017 2.991-9.257.041-.867.022-1.739.018-2.606-.081-1.879-.44-3.78-.913-5.598-.941-3.534-2.356-6.842-3.826-10.18-.361-.819-.75-1.629-1.077-2.463a4.706 4.706 0 0 0-.152.979c-.039.915-.164 1.833-.309 2.736-.119.675-.179 1.331-.428 1.975-.486-.407-.904-.873-1.355-1.315a300.347 300.347 0 0 1-3.042-3.037c-.392-.396-.695-.828-1.057-1.254-.569.82-.979 1.766-1.36 2.685-.681 1.642-1.099 3.34-1.598 5.037-1.028-.904-1.955-1.943-2.806-3.012-1.016-1.314-1.921-2.681-2.539-4.231-.193.183-.38.372-.542.585-1.264 1.706-2.161 3.592-2.884 5.581-.307.783-.512 1.603-.893 2.343.25.979.666 1.88 1.088 2.794.671 1.416 1.472 2.791 2.256 4.147.322.565.683 1.087.94 1.686-.613-.625-1.193-1.28-1.849-1.862-1.548-1.365-3.307-2.561-5.217-3.356-2.857-1.189-6.052-1.603-9.126-1.319-.404.025-.809.045-1.212.079-.961.086-1.944.043-2.914.055-.813.01-1.609-.078-2.413-.19-.919-.141-1.883-.349-2.728-.748-.486-.228-.905-.518-1.362-.795-.584-.185-1.011-.528-1.425-.966.165-.022.331-.045.497-.06.666-.071 1.335-.076 2-.174 1.313-.179 2.672-.49 3.8-1.215-.756-.861-1.637-1.605-2.393-2.469-1.053-1.193-2.091-2.44-2.923-3.801.798-.068 1.594-.089 2.387-.213 1.397-.202 2.965-.578 4.123-1.424-1.46-1.647-2.95-3.271-4.379-4.946-1.08-1.267-2.197-2.524-3.206-3.848.127-.514.28-1.019.406-1.533.441-1.902.649-3.892.771-5.839.034-1.593.033-3.19-.008-4.783-.231-3.441-.707-6.934-1.668-10.253-.271-.91-.588-1.821-1.028-2.665-.245-.444-.62-.987-1.121-1.156Z"
  /><path
    data-player="true"
    fill="#808080"
    d="M47.098 5.474c-.228.037-.443.153-.64.269-1.02.632-1.93 1.376-2.823 2.172-2.085 1.986-4.131 4.172-5.339 6.822-.195.39-.331.785-.429 1.211.359.279.729.538 1.104.794 1.689 1.213 3.369 2.489 4.919 3.875.652.613 1.273 1.261 1.908 1.892.549.538.893 1.139 1.544 1.564.209-.437.344-.893.447-1.365.439-1.776.685-3.592.78-5.418a27.321 27.321 0 0 0-.002-4.272 45.114 45.114 0 0 0-.33-3.902c-.115-.879-.268-1.775-.531-2.624-.123-.37-.282-.78-.608-1.018Z"
  /><path
    data-player="true"
    fill="#807967"
    d="M89.974 19.3c-2.74.815-5.252 2.282-7.542 3.967-.816.628-1.62 1.264-2.344 1.998-1.912 1.804-3.518 3.891-4.516 6.339-.655 1.57-1.024 3.287-1.229 4.971-.205 1.996-.212 3.993.158 5.971.187.91.363 1.814.71 2.679.381-.74.586-1.56.893-2.343.723-1.989 1.62-3.875 2.884-5.581.162-.213.349-.402.542-.585.618 1.55 1.523 2.917 2.539 4.231.851 1.069 1.778 2.108 2.806 3.012.499-1.697.917-3.395 1.598-5.037.381-.919.791-1.865 1.36-2.685.362.426.665.858 1.057 1.254a300.347 300.347 0 0 0 3.042 3.037c.451.442.869.908 1.355 1.315.249-.644.309-1.3.428-1.975.145-.903.27-1.821.309-2.736.015-.333.068-.656.152-.979a16.081 16.081 0 0 0-.57-1.314 79.188 79.188 0 0 1-1.815-4.154 16.755 16.755 0 0 1-1.122-4.833c-.082-1.891-.027-3.773.338-5.636.033-.283.143-.736-.052-.976-.276-.145-.696-.003-.981.06Z"
  /><path
    fill="#333436"
    d="M26.674 25.355c-.961-.134-1.988.235-2.658.934-.705.677-1.024 1.638-1.092 2.594-.039.778-.035 1.523.234 2.264.298.83.776 1.578 1.556 2.028.651.398 1.434.481 2.173.32.79-.199 1.49-.751 1.922-1.435a4.7 4.7 0 0 0 .744-2.521c.017-.966-.163-2.062-.718-2.875-.496-.732-1.297-1.177-2.161-1.309Z"
  /><path
    fill="#333436"
    d="M5.435 31.877c-1.144.272-2.289.5-3.444.717-.565.124-1.292.242-1.684.709-.382.419-.319 1.129-.272 1.652.186 1.2.71 2.377 1.371 3.39.51.054.981.142 1.495.038.796-.141 1.464-.549 2.069-1.069a4.47 4.47 0 0 0 1.375-2.13c.125-.788.157-1.72-.177-2.461-.153-.357-.421-.623-.733-.846Z"
  /><path
    fill="#fff2cd"
    d="M35.05 33.197c-2.873.724-5.477 1.975-8.409 2.557-2.413.536-4.839.643-7.301.711-1.087.012-2.169-.09-3.256-.089-.871-.005-1.741-.114-2.61-.174a50.352 50.352 0 0 1-7.128-1.018 4.47 4.47 0 0 1-1.375 2.13c-.605.52-1.273.928-2.069 1.069-.514.104-.985.016-1.495-.038.19.419.37.837.634 1.217.945 1.42 2.057 2.75 3.556 3.609 1.521.926 3.198 1.296 4.95 1.477 3.115.335 6.094-.047 9.232.116.941.079 1.883.13 2.823.214-.416.705-.989 1.208-1.514 1.827-.816.933-1.758 1.711-2.658 2.558-.27.245-.563.459-.844.69-.839 1.999-.964 3.05-1.43 5.165-.244 1.077-.586 4.163-.58 4.818.62-.349 2.609-1.872 3.656-2.594-.498 2.701-.06 4.431.566 6.422.695 2.211 2.681 4.25 3.012 4.6.409.433.765.828 1.173 1.26 1.781 1.873 3.982 3.284 6.357 4.283 2.081.84 4.311 1.436 6.555 1.58-.933-4.351-2.014-8.56-2.141-13.051a25.145 25.145 0 0 1 1.148-7.864c.207-.649.436-1.29.737-1.904.423.082.8.213 1.191.395 1.948.818 3.684 1.936 5.385 3.176.186-3.584-1.16-7.149-3.46-9.875-.525-.61-1.133-1.172-1.719-1.723 1.189-.142 2.362-.121 3.556-.108 1.69.071 3.367.215 5.037.494.461.083.919.18 1.383.248-.375-.994-1.097-1.878-1.757-2.699-1.078-1.242-2.294-2.375-3.681-3.265-.4-.251-.819-.468-1.215-.727.825-.148 1.659-.163 2.511-.215 1.255-.071 2.458.095 3.704.178-.611-1.174-1.592-2.195-2.532-3.115-1.395-1.401-3.225-2.352-5.187-2.636-1.586-.233-3.253-.09-4.805.301Z"
  /><path
    fill="#d8741e"
    d="M51.747 44.69c-.166.015-.332.038-.497.06.414.438.841.781 1.425.966-.312-.338-.606-.698-.928-1.026Z"
  /><path
    fill="#f9da9c"
    d="M19.779 44.764c-.786 1.745-1.571 3.476-2.193 5.289.281-.231.574-.445.844-.69.9-.847 1.842-1.625 2.658-2.558.525-.619 1.098-1.122 1.514-1.827-.94-.084-1.882-.135-2.823-.214Z"
  /><path
    fill="#d8741e"
    d="M80.99 56.007c.203.547.5 1.043.723 1.58.98 2.362 1.43 4.894 1.456 7.446 0 1.004.005 2.006-.054 3.009-.076 1.389.017 2.811.224 4.187.297-.467.385-.969.542-1.49.423-1.491.508-3.068.566-4.619-.024-2.6-.573-5.223-1.771-7.543-.325-.638-.725-1.216-1.107-1.821a5.196 5.196 0 0 0-.579-.749Z"
  /><path
    fill="#fff2cd"
    d="M61.241 66.77c-.622.001-1.228.068-1.846.122-2.45.242-4.682.952-7.056 1.507-.745.186-1.503.224-2.26.343-.022 1.118.109 2.228.089 3.347.015 1.232.121 2.461.111 3.696 1.129.059 2.244-.045 3.368-.125a45.318 45.318 0 0 0 3.446-.402 66.906 66.906 0 0 0 9.067-1.871 16.846 16.846 0 0 1-2.033-6.477c-.965-.174-1.912-.137-2.886-.14Z"
  /><path
    fill="#d8741e"
    d="M22.81 68.463c.037.699.119 1.323.215 2.017.08.385.173.769.242 1.158.821 4.53 1.681 9.054 2.601 13.565.132.683.311 1.353.413 2.042-.959.059-1.848.112-2.717.572-.688.349-1.196.907-1.598 1.555-.672 1.027-.825 2.321-.5 3.496.199.707.74 1.333 1.412 1.628.512.228 1.121.17 1.672.174 2.496-.008 4.996-.001 7.493-.002 1.008-.009 1.959-.317 2.719-.99-.39-.91-.445-1.962-.229-2.921a4.804 4.804 0 0 1 1.968-2.723c.214-1.34.178-2.761.282-4.109.074-1.164-.012-2.329.085-3.493.11-1.417.009-2.832.094-4.248-.019-.2-.04-.398-.068-.597-2.244-.144-4.474-.74-6.555-1.58-2.375-.999-4.576-2.41-6.357-4.283-.408-.432-.758-.833-1.172-1.261Z"
  /><path
    fill="#d8741e"
    d="M66.16 73.387a66.906 66.906 0 0 1-9.067 1.871c.365 1.157.845 2.276 1.245 3.423.58 1.672 1.182 3.478 1.357 5.245.071 1.036.049 2.086-.012 3.123-.847.187-1.626.153-2.446.467-1.033.381-1.822 1.291-2.303 2.256-.396.759-.389 1.677-.318 2.509a2.62 2.62 0 0 0 1.39 2.084c.512.255 1.201.214 1.761.231 1.955-.003 3.911.019 5.865-.027a5.017 5.017 0 0 0 3.107-1.133c.957-.803 1.649-1.91 2.184-3.028.745-1.563 1.297-3.226 1.716-4.905.344-1.389.604-2.861.59-4.296-.004-.798-.155-1.562-.228-2.351-.358-.341-.701-.691-1.092-.997-1.521-1.256-2.733-2.79-3.749-4.472Z"
  />
</svg>
