<svg xmlns="http://www.w3.org/2000/svg" viewBox="0.001 0.001 99.999 99.999">
  <path
    fill="#94DDF6"
    d="M45.383 99.895c-.545-.099-2.069-.295-3.339-.491-10.341-1.473-21.227-7.232-28.593-15.15C4.996 75.125.604 64.72.06 52.318c-.545-12.597 2.576-23.461 9.508-32.917 4.463-6.053 12.192-12.01 19.885-15.347C36.819.88 42.77-.2 51.297.029c8.164.262 13.753 1.473 20.139 4.352 20.683 9.457 31.823 31.217 27.722 54.187-2.141 12.009-7.402 21.334-16.401 29.122-7.003 6.053-14.587 9.652-23.949 11.419-3.338.622-11.539 1.113-13.425.786m2.104-8.017c-.98-.883-1.088-1.472-1.197-6.152l-.073-4.057-2.359 1.571c-2.685 1.799-4.499 2.552-5.442 2.29-1.996-.589-3.303-2.519-2.758-4.09.145-.393 2.54-2.323 5.298-4.286l5.08-3.632v-7.494c0-4.417-.145-7.493-.363-7.493-.182 0-1.27.491-2.431 1.08-4.21 2.225-11.213 5.857-11.249 5.89-.036.033-.472 2.323-1.016 5.137-.544 2.781-1.198 5.497-1.488 6.053-.689 1.309-1.778 1.866-3.592 1.833-1.814 0-3.084-1.178-3.084-2.781 0-1.08.544-4.385.943-5.596.218-.621.218-.621-.835-.032-7.075 4.221-8.708 4.613-10.849 2.683-1.016-.917-1.234-1.375-1.234-2.389 0-.687.218-1.472.436-1.767.616-.72 3.229-2.258 6.567-3.926l2.867-1.407-2.939-.949c-1.633-.524-3.447-1.375-4.101-1.931-1.016-.851-1.124-1.08-.943-2.487.145-1.145.472-1.734 1.197-2.29 1.27-.982 1.815-.916 7.983 1.276 7.729 2.716 6.242 2.847 13.68-1.047 3.556-1.865 6.423-3.469 6.459-3.599 0-.099-1.451-.917-3.193-1.767-1.742-.884-4.717-2.454-6.568-3.534l-3.411-1.931-5.769 2.16c-6.387 2.388-8.019 2.618-9.326 1.407-1.088-1.08-1.342-2.552-.653-3.763.436-.753 1.198-1.211 3.23-1.963 1.451-.557 3.011-1.08 3.483-1.211.726-.196.327-.524-3.084-2.356-2.177-1.178-4.282-2.421-4.717-2.814-2.504-2.094-.109-6.282 3.229-5.693.581.13 2.685 1.079 4.681 2.159 1.996 1.08 3.665 1.963 3.701 1.996.073 0-.109-1.08-.363-2.388-.726-3.731-.653-5.04.399-5.988.654-.589 1.27-.818 2.395-.786 2.032 0 2.722.393 3.375 2.029.435 1.014 2.068 9.718 2.068 10.863 0 .066 1.814 1.047 4.064 2.193a221.302 221.302 0 0 1 7.294 3.795c1.778.949 3.302 1.702 3.374 1.735.073 0 .146-3.6.146-7.984v-7.984l-3.919-2.716c-6.024-4.188-6.605-4.777-6.605-6.414-.036-1.963 1.198-3.206 3.157-3.206 1.198 0 1.887.327 4.137 1.865l2.685 1.865.182-4.319c.145-3.501.29-4.516.834-5.236 1.234-1.603 4.536-1.734 6.205-.261.69.621.762 1.047.762 5.268 0 2.519.036 4.548.145 4.548.073 0 1.016-.589 2.105-1.309 3.556-2.454 5.842-2.748 7.366-1.047.762.884.943 2.683.363 3.632-.182.295-2.54 2.16-5.262 4.156l-4.898 3.599V46.69l4.245-2.356c2.359-1.308 5.516-3.01 7.04-3.763 1.524-.752 2.903-1.537 3.084-1.766.218-.23.726-2.553 1.197-5.138.871-5.17 1.307-6.38 2.54-7.362 1.234-1.014 3.52-.883 4.609.262.979 1.047 1.088 2.356.326 6.021-.254 1.308-.399 2.388-.326 2.388.036-.033 1.741-.916 3.773-2.029 2.105-1.145 4.21-2.028 5.008-2.126 1.778-.197 3.556.785 3.955 2.257.653 2.291-.181 3.305-4.753 5.694a121.082 121.082 0 0 0-3.992 2.094l-1.052.556 1.959.589c2.831.818 5.298 2.029 5.733 2.749.69 1.178.436 2.912-.544 3.828-1.306 1.178-2.721.949-9.579-1.472l-5.588-1.996-6.459 3.501c-3.556 1.93-6.459 3.599-6.459 3.697 0 .066.762.524 1.705.982.944.491 3.883 2.061 6.532 3.501l4.79 2.65 3.193-1.243a184.758 184.758 0 0 1 6.495-2.29c3.193-1.015 3.338-1.047 4.463-.524 1.814.851 2.431 3.207 1.234 4.712-.581.752-5.443 3.01-6.495 3.01-1.125 0-.363.556 3.338 2.454 2.068 1.08 4.209 2.356 4.681 2.88 1.741 1.799.762 4.679-1.815 5.431-1.524.459-2.83 0-7.402-2.585l-3.048-1.701.218 1.08c.943 4.155 1.052 5.431.544 6.348-1.234 2.323-4.898 2.159-6.205-.229-.544-.949-2.431-9.457-2.431-10.962 0-.196-1.524-1.178-3.374-2.16-7.185-3.861-10.632-5.66-10.886-5.758-.145-.066-.254 3.435-.254 7.754v7.886l4.608 3.305c2.54 1.832 4.899 3.632 5.262 3.992 1.669 1.701-.109 4.843-2.722 4.908-1.306.033-3.883-1.276-5.987-3.043l-.798-.654v3.599c0 4.417-.508 5.726-2.359 6.413-1.778.655-3.338.589-4.173-.196"
  />
  <path
    fill="#329CC9"
    d="M47.487 91.878c-.98-.883-1.088-1.472-1.197-6.152l-.073-4.057-2.359 1.571c-2.685 1.799-4.499 2.552-5.442 2.29-1.996-.589-3.303-2.519-2.758-4.09.145-.393 2.54-2.323 5.298-4.286l5.08-3.632v-7.494c0-4.417-.145-7.493-.363-7.493-.182 0-1.27.491-2.431 1.08-4.21 2.225-11.213 5.857-11.249 5.89-.036.033-.472 2.323-1.016 5.137-.544 2.781-1.198 5.497-1.488 6.053-.689 1.309-1.778 1.866-3.592 1.833-1.814 0-3.084-1.178-3.084-2.781 0-1.08.544-4.385.943-5.596.218-.621.218-.621-.835-.032-7.075 4.221-8.708 4.613-10.849 2.683-1.016-.917-1.234-1.375-1.234-2.389 0-.687.218-1.472.436-1.767.616-.72 3.229-2.258 6.567-3.926l2.867-1.407-2.939-.949c-1.633-.524-3.447-1.375-4.101-1.931-1.016-.851-1.124-1.08-.943-2.487.145-1.145.472-1.734 1.197-2.29 1.27-.982 1.815-.916 7.983 1.276 7.729 2.716 6.242 2.847 13.68-1.047 3.556-1.865 6.423-3.469 6.459-3.599 0-.099-1.451-.917-3.193-1.767-1.742-.884-4.717-2.454-6.568-3.534l-3.411-1.931-5.769 2.16c-6.387 2.388-8.019 2.618-9.326 1.407-1.088-1.08-1.342-2.552-.653-3.763.436-.753 1.198-1.211 3.23-1.963 1.451-.557 3.011-1.08 3.483-1.211.726-.196.327-.524-3.084-2.356-2.177-1.178-4.282-2.421-4.717-2.814-2.504-2.094-.109-6.282 3.229-5.693.581.13 2.685 1.079 4.681 2.159 1.996 1.08 3.665 1.963 3.701 1.996.073 0-.109-1.08-.363-2.388-.726-3.731-.653-5.04.399-5.988.654-.589 1.27-.818 2.395-.786 2.032 0 2.722.393 3.375 2.029.435 1.014 2.068 9.718 2.068 10.863 0 .066 1.814 1.047 4.064 2.193a221.302 221.302 0 0 1 7.294 3.795c1.778.949 3.302 1.702 3.374 1.735.073 0 .146-3.6.146-7.984v-7.984l-3.919-2.716c-6.024-4.188-6.605-4.777-6.605-6.414-.036-1.963 1.198-3.206 3.157-3.206 1.198 0 1.887.327 4.137 1.865l2.685 1.865.182-4.319c.145-3.501.29-4.516.834-5.236 1.234-1.603 4.536-1.734 6.205-.261.69.621.762 1.047.762 5.268 0 2.519.036 4.548.145 4.548.073 0 1.016-.589 2.105-1.309 3.556-2.454 5.842-2.748 7.366-1.047.762.884.943 2.683.363 3.632-.182.295-2.54 2.16-5.262 4.156l-4.898 3.599V46.69l4.245-2.356c2.359-1.308 5.516-3.01 7.04-3.763 1.524-.752 2.903-1.537 3.084-1.766.218-.23.726-2.553 1.197-5.138.871-5.17 1.307-6.38 2.54-7.362 1.234-1.014 3.52-.883 4.609.262.979 1.047 1.088 2.356.326 6.021-.254 1.308-.399 2.388-.326 2.388.036-.033 1.741-.916 3.773-2.029 2.105-1.145 4.21-2.028 5.008-2.126 1.778-.197 3.556.785 3.955 2.257.653 2.291-.181 3.305-4.753 5.694a121.082 121.082 0 0 0-3.992 2.094l-1.052.556 1.959.589c2.831.818 5.298 2.029 5.733 2.749.69 1.178.436 2.912-.544 3.828-1.306 1.178-2.721.949-9.579-1.472l-5.588-1.996-6.459 3.501c-3.556 1.93-6.459 3.599-6.459 3.697 0 .066.762.524 1.705.982.944.491 3.883 2.061 6.532 3.501l4.79 2.65 3.193-1.243a184.758 184.758 0 0 1 6.495-2.29c3.193-1.015 3.338-1.047 4.463-.524 1.814.851 2.431 3.207 1.234 4.712-.581.752-5.443 3.01-6.495 3.01-1.125 0-.363.556 3.338 2.454 2.068 1.08 4.209 2.356 4.681 2.88 1.741 1.799.762 4.679-1.815 5.431-1.524.459-2.83 0-7.402-2.585l-3.048-1.701.218 1.08c.943 4.155 1.052 5.431.544 6.348-1.234 2.323-4.898 2.159-6.205-.229-.544-.949-2.431-9.457-2.431-10.962 0-.196-1.524-1.178-3.374-2.16-7.185-3.861-10.632-5.66-10.886-5.758-.145-.066-.254 3.435-.254 7.754v7.886l4.608 3.305c2.54 1.832 4.899 3.632 5.262 3.992 1.669 1.701-.109 4.843-2.722 4.908-1.306.033-3.883-1.276-5.987-3.043l-.798-.654v3.599c0 4.417-.508 5.726-2.359 6.413-1.778.655-3.338.589-4.173-.196"
  />
</svg>
