<?xml version="1.0" encoding="UTF-8" standalone="no"?>
<!DOCTYPE svg PUBLIC "-//W3C//DTD SVG 1.1//EN" "http://www.w3.org/Graphics/SVG/1.1/DTD/svg11.dtd">
<svg
  fill="#000000"
  width="800px"
  height="800px"
  viewBox="0 0 32 32"
  version="1.1"
  xmlns="http://www.w3.org/2000/svg"
  xmlns:xlink="http://www.w3.org/1999/xlink"
  xml:space="preserve"
  xmlns:serif="http://www.serif.com/"
  style="fill-rule: evenodd; clip-rule: evenodd; stroke-linejoin: round; stroke-miterlimit: 2"
>
  <path
    data-player="true"
    d="M22.697 26.613c-0.814-1.546-1.678-3.115-2.604-4.673 1.58-5.622 4.047-12.050 9.778-19.961-5.708 3.798-9.955 9.525-12.87 15.198-3.632-5.087-8.11-9.597-13.867-12.091 4.515 5.099 8.899 11.303 11.741 16.769-0.642 1.612-1.172 3.172-1.594 4.629-0.723-5.318-4.674-10.701-8.725-10.857 4.268 4.285 7.064 11.032 4.683 14.669h3.134c-0.025 0.137-0.048 0.272-0.070 0.405h5.563c0.040-0.15 0.080-0.3 0.12-0.45 0.021 0.147 0.041 0.292 0.056 0.434h6.73c-0.060-0.122-0.121-0.244-0.182-0.366h2.794c-1.477-4.18-0.675-9.497 0.718-15.59-3.182 2.868-4.782 7.131-5.404 11.883zM2.631 20.772c3.101 4.734 3.61 7.309 2.395 9.51l3.948-0c-0.766-4.212-1.84-6.802-6.343-9.51z"
    fill="#ffffff" fill-rule="nonzero"
  >
  </path>
</svg>
