<svg xmlns="http://www.w3.org/2000/svg" viewBox="0 0 431.545 372.025">
  <path
    fill="#d49d03"
    d="M315.039 5.943c34.88.05 70.26.06 105.13 0 5.03-.1 9.59 2.29 11.14 7.28.41 5.33.16 10.77.17 16.12.02 88.004.02 176.004 0 264.004.11 5.61-1.354 51.315-1.864 56.905-1.594 19.139-7.342 20.549-24.176 20.984-20.211.522-71.802.624-94.661.508-15.942-.081-15.631-6.849-15.315-13.174.632-12.668 26.466-76.583 26.566-84.223.08-85.65-.11-171.51-.03-257.064-.13-2.08-.19-4.71-1.38-6.5-1.41-1.93-3.69-3.4-5.58-4.84Z"
  /><path
    fill="#f2c339"
    d="M18.099 5.823c25.59.34 51.2-.19 76.79.28.25 4.08 13.87 9.04 14.55-.1 32.04-.18 64.08-.08 96.12-.04.82 9.87 13.09 18.76 14.1.01 31.79-.09 63.58-.07 95.38-.03 1.89 1.44 4.17 2.91 5.58 4.84 1.19 1.79 1.25 4.42 1.38 6.5-.08 85.554.11 171.414.03 257.064-.1 7.64-.375 57.493-2.075 73.076-1.452 13.309.447 24.34-20.599 24.353-64.824.04-251.94.549-285.477-.017C2.936 371.574-.228 360.69.013 354.011c.27-3.26 2.436-77.394 2.376-80.674-.24-10.99-.07-21.99-.09-32.99-.08-69.33-.03-138.67-.01-208.004.12-6.2-.5-12.59.35-18.74.47-3.27 2.94-5.74 5.98-6.81 2.95-.99 6.4-.95 9.48-.97Z"
  /><path
    fill="#d49d03"
    d="M102.109.003c4.02-.11 5.33 3.23 7.33 6-.68 9.14-.26 18.2-.31 27.34-.04 25 .09 50.004-.11 75.004.26 48-1.144 119.612-1.034 167.612 12.108.563 34.166-8.758 38.406-6.523 4.978 2.625 6.745 9.565 2.26 11.143-7.417 2.61-30.618 9.788-40.633 9.683.145 25.23.549 74.083.005 81.76-4.518.002-8.961.002-13.313.002-.512-7.413.211-105.582.389-110.677.13-45.34-.08-90.66.13-136 .16-4.15-.02-8.19-.48-12.32-8.26-.42-16.46.28-24.71.22-2.21-.08-4.78-.1-6.82-1.04-3.12-1.68-4.18-5.99-2.23-8.94 1.61-2.31 4.7-3.16 7.34-3.61 8.86-1.35 17.47.26 26.55-.37.7-8.97.06-17.92.21-26.94.17-18.004.03-36.004.18-54.004.01-4.08-.13-8.16-.38-12.24 1.86-2.51 3.55-6.23 7.22-6.1ZM213.079.073c4.01.12 4.89 2.9 6.58 5.9-1.01 18.75-.04 37.59-.49 56.37.49 18.914-.35 37.884.51 56.764 12.19 2.32 24.99.78 37.26 2.45 4.38.53 5.28 6.73 3.28 9.87-1.63 2.68-5.31 2.74-8.09 2.85-10.88-.14-21.75-1.28-32.62-1.54-.66 7.55-.24 15.04-.28 22.61.32 24-.11 48 .14 72-.05 21.99-.003 16.347.267 38.337 7.922.191 28.498.603 31.217 3.289 2.033 2.008 3.631 10.805.493 11.805-6.364 2.027-22.615-.026-31.365.429.09 19.744-.157 79.237-.259 90.683l-12.909.021c-.51-14.985-1.068-81.101-.894-85.564.13-12.99-.14-26 .14-38.99.07-3.23-.15-6.44-.35-9.66-8.64-2.91-18-4.33-26.96-5.93-2.18-.48-4.93-.93-6.67-2.41-2.47-3.41-1.04-10.33 4.01-10.25 9.63-.41 20.16 3.57 29.72 5.09.39-6.96.05-13.89.1-20.85.06-41.66.01-83.37.09-125.01-.05-1.97-.16-3.93-.25-5.89-10.69 1.85-21.75 4.91-32.61 5.89-8 .55-16.08.28-24.09.03-3.72-.26-8.39-.35-11.62-2.38-4.12-3.32-1.82-10.124 3.15-11.044 6.53-1.05 13.59.76 20.22.72 11.18 0 22.51-1.83 33.41-4.23 4.02-.75 7.84-1.87 11.65-3.31.55-7.61-.01-15.17.06-22.78-.11-9.95.46-19.51-.36-29.38 1.98-3.14 3.1-6.18 7.52-5.89Z"
  /><path
    fill="#d49d03"
    d="M278.389 40.593c3.81-1.01 6.92 2.05 7.04 5.77.37 3.96-2.69 5.89-5.61 7.73-6.76 3.87-14.01 6.95-21.23 9.84-4.09 1.52-9.04 3.26-13.43 2.61-4.67-.83-6.89-7.94-2.53-10.66 5.69-3.45 12.86-4.23 18.91-7.12 5.79-2.28 10.91-6.48 16.85-8.17ZM35.279 48.883c6.02.51 11.68 5.72 17.26 7.99 4.34 2.09 9.44 3.04 13.49 5.61 4.21 2.67 3.15 9.784-1.43 11.384-2.78.65-6.08-.39-8.73-1.25-6.57-2.33-12.81-5.754-18.92-9.074-2.56-1.5-5.79-3.19-7.44-5.73-1.55-4.19.98-9.04 5.77-8.93ZM85.819 137.447c5.03 1.23 4.78 10.32-.3 11.32-5.6 1.68-11.52 1.97-17.1 3.88-6.77 2.28-13.68 4.66-19.96 8.1-4.22 2.27-7.89 5.66-12.25 7.63-3.71 1.69-8.76-1-9.14-5.16-.48-3.4 2.64-6.01 5.05-7.88 11.75-8.36 26.06-13.69 40.02-17.01 4.25-.85 9.41-2.09 13.68-.88ZM260.249 159.167c9.5 3.04 18.69 7.74 27.37 12.62 2.6 1.52 5.56 3.21 7.48 5.56 1.65 1.95 1.37 5.19.4 7.39-1.34 2.76-4.57 3.74-7.34 2.6-4.49-1.78-8.41-5.04-12.7-7.29-5.6-3.09-11.51-5.39-17.56-7.44-2.69-1-5.91-2.02-8.07-3.98-2.81-2.69-2.19-7.5 1.06-9.55 2.63-1.77 6.53-.68 9.36.09ZM151.489 167.067c5.42.54 6.03 10.16.82 11.38-4.21 1.25-8.77 1.51-13.11 2.12-4.08.45-8.67 1.2-12.72.32-5.38-.88-6.09-10.4-.75-11.76 3.99-1.13 8.37-1.19 12.49-1.63 4.29-.29 9.01-1.21 13.27-.43ZM70.409 218.947c3.56 1.84 4.29 8.25.76 10.5-4.48 3.06-10.01 4.31-14.52 7.43-4.46 2.8-7.7 7.22-12.19 9.86-4.72 2.53-10.74-3.55-8.35-8.28 1.91-3.69 5.85-6.56 9.15-8.96 5.17-3.59 10.59-7.15 16.41-9.6 2.55-.99 6.09-2.09 8.74-.95Z"
  /><path
    fill="#d49d03"
    d="M175.089 311.774c3.899-.58 6.649 2.807 6.354 6.517-.072 3.976-3.328 5.554-6.435 7.058-7.148 3.094-14.696 5.348-22.192 7.417-4.234 1.056-9.347 2.234-13.637 1.1-4.549-1.344-5.964-8.657-1.329-10.875 6.038-2.796 13.251-2.773 19.585-4.972 6.007-1.622 11.563-5.227 17.654-6.245Z"
  /><path
    fill="#d49d03"
    d="M255.247 309.368c5.945-1.077 12.767 2.478 18.746 3.214 4.735.887 9.906.474 14.486 1.9 4.761 1.48 5.592 8.624 1.587 11.363-2.514 1.352-5.971 1.208-8.754 1.069-6.95-.537-13.867-2.216-20.631-3.828-2.863-.781-6.421-1.57-8.677-3.592-2.588-3.642-1.41-8.983 3.243-10.126Z"
  /><path
    fill="#d49d03"
    d="M63.277 299.37c7.183.003 8.707 9.536 1.932 11.267-5.455 1.663-11.445 2.373-17.12 3.41-5.343.853-11.337 2.054-16.74 1.577-7.157-.346-8.804-9.769-1.867-11.653 5.173-1.521 10.942-2.014 16.338-2.86 5.633-.713 11.785-2.097 17.457-1.741Z"
  />
</svg>
