<svg xmlns="http://www.w3.org/2000/svg" viewBox="0 0 775.194 429.072">
  <path
    fill="#f6c53f"
    d="M377.482.012c9.86.1 19.82-.3 29.64.52 6.39 7.2 14.52 9.68 22.06 15.39 13.98 10.32 27.04 21.42 38.42 34.59a292.03 292.03 0 0 1 23.84 32.16c2.04 3.21 3.67 6.61 5.26 10.05-6.79-.18-13.48-1.09-20.17-2.13-13.65-2.07-27.27-2.43-41.05-2.3-16.54.13-33.08 3.79-48.44 9.84-4.19 1.52-7.27 4.05-10.16 7.38 2.25.15 4.47.3 6.72.3-6.78.71-13.3 2.03-19.78 4.15-9.7 3.1-19.62 5.99-28.94 10.11-19.63 9.2-38.23 20.03-54.63 34.32-3.6 3.14-7.05 6.45-10.74 9.49-3.98 1.53-7.94 2.83-11.56 5.17-13.85 8.68-26.1 20.94-36.86 33.16-3.35 3.69-6.18 7.85-9.66 11.41-3.48 3.6-8.65 4.44-13.28 5.72-9.72 2.36-18.67 6.25-27.851 10.11-4.11 1.75-8.13 3.71-11.97 6-12.65 7.63-24.48 15.54-34.41 26.62-10.03 10.61-17.93 22.7-24.69 35.58-8.28-.06-16.48-1.21-24.75-1.3 6.01-11.44 12.42-22.55 19.13-33.58 12.12-20.96 26.08-40.54 39.06-60.93 14.76-23.26 31.75-45.52 49.111-66.91 11.57-13.75 23.37-27.31 35-41.02 17.54-21.97 38.24-41.63 61.43-57.57 9.62-6.1 19.21-12.6 29.54-17.45 13.17-5.92 26.27-11.51 40.38-14.83 9.64-2.43 19.37-4.16 29.35-4.05Z"
  /><path
    fill="#d69e08"
    d="M407.122.532c16.4 1.03 32.69 6.45 47.85 12.55 15.65 6.09 30.22 14.38 43.81 24.22 20.23 14.52 39.51 31.44 55.06 50.95 12.79 16.17 26.85 31.21 39.66 47.37 14.03 17.24 28.33 35.13 39.79 54.21 12.53 19.37 25.78 38.28 38.25 57.71 6.69 10.79 13.06 21.72 19.2 32.84 9.05 15.35 17.53 31.01 26.69 46.3 8.15 14.44 17.09 28.4 25.08 42.93 4.93 8.39 9.66 16.92 14.86 25.14 4.95 7.41 9.66 14.97 14.66 22.34 1.51 2.45 3.83 6.03 2.98 9.01-.72 2.07-2.63 2.22-4.5 2.57-5.62.62-11.38.12-17.03.18-61.02.01-122.04.1-183.06-.04-2.32-5.11-3.7-10.17-4.5-15.72-2.89-17.38-8.93-34.32-16.91-50-9.3-19.13-20.47-38.42-34.49-54.49-9.2-10.09-19.56-20.72-31.5-27.47-7.47-4.2-14.66-8.5-22.88-11.16-9.18-2.99-17.4-8.04-24.79-14.2-5.88-5.07-10.87-11.3-15.51-17.51-2.57-3.63-5.56-7.76-6.6-12.14-.97-4.26 2.21-8.65 6.51-9.22 2.67-.41 4.94.8 6.77 2.64 3.33 3.38 5.84 7.48 9.13 10.91 7.98 8.53 18.44 15.03 28.91 20.06 11.89 5.31 25.61 8.76 38.39 4.63 11.8-3.5 20.7-11.22 28.45-20.49 6.99 8.88 12.28 19.51 17.41 29.64 2.6 5.61 4.88 11.34 7.84 16.78 5.49-8.35 7.15-17.32 9.46-26.85 3.61-15.3 5.12-30.91 5.28-46.61.13-10.6-1.79-20.91-4.89-31.01-4.51-14.72-14.05-27.69-27.17-35.84-8.56-5.28-17.86-9.58-26.79-14.21-17.97-9.15-35.79-16.91-55.86-20.15-18.86-2.83-37.88-3.92-56.92-2.41-5.41.42-10.76 1.28-16.16 1.82-2.25 0-4.47-.15-6.72-.3 2.89-3.33 5.97-5.86 10.16-7.38 15.36-6.05 31.9-9.71 48.44-9.84 13.78-.13 27.4.23 41.05 2.3 6.69 1.04 13.38 1.95 20.17 2.13-1.59-3.44-3.22-6.84-5.26-10.05-7.19-11.25-15.18-22-23.84-32.16-11.38-13.17-24.44-24.27-38.42-34.59-7.54-5.71-15.67-8.19-22.06-15.39Z"
  /><path
    fill="#fbdf74"
    d="M347.342 53.792c10.61 1.39 21.18 3.89 31.11 7.91-4.23 6.65-9.47 12.32-14.92 17.97-6.58 6.95-11.61 15.87-18.48 22.55-4.4 4.39-11.6 5.74-17.37 7.56-12.73 3.5-25.06 7.69-37.24 12.78-18.96 7.32-37.24 18.04-55.01 28-8.7 4.81-16.11 11.08-23.9 17.17-3.07 2.49-6.6 3.95-10.26 5.35.16-2.83-.63-5.21.79-7.86 4.07-8.77 9.78-16.88 14.99-25.01 4.73-7.51 10.49-14.11 15.94-21.08 5.24-6.63 11.54-12.49 17.35-18.65 15.61-15.48 33.82-30.14 54.17-38.81 13.75-5.27 27.93-9.75 42.83-7.88Zm52.42 50.2c19.04-1.51 38.06-.42 56.92 2.41 20.07 3.24 37.89 11 55.86 20.15 8.93 4.63 18.23 8.93 26.79 14.21 13.12 8.15 22.66 21.12 27.17 35.84 3.1 10.1 5.02 20.41 4.89 31.01-.16 15.7-1.67 31.31-5.28 46.61-2.31 9.53-3.97 18.5-9.46 26.85-2.96-5.44-5.24-11.17-7.84-16.78-5.13-10.13-10.42-20.76-17.41-29.64-6.46-8.29-12.74-16.34-20.15-23.79-8.4-8.41-16.42-16.88-25.95-24.06-13.5-10.67-27.73-20.03-43.96-26.02-21.89-7.92-45.52-13.08-68.87-13.03-11.2-.29-22.37.43-33.39 2.56-21.72 4.19-43.59 10.65-63.5 20.41-4.04 2.05-8.05 4-12.45 5.2 1.13-5.12 2.79-8.24 6.38-12.04 3.69-3.04 7.14-6.35 10.74-9.49 16.4-14.29 35-25.12 54.63-34.32 9.32-4.12 19.24-7.01 28.94-10.11 6.48-2.12 13-3.44 19.78-4.15 5.4-.54 10.75-1.4 16.16-1.82Z"
  /><path
    fill="#f6c53f"
    d="M372.472 147.752c23.35-.05 46.98 5.11 68.87 13.03 16.23 5.99 30.46 15.35 43.96 26.02 9.53 7.18 17.55 15.65 25.95 24.06 7.41 7.45 13.69 15.5 20.15 23.79-7.75 9.27-16.65 16.99-28.45 20.49-12.78 4.13-26.5.68-38.39-4.63-10.47-5.03-20.93-11.53-28.91-20.06-3.29-3.43-5.8-7.53-9.13-10.91-1.83-1.84-4.1-3.05-6.77-2.64-4.3.57-7.48 4.96-6.51 9.22 1.04 4.38 4.03 8.51 6.6 12.14 4.64 6.21 9.63 12.44 15.51 17.51 7.39 6.16 15.61 11.21 24.79 14.2 8.22 2.66 15.41 6.96 22.88 11.16 11.94 6.75 22.3 17.38 31.5 27.47 14.02 16.07 25.19 35.36 34.49 54.49 7.98 15.68 14.02 32.62 16.91 50 .8 5.55 2.18 10.61 4.5 15.72-24.94.04-49.89 0-74.84.07.77-6.43 1.37-12.82.96-19.3-2.1-27.9-11.59-54.94-29.12-76.91-4.57-5.75-10.15-10.32-16.93-13.24-1.36-4.63-3.43-8.9-5.67-13.16-3.26-6.06-6.29-11.86-11.22-16.79-2.68 5.17-3.73 10.69-5.09 16.29-1.88 7.64-5.87 14.09-10.58 20.28-6.56 8.55-13.05 16.68-21.23 23.74-5.54 4.77-10.5 9.69-16.66 13.36-3.95 2.34-7.89 4.67-11.64 7.33 1.48-4.2 3.6-9.22 3.12-13.72-.79-4.23-4-8.23-6.34-11.77-1.74-2.31-3.53-5.45-6.13-6.84-3.27-.94-7.07-.49-10.44-.28-7.48.74-14.95 1.59-22.42 2.36-5.19.51-10.51 1.41-15.73 1.28-2.98-.02-5.58-1.57-8.2-2.83 2.71-3 5.81-5.79 8.16-9.08 1.97-2.5 1.73-7.12-.66-9.25-2.86-1.68-6.65-2.06-9.86-2.74.59-4.19 1.46-8.55 1.24-12.78.06-2.9-3.32-3.83-5.59-4.33-5.98-.99-12.29-.36-18.32-.17 8.4-2.45 16.44-5.95 25.03-7.93 4.11-1.04 8.46-1.43 12.47-2.78 2.29-.65 3.33-3.58 4.26-5.52 5.04-13.66 10.97-26.87 18.83-39.16 2.08-3.28 3.93-6.68 5.7-10.13-13.36-1.32-25.75 1.83-38.46 5.44-11.52 3.64-22.59 9.72-32.68 16.3-8.92 5.86-17.22 12.63-24.51 20.43-5.58 5.99-11.99 12.23-16.14 19.28-5.37-.56-10.74-.73-16.13-.35-11.37.78-22.8 1-34.18.45 2.2-4.66 4.6-9.1 7.33-13.47 3.88-6.28 6.92-12.99 10.66-19.35 8.35-13.94 17.13-28.08 26.92-41.06 10.1-13.14 21.12-26.49 33.82-37.18 5.88-5.03 12.08-8.95 17.35-14.69l-1.92.11c19.91-9.76 41.78-16.22 63.5-20.41 11.02-2.13 22.19-2.85 33.39-2.56Z"
  /><path
    fill="#d69e08"
    d="M269.512 163.882c-3.59 3.8-5.25 6.92-6.38 12.04 4.4-1.2 8.41-3.15 12.45-5.2l1.92-.11c-5.27 5.74-11.47 9.66-17.35 14.69-12.7 10.69-23.72 24.04-33.82 37.18-9.79 12.98-18.57 27.12-26.92 41.06-3.74 6.36-6.78 13.07-10.66 19.35-2.73 4.37-5.13 8.81-7.33 13.47 11.38.55 22.81.33 34.18-.45 5.39-.38 10.76-.21 16.13.35-.85 1.48-1.66 2.98-2.46 4.48-15.26-.36-30.53-.08-45.79-.41-5.81-.18-11.55.3-17.301 1.05 2.18 11.17 1.24 21.98 1.39 33.24.22 12.63-.33 25.28.25 37.9 4.531.54 9.061.96 13.631.91 3.39.07 7.18-.15 10.42.89 2.64 1.95 2.02 6.83-1.57 7.13-7.4.85-15.06-.74-22.531-.67-.52 16 .11 32.01-.37 48.01-2.63.01-5.27.01-7.9 0-.32-28.29.12-56.59-.34-84.88-12.42 2.95-24.9 4.61-37.68 3.56-2.84-.38-6-1.1-5.81-4.66.44-3.8 5-3.08 7.75-3.28 12.15.6 24.2-.17 35.8-4.05.29-11.17.05-22.34.04-33.51-20.66-.4-39.1-3.67-59.6.97-.68 12.21-.18 24.46-.34 36.68.16 29.73-.12 59.48.12 89.21-2.95 0-5.9-.01-8.85-.03.62-13.4.15-26.78.19-40.18.19-6.7.24-13.37-.18-20.06-7.28-.11-14.46.32-21.69-.83.35-1.8.58-3.7 1.2-5.43 1.23-1.32 3.62-1.5 5.32-1.67 4.99-.31 10.01-.14 15.01-.2 1.55-18.82-1.17-38.94 1.63-57.62-6.67-.19-13.27-1.08-19.91-1.45.76-1.68 1.52-3.36 2.32-5.01 8.27.09 16.47 1.24 24.75 1.3 6.76-12.88 14.66-24.97 24.69-35.58 9.93-11.08 21.76-18.99 34.41-26.62 3.84-2.29 7.86-4.25 11.97-6 9.181-3.86 18.131-7.75 27.851-10.11 4.63-1.28 9.8-2.12 13.28-5.72 3.48-3.56 6.31-7.72 9.66-11.41 10.76-12.22 23.01-24.48 36.86-33.16 3.62-2.34 7.58-3.64 11.56-5.17Z"
  /><path
    fill="#fbdf74"
    d="M343.522 234.812c-1.77 3.45-3.62 6.85-5.7 10.13-7.86 12.29-13.79 25.5-18.83 39.16-.93 1.94-1.97 4.87-4.26 5.52-4.01 1.35-8.36 1.74-12.47 2.78-8.59 1.98-16.63 5.48-25.03 7.93-4.33.83-8.51 2.23-12.81 3.13-2.98.67-6.08-.8-8.95-1.55-4.22-1.37-8.49-1.34-12.85-1.06-4.42.15-8.93 0-13.35-.11.8-1.5 1.61-3 2.46-4.48 4.15-7.05 10.56-13.29 16.14-19.28 7.29-7.8 15.59-14.57 24.51-20.43 10.09-6.58 21.16-12.66 32.68-16.3 12.71-3.61 25.1-6.76 38.46-5.44Zm90.08 54.67c4.93 4.93 7.96 10.73 11.22 16.79 2.24 4.26 4.31 8.53 5.67 13.16 1.89 8.47 4.03 17.5 4.03 26.17.1 9.93-1.76 20.05-4.51 29.57-2.23 7.75-5.98 14.32-9.47 21.52-3.1 6.22-5.86 12.45-9.93 18.08-1.79 2.54-3.88 5-5.39 7.71-1.24 1.94-.49 4.3-.33 6.43-19.57-1.55-39.35-.52-59.08-.67 2.13-3.18 5-7 5.14-10.96.08-3.75-2.53-7.72-4.02-11.08-2.23-4.57-2.9-9.19-3.89-14.11-.55-3.08-1.22-5.87-.03-8.91 1.64-4.3 3.85-8.35 5.39-12.7 3.75-2.66 7.69-4.99 11.64-7.33 6.16-3.67 11.12-8.59 16.66-13.36 8.18-7.06 14.67-15.19 21.23-23.74 4.71-6.19 8.7-12.64 10.58-20.28 1.36-5.6 2.41-11.12 5.09-16.29Z"
  /><path
    fill="#d69e08"
    d="M295.552 300.502c2.27.5 5.65 1.43 5.59 4.33.22 4.23-.65 8.59-1.24 12.78 3.21.68 7 1.06 9.86 2.74 2.39 2.13 2.63 6.75.66 9.25-2.35 3.29-5.45 6.08-8.16 9.08 2.62 1.26 5.22 2.81 8.2 2.83 5.22.13 10.54-.77 15.73-1.28 7.47-.77 14.94-1.62 22.42-2.36 3.37-.21 7.17-.66 10.44.28 2.6 1.39 4.39 4.53 6.13 6.84 2.34 3.54 5.55 7.54 6.34 11.77.48 4.5-1.64 9.52-3.12 13.72-1.54 4.35-3.75 8.4-5.39 12.7-1.19 3.04-.52 5.83.03 8.91.99 4.92 1.66 9.54 3.89 14.11 1.49 3.36 4.1 7.33 4.02 11.08-.14 3.96-3.01 7.78-5.14 10.96-6.46.19-12.86.83-19.33.65-36.92 0-73.84-.05-110.76.02.72-2.5 1.78-5.34 1.36-7.95-.58-3.89-2.27-7.77-3.4-11.55-1.19-3.8-1.78-7.62-2.42-11.54 3.82-3.36 8.23-6.73 9.71-11.84.88-3.09 1.7-7.15.44-10.24-2.36-2.64-6.31-3.83-8.68-6.45-1.35-2.87-1.29-6.56-1.51-9.69-.09-4.56-.5-9.41.43-13.9 1.39-5.08 7.69-9.33 8.35-15.35.47-4.02-3.55-8.07-4.49-11.86-.02-2.45.99-4.96 1.48-7.36.84-3.2.85-6.43.72-9.72 1.64-.22 3.27-.44 4.91-.61 4.36-.28 8.63-.31 12.85 1.06 2.87.75 5.97 2.22 8.95 1.55 4.3-.9 8.48-2.3 12.81-3.13 6.03-.19 12.34-.82 18.32.17Z"
  /><path
    fill="#f6c53f"
    d="M72.161 301.362c6.64.37 13.24 1.26 19.91 1.45-2.8 18.68-.08 38.8-1.63 57.62-5 .06-10.02-.11-15.01.2-1.7.17-4.09.35-5.32 1.67-.62 1.73-.85 3.63-1.2 5.43 7.23 1.15 14.41.72 21.69.83.42 6.69.37 13.36.18 20.06-.04 13.4.43 26.78-.19 40.18-21.7.01-43.41.08-65.11.04-6.67-.08-13.39.5-20.04.07-2.31-.36-5.16-.41-5.43-3.38-.19-3.28 2.12-6.8 3.81-9.49 6.24-9.28 12.28-18.62 17.46-28.54 2.72-5.23 6.64-10.78 6.62-16.87.21-4.82-2.01-10.39-.24-14.88 1.6-4.19 3.34-8.31 4.69-12.6-3.37-1.7-7.78-3.24-10.25-6.19-1.67-2.86-1.26-7.15 1.44-9.28 2.68-2.37 5.94-4.18 8.96-6.08-1.89-3.5-4.19-7.22-5.19-11.08-.91-3.37.9-7.76 4.48-8.7 4.33-1.19 9.24-.77 13.69-.76 8.93.32 17.74.72 26.68.3Zm87.1.61c.01 11.17.25 22.34-.04 33.51-11.6 3.88-23.65 4.65-35.8 4.05-2.75.2-7.31-.52-7.75 3.28-.19 3.56 2.97 4.28 5.81 4.66 12.78 1.05 25.26-.61 37.68-3.56.46 28.29.02 56.59.34 84.88-20.02.07-40.04.01-60.06.04-.24-29.73.04-59.48-.12-89.21.16-12.22-.34-24.47.34-36.68 20.5-4.64 38.94-1.37 59.6-.97Zm24.221-1.64c15.26.33 30.53.05 45.79.41 4.42.11 8.93.26 13.35.11-1.64.17-3.27.39-4.91.61.13 3.29.12 6.52-.72 9.72-.49 2.4-1.5 4.91-1.48 7.36.94 3.79 4.96 7.84 4.49 11.86-.66 6.02-6.96 10.27-8.35 15.35-.93 4.49-.52 9.34-.43 13.9.22 3.13.16 6.82 1.51 9.69 2.37 2.62 6.32 3.81 8.68 6.45 1.26 3.09.44 7.15-.44 10.24-1.48 5.11-5.89 8.48-9.71 11.84.64 3.92 1.23 7.74 2.42 11.54 1.13 3.78 2.82 7.66 3.4 11.55.42 2.61-.64 5.45-1.36 7.95-22.77.19-45.54-.19-68.321-.12.48-16-.15-32.01.37-48.01 7.471-.07 15.131 1.52 22.531.67 3.59-.3 4.21-5.18 1.57-7.13-3.24-1.04-7.03-.82-10.42-.89-4.57.05-9.1-.37-13.631-.91-.58-12.62-.03-25.27-.25-37.9-.15-11.26.79-22.07-1.39-33.24 5.751-.75 11.491-1.23 17.301-1.05Z"
  /><path
    fill="#d69e08"
    d="M450.492 319.432c6.78 2.92 12.36 7.49 16.93 13.24 17.53 21.97 27.02 49.01 29.12 76.91.41 6.48-.19 12.87-.96 19.3-23.55.04-47.14.04-70.69.03-.16-2.13-.91-4.49.33-6.43 1.51-2.71 3.6-5.17 5.39-7.71 4.07-5.63 6.83-11.86 9.93-18.08 3.49-7.2 7.24-13.77 9.47-21.52 2.75-9.52 4.61-19.64 4.51-29.57 0-8.67-2.14-17.7-4.03-26.17Zm-242.95 4.77c.12 1.91.77 3.99.51 5.88-2.14 2.54-5.7 4.1-8.64 5.51-4.21 1.84-8.68 3.95-13.25 4.61-2.13.28-4.12-.06-5.11-2.2-.97-1.7.06-3.2 1.57-4.07 4.28-2.36 9.16-3.46 13.51-5.76 3.61-1.91 7.46-3.01 11.41-3.97Zm-154.871 5.55c3.59.55 7.15 2.62 10.47 4.07 3.4 1.71 7.9 2.88 10.57 5.64 1.74 2.77-1.36 6.4-4.45 5.36-6.24-1.52-13.19-4.73-18.01-9.02-2.46-2.05-1.18-4.93 1.42-6.05Zm30.72 53.92c3.24-.51 5.22 5.34 1.89 6.6-5.49 2.37-11.81 2.36-17.38 4.72-4.95 1.83-9.01 5.28-13.85 7.24-1.86.6-4.32 1.15-5.24-1.13-1.28-2.5.33-4.41 2.19-5.95 4.07-3.14 9.02-5.26 13.72-7.24 5.82-2.25 12.38-4.41 18.67-4.24Zm103.381 13.04c5.53-1.13 11.22 2.22 16.04 4.56 3.7 2.02 8.35 3.77 11.23 6.91.45 1.86.61 3.86.84 5.77-2.18-.06-4.87.2-6.84-.88-3.74-1.91-7.11-4.3-11.08-5.8-3.65-1.53-8.23-2.56-11.32-5.07-.47-1.97.07-3.81 1.13-5.49Zm-68.931 5.07c2.65-.19 5.56-.33 8.15.37 2.67.64 3.11 5.28.45 6.27-4.84 1.91-10.6 2.27-15.76 1.94-3.24-.03-4.11-3.61-2.87-6.09 2.94-1.68 6.7-2.17 10.03-2.49Z"
  />
</svg>
