<svg xmlns="http://www.w3.org/2000/svg" viewBox="0 0 36 33.5">
  <path
    d="M4.999 33.5h-1a1 1 0 0 1-1-1V20.82c.206-.139.361-.282.361-.282s.502.539 1.003.637c.259.051.481-.134.636-.324V33.5Zm27 0h-1V21.192a.864.864 0 0 0 .318.032c.639-.049.775-.539.775-.539s.365.539.821.539a.491.491 0 0 0 .086-.008V32.5a1 1 0 0 1-1 1Z"
    fill="#b77961"
  /><path
    d="M4.957 24.792s-.917 5.667 0 7.667c0 0 .083-4.792.083-5.792s-.083-1.875-.083-1.875Zm26.042-.875s.958 7 .042 9c0 0-.241-5.5-.241-6.5s.199-2.5.199-2.5Z"
    fill="#c16a51"
  /><path
    d="M9.999 33.5h-5V20.851c.145-.178.231-.362.231-.362s.365.588 1.049.588c.684 0 .821-.588.821-.588s.182.588.821.637c.639.049.867-.588.867-.588s.137.539.912.588a1.03 1.03 0 0 0 .299-.022V33.5Zm21 0h-5V21.295a.815.815 0 0 0 .21.027c.639 0 .775-.637.775-.637s0 .686.73.637c.73-.049 1.003-.686 1.003-.686s.228.637.958.637.775-.588.775-.588.15.388.549.507V33.5Z"
    fill="#c88b72"
  /><path
    d="M9.957 23.167s-.875 8 .042 10c0 0 .083-6.125.083-7.125s-.125-2.875-.125-2.875Zm15.968-.292s.991 7.375.074 9.375c0 0-.157-4.542-.157-5.542s.083-3.833.083-3.833Z"
    fill="#c16a51"
  /><path
    fill="#D99E82"
    d="M9.999 33.167s.083-6.125.083-7.125c0-.611-.047-1.549-.083-2.186v-2.752c.489-.117.522-.615.522-.615s.228.49.775.539c.547.049.866-.49.866-.49s.365.588.958.588.867-.49.867-.49.091.637.684.637c.593 0 .912-.686.912-.686s0 .637.684.637.912-.588.912-.588 0 .637.639.637 1.003-.637 1.003-.637.046.686.821.637c.775-.049.958-.637.958-.637s.228.588.775.637c.547.049.821-.637.821-.637s.046.686.73.588c.684-.098.821-.637.821-.637s.091.784.775.735c.684-.049.866-.686.866-.686s.144.541.624.662l-.013-.003v2.176c-.044-.375-.074-.596-.074-.596s-.083 2.833-.083 3.833.157 5.542.157 5.542v1.25h-16v-.333ZM3.36 20.538s-.155.143-.361.282c.206-.139.361-.282.361-.282Zm6.628.569-.006.001.006-.001Zm20.462-.422s.11.283.39.44c-.281-.157-.39-.44-.39-.44Z"
  /><path
    fill="#FFD983"
    d="M16.175.89c.148-.437.775-.343.867 0 0 0 .182-.784.593-.882.41-.098.593.735.593.735s.365-.735.775-.588c.41.147.137.931.137.931s.319-.539.775-.196c.295.222-.305 1.016-.767 1.55 1.867 1.501 5.566 4.652 8.521 7.392 3.041 2.821 6.631 7.847 8.193 9.703.309.367.063.951-.398.951h-.429c.001.243-.073.595-.48.689-.638.147-.912-.588-.912-.588s-.274.637-.73.637c-.456 0-.821-.539-.821-.539s-.136.49-.775.539c-.639.049-.867-.539-.867-.539s-.045.588-.775.588-.958-.637-.958-.637-.273.637-1.003.686c-.73.049-.73-.637-.73-.637s-.136.637-.775.637-.821-.686-.821-.686-.182.637-.866.686c-.684.049-.775-.735-.775-.735s-.137.539-.821.637c-.684.098-.73-.588-.73-.588s-.274.686-.821.637c-.547-.049-.775-.637-.775-.637s-.183.588-.958.637c-.775.049-.821-.637-.821-.637s-.364.637-1.003.637c-.639 0-.639-.637-.639-.637s-.228.588-.912.588-.684-.637-.684-.637-.319.686-.912.686-.684-.637-.684-.637-.274.49-.867.49-.958-.588-.958-.588-.319.539-.866.49c-.547-.049-.775-.539-.775-.539s-.046.686-.821.637c-.775-.049-.912-.588-.912-.588s-.228.637-.867.588c-.639-.049-.821-.637-.821-.637s-.137.588-.821.588c-.684 0-1.049-.588-1.049-.588s-.366.784-.867.686c-.501-.098-1.003-.637-1.003-.637s-.638.588-1.049.539c-.265-.032-.586-.246-.72-.591H.536c-.449 0-.7-.554-.416-.928 1.091-1.433 3.487-5.248 7.162-8.794 3.84-3.705 7.632-6.91 9.491-8.367-.284-.412-.724-1.135-.598-1.507Z"
  /><path
    d="M3.36 20.538s.502.539 1.003.637c.259.051.481-.134.636-.324v1.4a.573.573 0 0 1-.393.085c-.491-.084-.982-.542-.982-.542s-.305.237-.625.37V20.82c.206-.139.361-.282.361-.282Zm27.639.654a.864.864 0 0 0 .318.032c.639-.049.775-.539.775-.539s.365.539.821.539a.491.491 0 0 0 .086-.008v.955c-.117.108-.262.206-.446.207-.447 0-.804-.458-.804-.458s-.133.412-.75.457v-1.185Z"
    fill="#a6543d"
  /><path
    d="M9.999 21.104v1.19a1.349 1.349 0 0 1-.169.001c-.759-.042-.893-.5-.893-.5s-.223.542-.848.5c-.625-.042-.804-.542-.804-.542s-.134.5-.804.5-1.027-.5-1.027-.5-.178.332-.455.498v-1.4c.145-.178.231-.362.231-.362s.365.588 1.049.588c.684 0 .821-.588.821-.588s.182.588.821.637c.639.049.867-.588.867-.588s.137.539.912.588a1.04 1.04 0 0 0 .282-.018l.017-.004Zm16 .191.013.003c.06.015.126.024.197.024.639 0 .775-.637.775-.637s0 .686.73.637c.73-.049 1.003-.686 1.003-.686s.228.637.958.637.775-.588.775-.588.109.283.39.44a.76.76 0 0 0 .159.067v1.185l-.009.001c-.625.042-.848-.458-.848-.458s-.044.5-.759.5-.938-.542-.938-.542-.268.541-.982.583c-.714.041-.714-.542-.714-.542s-.133.537-.75.542v-1.166Z"
    fill="#b35e46"
  /><path
    fill="#C1694F"
    d="M25.99 22.461c-.624 0-.803-.583-.803-.583s-.178.541-.848.583c-.67.042-.759-.625-.759-.625s-.133.459-.803.542c-.669.083-.714-.5-.714-.5s-.267.584-.803.542c-.536-.042-.759-.542-.759-.542s-.179.5-.938.542c-.759.041-.804-.542-.804-.542s-.357.542-.982.542-.625-.542-.625-.542-.223.5-.893.5-.67-.542-.67-.542-.313.583-.893.583c-.581 0-.67-.542-.67-.542s-.268.417-.848.417c-.581 0-.938-.5-.938-.5s-.312.459-.848.417c-.536-.041-.759-.458-.759-.458s-.037.494-.634.541v-1.19c.489-.117.522-.615.522-.615s.228.49.775.539c.547.049.866-.49.866-.49s.365.588.958.588.867-.49.867-.49.091.637.684.637c.593 0 .912-.686.912-.686s0 .637.684.637.912-.588.912-.588 0 .637.639.637 1.003-.637 1.003-.637.046.686.821.637c.775-.049.958-.637.958-.637s.228.588.775.637c.547.049.821-.637.821-.637s.046.686.73.588c.684-.098.821-.637.821-.637s.091.784.775.735c.684-.049.866-.686.866-.686s.142.534.614.66l-.003-.001v1.166h-.009Zm4.85-1.336c-.281-.157-.39-.44-.39-.44a.96.96 0 0 0 .39.44Z"
  /><path
    fill="#fff"
    d="M13.999 23.5h8v10h-8v-10Z"
    data-player="true"
  /><path
    fill="#FFAC33"
    d="M16.084 4.564s-6.522 4.997-8.711 7.349c-2.189 2.352-4.424 6.909-4.424 6.909s4.15-5.586 5.245-6.762c1.095-1.175 7.89-7.496 7.89-7.496Zm5.519 1.568s2.417 2.94 3.512 4.115c1.095 1.176 4.834 8.33 4.834 8.33s-3.512-5.293-4.743-7.154c-.897-1.355-3.603-5.291-3.603-5.291Zm-6.112.637S12.8 9.807 11.477 12.06c-1.304 2.225-2.051 5.44-2.051 5.44s2.957-5.034 3.74-6.468l2.325-4.263Zm3.649.882s.224 3.052.684 5.634c.41 2.303 1.095 5.929 1.095 5.929s-.319-4.362-.684-6.86c-.34-2.323-1.095-4.703-1.095-4.703Z"
  />
</svg>
