<svg xmlns="http://www.w3.org/2000/svg" viewBox="0 0 36 33.498">
  <path
    fill="#b77961"
    d="M4.999 33.498h-1c-.552 0-1-.45-1-1v-11.68c.206-.14.361-.28.361-.28s.502.53 1.003.63c.259.05.481-.13.636-.32v12.65Zm27 0h-1v-12.31c.103.03.211.04.318.03.639-.05.775-.54.775-.54s.365.54.821.54c.029 0 .058 0 .086-.01v11.29c0 .55-.447 1-1 1Z"
  /><path
    fill="#c16a51"
    d="M4.957 24.788s-.917 5.67 0 7.67c0 0 .083-4.8.083-5.8s-.083-1.87-.083-1.87Zm26.042-.88s.958 7 .042 9c0 0-.241-5.5-.241-6.5s.199-2.5.199-2.5Z"
  /><path
    fill="#c88b72"
    d="M9.999 33.498h-5v-12.65c.145-.18.231-.36.231-.36s.365.58 1.049.58c.684 0 .821-.58.821-.58s.182.58.821.63c.639.05.867-.58.867-.58s.137.53.912.58c.1.01.201 0 .299-.02v12.4Zm21 0h-5v-12.21a.75.75 0 0 0 .21.03c.639 0 .775-.64.775-.64s0 .69.73.64c.73-.05 1.003-.69 1.003-.69s.228.64.958.64.775-.59.775-.59.15.39.549.51v12.31Z"
  /><path
    fill="#c16a51"
    d="M9.957 23.158s-.875 8 .042 10c0 0 .083-6.12.083-7.12s-.125-2.88-.125-2.88Zm15.968-.29s.991 7.38.074 9.38c0 0-.157-4.54-.157-5.54s.083-3.84.083-3.84Z"
  /><path
    fill="#D99E82"
    d="M9.999 33.158s.083-6.12.083-7.12c0-.61-.047-1.55-.083-2.19v-2.75c.489-.12.522-.61.522-.61s.228.49.775.54c.547.04.866-.49.866-.49s.365.58.958.58.867-.49.867-.49.091.64.684.64c.593 0 .912-.69.912-.69s0 .64.684.64.912-.59.912-.59 0 .64.639.64 1.003-.64 1.003-.64.046.69.821.64c.775-.05.958-.64.958-.64s.228.59.775.64c.547.05.821-.64.821-.64s.046.69.73.59c.684-.1.821-.64.821-.64s.091.79.775.74c.684-.05.866-.69.866-.69s.144.54.624.67l-.013-.01v2.18c-.044-.38-.074-.6-.074-.6s-.083 2.84-.083 3.84.157 5.54.157 5.54v1.25h-3.328l-.027-10.73-9.25-.02.067 10.75H9.999v-.34Zm20.451-12.48s.11.29.39.44c-.281-.15-.39-.44-.39-.44Z"
  /><path
    d="m13.394 22.748 9.25.02.027 10.73h-.672v-10h-8v10h-.538l-.067-10.75Z"
    fill="#ad6c42"
  /><path
    fill="#FFD983"
    d="M16.175.888c.148-.44.775-.35.867 0 0 0 .182-.79.593-.88.41-.1.593.73.593.73s.365-.73.775-.59c.41.15.137.93.137.93s.319-.54.775-.19c.295.22-.305 1.01-.767 1.55 1.867 1.5 5.566 4.65 8.521 7.39 3.041 2.82 6.631 7.85 8.193 9.7.309.37.063.95-.398.95h-.429c.001.25-.073.6-.48.69-.638.15-.912-.59-.912-.59s-.274.64-.73.64c-.456 0-.821-.54-.821-.54s-.136.49-.775.54c-.639.05-.867-.54-.867-.54s-.045.59-.775.59-.958-.64-.958-.64-.273.64-1.003.69c-.73.05-.73-.64-.73-.64s-.136.64-.775.64-.821-.69-.821-.69-.182.64-.866.69c-.684.05-.775-.74-.775-.74s-.137.54-.821.64c-.684.1-.73-.59-.73-.59s-.274.69-.821.64c-.547-.05-.775-.64-.775-.64s-.183.59-.958.64c-.775.05-.821-.64-.821-.64s-.364.64-1.003.64c-.639 0-.639-.64-.639-.64s-.228.59-.912.59-.684-.64-.684-.64-.319.69-.912.69-.684-.64-.684-.64-.274.49-.867.49-.958-.58-.958-.58-.319.53-.866.49c-.547-.05-.775-.54-.775-.54s-.046.68-.821.63c-.775-.05-.912-.58-.912-.58s-.228.63-.867.58c-.639-.05-.821-.63-.821-.63s-.137.58-.821.58c-.684 0-1.049-.58-1.049-.58s-.366.78-.867.68c-.501-.1-1.003-.63-1.003-.63s-.638.58-1.049.53c-.265-.03-.586-.24-.72-.59H.536c-.449 0-.7-.55-.416-.92 1.091-1.44 3.487-5.25 7.162-8.8 3.84-3.7 7.632-6.91 9.491-8.37-.284-.41-.724-1.13-.598-1.5Z"
  /><path
    fill="#a6543d"
    d="M3.36 20.538s.502.53 1.003.63c.259.05.481-.13.636-.32v1.4a.598.598 0 0 1-.393.08c-.491-.08-.982-.54-.982-.54s-.305.24-.625.37v-1.34c.206-.14.361-.28.361-.28Zm27.639.65c.103.03.211.04.318.03.639-.05.775-.54.775-.54s.365.54.821.54c.029 0 .058 0 .086-.01v.96a.647.647 0 0 1-.446.2c-.447 0-.804-.45-.804-.45s-.133.41-.75.45v-1.18Z"
  /><path
    fill="#b35e46"
    d="M9.999 21.098v1.19c-.056 0-.112.01-.169 0-.759-.04-.893-.5-.893-.5s-.223.54-.848.5c-.625-.04-.804-.54-.804-.54s-.134.5-.804.5-1.027-.5-1.027-.5-.178.33-.455.5v-1.4c.145-.18.231-.36.231-.36s.365.58 1.049.58c.684 0 .821-.58.821-.58s.182.58.821.63c.639.05.867-.58.867-.58s.137.53.912.58c.095.01.189 0 .282-.02h.017Zm16 .19.013.01c.06.01.126.02.197.02.639 0 .775-.64.775-.64s0 .69.73.64c.73-.05 1.003-.69 1.003-.69s.228.64.958.64.775-.59.775-.59a.917.917 0 0 0 .549.51v1.18h-.009c-.625.05-.848-.45-.848-.45s-.044.5-.759.5-.938-.55-.938-.55-.268.55-.982.59c-.714.04-.714-.54-.714-.54s-.133.53-.75.54v-1.17Z"
  /><path
    fill="#C1694F"
    d="M25.99 22.458c-.624 0-.803-.59-.803-.59s-.178.55-.848.59c-.67.04-.759-.63-.759-.63s-.133.46-.803.54c-.669.09-.714-.5-.714-.5s-.267.59-.803.55c-.536-.05-.759-.55-.759-.55s-.179.5-.938.55c-.759.04-.804-.55-.804-.55s-.357.55-.982.55-.625-.55-.625-.55-.223.5-.893.5-.67-.54-.67-.54-.313.59-.893.59c-.581 0-.67-.55-.67-.55s-.268.42-.848.42c-.581 0-.938-.5-.938-.5s-.312.46-.848.42c-.536-.04-.759-.46-.759-.46s-.037.49-.634.54v-1.19c.489-.12.522-.61.522-.61s.228.49.775.54c.547.04.866-.49.866-.49s.365.58.958.58.867-.49.867-.49.091.64.684.64c.593 0 .912-.69.912-.69s0 .64.684.64.912-.59.912-.59 0 .64.639.64 1.003-.64 1.003-.64.046.69.821.64c.775-.05.958-.64.958-.64s.228.59.775.64c.547.05.821-.64.821-.64s.046.69.73.59c.684-.1.821-.64.821-.64s.091.79.775.74c.684-.05.866-.69.866-.69s.142.54.614.66h-.003v1.17h-.009Zm4.85-1.34c-.281-.15-.39-.44-.39-.44.081.18.217.34.39.44Z"
  /><path
    fill="#808080"
    d="M13.999 23.498h8v10h-8v-10Z"
    data-player="true"
  /><path
    fill="#FFAC33"
    d="M16.084 4.558s-6.522 5-8.711 7.35c-2.189 2.35-4.424 6.91-4.424 6.91s4.15-5.59 5.245-6.76c1.095-1.18 7.89-7.5 7.89-7.5Zm5.519 1.57s2.417 2.94 3.512 4.11c1.095 1.18 4.834 8.33 4.834 8.33s-3.512-5.29-4.743-7.15c-.897-1.36-3.603-5.29-3.603-5.29Zm-6.112.64s-2.691 3.03-4.014 5.29c-1.304 2.22-2.051 5.44-2.051 5.44s2.957-5.04 3.74-6.47l2.325-4.26Zm3.649.88s.224 3.05.684 5.63c.41 2.3 1.095 5.93 1.095 5.93s-.319-4.36-.684-6.86c-.34-2.32-1.095-4.7-1.095-4.7Z"
  />
</svg>
