<?xml version="1.0" encoding="utf-8"?>
<svg xmlns="http://www.w3.org/2000/svg" viewBox="0 -0.0004 595.268 641.5817">
  <path
    d="M 421.218 607.345 C 425.898 606.925 430.818 609.195 434.908 611.245 C 440.608 614.055 444.608 617.975 450.898 619.255 C 457.538 620.625 465.207 621.093 471.977 621.103 C 473.807 622.803 475.068 624.675 476.408 626.805 C 477.938 628.585 475.688 631.205 474.568 632.635 C 470.748 636.675 466.058 641.195 460.118 641.185 C 451.098 641.515 442.078 640.315 433.038 640.625 C 422.368 641.025 411.708 640.425 401.028 640.985 C 393.228 641.415 385.758 639.405 378.008 640.185 C 372.66 640.625 367.38 641.395 362 641.505 C 363.97 635.575 364.73 627.745 368.69 622.825 C 376.92 617.335 389.928 619.205 399.008 615.105 C 406.388 611.825 412.928 608.155 421.218 607.345 Z"
    fill="#5a483a"
  />
  <path
    d="M 520.498 509.865 C 522.998 515.265 525.478 520.635 528.338 525.855 C 531.818 532.175 533.608 538.305 538.368 543.785 C 546.238 553.005 553.668 562.565 560.838 572.335 C 565.068 577.845 569.348 583.255 573.098 589.105 C 576.048 593.485 579.788 596.995 583.408 600.775 C 588.198 606.025 592.118 612.205 595.268 618.555 C 585.528 618.015 575.798 617.965 566.038 618.025 C 548.018 618.105 530.018 617.525 512.038 618.175 C 503.708 618.455 495.398 618.175 487.068 618.555 C 482.028 618.505 473.387 618.319 468.537 616.789 C 464.577 615.139 464.058 613.015 460.458 610.685 C 454.238 606.615 448.448 601.985 442.058 598.195 C 438.638 596.165 435.528 593.755 432.578 591.105 C 437.278 590.895 441.808 590.825 446.368 589.475 C 451.628 587.925 456.668 585.735 461.898 584.085 C 467.248 582.225 472.418 580.805 475.738 575.815 C 481.328 567.595 480.588 558.345 483.308 549.335 C 485.388 542.505 490.038 537.935 495.128 533.225 C 503.518 525.635 511.568 516.725 520.498 509.865 Z"
    fill="#5a483a"
  />
  <path
    d="M 488.938 490.565 C 492.788 490.915 496.728 492.485 500.388 493.715 C 503.755 494.555 510.758 500.575 516.388 504.825 C 518.238 506.175 519.518 507.825 520.498 509.865 C 511.568 516.725 503.518 525.635 495.128 533.225 C 490.038 537.935 485.388 542.505 483.308 549.335 C 480.588 558.345 481.328 567.595 475.738 575.815 C 472.418 580.805 467.248 582.225 461.898 584.085 C 456.668 585.735 451.628 587.925 446.368 589.475 C 441.808 590.825 437.278 590.895 432.578 591.105 C 435.528 593.755 438.638 596.165 442.058 598.195 C 448.448 601.985 454.238 606.615 460.458 610.685 C 464.058 613.015 464.577 615.139 468.537 616.789 C 469.601 617.821 469.416 617.568 470.418 619.005 C 470.923 619.701 471.737 620.363 471.977 621.103 C 465.207 621.093 457.538 620.625 450.898 619.255 C 444.608 617.975 440.608 614.055 434.908 611.245 C 430.818 609.195 425.898 606.925 421.218 607.345 C 412.928 608.155 406.388 611.825 399.008 615.105 C 389.928 619.205 376.92 617.335 368.69 622.825 C 364.73 627.745 363.97 635.575 362 641.505 C 353.56 641.805 345.24 641.165 336.82 640.545 C 334.21 640.235 330.93 639.995 328.72 638.455 C 326.86 635.565 327.17 631.115 326.73 627.795 C 321.82 627.755 316.92 627.985 312.02 628.255 C 306.65 628.555 301.43 627.895 296.08 627.605 C 287.74 627.135 279.39 626.875 271.04 627.085 C 267.99 627.065 264.59 627.305 261.66 626.385 C 259.07 625.245 258.03 622.065 258.44 619.415 C 259.23 614.405 262.19 608.76 264.16 604.11 C 265.8 602.172 268.15 599.667 270.66 596.95 C 275.51 591.35 282.3 588.395 288.64 584.755 C 295.24 581.035 301.87 577.355 308.41 573.545 C 317.82 568.205 326.4 562.365 336.75 558.845 C 343.17 556.665 350.36 556.805 357.1 556.515 C 364.89 556.285 372.8 555.495 380.538 555.755 C 383.608 555.825 386.778 556.045 389.838 555.735 C 393.018 555.475 395.828 553.265 398.588 551.775 C 404.138 548.515 409.948 548.085 415.168 544.275 C 422.178 539.115 428.088 531.455 434.278 525.375 C 440.868 518.905 448.208 514.165 455.488 508.575 C 462.018 503.565 468.848 498.145 476.048 494.125 C 479.918 492.015 484.448 490.185 488.938 490.565 Z"
    fill="#7e6949"
  />
  <path
    d="M 331.46 620.145 C 330.42 622.305 329.4 625.065 327.53 626.625 C 325.15 627.365 322.5 627.425 320.03 627.655 C 323.58 624.745 327.32 622.145 331.46 620.145 Z"
    fill="#5a483a"
  />
  <path
    d="M 421.828 63.756 C 427.478 69.706 432.288 76.326 437.728 82.446 C 440.198 85.326 442.548 87.896 443.278 91.756 C 445.188 101.076 445.108 111.256 446.688 120.556 C 447.988 128.346 448.968 136.186 450.148 143.996 C 452.108 156.416 452.408 169.305 454.558 181.705 C 458.718 202.075 459.418 222.975 463.748 243.375 C 466.008 259.135 468.948 274.775 470.548 290.605 C 472.008 304.435 474.288 318.225 476.138 332.005 C 477.018 339.935 478.308 347.795 479.488 355.685 C 480.378 361.595 481.708 367.095 481.878 373.095 C 482.168 382.985 481.528 392.685 482.578 402.585 C 483.338 409.425 483.308 416.275 483.148 423.155 C 482.628 433.925 486.998 445.035 489.668 455.475 C 492.768 467.815 496.218 480.085 499.918 492.255 C 500.074 492.742 500.231 493.228 500.388 493.715 C 496.728 492.485 492.788 490.915 488.938 490.565 C 484.448 490.185 479.918 492.015 476.048 494.125 C 468.848 498.145 462.018 503.565 455.488 508.575 C 448.208 514.165 440.868 518.905 434.278 525.375 C 428.088 531.455 422.178 539.115 415.168 544.275 C 409.948 548.085 404.138 548.515 398.588 551.775 C 395.828 553.265 393.018 555.475 389.838 555.735 C 386.778 556.045 383.608 555.825 380.538 555.755 C 372.8 555.495 364.89 556.285 357.1 556.515 C 350.36 556.805 343.17 556.665 336.75 558.845 C 326.4 562.365 317.82 568.205 308.41 573.545 C 301.87 577.355 295.24 581.035 288.64 584.755 C 282.3 588.395 275.51 591.35 270.66 596.95 C 268.15 599.667 265.8 602.172 264.16 604.11 C 259.23 604.9 252.95 604.625 247.97 604.885 C 240.31 605.245 232.67 605.495 225 605.295 C 219.66 605.125 214.38 604.445 209.02 604.505 C 201.97 604.445 195.14 605.885 188.08 606.025 C 182.79 606.255 177.55 605.775 172.33 604.965 C 166.05 603.975 160.3 604.905 154.04 605.175 C 146.31 605.465 138.78 607.185 131.04 607.425 C 122.03 607.615 113.05 608.195 104.04 607.975 C 91.03 607.865 78.02 608.575 65 608.355 C 58.99 608.185 53.04 607.315 47.01 607.325 C 40.62 607.235 34.41 608.375 28 607.925 C 22.62 607.705 18.05 606.555 12.87 607.085 C 8.58 607.545 4.32 607.895 0 607.595 C 1.21 602.635 2.4 597.335 4.72 592.775 C 16.22 593.775 27.49 595.495 39.08 594.935 C 47.31 595.105 54.22 592.165 61.99 590.095 C 65.01 589.205 67.85 588.295 70.49 586.535 C 79.26 580.355 86.4 569.665 96.24 565.275 C 104.61 561.315 112.66 562.285 121.82 559.815 C 127.58 558.255 133.22 557.165 139.16 556.475 C 137.57 551.435 136.14 546.775 132.1 543.085 C 127.32 538.775 121.71 535.255 116.17 532.025 C 111.39 529.295 106.27 528.415 100.95 530.105 C 89.52 533.755 78.66 539.915 67.7 544.775 C 64.06 546.395 60.47 547.795 57.01 549.775 C 55.57 544.385 54.86 538.875 54.32 533.325 C 61.81 531.905 69.58 530.325 76.79 527.825 C 85.18 524.915 92.27 519.925 100.73 516.835 C 106.14 514.825 111.78 514.005 117.22 512.045 C 120.03 511.095 122.93 509.725 125.87 509.315 C 128.16 510.375 129.86 512.905 131.16 514.995 C 134.44 520.585 136.95 526.745 139.51 532.695 C 142.49 539.755 146.15 546.325 148.48 553.665 C 150.2 559.065 152.15 564.345 154.89 569.315 C 157.14 573.325 159.05 577.745 161.92 581.335 C 164 583.975 167.68 583.795 170.7 583.815 C 179.62 583.315 188.08 582.755 196 578.175 C 194.7 571.555 193.88 564.995 191.35 558.765 C 189.69 554.635 187.82 550.715 186.8 546.345 C 185.39 540.315 184.88 534.205 182.95 528.265 C 180.86 521.805 178.42 515.445 176.14 509.035 C 173.85 502.605 170.71 497.445 169.54 491.035 C 168.57 485.715 167.88 480.485 165.83 475.425 C 163.4 469.355 160.68 463.285 157.68 457.475 C 154.43 451.205 149.45 447.445 144.79 442.385 C 139.63 436.895 136.02 430.915 129.67 426.535 C 124.47 422.955 119.59 419.215 115.93 413.965 C 114.38 406.415 113.69 398.735 111.94 391.205 C 110.92 386.515 109.36 381.895 109.31 377.135 C 109.49 366.635 110.69 356.355 115.58 346.895 C 116 353.195 115.6 359.435 115.56 365.725 C 115.55 371.295 117.81 375.935 120.51 380.635 C 124.22 387.005 126.06 393.895 130.16 400.005 C 136.65 408.655 140.47 418.715 146.62 427.545 C 150.9 433.895 156.41 439.035 161.02 445.155 C 163.74 448.775 167.06 451.775 170.1 455.095 C 173.28 458.545 174.13 463.515 175.29 467.915 C 179.59 484.975 184.21 501.935 188 519.125 C 189.09 524.285 190.52 529.285 192.43 534.205 C 194.09 526.675 194.88 519.675 198.71 512.805 C 205.18 500.985 215.69 490.755 224.66 480.745 C 230.69 474.045 237.56 468.365 243.34 461.435 C 251.11 452.095 258.55 442.525 262.98 431.095 C 266.65 421.565 268.67 411.365 269.15 401.165 C 270.01 386.865 265.65 372.055 260.23 358.955 C 256.81 350.865 253.18 342.245 248.05 335.105 C 237.76 320.755 225.78 307.295 212.21 295.955 C 208.87 293.225 206.72 289.715 204.93 285.845 C 214.83 287.565 224.11 293.015 231.5 299.685 C 238.53 306.665 244.97 314.305 251.11 322.085 C 256.17 328.445 259.81 335.285 263.9 342.275 C 267.49 348.425 270.19 354.955 272.61 361.635 C 279.22 378.945 281.28 398.115 278.25 416.415 C 276.57 426.105 273.08 435.065 268.78 443.875 C 265.48 450.675 260.53 457.025 256.07 463.155 C 251.69 469.165 246.35 473.975 241.21 479.275 C 235.15 485.615 228.41 491.135 222.74 497.855 C 215.97 505.195 209.61 512.475 205.78 521.865 C 201.87 530.955 200.56 541.325 200.15 551.135 C 199.88 559.235 202.19 567.225 208.77 572.375 C 213.4 575.845 218.57 578.575 223.4 581.765 C 225.3 582.775 228.27 584.925 230.4 583.625 C 236.41 580.715 241.01 575.255 246.93 572.035 C 253.79 568.095 261.24 568.135 268.7 565.725 C 275.17 563.725 280.52 559.975 286.15 556.315 C 288.03 554.995 290.26 553.575 291.57 551.655 C 292.32 549.655 292.26 547.275 292.28 545.175 C 292.13 536.685 290.61 527.935 289.74 519.455 C 288.61 508.435 287.78 497.205 287.19 486.135 C 286.84 480.305 287.52 474.775 289.05 469.155 C 291.09 461.625 292.03 453.955 294.4 446.525 C 298.8 432.655 303.19 418.955 306.67 404.815 C 309.06 395.555 311.95 386.865 312.15 377.175 C 312.46 363.665 310.93 350.065 308.31 336.825 C 307.3 331.435 304.59 326.505 303.75 321.125 C 303.25 315.385 304.76 309.335 305.44 303.625 C 306.66 293.965 308.35 284.385 309.57 274.735 C 310.83 264.335 308.84 254.925 307.49 244.695 C 306.2 235.355 303.85 226.215 302.21 216.905 C 301.16 210.935 299.21 205.195 297.93 199.285 C 296.59 193.145 299.26 187.185 301.28 181.515 C 303.88 189.855 304.41 198.435 306.21 206.935 C 308.93 220.005 312.44 232.905 315.18 245.975 C 316.5 252.295 316.59 258.665 316.19 265.075 C 315.78 271.785 316.32 278.475 316.16 285.175 C 315.95 293.625 313.46 300.905 312.17 309.185 C 311.39 314.235 310.5 319.385 310.52 324.495 C 310.59 328.735 312.3 332.415 313.69 336.345 C 314.82 339.325 315.67 342.475 317.03 345.355 C 317.93 347.305 320.08 348.685 321.69 350.025 C 323.38 345.665 324.88 341.305 325.54 336.645 C 326.77 328.365 325.72 320.395 325.27 312.125 C 324.79 304.085 325.2 296.395 323.78 288.405 C 320.24 269.625 317.08 250.175 317.42 231.015 C 317.41 222.785 315.9 214.845 316.52 206.585 C 317.15 199.085 316.81 191.665 316.24 184.175 C 315.29 170.055 317.8 156.206 317.13 142.076 C 316.23 144.146 315.38 146.236 314.49 148.316 C 314.3 142.316 314.16 136.326 314.12 130.336 C 318.71 129.876 324.41 130.006 328.44 127.606 C 333.89 124.426 337.92 119.606 341.32 114.396 C 343.91 110.676 345.93 107.126 350.63 105.906 C 357.26 104.136 363.8 103.156 369.84 99.636 C 371.39 101.246 374.08 102.606 374.17 105.026 C 374.7 109.076 374.87 113.086 376.05 117.016 C 378.018 123.746 379.348 130.606 381.568 137.256 C 388.078 124.406 388.688 107.916 389.698 93.786 C 394.398 92.236 399.008 90.876 403.278 88.296 C 406.818 86.196 409.658 83.816 413.848 83.046 C 417.268 82.216 421.418 82.316 424.548 80.676 C 426.218 78.616 427.218 75.936 428.368 73.556 C 426.648 72.806 424.868 71.896 423.028 71.546 C 420.558 71.656 418.048 73.026 415.848 74.066 C 417.488 70.416 419.308 66.886 421.828 63.756 Z"
    fill="#5a483a"
  />
  <path
    d="M 116.17 532.025 C 121.71 535.255 127.32 538.775 132.1 543.085 C 136.14 546.775 137.57 551.435 139.16 556.475 C 133.22 557.165 127.58 558.255 121.82 559.815 C 112.66 562.285 104.61 561.315 96.24 565.275 C 86.4 569.665 79.26 580.355 70.49 586.535 C 67.85 588.295 65.01 589.205 61.99 590.095 C 54.22 592.165 47.31 595.105 39.08 594.935 C 27.49 595.495 16.22 593.775 4.72 592.775 C 9.13 588.195 14.14 585.115 18.98 581.085 C 25.76 575.505 31.86 569.245 38.94 564.025 C 45.11 559.425 51.2 554.825 57.01 549.775 C 60.47 547.795 64.06 546.395 67.7 544.775 C 78.66 539.915 89.52 533.755 100.95 530.105 C 106.27 528.415 111.39 529.295 116.17 532.025 Z"
    fill="#7e6949"
  />
  <path
    d="M 115.93 413.965 C 119.59 419.215 124.47 422.955 129.67 426.535 C 136.02 430.915 139.63 436.895 144.79 442.385 C 149.45 447.445 154.43 451.205 157.68 457.475 C 160.68 463.285 163.4 469.355 165.83 475.425 C 167.88 480.485 168.57 485.715 169.54 491.035 C 170.71 497.445 173.85 502.605 176.14 509.035 C 178.42 515.445 180.86 521.805 182.95 528.265 C 184.88 534.205 185.39 540.315 186.8 546.345 C 187.82 550.715 189.69 554.635 191.35 558.765 C 193.88 564.995 194.7 571.555 196 578.175 C 188.08 582.755 179.62 583.315 170.7 583.815 C 167.68 583.795 164 583.975 161.92 581.335 C 159.05 577.745 157.14 573.325 154.89 569.315 C 152.15 564.345 150.2 559.065 148.48 553.665 C 146.15 546.325 142.49 539.755 139.51 532.695 C 136.95 526.745 134.44 520.585 131.16 514.995 C 129.86 512.905 128.16 510.375 125.87 509.315 C 122.93 509.725 120.03 511.095 117.22 512.045 C 111.78 514.005 106.14 514.825 100.73 516.835 C 92.27 519.925 85.18 524.915 76.79 527.825 C 69.58 530.325 61.81 531.905 54.32 533.325 C 53.24 526.475 57.43 522.415 61.84 517.925 C 69.09 510.985 74.09 502.585 78.62 493.705 C 83.71 484.245 89.97 475.275 97.48 467.565 C 99.88 465.055 101.93 462.395 102.81 458.965 C 105.17 449.805 106.21 440.125 107.73 430.815 C 108.81 424.365 112.06 419.095 115.93 413.965 Z"
    fill="#7e6949"
  />
  <path
    d="M 170.28 28.786 C 169.07 31.776 167.93 35.056 167.79 38.296 C 167.75 42.436 171.3 45.876 175 47.176 C 184.32 50.556 196.03 46.796 204.83 52.336 C 210.11 55.426 210.84 61.406 214.81 65.056 C 217.66 66.656 222.15 65.286 225.12 64.526 C 223.25 76.076 222.34 87.316 222.29 99.006 C 224.87 94.186 227.77 89.656 231.85 85.946 C 235.77 82.386 239.41 78.696 243 74.806 C 250.9 81.366 259.85 86.826 267.48 93.706 C 275.69 101.876 281.89 113.706 291.04 121.116 C 294.77 124.096 298.77 126.996 303.15 128.916 C 306.68 130.436 310.34 130.566 314.12 130.336 C 314.16 136.326 314.3 142.316 314.49 148.316 C 315.38 146.236 316.23 144.146 317.13 142.076 C 317.8 156.206 315.29 170.055 316.24 184.175 C 316.81 191.665 317.15 199.085 316.52 206.585 C 315.9 214.845 317.41 222.785 317.42 231.015 C 317.08 250.175 320.24 269.625 323.78 288.405 C 325.2 296.395 324.79 304.085 325.27 312.125 C 325.72 320.395 326.77 328.365 325.54 336.645 C 324.88 341.305 323.38 345.665 321.69 350.025 C 320.08 348.685 317.93 347.305 317.03 345.355 C 315.67 342.475 314.82 339.325 313.69 336.345 C 312.3 332.415 310.59 328.735 310.52 324.495 C 310.5 319.385 311.39 314.235 312.17 309.185 C 313.46 300.905 315.95 293.625 316.16 285.175 C 316.32 278.475 315.78 271.785 316.19 265.075 C 316.59 258.665 316.5 252.295 315.18 245.975 C 312.44 232.905 308.93 220.005 306.21 206.935 C 304.41 198.435 303.88 189.855 301.28 181.515 C 299.26 187.185 296.59 193.145 297.93 199.285 C 299.21 205.195 301.16 210.935 302.21 216.905 C 303.85 226.215 306.2 235.355 307.49 244.695 C 308.84 254.925 310.83 264.335 309.57 274.735 C 308.35 284.385 306.66 293.965 305.44 303.625 C 304.76 309.335 303.25 315.385 303.75 321.125 C 304.59 326.505 307.3 331.435 308.31 336.825 C 310.93 350.065 312.46 363.665 312.15 377.175 C 311.95 386.865 309.06 395.555 306.67 404.815 C 303.19 418.955 298.8 432.655 294.4 446.525 C 292.03 453.955 291.09 461.625 289.05 469.155 C 287.52 474.775 286.84 480.305 287.19 486.135 C 287.78 497.205 288.61 508.435 289.74 519.455 C 290.61 527.935 292.13 536.685 292.28 545.175 C 292.26 547.275 292.32 549.655 291.57 551.655 C 290.26 553.575 288.03 554.995 286.15 556.315 C 280.52 559.975 275.17 563.725 268.7 565.725 C 261.24 568.135 253.79 568.095 246.93 572.035 C 241.01 575.255 236.41 580.715 230.4 583.625 C 228.27 584.925 225.3 582.775 223.4 581.765 C 218.57 578.575 213.4 575.845 208.77 572.375 C 202.19 567.225 199.88 559.235 200.15 551.135 C 200.56 541.325 201.87 530.955 205.78 521.865 C 209.61 512.475 215.97 505.195 222.74 497.855 C 228.41 491.135 235.15 485.615 241.21 479.275 C 246.35 473.975 251.69 469.165 256.07 463.155 C 260.53 457.025 265.48 450.675 268.78 443.875 C 273.08 435.065 276.57 426.105 278.25 416.415 C 281.28 398.115 279.22 378.945 272.61 361.635 C 270.19 354.955 267.49 348.425 263.9 342.275 C 259.81 335.285 256.17 328.445 251.11 322.085 C 244.97 314.305 238.53 306.665 231.5 299.685 C 224.11 293.015 214.83 287.565 204.93 285.845 C 206.72 289.715 208.87 293.225 212.21 295.955 C 225.78 307.295 237.76 320.755 248.05 335.105 C 253.18 342.245 256.81 350.865 260.23 358.955 C 265.65 372.055 270.01 386.865 269.15 401.165 C 268.67 411.365 266.65 421.565 262.98 431.095 C 258.55 442.525 251.11 452.095 243.34 461.435 C 237.56 468.365 230.69 474.045 224.66 480.745 C 215.69 490.755 205.18 500.985 198.71 512.805 C 194.88 519.675 194.09 526.675 192.43 534.205 C 190.52 529.285 189.09 524.285 188 519.125 C 184.21 501.935 179.59 484.975 175.29 467.915 C 174.13 463.515 173.28 458.545 170.1 455.095 C 167.06 451.775 163.74 448.775 161.02 445.155 C 156.41 439.035 150.9 433.895 146.62 427.545 C 140.47 418.715 136.65 408.655 130.16 400.005 C 126.06 393.895 124.22 387.005 120.51 380.635 C 117.81 375.935 115.55 371.295 115.56 365.725 C 115.6 359.435 116 353.195 115.58 346.895 C 118.8 337.545 120.03 327.935 121.01 318.135 C 122.42 308.725 123.31 299.535 123.81 290.045 C 125.35 277.115 125.6 264.135 126.69 251.175 C 127.78 227.015 131.18 203.205 134.12 179.235 C 135.43 165.875 137.37 152.596 138.29 139.196 C 139.43 128.826 140.79 118.486 141.74 108.096 C 142.53 99.076 145.26 90.686 148.02 82.136 C 150.1 75.396 152.5 68.866 155.33 62.406 C 160.67 50.586 161.59 39.126 170.28 28.786 Z"
    fill="#7e6949"
  />
  <path
    d="M 316.96 401.825 C 319.7 409.685 320.67 417.655 322.3 425.765 C 323.84 433.545 324.71 441.395 325.69 449.255 C 327.03 460.355 329.5 470.855 328.79 482.145 C 328.36 489.705 324.58 495.985 322.23 503.355 C 319.41 511.285 318.26 519.695 315.36 527.575 C 311.92 536.115 306.52 543.715 298.46 548.435 C 298.48 539.715 298.95 530.855 298.64 522.155 C 298.42 515.795 297.39 509.545 297.19 503.185 C 296.93 496.445 297.49 489.845 298.04 483.135 C 298.6 476.505 298.99 469.695 300.04 463.135 C 301.46 453.965 304.68 445.085 306.89 435.925 C 309.62 424.385 313.06 413.015 316.96 401.825 Z"
    fill="#7e6949"
  />
  <path
    d="M 261.72 57.576 C 264.24 58.226 266.56 60.056 268.74 61.436 C 264.97 64.016 261 66.186 256.67 67.676 C 251.64 69.466 246.89 70.926 243 74.806 C 239.41 78.696 235.77 82.386 231.85 85.946 C 227.77 89.656 224.87 94.186 222.29 99.006 C 222.34 87.316 223.25 76.076 225.12 64.526 C 234.27 61.686 243.62 59.726 253.04 58.026 C 255.83 57.606 258.91 57.086 261.72 57.576 Z"
    fill="#5a483a"
  />
  <path
    d="M 423.028 71.546 C 424.868 71.896 426.648 72.806 428.368 73.556 C 427.218 75.936 426.218 78.616 424.548 80.676 C 421.418 82.316 417.268 82.216 413.848 83.046 C 409.658 83.816 406.818 86.196 403.278 88.296 C 399.008 90.876 394.398 92.236 389.698 93.786 C 388.688 107.916 388.078 124.406 381.568 137.256 C 379.348 130.606 378.018 123.746 376.05 117.016 C 374.87 113.086 374.7 109.076 374.17 105.026 C 374.08 102.606 371.39 101.246 369.84 99.636 C 366.84 96.676 364.87 93.396 361.57 90.766 C 359.57 89.086 357.14 87.646 355.46 85.646 C 355.24 83.866 355.44 81.946 355.52 80.156 C 362.42 81.096 369.47 81.596 375.93 84.336 C 379.128 85.566 382.578 87.566 386.008 87.856 C 389.268 87.886 392.718 86.136 395.598 84.716 C 402.338 81.156 409.148 77.726 415.848 74.066 C 418.048 73.026 420.558 71.656 423.028 71.546 Z"
    fill="#7e6949"
  />
  <path
    d="M 237.01 0.016 C 247.23 -0.284 257.41 3.586 266.71 7.426 C 276.48 11.336 286.18 15.726 296.16 18.986 C 306.57 22.176 316.8 26.056 327.31 28.876 C 342.93 32.366 358.16 37.016 373.49 41.566 C 385.238 44.616 397.078 48.246 408.308 52.866 C 413.958 55.166 417.878 59.286 421.828 63.756 C 419.308 66.886 417.488 70.416 415.848 74.066 C 409.148 77.726 402.338 81.156 395.598 84.716 C 392.718 86.136 389.268 87.886 386.008 87.856 C 382.578 87.566 379.128 85.566 375.93 84.336 C 369.47 81.596 362.42 81.096 355.52 80.156 C 355.44 81.946 355.24 83.866 355.46 85.646 C 357.14 87.646 359.57 89.086 361.57 90.766 C 364.87 93.396 366.84 96.676 369.84 99.636 C 363.8 103.156 357.26 104.136 350.63 105.906 C 345.93 107.126 343.91 110.676 341.32 114.396 C 337.92 119.606 333.89 124.426 328.44 127.606 C 324.41 130.006 318.71 129.876 314.12 130.336 C 310.34 130.566 306.68 130.436 303.15 128.916 C 298.77 126.996 294.77 124.096 291.04 121.116 C 281.89 113.706 275.69 101.876 267.48 93.706 C 259.85 86.826 250.9 81.366 243 74.806 C 246.89 70.926 251.64 69.466 256.67 67.676 C 261 66.186 264.97 64.016 268.74 61.436 C 266.56 60.056 264.24 58.226 261.72 57.576 C 258.91 57.086 255.83 57.606 253.04 58.026 C 243.62 59.726 234.27 61.686 225.12 64.526 C 222.15 65.286 217.66 66.656 214.81 65.056 C 210.84 61.406 210.11 55.426 204.83 52.336 C 196.03 46.796 184.32 50.556 175 47.176 C 171.3 45.876 167.75 42.436 167.79 38.296 C 167.93 35.056 169.07 31.776 170.28 28.786 C 172.38 26.136 175.41 24.056 178.27 22.326 C 190.15 15.236 204.92 11.886 217.74 6.796 C 224.26 4.176 229.79 0.266 237.01 0.016 Z"
    fill="#987e5a"
  />

  <path
    d="M 406.068 239.625 C 408.088 240.355 409.548 240.935 409.978 243.265 C 411.438 250.095 409.018 257.945 405.998 264.085 C 404.028 267.895 401.628 272.065 397.258 273.405 C 391.908 274.995 385.208 275.335 380.708 271.475 C 372.62 264.635 366.84 255.285 364.76 244.855 C 367.54 244.795 369.83 243.805 372 246.105 C 376.99 250.885 381.178 258.475 387.858 262.375 C 390.458 264.065 394.138 262.055 396.098 260.205 C 401.418 254.935 400.738 244.805 406.068 239.625 Z"
    fill="#808080"
    data-player="true"
  />
  <path
    d="M 409.978 292.135 C 412.448 292.855 416.608 293.835 417.808 296.345 C 419.018 299.975 418.328 304.415 417.988 308.145 C 417.488 312.035 416.768 316.455 414.728 319.865 C 413.468 322.175 410.368 322.875 408.108 323.865 C 407.468 316.495 408.098 309.255 407.998 301.875 C 401.728 301.715 395.838 302.005 390.418 305.525 C 388.518 306.875 385.558 308.715 386.828 311.455 C 388.528 316.145 391.498 320.335 393.508 324.915 C 390.408 324.855 386.798 325.245 383.848 324.165 C 380.878 322.495 379.038 318.555 377.55 315.615 C 375.93 311.825 373.86 307.455 376.49 303.605 C 383.538 293.025 397.968 288.855 409.978 292.135 Z"
    fill="#808080"
    data-player="true"
  />
  <path
    d="M 346.69 250.445 C 352.34 253.815 357.18 258.745 361.61 263.565 C 365.11 267.665 369.09 272.285 370.83 277.465 C 371.92 280.705 370.81 283.565 369.3 286.425 C 364.06 295.725 357.02 303.395 352.14 312.915 C 355.68 317.375 358.8 322.045 361.15 327.245 C 356.99 326.235 353.14 325.315 350 322.185 C 346.71 318.935 343.82 314.985 344.87 310.105 C 346.49 301.275 353.87 293.105 358.43 285.485 C 359.49 283.635 360.89 281.415 360.94 279.235 C 360.39 277.165 358.93 275.235 357.64 273.555 C 352.53 267.315 347.13 261.385 340.78 256.385 C 338.12 254.275 337.31 252.475 336.71 249.145 C 340.24 248.695 343.54 248.505 346.69 250.445 Z"
    fill="#808080"
    data-player="true"
  />
  <path
    d="M 432.168 229.595 C 431.108 240.345 424.718 248.405 422.658 258.875 C 422.228 261.585 421.528 264.315 423.668 266.505 C 429.368 272.555 438.058 276.265 443.438 282.715 C 446.408 286.325 446.768 290.995 445.208 295.305 C 442.958 301.505 438.898 307.695 434.258 312.375 C 431.608 315.095 428.338 315.775 424.808 316.725 C 425.488 312.245 426.588 308.005 428.978 304.105 C 431.688 299.605 433.718 295.185 435.398 290.195 C 429.728 284.645 423.568 279.735 417.388 274.795 C 414.708 272.465 411.378 269.875 411.128 266.045 C 410.688 260.485 413.118 254.465 415.408 249.495 C 418.088 244.045 420.878 238.465 424.538 233.605 C 426.468 230.875 429.188 230.525 432.168 229.595 Z"
    fill="#808080"
    data-player="true"
  />
  <path
    d="M 387.498 335.415 C 389.408 335.005 393.638 334.395 394.268 336.935 C 396.118 340.905 396.478 345.775 397.208 350.075 C 399.598 364.545 402.008 379.095 403.368 393.705 C 403.838 397.925 403.588 403.195 406.708 406.445 C 412.068 412.305 419.488 417.835 422.558 425.555 C 424.688 431.645 424.188 438.825 422.938 445.065 C 421.898 450.545 418.778 456.455 419.148 461.995 C 420.248 472.805 428.988 481.755 427.718 492.975 C 426.738 501.085 420.458 508.785 414.688 514.225 C 414.138 511.855 413.068 509.415 413.868 506.985 C 415.658 500.855 419.528 495.995 418.048 489.205 C 416.018 480.315 409.688 472.125 409.018 462.095 C 408.608 455.275 413.058 450.225 413.978 443.175 C 414.628 438.245 414.538 432.415 412.198 427.905 C 409.238 422.605 404.418 418.155 400.258 413.765 C 394.698 421.035 389.008 428.215 383.158 435.255 C 378.928 440.355 374.21 445.015 369.98 450.105 C 367.82 452.795 365.64 455.695 365.16 459.205 C 364.59 463.665 365.48 468.525 366.08 472.965 C 367.4 481.655 367.75 490.425 369.14 499.105 C 370.45 507.925 371.73 517.435 369.05 526.125 C 367.99 529.855 365.6 532.495 363.02 535.265 C 362.03 529.575 362.08 523.885 362.19 518.135 C 362.32 506.325 359.7 495.765 357.95 484.185 C 356.53 475.135 353.9 465.245 354.94 456.085 C 355.5 451.015 358.23 447.255 361.19 443.295 C 369.91 432.035 381.368 421.535 389.278 409.355 C 392.888 403.715 392.338 397.745 391.848 391.375 C 390.668 380.115 389.358 368.855 387.488 357.695 C 386.728 352.915 385.848 347.925 385.808 343.085 C 385.818 340.365 386.058 337.785 387.498 335.415 Z"
    fill="#808080"
    data-player="true"
  />
  <path
    d="M 409.068 338.815 C 411.438 340.525 413.018 342.475 413.828 345.325 C 416.738 355.475 416.908 366.375 419.788 376.525 C 420.958 380.525 423.878 382.775 427.138 385.055 C 433.208 389.205 439.228 392.805 442.308 399.875 C 446.018 408.385 443.138 419.515 444.908 428.185 C 445.768 432.845 450.798 435.395 454.478 437.645 C 461.338 441.315 467.168 446.355 473.788 450.375 C 477.018 452.455 480.298 454.465 482.188 457.955 C 484.138 461.495 484.158 465.115 484.188 469.035 C 478.468 466.165 474.768 461.065 469.358 457.825 C 461.248 452.875 452.828 448.435 444.768 443.405 C 440.548 440.555 435.498 437.165 434.468 431.795 C 432.908 423.975 434.928 415.055 434.098 407.135 C 433.818 404.245 432.808 401.545 430.688 399.515 C 426.308 395.245 419.938 393.185 415.538 388.605 C 412.418 385.425 410.968 381.435 410.008 377.165 C 408.428 369.775 408.378 361.655 407.888 354.115 C 407.638 348.735 406.918 343.935 409.068 338.815 Z"
    fill="#808080"
    data-player="true"
  />
  <path
    d="M 376.2 152.706 C 377.898 152.206 379.988 152.336 380.898 154.106 C 383.228 158.606 383.978 164.056 385.248 168.945 C 388.398 181.895 389.458 195.045 389.738 208.335 C 389.688 211.035 389.768 214.245 388.608 216.725 C 387.428 219.335 383.268 220.005 381.518 217.675 C 379.508 215.075 378.728 211.315 378.028 208.155 C 376.37 199.495 375.44 190.665 374.34 181.915 C 373.49 174.225 372.38 166.375 372.63 158.636 C 372.8 155.976 373.32 153.566 376.2 152.706 Z"
    fill="#808080"
    data-player="true"
  />

  <path
    d="M 273.68 493.755 C 276.12 492.775 279.12 493.425 281.67 493.665 C 279.34 498.325 276.84 502.905 274.32 507.455 C 270.78 513.805 265.97 521.455 258.6 523.665 C 250.88 525.615 242.19 524.755 234.59 522.555 C 231.73 521.895 229.23 521.065 226.47 522.625 C 222.57 524.725 218.89 526.755 214.45 527.565 C 215.61 524.225 216.98 521.145 219.61 518.695 C 225.25 513.275 231.95 508.005 239.49 505.625 C 247.3 503.105 255.19 502.195 262.88 498.885 C 266.57 497.375 269.96 495.165 273.68 493.755 Z"
    fill="#808080"
    data-player="true"
  />
  <path
    d="M 211.91 400.245 C 216.28 401.175 219.64 404.475 222.24 407.935 C 229.42 418.035 233.66 430.045 233.09 442.535 C 226.69 438.515 221.93 432.395 215.34 428.855 C 209.22 425.645 203.05 426.135 196.73 424.295 C 193.28 423.275 191.47 420.345 189.76 417.425 C 187.17 412.675 184.97 407.725 182.32 403.005 C 186.9 403.065 191.41 402.955 195.9 401.945 C 201.03 400.875 206.66 399.175 211.91 400.245 Z"
    fill="#808080"
    data-player="true"
  />
  <path
    d="M 139.11 327.175 C 144.42 328.015 149.52 330.485 154.31 332.855 C 158.64 335.095 162.84 337.335 165.44 341.665 C 168.1 346.135 169.82 350.925 173.22 354.975 C 175.53 357.725 176.96 360.105 177.84 363.615 C 169.65 362.735 161.63 359.685 153.76 357.265 C 148.82 355.665 146.96 351.575 144.9 347.215 C 142.22 340.975 139.49 334.005 139.11 327.175 Z"
    fill="#808080"
    data-player="true"
  />
  <path
    d="M 221.59 325.865 C 226.66 334.495 232.9 342.465 233.54 352.725 C 234.45 362.325 230.33 370.655 224.04 377.615 C 220.36 375.285 217.04 372.965 215.34 368.765 C 212.15 362.235 212.79 355.525 214.51 348.695 C 216.42 341.045 218.35 333.075 221.59 325.865 Z"
    fill="#808080"
    data-player="true"
  />
  <path
    d="M 156.94 286.195 C 160.51 288.945 163.9 291.945 167.25 294.945 C 172.56 299.675 175.57 306.485 178.27 312.935 C 181.72 321.925 183.97 331.745 180.65 341.135 C 177.59 337.635 174.75 334.005 171.58 330.595 C 168.82 327.605 166.06 324.795 163.81 321.355 C 159.49 314.745 157.06 307.575 155.02 300.005 C 153.65 294.885 151.83 289.355 151.63 284.055 C 153.77 284.295 155.24 284.885 156.94 286.195 Z"
    fill="#808080"
    data-player="true"
  />
  <path
    d="M 288.77 296.405 C 285.34 303.125 280.23 308.865 273.89 312.955 C 269.82 315.475 265.56 315.785 260.92 316.225 C 261.34 312.865 261.49 309.365 263.26 306.385 C 265.74 302.225 269.78 298.925 274.42 297.465 C 279.06 295.975 283.96 296.275 288.77 296.405 Z"
    fill="#808080"
    data-player="true"
  />
  <path
    d="M 287.4 234.615 C 289 244.095 287.37 254.285 284.06 263.255 C 282.19 268.335 279.1 272.585 274.53 275.555 C 269.29 278.975 264.22 282.495 259.22 286.245 C 259.08 281.175 259.11 276.125 259.83 271.095 C 260.74 264.855 261.71 258.935 265.72 253.845 C 270.54 247.765 276.51 242.545 282.16 237.245 C 283.58 236.185 285.47 234.045 287.4 234.615 Z"
    fill="#808080"
    data-player="true"
  />
  <path
    d="M 234.78 120.326 C 238.2 121.076 242.68 122.556 244.66 125.656 C 244.98 127.336 244.8 129.166 244.73 130.876 C 233.4 128.846 220.55 128.016 209.79 132.866 C 203.43 135.656 196.65 138.886 191.38 143.466 C 184.09 149.746 178.05 157.456 174.29 166.355 C 169.98 176.925 167.03 187.635 167.92 199.175 C 168.95 214.505 173.54 231.445 183.77 243.275 C 182.85 238.205 181.61 233.135 180.99 228.055 C 179.01 210.545 182.68 192.545 192.92 178.045 C 198.95 169.095 206.84 161.756 217.25 158.326 C 221.44 156.996 226.79 155.636 231.1 156.996 C 233.18 157.486 233.62 160.406 234.4 162.096 C 228.86 163.166 223.61 164.136 218.48 166.645 C 210.43 170.535 203.75 177.565 198.95 185.015 C 191.73 196.715 188.34 210.445 188.99 224.165 C 189.05 234.465 192.09 243.625 194 253.615 C 190.1 253.985 185.97 254.585 182.07 254.125 C 178.87 253.795 176.59 250.785 174.73 248.435 C 170.58 242.755 166.87 236.605 163.92 230.215 C 160.15 222.065 159.26 212.815 158.26 203.975 C 157.16 193.655 157.17 183.445 160.31 173.455 C 163.86 160.736 170.83 149.466 179.66 139.736 C 186.24 132.586 194.5 128.226 203.29 124.376 C 212.96 120.246 224.38 118.216 234.78 120.326 Z"
    fill="#808080"
    data-player="true"
  />
</svg>
