<svg xmlns="http://www.w3.org/2000/svg" viewBox="0 0 50 57">
  <path
    d="M40 29a6.676 6.676 0 0 1 3.561-7.28l5.32-2.899-.143-.214c-1.23-1.845-2.925-3.169-4.897-4.341-.886-.527-1.697-.931-2.333-1.668C38.66 9.302 40 4 40 4l-7 3-8-7-8 7-7-3s1.34 5.302-1.507 8.598c-.637.737-1.447 1.141-2.333 1.668-1.972 1.172-3.667 2.495-4.897 4.341l-.143.213 5.32 2.899A6.678 6.678 0 0 1 10 29s-8.813-2.438-10-4l7 10s7.875-4.813 10 8c0 0 1 3.938-4 3l7 11s.485-.889 1.069-2.364c2.558-6.456 1.915-13.702-1.405-19.801C17.363 30.608 14.34 22.746 18 15c0 0 1.313-3 7-3s7 3 7 3c3.66 7.746.637 15.608-1.665 19.836-3.32 6.099-3.963 13.345-1.405 19.801C29.515 56.111 30 57 30 57l7-11c-5 .938-4-3-4-3 2.125-12.813 10-8 10-8l7-10c-1.187 1.563-10 4-10 4Z"
    fill="#e64c3c"
  /><path d="m30 23-5-7-5 7 5 7z" fill="#e64c3c" />
</svg>
