<svg xmlns="http://www.w3.org/2000/svg" viewBox="31.769 0 136.348 376.321">
  <path
    d="M34.49 339.206h130.528v19.854H34.49z"
    fill="#e88813"
  /><ellipse
    cx="99.441"
    cy="359.059"
    rx="64.951"
    ry="17.262"
    fill="#e88813"
  /><ellipse
    cx="99.441"
    cy="339.206"
    rx="64.951"
    ry="17.262"
    fill="#f9b843"
  /><path
    d="M77.409 114.654h48v224h-48z"
    fill="#4c5254"
  /><path
    d="M77.409 114.654h48v224"
    fill="#202d2a"
  /><path
    d="M125.409 337.854c0 3.2-10.4 6.4-24 6.4s-24-2.4-24-6.4 10.4-6.4 24-6.4 24 3.2 24 6.4Z"
    fill="#4c5254"
  /><path
    fill="#2980BA"
    d="M101.306 29.998c21.838 0 39.54 17.702 39.54 39.539 0 21.838-17.702 39.54-39.54 39.54-21.837 0-39.539-17.702-39.539-39.54 0-21.836 17.702-39.539 39.539-39.539Z"
  /><path
    fill="#EDF0F1"
    d="M99.943 0c37.65 0 68.174 30.523 68.174 68.174 0 37.651-30.524 68.174-68.174 68.174-37.651 0-68.174-30.523-68.174-68.174C31.769 30.523 62.292 0 99.943 0Z"
  /><path
    fill="#3B97D3"
    d="M101.306 29.998c21.838 0 39.54 17.702 39.54 39.539 0 21.838-17.702 39.54-39.54 39.54-21.837 0-39.539-17.702-39.539-39.54 0-21.836 17.702-39.539 39.539-39.539Z"
  /><path
    fill="#2980BA"
    d="M104.033 106.35c-21.837 0-39.539-17.702-39.539-39.54a39.391 39.391 0 0 1 10.252-26.56c-7.972 7.233-12.979 17.676-12.979 29.287 0 21.838 17.702 39.54 39.539 39.54 11.615 0 22.056-5.007 29.288-12.979a39.378 39.378 0 0 1-26.561 10.252Z"
  /><path
    fill="#35495E"
    d="M101.306 51.819c9.786 0 17.719 7.933 17.719 17.718 0 9.786-7.933 17.719-17.719 17.719-9.785 0-17.718-7.933-17.718-17.719 0-9.785 7.933-17.718 17.718-17.718Z"
  /><path
    fill="#fff"
    d="M113.582 47.734c5.266 0 9.533 4.272 9.533 9.542 0 5.269-4.267 9.541-9.533 9.541-5.263 0-9.534-4.272-9.534-9.541 0-5.27 4.271-9.542 9.534-9.542Z"
  /><path
    fill="#BDC2C7"
    d="M99.943 5.454c36.736 0 66.671 29.061 68.104 65.447.035-.907.07-1.812.07-2.727C168.117 30.523 137.594 0 99.943 0 62.292 0 31.769 30.523 31.769 68.174c0 .915.033 1.82.069 2.727C33.271 34.515 63.207 5.454 99.943 5.454Z"
  />
</svg>
