<svg xmlns="http://www.w3.org/2000/svg" viewBox="0 0 801.257 1142.372">
  <path
    data-player="true"
    fill="#cbe3f0"
    d="M339.852 4.832c54.344-7.36 82.722-5.61 125.29.54 4.086.59 8 1.99 12.01 3.03 25.02 6.35 49.26 15.89 71.96 28.15 24.13 13.21 46.3 29.83 66.01 49 24.31 24.19 44.54 52.65 59.52 83.49 13.3 26.84 21.88 56.14 26.03 85.77 2.32 18.84 2.93 38.07 1.91 57.02-3.63 67.48-31.56 133.65-77.64 183.12-10.76 11.907-22.87 22.317-35.32 32.417-4.19-.34-8.34 2.65-12.34 3.93-38.03 13.73-79.07 20.12-119.46 17.56-36.24-2.35-72.14-11.48-104.96-27.04-39.38-18.75-75.13-46.497-103.1-79.957-21.37-25.85-38.77-55.1-50.32-86.63-22.2-57.89-26.42-122.27-11.89-182.55 11.08-47.12 34.47-91.41 66.4-127.72 4.52-5.31 9.7-9.99 14.18-15.31l-2.3.01c13.15-6.39 26.87-11.71 40.82-16.07 10.92-3.59 21.858-7.22 33.2-8.76Z"
  /><path
    data-player="true"
    fill="#aac9d7"
    d="m265.832 29.662 2.3-.01c-4.48 5.32-9.66 10-14.18 15.31-31.93 36.31-55.32 80.6-66.4 127.72-14.53 60.28-10.31 124.66 11.89 182.55 11.55 31.53 28.95 60.78 50.32 86.63 27.97 33.46 63.72 61.207 103.1 79.957 32.82 15.56 68.72 24.69 104.96 27.04 40.39 2.56 81.43-3.83 119.46-17.56 4-1.28 8.15-4.27 12.34-3.93-11.12 8.86-22.72 17.09-34.99 24.28-79.06 46.66-179.62 53.78-264.91 20.28-38.32-15.03-73.81-37.97-103.09-66.91-15.63-15.637-29.77-32.627-41.76-51.227-14.58-22.47-25.69-47.02-33.4-72.66-14.83-47.74-17.04-99.38-6.42-148.23 6.86-31.86 19.53-62.53 36.54-90.3 29.85-48.52 72.57-88.56 124.24-112.94Z"
  /><path
    data-player="true"
    fill="#fff"
    d="M474.222 61.332c16.01-2.87 33.34 3.29 45.88 13.21 11.91 9.35 20.91 22.29 25.2 36.84 3.41 11.22 4.1 23.16.57 34.45-3.23 10.52-9.88 19.87-19.18 25.85-5.52 3.59-11.82 5.63-18.28 6.66-12.07 1.67-24.92-1.85-35.51-7.59-14.52-7.95-26.03-21.44-32.29-36.69-3.68-9.42-5.82-20.13-4.5-30.23 1.26-10.2 5.17-19.96 11.95-27.74 6.65-7.78 16.07-13.09 26.16-14.76Z"
  /><path
    fill="#ffcd5a"
    d="M97.802 129.822c1.15 3.75-.54 6.6-2.15 9.82-19.31 35.72-32.9 74.82-38.94 115.01-8.25 58.99.34 120.5 22.5 175.68 11.74 28.3 26.93 55.08 45.94 79.137 23.13 29.78 51.24 55.61 82.84 76.18 47.67 31.56 102.96 51.31 159.86 56.95 37.44 3.66 75.17 1.7 111.76-7.29 61.43-14.61 119.55-45.72 164.87-89.82 17.66-17.26 33.44-36.39 46.97-57.037 31.92-48.32 50.94-104.91 55.04-162.65 1.14-15.93 1.47-32.01.29-47.95-1.74-29.17-7.98-58.16-17.4-85.79-6.35-18.66-14.61-36.51-23.91-53.87-2.04-3.49-2.29-8.11.36-11.34 3.01-3.69 9.19-3.77 12.71-.75 2.46 2.17 4.28 5.14 6.3 7.71 14.52 18.92 26.86 39.32 37.25 60.77 17.26 35.01 28.92 72.68 34.58 111.3 9.46 64.85 4.56 131.53-17.3 193.49-5.49 15.557-12.4 30.457-19.85 45.157-23.56 46.51-56.6 87.93-96.21 121.78-40.84 35.1-88.79 61.41-140.08 77.74-32.74 10.61-67.08 16.56-101.43 18.21-23.07.67-46.03.6-68.95-2.51-25.31-3.01-50.17-8.61-74.54-16.04-49.85-15.76-96.51-41.28-136.81-74.57-15.62-13.28-30.52-27.51-44.11-42.86-25.41-28.41-46.28-61.07-62.19-95.67-21.06-45.677-32.77-95.407-34.93-145.627-1.37-37.69 2.44-75.53 11.23-112.2 12.44-51.39 35.81-99.58 67.37-141.92 1.97-2.59 3.32-5.17 6.5-6.47 4.84-2.39 10.98.2 12.43 5.43Z"
  /><path
    fill="#638098"
    d="M278.312 743.709c24.37 7.43 49.23 13.03 74.54 16.04 22.92 3.11 45.88 3.18 68.95 2.51 34.35-1.65 68.69-7.6 101.43-18.21 16.11 89.52 31.06 179.2 46.97 268.771 3.44 18.64 6.44 37.41 10.32 55.96-3.9.26-7.8.3-11.7.26-77.33-.04-154.67-.01-232 .01-5.68.17-11.33-.28-17-.41-32.65.04-65.3-.02-97.95 0 10.62-60.76 20.85-121.581 31.46-182.351 8.26-47.53 16.34-95.12 24.98-142.58Z"
  /><path
    fill="#60574e"
    d="M192.792 1069.22c9.6-1.15 19.42-.28 29.08-.58 32.65-.02 65.3.04 97.95 0 5.67.13 11.32.58 17 .41 77.33-.02 154.67-.05 232-.01 3.9.04 7.8 0 11.7-.26 8.4-.12 16.93-.37 25.31.16 18.85 1.29 35.51 15.58 39.96 33.89 2.99 13.15 5.59 26.48 9.36 39.42-44.41.24-88.9.04-133.33.1-125.12-.03-250.41.05-375.52-.04 2.92-10.32 5.15-20.85 7.51-31.32 1.28-6.66 2.73-13.04 6.18-18.96 6.81-12.04 18.96-21.04 32.8-22.81Z"
  />
</svg>
