<svg xmlns="http://www.w3.org/2000/svg" viewBox="0 0 892.114 829.621">
  <path
    fill="#b77861"
    d="M327.776 254.486c.41 33.67-.06 67.353.16 101.033.1 9.65-.02 42.619-.09 52.269-5.6-.06-11.34-.24-16.91.2-.48 6.58-.19 279.781-.21 421.411-23.983-.02-47.953-.01-71.933 0-34.52-.14-69.06.25-103.58-.17.06-127.49 0-254.98-.02-382.47 7.26-4.88 11.97-11.27 18.38-17.46 7.88-8.47 16.25-16.41 24.52-24.48 10.43-10.92 21.35-21.33 31.89-32.12 2.86-3.09 5.36-6.31 8.76-8.85.2 5.23.24 10.44.12 15.67-.26 14.01-.12 27.99-.04 42-.1 135.74.13 271.55-.02 407.29 2.93 0 5.85-.01 8.77-.03-.03-80.41-.12-160.87-.1-241.26.13-61.67-.07-123.33-.01-185 .08-15.94-.33-31.84.38-47.77 4.28-3.79 8.18-7.93 12.21-11.97 13.99-14 27.96-28.04 42.1-41.89 6.75-6.943 13.35-13.983 20.53-20.483 5.843-5.21 10.523-11.43 16.183-16.81 3.06-2.95 6.03-5.98 8.91-9.11Zm236.06.84c7.69 7.03 14.9 14.52 22.13 22.02 15.13 14.53 29.75 29.583 44.57 44.413 13.78 12.91 26.41 27.02 40.31 39.81-.1 100.29.08 200.65-.01 300.95.18 55.43-.06 110.85.15 166.28 2.82-.01 5.64-.04 8.46-.09-.14-141.73-.01-283.46-.06-425.19-.05-10.69.27-21.38.33-32.07 5.01 4.37 9.7 9.06 14.31 13.84 9.31 9.36 18.65 18.69 28.03 27.97 9.11 9.56 18.64 18.69 28 28.01 4.34 4.29 7.64 9.18 12.72 12.73.17 6.85.25 13.67.19 20.52-.02 109 .02 218 0 327-.08 9.28.27 18.49-.19 27.76-60.63.26-121.28.02-181.91.12-.11-12.3-.16-24.59-.1-36.88.01-129.67.08-378.321-.04-384.641-5.68-.19-11.35-.23-17.03-.08-.01-23.65.05-70.629.01-94.279.2-19.403-.26-38.803.13-58.193Zm-113.74-113.09c9.41 7.79 17.78 16.94 26.49 25.49 26.26 25.76 52.01 52.08 78.13 77.97.53 19.94.38 39.87.34 59.823-.03 26.34.03 76.019-.01 102.359-35.08-.29-70.16.02-105.24-.16.2-6.96.21-37.239.18-44.199-.08-64.953.02-130.043-.13-195.003.06-8.78.46-17.5.24-26.28Zm-9.27.08c.47 7.07.4 14.13.35 21.2-.16 73.64.07 170.612-.17 244.242-34.82.08-69.65-.08-104.48.1-.24-40.33-.06-104.009-.12-144.342-.06-5.88.33-11.74.42-17.61 29.75-29.73 59.65-59.3 89.18-89.18 4.8-4.97 9.45-10.02 14.82-14.41Z"
  /><path
    fill="#9d5f48"
    d="M210.383 296.346c-1.36 8.083-4.52 16.773-1.97 24.723 3.53-2.6 6.8-5.46 9.41-9.02.84 3.79 1.29 7.59 1.04 11.48-.75 13.41-.37 26.9-.12 40.32-3.4 2.54-5.9 5.76-8.76 8.85-10.54 10.79-21.46 21.2-31.89 32.12-8.27 8.07-16.64 16.01-24.52 24.48-6.41 6.19-11.12 12.58-18.38 17.46-.08-18.75-.13-37.49-.01-56.24.05-5.01-.21-10-.38-15 1.91-5.61 3.55-10.85 7.67-15.31 4.34-4.66 9.18-8.86 14.24-12.71-3.07 10.75-6.32 21.13-6.4 32.46 5.83-5.68 9.41-12.9 13.89-20.04 5.67-10.01 11.2-20.09 16.91-30.08 3.47-6.11 5.8-12.02 11.1-16.91 6.14-5.48 11.72-11.47 18.17-16.583Zm470.863-.08c12.24 10.613 23.45 22.453 35.32 33.473 4.77 4.53 9.83 8.89 14.19 13.8 9.31 10.92 14.79 22.88 21.8 35.22 3.52 6.88 7.56 13.44 10.53 20.52-.35 18.24.05 36.48-.31 54.72-5.08-3.55-8.38-8.44-12.72-12.73-9.36-9.32-18.89-18.45-28-28.01-9.38-9.28-18.72-18.61-28.03-27.97-4.61-4.78-9.3-9.47-14.31-13.84-.12-11.31-.42-22.61-.1-33.93.53-13.78.16-27.51 1.63-41.253Zm-353.76-111.95c0 6.41.1 12.8.35 19.2.56 17-.32 33.98-.06 50.97a205.324 205.324 0 0 1-8.91 9.11c-5.66 5.38-10.34 11.6-16.183 16.81-7.18 6.5-13.78 13.54-20.53 20.483-14.14 13.85-28.11 27.89-42.1 41.89-4.03 4.04-7.93 8.18-12.21 11.97.1-11.43-.38-22.82-.74-34.23-.27-5.83 1.04-11.39 1.48-17.14.36-2.03-1.54-3.03-2.7-4.393 6.13-11.02 12.08-22.15 18.19-33.18 3.09-5.57 7.58-9.57 12.22-13.78 7.75-7.01 14.22-14.44 22.57-20.67-.98 7.04-2.59 13.93-3.35 21-1.15 10.86-2.35 21.44-1.06 32.36 5.19-7.04 7.91-14.96 11.83-22.67 3.61-7.34 7.78-14.36 11.28-21.75 5.46-11.46 11.343-22.7 16.933-34.09 4.18-7.97 5.75-15.84 12.99-21.89Zm236.7-.11c3.26 3.05 6.6 6 9.68 9.25 6.35 6.69 13.2 12.77 19.94 19.06 3.23 3 5.76 6.25 7.91 10.1 3.81 6.85 7.7 13.64 11.48 20.5 6.61 12.27 14.14 24 20.64 36.34 1.95 3.78 4.18 7.18 6.91 10.45 4.27-9.39 2.5-18.12 4.05-28.01 4.8 5.84 7.24 12.56 10.23 19.38 2.7 6.38 5.06 12.9 7.69 19.313 2.61 6.59 5.69 12.81 7.67 19.64.02 13.78.69 27.55.46 41.34-13.9-12.79-26.53-26.9-40.31-39.81-14.82-14.83-29.44-29.883-44.57-44.413-7.23-7.5-14.44-14.99-22.13-22.02.25-23.73-.9-47.38.35-71.12Zm-123.66-114.77c.77 11.36.82 22.72 1.01 34.09-.19 11.92-.85 23.83-.27 35.83 1.06 16 .64 32.13.56 48.16.02 62.06-.15 122.593.03 185.013.18 4.11.87 31.129.15 35.209l-1 .02c.24-73.63.01-170.602.17-244.242.05-7.07.12-14.13-.35-21.2-5.37 4.39-10.02 9.44-14.82 14.41-29.53 29.88-59.43 59.45-89.18 89.18-.5-11.47-.38-22.92-.2-34.39.13-6.38.48-12.68.05-19.05 7.72-6.19 14.01-14.5 19.27-22.83 4.44-7.19 9.12-14.23 13.56-21.41 4.09-6.56 6.98-13.05 12.22-18.78 19.45-20.15 39.32-39.89 58.8-60.01Zm10.46.01c6.53 6.43 13.06 12.86 19.36 19.53 9.13 9.21 18.31 18.33 27.14 27.85 5.45 5.88 11.66 11.05 16.94 17.07 5.05 5.75 7.41 12.23 11.14 18.86 4.84 8.66 9.11 17.61 13.5 26.51 3.29 6.13 5.87 12.1 10.23 17.59 2.27-7.42 2.99-15.01 4.43-22.59.63 5.41 1.12 10.8.98 16.25-.27 11.01.3 21.99.27 33 .06 7.4-.22 14.78-.26 22.18-26.12-25.89-51.87-52.21-78.13-77.97-8.71-8.55-17.08-17.7-26.49-25.49-.39-9.25.04-18.47-.05-27.72.11-14.97-.8-30.19.94-45.07Z"
  /><path
    fill="#a2563f"
    d="M225.883 298.986c1.16 1.363 3.06 2.363 2.7 4.393-.44 5.75-1.75 11.31-1.48 17.14.36 11.41.84 22.8.74 34.23-.71 15.93-.3 31.83-.38 47.77-.06 61.67.14 123.33.01 185-.02 80.39.07 160.85.1 241.26-2.92.02-5.84.03-8.77.03.15-135.74-.08-271.55.02-407.29-.08-14.01-.22-27.99.04-42 .12-5.23.08-10.44-.12-15.67-.25-13.42-.63-26.91.12-40.32.25-3.89-.2-7.69-1.04-11.48 2.85-4.24 5.39-8.7 8.06-13.063ZM679.066 294.316c.73.65 1.45 1.3 2.18 1.95-1.47 13.743-1.1 27.473-1.63 41.253-.32 11.32-.02 22.62.1 33.93-.06 10.69-.38 21.38-.33 32.07.05 141.73-.08 283.46.06 425.19-2.82.05-5.64.08-8.46.09-.21-55.43.03-110.85-.15-166.28.09-100.3-.09-200.66.01-300.95.23-13.79-.44-27.56-.46-41.34 1.28 2.75 2.81 5.36 4.41 7.94 4.01-11.15 4.06-22.17 4.27-33.853Zm-342.39-118.71c-.78 6.07-3.17 11.01 0 16.86.43 6.37.08 12.67-.05 19.05-.18 11.47-.3 22.92.2 34.39-.09 5.87-.48 11.73-.42 17.61.06 40.333-.12 104.012.12 144.342-2.89 0-5.79-.02-8.68-.07.07-9.65.19-42.619.09-52.269-.22-33.68.25-67.363-.16-101.033-.26-16.99.62-33.97.06-50.97-.25-6.4-.35-12.79-.35-19.2 3.06-2.9 6.06-5.88 9.19-8.71Zm217.05-1.34c3.72 3.09 6.99 6.59 10.46 9.94-1.25 23.74-.1 47.39-.35 71.12-.39 19.39.07 38.79-.13 58.193.04 23.65-.02 70.629-.01 94.279-2.88.06-5.77.09-8.65.08.04-26.34-.02-76.019.01-102.359.04-19.953.19-39.883-.34-59.823.04-7.4.32-14.78.26-22.18.03-11.01-.54-21.99-.27-33 .14-5.45-.35-10.84-.98-16.25Zm-107.97-109.28c1.83 1.39 3.56 2.89 5.23 4.46-1.74 14.88-.83 30.1-.94 45.07.09 9.25-.34 18.47.05 27.72.22 8.78-.18 17.5-.24 26.28.15 64.96.05 130.05.13 195.003.03 6.96.02 37.239-.18 44.199-2.6-.01-5.2-.03-7.8.02.72-4.08.03-31.099-.15-35.209-.18-62.42-.01-122.953-.03-185.013.08-16.03.5-32.16-.56-48.16-.58-12 .08-23.91.27-35.83-.19-11.37-.24-22.73-1.01-34.09 1.66-1.58 3.39-3.08 5.23-4.45Z"
  /><path
    fill="#ffd166"
    d="M448.144.108c7.004 1.464 14.14 5.906 18.182 8.659 4.464 3.252 9.292 6.385 14.129 9.491 12.736 8.741 23.688 18.726 35.435 26.17a1062.675 1062.675 0 0 1 35.691 24.031c6.554 4.739 12.87 9.754 19.05 14.316 6.839 5.219 14.709 11.2 20.759 20.042l12.342 18.6-5.067-.744c1.187.887 2.486 1.869 3.914 2.966 15.707 11.13 30.979 22.997 45.95 34.811 3.523 3.001 9.364 6.874 13.822 14.718l7.858 15.3-7.329-.478c1.256.926 2.521 1.876 3.792 2.861 6.152 4.766 12.322 9.404 18.592 14.044 18.602 13.551 36.034 28.247 53.789 41.839a892.541 892.541 0 0 1 51.95 45.211c4.07 3.977 7.634 9.041 10.109 13.651l10.976 20.624-16.66-4.672-1.929-1.966c.336.393.684.802 1.045 1.229l.577.651-5.498-1.542c-.613-.172-1.192-.337-1.739-.494l8.297 3.212c6.435 7.077 13.592 13.795 20.555 21.457 15.757 16.505 31.815 33.145 47.106 50.449 6.305 7.354 14.736 16.07 20.23 26.24l8.042 15.213-17.189-.592c-7.165-.318-13.954-2.164-20.057-5.105a129.275 129.275 0 0 1-6.31-3.207c.348 2.227.488 5.153.167 9.16l-1.318 13.048-12.357-5.098c-3.37-1.424-6.711-3.393-9.682-5.67l-.414 8.389-15.505-13.387c-6.253-5.418-11.915-11.49-17.144-17.159-3.208-3.521-6.797-7.06-10.393-10.874-.599 2.24-1.504 4.958-2.907 8.411l-6.705 13.741-9.883-11.966c-2.766-3.355-5.993-7.809-8.339-12.094l-.124-.227-.098-.239c-2.608-6.376-6.413-12.467-10.101-19.615-7.187-12.706-11.987-23.657-20.512-33.374-3.871-4.429-8.58-8.427-13.521-13.109-10.119-9.406-14.7-14.215-21.908-21.141-.7 5.14-.591 6.791-3.589 15.611l-6.865 19.788-11.063-17.85c-1.668-2.692-3.477-5.818-4.969-8.971l-.341-.726-.112-.397-.101-.359c-1.65-5.979-4.555-11.7-7.33-18.65-1.346-3.289-2.595-6.526-3.83-9.702l-5.907 14.519-5.332-6.435-5.316-6.416a72.382 72.382 0 0 1-8.076-12.196c-6.283-11.967-13.769-23.618-20.566-36.2-3.736-6.782-7.608-13.54-11.449-20.444-1.722-3.202-3.313-5.241-5.985-7.635-6.649-6.207-13.729-12.515-20.383-19.5-1.902-2.026-4.035-4.01-6.281-6.08a154.019 154.019 0 0 1-1.452 5.506l-5.559 18.585-11.877-15.305c-5.005-6.566-8.217-13.569-11.333-19.342-4.419-8.961-8.567-17.678-13.258-26.049-4.083-7.412-5.897-13.101-9.945-17.166-4.711-5.465-10.825-10.528-16.741-16.849-8.688-9.373-17.921-18.547-27.078-27.784-5.62-5.954-11.387-11.666-17.282-17.474-18.959 19.537-37.962 38.428-56.751 57.894-4.315 4.319-6.606 10.023-11.032 17.225-4.529 7.317-9.263 14.443-13.612 21.493-5.509 8.688-12.884 18.215-21.439 25.265l-10.525 8.565-4.027-10.162c-1.348 3.118-2.544 7.105-4.943 11.979-5.646 11.501-11.491 22.664-16.867 33.955-3.717 7.799-7.985 15.017-11.408 22.009-3.653 7.086-6.784 15.676-12.652 24.01l-15.123 21.042-2.896-25.782c-1.046-9.744-.461-19.27.408-28.293-.588.575-1.225 1.195-1.914 1.864-4.725 4.285-8.229 7.058-10.192 11.22-6.075 10.965-12.24 22.463-18.409 33.555-2.595 4.237-5.522 9.26-8.56 13.803-3.314 4.326-7.63 8.229-11.501 11.105l-11.846 8.761-3.688-14.007a91.468 91.468 0 0 1-.701-2.877c-3.382 2.919-4.761 7.418-8.321 13.809-5.669 9.916-11.423 20.372-17.126 30.439-4.25 6.734-8.546 14.847-15.322 21.826l-17.432 17.528.296-18.382c-.856 1.495-1.651 2.927-2.318 4.29-3.258 6.054-6.409 13.628-11.173 20.656l-5.48 7.969-4.088-2.673-3.455-2.258c-2.282-1.581-5.065-4.756-6.057-6.893a21.4 21.4 0 0 1-.425-1.49 785.29 785.29 0 0 1-1.932 1.744 361.828 361.828 0 0 0-12.146 10.221c-9 7.927-19.019 15.372-28.202 22.356l-.21.16-.222.134c-1.564.948-6.802 3.487-12.745 3.788l-7.043-.015-1.457-7.729c-.576-3.576-.534-7.089-.207-10.283-3.14 1.942-6.748 4.096-10.518 5.741-5.58 1.984-10.999 2.431-15.088 2.723L0 435.903l7.736-15.59c5.688-11.075 13.481-18.359 19.708-25.859 6.165-7.373 12.908-14.288 19.058-20.954 11.497-11.927 22.729-24.461 34.794-36.486 4.835-4.819 9.346-10.365 14.673-15.948l.566-.577-18.312 4.084 13.027-20.392c4.963-7.682 11.527-14.612 17.964-20.263 8.699-7.546 17.093-15.948 26.732-23.758 4.139-3.346 8.209-6.8 12.355-10.326 9.716-8.214 19.876-15.634 29.261-23.256 14.577-11.43 29.425-22.155 43.755-33.29a204.953 204.953 0 0 1 6.268-4.66l-6.698.813 8.335-16.425c5.498-9.908 13.372-14.803 18.656-19.186 11.609-9.018 23.465-17.63 35.17-26.202 5.217-3.873 10.446-7.537 15.544-11.205l-12.42.548 13.043-16.986c3.693-4.733 8.418-8.901 13.329-12.011 7.668-4.641 14.841-11.067 23.646-16.893 5.066-3.362 10.022-6.539 14.745-9.883 16.373-11.476 33.407-22.219 48.304-34.209 9.346-7.038 19.375-13.922 28.982-20.331C432.104 4.269 440.05.464 447.125.031l.501-.031.518.108Z"
  /><path
    fill="#fff"
    d="M310.936 407.985c5.57-.417 11.31-.246 16.91-.189 2.89.047 5.79.066 8.68.066 34.83-.171 69.66-.019 104.48-.095l1-.019c2.6-.047 5.2-.028 7.8-.019 35.08.171 70.16-.123 105.24.152 2.88.009 5.77-.019 8.65-.076 5.68-.142 11.35-.104 17.03.076.12 5.989.09 11.977.05 17.966-.03 122.875 0 245.741-.01 368.616-.06 11.646-.01 23.292.1 34.948-21.03.511-42.04-.086-63.07.028-69.02-.019-138.05.047-207.07-.028.02-134.209-.01-268.408.02-402.616.03-6.245-.29-12.575.19-18.81Z"
    data-player="true"
  /><path
    fill="#a2563f"
    d="M395.776 241.426c1.37 4.12 2.28 8.32 2.54 12.66.81 13.48 1.63 26.96 2.47 40.44.72 9.373.96 18.633-1.01 27.893-1.29-.01-2.58-.01-3.87-.01-2.48-9.28-2.15-18.35-2.79-27.853-.47-15.44-1.79-30.65-1.28-46.12.1-1.4.2-2.91.67-4.24.75-1.17 2.2-1.92 3.27-2.77ZM268.323 380.779c1.64 3.79 1.46 8.57 1.74 12.64.94 15.75.49 31.32.44 47.09-.23 13.35-1.03 26.69-1.77 40.01-.2 5.93-.62 11.8-1.36 17.7-1.16.1-2.33.18-3.5.25-.89-4.29-1.72-8.54-1.83-12.93-.25-23.36.77-46.67 1.02-70.02.1-7.35.84-14.65.84-21.99.07-3.46-.11-7.12.63-10.51.3-1.74 2.05-3.25 3.79-2.24Zm369.003 82.3c.89 7.45 1.51 14.93 1.52 22.44-.08 12.03.05 24.12-.76 36.12-1.2 20.74-1.48 41.9-4.46 62.47-1.29-1.08-3.5-1.85-3.58-3.73-.59-4.21-.22-8.61-.26-12.86 0-14.33-.13-28.68.22-43 .57-12.67 1.01-25.34 1.88-37.99.54-7 0-14.56 1.78-21.35.38-1.69 2.33-1.5 3.66-2.1Zm-446.793 28.08c.77 6.1.97 12.22 1.01 18.36.24 12.16.51 24.27-.26 36.42-.61 9.79-.51 19.7-1.62 29.45-.44 2.2-.49 5.43-2.84 6.47-2.49-3.26-2.33-8.2-2.58-12.16-.51-19.99-.58-40.08 1-60.02.45-5.29.19-10.94 1.57-16.07.35-1.74 2.38-1.74 3.72-2.45Zm525.393 128.3c2.28 5.16 2.48 10.47 2.54 16.01.17 12.34.23 24.68-.47 37-.2 9.71-.6 19.35-1.17 29.04-.33 16.91-1.62 33.75-2.67 50.63-1.14-.78-2.46-1.51-3.37-2.55-1.01-2.44-1.1-5.35-1.32-7.95-.46-10.13-.59-20.24-.06-30.36.61-11.21.19-22.42.85-33.62.67-10.7.73-21.41 1.45-32.1.53-8.17.26-16.55 1.41-24.65.92-.5 1.86-.99 2.81-1.45Z"
  />
</svg>
