<?xml version="1.0" encoding="utf-8"?>

<svg
  version="1.1"
  xmlns="http://www.w3.org/2000/svg"
  xmlns:xlink="http://www.w3.org/1999/xlink"
  viewBox="0 0 32 32"
>
  <polygon
    fill="#cc4121"
    points="10.408,29.5 2.5,21.592 2.5,10.408 10.408,2.5 21.592,2.5 29.5,10.408 
		29.5,21.592 21.592,29.5 	"
  />
  <path
    fill="#fffaee"
    d="M21.414,12.707L18.121,16l3.293,3.293l-2.121,2.121L16,18.121l-3.293,3.293l-2.121-2.121
		L13.879,16l-3.293-3.293l2.121-2.121L16,13.879l3.293-3.293L21.414,12.707z M21.592,2.5H10.408L2.5,10.408v11.184l7.908,7.908
		h11.184l7.908-7.908V10.408L21.592,2.5z M28,20.97L20.97,28H11.03L4,20.97v-9.941L11.03,4h9.941L28,11.029V20.97z"
  />
  <path
    fill="#231f20"
    d="M19.293,9.879L16,13.172l-3.293-3.293l-2.828,2.828L13.172,16l-3.293,3.293l2.828,2.828
		L16,18.828l3.293,3.293l2.828-2.828L18.828,16l3.293-3.293L19.293,9.879z M17.414,16l3.293,3.293l-1.414,1.414L16,17.414
		l-3.293,3.293l-1.414-1.414L14.586,16l-3.293-3.293l1.414-1.414L16,14.586l3.293-3.293l1.414,1.414L17.414,16z M21.799,2H10.201
		L2,10.201v11.598L10.201,30h11.598L30,21.799V10.201L21.799,2z M29,21.385L21.385,29h-10.77L3,21.385v-10.77L10.615,3h10.77
		L29,10.615V21.385z"
  />
</svg>
