<?xml version="1.0" encoding="utf-8"?>

<!-- Uploaded to: SVG Repo, www.svgrepo.com, Generator: SVG Repo Mixer Tools -->
<svg
  version="1.1"
  id="Uploaded to svgrepo.com"
  xmlns="http://www.w3.org/2000/svg"
  xmlns:xlink="http://www.w3.org/1999/xlink"
  viewBox="0 0 32 32"
  xml:space="preserve"
>
  <style type="text/css">
  .avocado_zeventien {
    fill: #cc4121;
  }
  .avocado_een {
    fill: #231f20;
  }
  .avocado_zes {
    fill: #fffaee;
  }
  .st0 {
    fill: #a3aeb5;
  }
  .st1 {
    fill: #af9480;
  }
  .st2 {
    fill: #dbd2c1;
  }
  .st3 {
    fill: #788287;
  }
  .st4 {
    fill: #ead13f;
  }
  .st5 {
    fill: #c3cc6a;
  }
  .st6 {
    fill: #d1712a;
  }
  .st7 {
    fill: #e0a838;
  }
  .st8 {
    fill: #716558;
  }
  .st9 {
    fill: #6f9b45;
  }
  .st10 {
    fill: #0e608e;
  }
  .st11 {
    fill: #e598a3;
  }
  .st12 {
    fill: #fffaee;
  }
  .st13 {
    fill: #3d3935;
  }
  .st14 {
    fill: #248ebc;
  }
  .st15 {
    fill: #bf63c1;
  }
  </style>
  <g>
    <polygon
      class="avocado_zeventien"
      points="10.408,29.5 2.5,21.592 2.5,10.408 10.408,2.5 21.592,2.5 29.5,10.408 
		29.5,21.592 21.592,29.5 	"
    />
    <path
      class="avocado_zes"
      d="M21.414,12.707L18.121,16l3.293,3.293l-2.121,2.121L16,18.121l-3.293,3.293l-2.121-2.121
		L13.879,16l-3.293-3.293l2.121-2.121L16,13.879l3.293-3.293L21.414,12.707z M21.592,2.5H10.408L2.5,10.408v11.184l7.908,7.908
		h11.184l7.908-7.908V10.408L21.592,2.5z M28,20.97L20.97,28H11.03L4,20.97v-9.941L11.03,4h9.941L28,11.029V20.97z"
    />
    <path
      class="avocado_een"
      d="M19.293,9.879L16,13.172l-3.293-3.293l-2.828,2.828L13.172,16l-3.293,3.293l2.828,2.828
		L16,18.828l3.293,3.293l2.828-2.828L18.828,16l3.293-3.293L19.293,9.879z M17.414,16l3.293,3.293l-1.414,1.414L16,17.414
		l-3.293,3.293l-1.414-1.414L14.586,16l-3.293-3.293l1.414-1.414L16,14.586l3.293-3.293l1.414,1.414L17.414,16z M21.799,2H10.201
		L2,10.201v11.598L10.201,30h11.598L30,21.799V10.201L21.799,2z M29,21.385L21.385,29h-10.77L3,21.385v-10.77L10.615,3h10.77
		L29,10.615V21.385z"
    />
  </g>
</svg>
