<svg
  xmlns="http://www.w3.org/2000/svg"
  viewBox="0 0 198.211 198.211"
>
  <path
    d="m123.281 37.292-15.81-11.706v7.203l9.343 7.592zM149.412 110.149V74.746c0-.329.267-.597.597-.597h2.523c.33 0 .598.267.598.597v35.403c0 .33-.268.597-.598.597h-2.523a.597.597 0 0 1-.597-.597zM129.686 110.149V74.746c0-.329.268-.597.597-.597h2.524c.329 0 .597.267.597.597v35.403c0 .33-.268.597-.597.597h-2.524a.597.597 0 0 1-.597-.597zM135.267 110.279V70.593c0-.33.267-.597.597-.597h2.523c.33 0 .598.267.598.597v39.686c0 .33-.268.597-.598.597h-2.523a.597.597 0 0 1-.597-.597z"
    style="fill: #5b3514"
  /><path
    d="M151.972 81.458h-15.028a.597.597 0 0 1-.597-.597v-2.524c0-.329.267-.597.597-.597h15.028c.33 0 .597.268.597.597v2.524a.597.597 0 0 1-.597.597zM116.449 37.292h6.832v51.911h-6.832z"
    style="fill: #5b3514"
  /><path
    d="M175 138.479V87.295c0-8.046-55.719-6.336-55.719-6.336V43.171c0-9.863-64.271-9.344-64.271-3.115v98.422H175z"
    style="fill: #febd33"
  /><path
    d="M88.598 138.479h72.969c.539-13.035-.303-48.561-.303-50.664 0-3.894-42.178-4.153-42.178.26v29.849h-12.329l-18.159 20.555zM115.298 72.696h-47.19a1.906 1.906 0 0 1-1.906-1.906V45.986c0-1.053.854-1.906 1.906-1.906h47.19c1.053 0 1.906.854 1.906 1.906V70.79a1.906 1.906 0 0 1-1.906 1.906z"
    style="fill: #faa334"
  /><circle cx="64.55" cy="124.152" r="43.193" style="fill: #6e4320" /><path
    d="M75.937 172.624H53.164a2.926 2.926 0 0 1-2.917-2.917v-91.11a2.925 2.925 0 0 1 2.917-2.916h22.773a2.924 2.924 0 0 1 2.916 2.916v91.11a2.924 2.924 0 0 1-2.916 2.917z"
    style="fill: #6e4320"
  /><path
    d="m38.327 166.479-16.103-16.104a2.926 2.926 0 0 1 0-4.125l64.425-64.425a2.925 2.925 0 0 1 4.124 0l16.104 16.104a2.926 2.926 0 0 1 0 4.125l-64.425 64.425a2.926 2.926 0 0 1-4.125 0z"
    style="fill: #6e4320"
  /><path
    d="M16.079 135.539v-22.773a2.926 2.926 0 0 1 2.917-2.917h91.11a2.926 2.926 0 0 1 2.917 2.917v22.773a2.926 2.926 0 0 1-2.917 2.917h-91.11a2.925 2.925 0 0 1-2.917-2.917z"
    style="fill: #6e4320"
  /><path
    d="m22.224 97.929 16.103-16.104a2.925 2.925 0 0 1 4.124 0l64.425 64.425a2.926 2.926 0 0 1 0 4.125l-16.104 16.104a2.925 2.925 0 0 1-4.124 0l-64.425-64.425a2.927 2.927 0 0 1 .001-4.125z"
    style="fill: #6e4320"
  /><circle cx="64.55" cy="124.152" r="39.793" style="fill: #5b3514" /><circle
    cx="64.551"
    cy="124.152"
    r="20.038"
    style="fill: #febd33"
  /><circle cx="64.55" cy="124.152" r="15.522" style="fill: #6e4320" /><circle
    cx="64.551"
    cy="124.152"
    r="9.54"
    style="fill: #5b3514"
  /><circle cx="64.55" cy="124.152" r="5.786" style="fill: #febd33" /><circle
    cx="164.065"
    cy="138.479"
    r="30.427"
    style="fill: #6e4320"
  /><path
    d="M171.225 172.624h-14.318a2.925 2.925 0 0 1-2.916-2.917v-62.458a2.925 2.925 0 0 1 2.916-2.916h14.318a2.926 2.926 0 0 1 2.917 2.916v62.458a2.925 2.925 0 0 1-2.917 2.917z"
    style="fill: #6e4320"
  /><path
    d="m144.983 167.685-10.125-10.124a2.926 2.926 0 0 1 0-4.125l44.165-44.164a2.925 2.925 0 0 1 4.124 0l10.125 10.124a2.926 2.926 0 0 1 0 4.125l-44.164 44.164a2.924 2.924 0 0 1-4.125 0z"
    style="fill: #6e4320"
  /><path
    d="M129.92 145.638V131.32a2.925 2.925 0 0 1 2.917-2.917h62.457a2.926 2.926 0 0 1 2.917 2.917v14.318a2.925 2.925 0 0 1-2.917 2.916h-62.457a2.925 2.925 0 0 1-2.917-2.916z"
    style="fill: #6e4320"
  /><path
    d="m134.858 119.396 10.125-10.124a2.926 2.926 0 0 1 4.125 0l44.164 44.164a2.926 2.926 0 0 1 0 4.125l-10.125 10.124a2.923 2.923 0 0 1-4.124 0l-44.165-44.164a2.928 2.928 0 0 1 0-4.125z"
    style="fill: #6e4320"
  /><circle cx="164.065" cy="138.479" r="28.032" style="fill: #5b3514" /><circle
    cx="164.065"
    cy="138.479"
    r="14.115"
    style="fill: #febd33"
  /><circle cx="164.065" cy="138.479" r="10.935" style="fill: #6e4320" /><circle
    cx="164.066"
    cy="138.479"
    r="6.72"
    style="fill: #5b3514"
  /><circle cx="164.066" cy="138.479" r="4.076" style="fill: #febd33" /><path
    d="M96.277 47.194H75.059a5.938 5.938 0 0 0-5.938 5.938v11.485a5.938 5.938 0 0 0 5.938 5.937h21.218a5.938 5.938 0 0 0 5.938-5.937V53.132a5.938 5.938 0 0 0-5.938-5.938zM111.545 47.194h-3.278a3.101 3.101 0 0 0-3.102 3.101v17.158a3.101 3.101 0 0 0 3.102 3.101h3.278a3.101 3.101 0 0 0 3.102-3.101V50.295a3.103 3.103 0 0 0-3.102-3.101z"
    style="fill: #c1e8fb"
  /><path
    d="m76.248 47.194-7.126 7.466v3.317l9.784-10.783zM80.957 47.194 69.122 60.467v4.15c0 .121.029.233.036.352l15.824-17.775h-4.025zM108.821 47.194l-3.656 3.831v3.128l6.314-6.959zM114.646 50.295c0-1.132-.638-2.08-1.544-2.621l-7.938 8.901v4.537l9.481-10.65v-.167z"
    style="fill: #fff"
  /><path
    d="M157.033 92.49h-35.404a.598.598 0 0 1-.597-.598v-2.523c0-.33.267-.597.597-.597h35.404c.329 0 .597.267.597.597v2.523c0 .33-.268.598-.597.598zM157.033 98.862h-35.404a.597.597 0 0 1-.597-.597v-2.523c0-.33.267-.597.597-.597h35.404c.329 0 .597.267.597.597v2.523c0 .33-.268.597-.597.597zM157.033 105.189h-35.404a.598.598 0 0 1-.597-.597v-2.524c0-.329.267-.597.597-.597h35.404c.329 0 .597.268.597.597v2.524a.598.598 0 0 1-.597.597z"
    style="fill: #5b3514"
  /><circle cx="109.093" cy="86.906" r="4.023" style="fill: #faa334" /><circle
    cx="109.093"
    cy="86.906"
    r="2.466"
    style="fill: #5b3514"
  />
</svg>
