<svg
  xmlns="http://www.w3.org/2000/svg"
  viewBox="-220.752 -113.757 662.872 350.146"
>
  <path
    fill="#454440"
    d="m-102.597-93.639 22.762 19.456-.134 2.48-21.159 20.763-1.34-5.048 18.447-17.065-19.842-14.762zM-141.089-93.034l-22.761 19.456.134 2.48 21.158 20.763 1.341-5.048-18.448-17.065 19.842-14.762z"
  />
  <path
    fill="#b07033"
    d="m-92.819-103.757-57.882.008-2.378 2.49q-.015 5.879-.032 11.754l1.952 1.924 58.295.058 2.207-2.62-.018-10.995z"
  />
  <path
    fill="#824c1d"
    d="M-27.457 72.705c-6.975 9.477-12.919 18.128-18.223 25.088-9.292.167-20.3.512-27.383.262-.248-6.517-.701-14.58-1.486-24.848-33.68-.03-57.728-.588-91.386-.63-3.186-.01-6.673.12-9.778-.294-3.116-.512-4.734-1.754-6.432-3.149-.332-3.96-.08-7.943-.13-11.908-.101-2.626 3.597-5.563 8.923-5.394 16.42-.403 32.922-.054 49.342-.185-.341-3.045-1.99-6.112-2.874-9.13-3.346-11.064-6.964-22.107-10.25-33.176-6.311-19.361-11.909-38.815-18.2-58.187-.984-2.435-1.698-4.832-2.07-7.316 3.618-.016 7.236-.01 10.854-.016 1.658 2.63 1.557 5.453 2.532 8.264a5647 5647 0 0 1 16.45 52.303c3.126 9.065 5.729 18.19 8.603 27.276 2.442 6.657 3.678 13.309 6.613 19.966 7.034.294 14.19-.011 21.244-.027 3.899-.028 7.688.457 11.597.348 6.693-.098 13.506.229 20.098-.267 4.724.087 12.632 1.035 16.4-.964.574-3.236.071-6.575.232-9.833.01-31.814.05-63.645-.03-95.46.492 1.303.713 2.61.703 3.94-.16 31.765-.11 63.563-.03 95.333.02 2.272-.331 4.636.181 6.886 8.884.37 17.848-.109 26.761.11 28.149-.039 56.277.02 84.415-.023 4.823.011 9.506.17 14.32-.07 12.32.664 24.49.24 36.931.36 3.809.086 7.487-.453 11.296-.388 2.452.11 4.833.37 7.255.589-1.276 2.085 217.786-.628 251.414.82 2.924.126 2.948.916 2.875 1.787-.268 3.221-.974 10.72-1.16 15.05-.058 1.335-1.674 2.445-4.352 2.443-13.84-.007-99.929-.71-111.531-.631-13.98.094-113.668 2.627-141.573 1.692-26.232-.879-114.934-.693-127.831-.673-14.418-.002-26.911.061-34.32.052"
  />
  <path
    fill="#b07033"
    d="M-166.324-63.257c7.125.458 7.192 1.843 8.92 7.095.372 2.484 1.086 4.881 2.07 7.316 6.291 19.372 11.889 38.826 18.2 58.187 3.286 11.07 6.904 22.112 10.25 33.176.885 3.018 2.533 6.085 2.874 9.13-16.42.13-32.921-.218-49.342.185.834-1.863-.663-3.246-1.115-5.055-14.843-36.113-18.548-56.581-33.16-92.683-.854-3.1-3.125-5.617-1.627-8.836 1.246-3.906 7.466-7.197 14.762-7.687 4.673-.338 9.457-.272 14.16-.457 4.532-.518 9.386-.333 14.008-.37"
  />
  <path
    fill="#454440"
    d="M-75.492-59.72c7.276.055 14.582-.081 21.848.05 4.763.12 7.366 1.863 10.22 3.666.241.474.452.953.613 1.433.08 31.814.04 63.645.03 95.459-.16 3.258.342 6.597-.231 9.833-3.769 2-11.677 1.051-16.4.964-6.593.496-13.406.17-20.1.267-3.908.11-7.697-.376-11.596-.348.17-33.716.05-67.432.07-101.147-.19-2.299.04-4.424 1.578-6.592 1.367-.915 2.452-1.808 4.361-2.43 2.905-1.258 6.1-1.149 9.607-1.154M94.613-59.67c7.608-.11 15.225-.011 22.843-.06 2.26.032 4.682-.076 6.733.534 2.984.648 4.532 1.923 6.461 3.22.684 1.595 1.337 3.148 1.307 4.799-.05 30.141 0 60.289-.03 90.43.02 4.108 0 8.216-.161 12.323-3.809-.065-7.487.474-11.296.387-12.44-.12-24.61.305-36.931-.36-.301-1.209-.553-2.407-.512-3.633.04-32.866.01-65.737.02-98.608.11-1.776.713-3.563 1.396-5.3 2.804-1.836 5.427-3.569 10.17-3.732M265.442-59.665c8.622-.103 17.265-.049 25.877-.027 4.783.125 7.838 1.754 10.411 3.775 1.658 2.5 1.065 4.849 1.176 7.463.04 18.817-2.497 101.077-2.479 101.23-15.67.114-28.22.145-44.189.799-.814-1.809-1.72-50.635-1.8-52.455-.04-16.702.05-33.41-.04-50.118.11-2.305-.161-4.843 1.085-7.044 2.824-1.798 5.236-3.46 9.959-3.623"
  />
  <path
    fill="#9f622b"
    d="M-146.55-56.178c19.023.016 38.077-.071 57.09.043-1.538 2.168-1.769 4.293-1.578 6.592-.02 33.715.1 67.431-.07 101.147-7.055.016-14.21.32-21.244.027-2.935-6.657-4.171-13.309-6.613-19.966-2.874-9.087-5.477-18.211-8.602-27.276a5647 5647 0 0 0-16.45-52.303c-.976-2.811-.875-5.633-2.533-8.264M-43.424-56.004c.985-.169 2.01-.229 3.085-.19 40.91.021 81.822.01 122.732.005l2.05.25c-.683 1.738-1.286 3.525-1.396 5.3-.01 32.872.02 65.743-.02 98.609-.04 1.226.21 2.424.512 3.634-4.814.24-9.497.081-14.32.07-28.138.044-56.266-.016-84.415.022-8.913-.218-17.877.262-26.761-.109-.512-2.25-.16-4.614-.18-6.886-.081-31.77-.131-63.568.03-95.334.01-1.329-.212-2.636-.704-3.938-.16-.48-.372-.96-.613-1.433M130.65-55.977l1.789-.207h117.668c1.768.038 3.648-.098 5.376.142-1.246 2.2-.975 4.74-1.085 7.044.09 16.708 0 33.416.04 50.118.08 1.82.986 50.646 1.8 52.455-27.244 1.258-106.211 1.856-117.217-1.41-2.422-.218-4.803-.48-7.255-.589.16-4.107.18-8.215.16-12.322.03-30.142-.02-60.29.03-90.431.03-1.651-.622-3.204-1.306-4.8M301.73-55.917c.854-.092 1.718-.18 2.573-.261 20.701-.011 41.413-.011 62.115.005-.704 1.22-1.136 2.413-1.327 3.694-.553 3.41-2.13 6.646-3.155 10.05-4.221 13.091-8.834 26.133-13.085 39.224-2.301 7.294-17.57 49.3-19.892 56.6-7.994.404-24.371.264-28.532-.619-.018-.153 2.519-82.413 2.479-101.23-.11-2.614.482-4.962-1.176-7.463"
  />
  <path
    fill="#824c1d"
    d="M366.418-56.173c3.848-.005 7.687.038 11.526-.033-4.974 13.647-9.185 27.38-13.878 41.054-4.301 12.497-18.137 55.775-22.79 68.228-3.628-.79-8.91 1.43-12.317.319 2.321-7.3 17.591-49.306 19.892-56.6 4.251-13.091 8.864-26.133 13.085-39.223 1.025-3.405 2.602-6.641 3.155-10.051.19-1.28.623-2.474 1.327-3.694"
  />
  <path
    fill="#b07033"
    d="M389.658 53.36c-.432-1.928 1.2-7.275 1.752-9.089a2397 2397 0 0 0 15.305-40.416c3.166-7.398 5.246-13.723 8.22-21.175 4.05-10.934 8.452-21.834 12.492-32.784.925-2.479 1.668-4.876 2.894-7.333 1.799-4.445-1.658-9.114-9.285-11.2-5.387-1.171-11.467-1.291-17.155-1.929-6.763-.91-14.47.175-19.134 3.04-5.205 2.675-5.728 7.66-6.803 11.32-4.974 13.647-9.185 27.38-13.878 41.054-4.301 12.497-18.137 55.775-22.79 68.228zM257.524 6.262c-.33 8.18-.608 18.612-.908 26.792-.19 6.967-.725 11.984-.825 18.97 4.413-1.269 9.377-2.17 12.95-2.095 4.933.104 9.93 1.552 14.428 3.635-.174-7.308 1.024-13.299 1.203-20.62.33-4.68-.048-11.002.122-15.682.9-6.31.65-12.59.89-18.99-.15-4.23.83-8.32.73-12.55-8.81-1.48-18.21-2.39-27.09-1.15-1.24 7.11-.36 14.56-1.5 21.69M185.464 25.182c2.48 2.56 5 5.06 7.36 7.73C200.13 40.884 227.52 67.198 232.71 72c1.864-3.041 4.857-7.67 6.42-9.35 3.527-3.793 7.338-7.252 12.148-9.12-6.826-6.411-13.047-13.398-19.905-19.778-4.96-4.73-9.48-9.91-14.47-14.62-4.14-4.37-8.87-8.24-12.6-12.96-7.13 5.52-13.68 11.57-18.84 19.01"
  />
  <path
    fill="#b07033"
    d="M329.304 19.612c-5.79 4.63-11.16 9.71-17.1 14.14-8.437 7.347-17.193 14.255-25.71 21.512 8.014 4.5 14.947 13.441 17.277 20.455 1.76-1.26 3.433-2.627 5.103-4.007l.24-.2c2.1-1.9 4.3-3.62 6.48-5.42 12.7-11.3 26.16-21.7 38.8-33.08-4.25-7.71-9.98-14.93-16.93-20.38-2.74 2.31-5.27 4.83-8.16 6.98M297.534 140.492c6.17 6.17 12 12.65 18.15 18.85 3.73 3.66 6.99 7.91 10.94 11.29 7.71-4.97 14.02-11.53 19.96-18.44-11.65-11.84-23.08-24.16-34.8-35.93-3.33-3.12-6.063-7.033-9.433-10.033a5 5 0 0 1-.14.247c-1.912 3.359-4.128 6.663-6.88 9.363-3.272 3.211-8.46 6.822-12.268 8.727 4.296 5.665 9.79 10.567 14.47 15.926M206.584 127.062c-7.66 6.49-14.28 14.11-22.09 20.39 4.05 5.83 9.23 10.86 14.23 15.86 1.45 1.45 3 2.74 4.68 3.91 5.07-4.71 9.91-9.65 15.18-14.14 9.557-9.557 30.364-28.352 32.03-29.202-4.412-2.41-11.233-7.43-14.173-11.35-1.532-2.044-2.975-4.577-4.156-6.97-1.711.388-18.602 14.481-25.701 21.502"
  />
  <path
    fill="#454440"
    d="M268.74 49.93c6.171.129 12.443 2.362 17.71 5.31 8.033 4.493 14.986 13.453 17.32 20.48 1.627 4.894 2.662 11.488 2.31 16.53-.366 5.275-2.015 10.943-3.73 13.98-1.943 3.443-4.2 6.842-7.02 9.61-4.297 4.216-11.9 9.123-15.34 9.95-8.96 2.151-18.035 2.2-26.74-.69-3.617-1.202-13.177-7.725-16.81-12.57-2.463-3.287-4.697-7.842-5.98-11.04-1.7-4.245-1.806-8.733-1.98-13.25-.17-4.44 1.874-11.784 2.62-13.48.37-.84 5.739-9.646 8.03-12.11 3.528-3.794 7.34-7.253 12.15-9.12 5.122-1.989 12.586-3.703 17.46-3.6"
  />
  <path
    fill="#b07033"
    d="M164.974 95.272c0 2.06.26 3.96.78 5.95l-.34-1.65c8.11.06 16.24.31 24.35.47.96.12 1.95.31 2.95.56 12.83-.3 25.237.787 37.747.887-1.7-4.244-1.807-8.732-1.98-13.25-.17-4.439 1.873-11.783 2.62-13.48-1.57-.6-3.697-.577-5.357-.757-7.73-.04-15.77-.12-23.42-.96-7.21.14-14.47-.35-21.67-.49-4.73-1.6-10.23.06-14.86-1.3-1.06 7.99-.92 15.92-.82 24.02M321.764 104.422c5.42-.37 10.58 1.02 16.01.11 3.44-.87 6.5.46 9.99.34 6.78-.12 18.512 1.047 20.79.44.8-8.49 1.28-17.05.9-25.58-2.66-.26-5.57.13-8.1-.7-7.52-.14-15.05-.16-22.59-.63-2.2-.66-4.7-.3-7-.41-9.195-.01-18.379-.588-27.533-.789 1.356 4.688 2.166 10.499 1.85 15.046-.29 4.168-1.38 8.581-2.67 11.748 6.166-.495 12.185.804 18.353.425"
  />
  <path
    fill="#9f622b"
    d="M278.964 161.262c.24-8.69.35-17.39.56-26.08.91-2.95.387-6.323.467-9.393-8.96 2.152-18.036 2.2-26.74-.69-.55 10.26-.987 20.273-1.237 30.563-.75 7.16-.39 14.37-.98 21.53.175 1.533.18 3.478-.1 5.018-.52 1.93-.348 3.636-.29 5.402.66 1.35 2.81 1.26 4.11 1.68 6.54 1.08 13.42.72 20.02.49.85.01 2.71.309 3.38-.071-.018-8.915.673-28.179.81-28.449"
  />
  <path
    fill="#b07033"
    d="M352.554-20.688c-3.104-2.345-6.57-4.88-9.96-6.92-8.62-5-17.49-10.85-26.93-14.06-4.19-1.48-7.158-2.812-11.298-4.432-15.25-4.88-32.472-5.118-48.362-3.918-27.11 2.31-53.29 12.96-74.32 30.22-5.74 4.97-11.49 9.76-16.39 15.6l22.69 13.71c10.69-11.54 24.41-20.19 38.9-26.13 19.87-7.88 43.03-9.68 63.88-5.06 10.31 2.54 20.66 5.55 29.75 11.18 8.65 5.26 17.11 10.53 24.21 17.82 13 13.25 23.23 28.71 28.34 46.69 6.16 20.03 6.98 42.33 1 62.5-2.94 12.88-8.84 24.77-16.79 35.28-8.58 12.48-19.93 22.31-32.74 30.26-8.81 6-18.5 9.43-28.66 12.39-6.92 1.88-13.92 3.3-21.1 3.53-16.78.87-33.27-.87-48.63-8.03-5.7-2.32-11.7-4.79-16.86-8.16-6-3.73-11.45-8.64-16.81-13.23-9.21-7.8-16.46-18.07-22.63-28.36-17.12-30.99-17.78-70.28-2.16-102.01 4.9-10.88 12.05-20.14 20.3-28.67l-22.69-13.71c-6.49 7.09-11.84 15.01-16.68 23.29-2.73 4.88-5.52 9.58-7.39 14.88-1.38 4.16-2.83 8.29-4.32 12.42-2.89 8.21-4.19 16.63-5.52 25.19-.35 3.5.07 7.23-.85 10.63-.05 3.69-.05 7.42.02 11.11 1.14 3.64.28 7.71 1.25 11.36 2.74 21.31 10.64 41.96 22.87 59.66 20.23 29.32 52.18 51 87.32 57.58 2.93.84 5.97.73 8.89 1.49 3.87.65 8.01.07 11.8 1.09 2.71 0 5.43.03 8.14-.01 4.22-1.08 8.83-.32 13.09-1.15 26.55-3.27 51.61-14.77 71.96-32.06 25.16-21.39 42.29-52.29 46.72-85.03 1.09-3.88.29-8.1 1.38-11.94.83-22.29-2.984-45.056-12.89-65.18-9.048-18.379-21.783-37.161-38.53-49.82"
  />
  <path
    fill="#824c1d"
    d="M226.884-16.618c-14.49 5.94-28.21 14.59-38.9 26.13-8.25 8.53-15.4 17.79-20.3 28.67-15.62 31.73-14.96 71.02 2.16 102.01 6.17 10.29 13.42 20.56 22.63 28.36 5.36 4.59 10.81 9.5 16.81 13.23 5.16 3.37 11.16 5.84 16.86 8.16 15.36 7.16 31.85 8.9 48.63 8.03 7.18-.23 14.18-1.65 21.1-3.53 10.16-2.96 19.85-6.39 28.66-12.39 12.81-7.95 24.16-17.78 32.74-30.26 7.95-10.51 13.85-22.4 16.79-35.28l-8-1.03c-4.28 13.37-10.48 25.9-19.48 36.71-5.94 6.91-12.25 13.47-19.96 18.44-8.9 6.79-19.53 11.61-30.09 15.15-6.11 1.95-12.23 2.78-18.46 4l-.002-.03c-.729.316-2.481.04-3.298.03-6.6.23-13.48.59-20.02-.49-1.3-.42-3.448-.33-4.11-1.677q0 .278-.01.547c-4.32.11-8.72-1.74-12.95-2.5-12.28-4.02-24.26-10.26-34.28-18.44a34.3 34.3 0 0 1-4.68-3.91c-5-5-10.18-10.03-14.23-15.86-1.11-1.54-2.4-2.89-3.31-4.57-7.9-12.75-13.52-26.74-15.43-41.66-.52-1.99-.78-3.89-.78-5.95-.1-8.1-.24-16.03.82-24.02 3-22.62 9.703-31.7 19.67-46.07 5.16-7.44 11.71-13.49 18.84-19.01 3.7-2.83 7.27-5.74 11.35-8.03 11.94-7.31 26.06-11.17 39.82-13.13 1.18-.13 2.37-.28 3.55-.44 8.88-1.24 18.28-.33 27.09 1.15 6.73.386 13.576 2.185 18.68 4.239 5.245 2.127 13.16 7.003 19.06 11.201 4.577 3.258 11.424 9.757 13.61 11.47 6.95 5.45 12.68 12.67 16.93 20.38 10.311 18.707 14.094 25.051 15.06 46.72.38 8.53-.1 17.09-.9 25.58-.795 4.043-1.53 7.152-2.49 10.17l8 1.03c5.98-20.17 5.16-42.47-1-62.5-5.11-17.98-15.34-33.44-28.34-46.69-7.1-7.29-15.56-12.56-24.21-17.82-9.09-5.63-19.44-8.64-29.75-11.18-20.85-4.62-44.01-2.82-63.88 5.06"
  />
  <path
    fill="#b07033"
    d="M-50.903 36.914c-2.058 6.735-4.564 15.356-6.597 22.098-1.677 5.757-3.217 9.815-4.824 15.607 3.95-.094 8.277.239 11.234 1.08 4.083 1.162 7.926 3.457 11.215 6.17 1.448-6.118 3.752-10.843 5.497-16.896 1.295-3.823 2.359-9.166 3.52-13.024 2.125-5.055 3.287-10.335 4.882-15.61.797-3.552 2.505-6.742 3.344-10.284-7.009-3.153-14.633-5.96-22.293-6.864-2.583 5.646-3.475 12.038-5.978 17.723M-114.996 36.946c1.505 2.671 3.057 5.301 4.439 8.038 4.343 8.228 21.398 36.098 24.671 41.226 2.214-2.124 5.714-5.324 7.381-6.382 3.762-2.387 7.688-4.434 12.098-4.94-4.282-6.824-7.936-13.995-12.252-20.799-3.096-5.018-5.728-10.314-8.854-15.322-2.492-4.54-5.585-8.791-7.66-13.533-7.137 3.04-13.907 6.646-19.823 11.712M5.92 63.676c-5.827 2.59-11.404 5.647-17.313 8.038-8.623 4.275-17.416 8.114-26.086 12.295 5.688 5.494 9.507 14.446 9.917 20.79 1.74-.664 3.43-1.437 5.12-2.221l.244-.114c2.162-1.123 4.367-2.075 6.574-3.098 13.033-6.634 26.502-12.354 39.502-19.068-1.855-7.343-5.05-14.6-9.645-20.652-2.784 1.325-5.439 2.87-8.312 4.03M-46.876 157.343c3.789 6.48 7.228 13.144 10.994 19.645 2.306 3.859 4.092 8.107 6.642 11.78 7.5-2.454 14.181-6.537 20.631-10.993-7.113-12.393-13.938-25.138-21.125-37.488-2.091-3.323-3.512-7.175-5.662-10.407a4 4 0 0 1-.17.175c-2.324 2.378-4.888 4.645-7.768 6.292-3.423 1.958-8.528 3.832-12.112 4.587 2.34 5.652 5.843 10.929 8.57 16.41M-119.636 126.335c-7.79 3.73-14.96 8.629-22.829 12.152 2.1 5.735 5.313 11.05 8.384 16.301.89 1.523 1.899 2.935 3.042 4.275 5.246-2.815 10.351-5.87 15.716-8.458 10.038-5.87 31.451-16.973 33.024-17.318-3.147-2.966-7.73-8.631-9.32-12.536-.83-2.034-1.478-4.457-1.94-6.706-1.508-.05-18.638 7.995-26.077 12.29"
  />
  <path
    fill="#454440"
    d="M-51.09 75.7c5.107 1.453 9.839 4.678 13.58 8.28 5.705 5.49 9.538 14.463 9.948 20.82.286 4.428-.29 10.14-1.682 14.26-1.456 4.31-4.063 8.667-6.152 10.82-2.369 2.442-4.988 4.78-7.938 6.467-4.496 2.572-11.893 4.998-14.935 4.935-7.926-.162-15.49-2.101-22.102-6.405-2.749-1.788-9.282-9.301-11.249-14.126-1.333-3.272-2.2-7.55-2.569-10.491-.49-3.903.4-7.66 1.242-11.458.826-3.731 4.127-9.398 5.12-10.647.49-.618 6.877-6.775 9.322-8.327 3.763-2.387 7.69-4.435 12.1-4.94 4.695-.538 11.28-.337 15.315.811"
  />
  <path
    fill="#b07033"
    d="M-147.331 90.807a19.8 19.8 0 0 0-.649 5.121l.077-1.447c6.736 1.818 13.447 3.8 20.162 5.7.772.31 1.555.684 2.333 1.11 10.742 2.548 20.83 6.158 31.22 8.969-.49-3.903.4-7.66 1.24-11.458.827-3.731 4.128-9.398 5.12-10.647-1.175-.842-2.95-1.286-4.293-1.798-6.424-1.719-13.097-3.539-19.28-5.906-6.031-1.455-11.966-3.446-17.927-5.133-3.588-2.363-8.527-2.18-12.083-4.322-2.625 6.418-4.237 13.048-5.92 19.81M-18.847 132.61c4.59.874 8.582 3.155 13.3 3.582 3.052.026 5.308 1.8 8.239 2.461 5.668 1.379 15.178 4.909 17.205 4.9 2.517-6.89 4.783-13.91 6.327-21.091-2.157-.797-4.664-1.107-6.588-2.349-6.228-1.756-12.49-3.415-18.662-5.45-1.687-1.029-3.846-1.275-5.736-1.868-7.65-2.013-15.166-4.496-22.74-6.66.105 4.197-.487 9.21-1.742 12.925-1.15 3.405-3.02 6.84-4.783 9.194 5.24.932 9.965 3.326 15.18 4.356"
  />
  <path
    fill="#9f622b"
    d="M-66.86 170.579c2.096-7.18 4.084-14.396 6.154-21.582 1.4-2.256 1.7-5.177 2.437-7.715-7.926-.162-15.49-2.101-22.102-6.405-2.695 8.419-5.243 16.656-7.695 25.165-2.185 5.795-3.458 11.873-5.51 17.703-.188 1.314-.608 2.934-1.177 4.154-.853 1.493-1.082 2.95-1.42 4.433.255 1.267 2.064 1.661 3.055 2.294 5.207 2.325 11.01 3.525 16.553 4.773.705.194 2.189.848 2.83.678 1.928-7.423 6.703-23.303 6.876-23.498"
  />
  <path
    fill="#b07033"
    d="M34.056 35.208c-2.07-2.629-4.403-5.494-6.78-7.93-6.082-6.041-12.188-12.843-19.344-17.573C4.768 7.56 2.589 5.803-.503 3.552-12.13-3.834-26.411-7.787-39.896-10.253c-23.064-3.99-47.173-.835-68.438 8.943-5.86 2.884-11.69 5.617-17.041 9.408l15.893 16.357c11.412-7.272 24.716-11.479 38.07-13.263 18.253-2.225 37.92 1.328 54.263 9.719 8.026 4.362 15.983 9.123 22.32 15.79 6.052 6.264 11.943 12.495 16.262 20.11 7.93 13.86 13.071 28.957 13.403 45.034.759 18.012-3.421 36.749-12.796 52.23-5.255 10.078-12.758 18.686-21.665 25.699-9.862 8.514-21.45 14.22-33.844 18.043-8.64 3.072-17.452 3.813-26.553 4.061-6.168.056-12.303-.289-18.329-1.663-14.154-2.935-27.497-7.979-38.718-17.287-4.238-3.173-8.692-6.537-12.252-10.467-4.18-4.412-7.644-9.686-11.104-14.675-5.964-8.5-9.758-18.627-12.648-28.535-7.49-29.523.528-62.364 20.446-85.363 6.45-7.986 14.42-14.133 23.145-19.433l-15.893-16.357c-6.947 4.485-13.126 9.91-18.96 15.745-3.336 3.466-6.682 6.769-9.394 10.772a436 436 0 0 1-6.303 9.393c-4.196 6.203-7.113 12.926-10.087 19.76-1.054 2.836-1.518 6.032-3.025 8.66-.846 3.06-1.66 6.164-2.406 9.25.155 3.278-1.448 6.478-1.437 9.727-2.366 18.331-.295 37.239 6.023 54.635 10.442 28.811 32.303 53.82 60.112 66.958 2.255 1.338 4.809 1.91 7.073 3.178 3.079 1.385 6.65 1.805 9.582 3.48 2.255.591 4.512 1.21 6.776 1.767 3.748.022 7.418 1.66 11.145 1.897 22.807 3.069 46.17-1.037 66.875-10.988 25.602-12.315 46.595-34.294 57.42-60.574 1.754-2.991 2.008-6.678 3.753-9.636 5.55-18.368 7.342-38.146 3.485-57.053-3.522-17.267-10.023-35.675-21.2-49.86"
  />
  <path
    fill="#824c1d"
    d="M-71.412 11.192c-13.354 1.784-26.658 5.99-38.07 13.263-8.726 5.3-16.695 11.447-23.145 19.433-19.918 23-27.936 55.84-20.446 85.363 2.89 9.908 6.684 20.036 12.648 28.535 3.46 4.989 6.925 10.263 11.104 14.675 3.56 3.93 8.014 7.294 12.252 10.467 11.221 9.308 24.564 14.352 38.718 17.287 6.026 1.374 12.16 1.719 18.33 1.663 9.1-.248 17.912-.99 26.552-4.061 12.393-3.823 23.982-9.529 33.844-18.043 8.907-7.013 16.41-15.621 21.665-25.699l-6.433-2.602C9.13 161.667 1.238 170.742-8.609 177.775c-6.45 4.456-13.131 8.539-20.631 10.994-8.887 3.71-18.784 5.403-28.344 6.046-5.51.29-10.784-.353-16.235-.696l.006-.026c-.676.104-2.074-.508-2.752-.694-5.542-1.248-11.346-2.448-16.553-4.773-.99-.633-2.797-1.026-3.054-2.292q-.062.231-.129.453c-3.619-.85-6.877-3.35-10.231-4.904-9.343-6.023-17.952-13.828-24.507-22.82a29.5 29.5 0 0 1-3.042-4.275c-3.07-5.251-6.285-10.566-8.384-16.301-.588-1.524-1.367-2.929-1.758-4.525-3.794-12.333-5.42-25.201-3.757-38.034.002-1.77.2-3.407.649-5.121 1.683-6.763 3.295-13.393 5.92-19.81 7.43-18.171 14.987-24.265 26.415-34.05 5.916-5.067 12.686-8.674 19.823-11.713 3.697-1.548 7.302-3.191 11.197-4.207 11.53-3.48 24.122-3.613 36-2.244 1.01.15 2.034.284 3.05.408 7.661.904 15.285 3.711 22.294 6.864 5.517 1.789 10.822 4.779 14.621 7.6 3.902 2.914 9.425 8.698 13.42 13.478 3.098 3.71 7.38 10.61 8.824 12.513 4.596 6.051 7.79 13.309 9.645 20.652 4.503 17.816 6.267 23.92 2.346 42.164-1.544 7.181-3.81 14.2-6.327 21.091-1.543 3.19-2.831 5.618-4.29 7.92l6.433 2.602c9.375-15.481 13.555-34.218 12.796-52.23-.332-16.077-5.474-31.173-13.403-45.035-4.32-7.614-10.21-13.845-16.262-20.108-6.337-6.668-14.294-11.43-22.32-15.791-16.343-8.391-36.01-11.944-54.263-9.719"
  />
</svg>
