<svg xmlns="http://www.w3.org/2000/svg" viewBox="0 0 100 96.124">
  <path
    fill="#596b73"
    d="M43.689.002c-.663.016-1.345.413-1.903.745-1.331.846-2.531 1.954-3.629 3.078-.373.343-.686.731-1 1.127-2.474 2.831-4.761 5.774-6.655 9.032-.186.316-.343.692-.598.958a2.32 2.32 0 0 1-.461.082c-1.914.133-3.815.573-5.632 1.177-1.021.414-2.019.861-2.962 1.434-1.877 1.142-3.648 2.617-4.948 4.399-.919 1.212-1.551 2.564-2.054 3.993-.413 1.118-.726 2.32-1.23 3.392-.247.531-.572 1.015-1.037 1.379-1.045.825-2.288 1.276-3.507 1.771-1.25.508-2.542.905-3.794 1.407.661.092 1.297-.094 1.908.124.288.097.534.29.608.598.095.376.125.772.15 1.159 1.698-.386 3.443-.744 5.129-1.263 1.357-.411 2.778-.887 4.001-1.609.69-.412 1.326-1.014 1.646-1.762.47-1.084.695-2.228 1.191-3.317.589-1.312 1.47-2.56 2.666-3.384 1.201-.867 2.635-1.358 4.11-1.472 2.305-.158 4.646.463 6.47 1.903 2.082 1.673 3.513 4.241 3.492 6.947.015.68-.159 1.313-.273 1.975 1.61-.014 3.304.129 4.849.606 2.849.949 5.533 2.519 7.616 4.698.318.306.629.615.898.965-1.187-.078-2.32-.246-3.513-.223-1.429.013-2.875-.049-4.299.086-.135.027-.356.011-.449.126.768.407 1.535.797 2.24 1.312.917.673 1.82 1.409 2.585 2.254a16.493 16.493 0 0 1 2.528 3.711c-.765-.23-1.49-.572-2.26-.794-2.665-.816-5.472-1.255-8.262-1.193-.557.016-1.196-.055-1.73.123l-.037.072c.36.281.779.489 1.157.744a16.72 16.72 0 0 1 3.685 3.353c.853 1.059 1.548 2.264 2.105 3.502.634 1.46 1.061 3.122.979 4.721-.511-.194-.992-.468-1.493-.685a28.945 28.945 0 0 0-5.817-1.882c-.434-.086-.907-.196-1.351-.164-.202.215-.214.66-.297.943-.629 2.722-.974 5.497-.863 8.296.007 2.283.511 4.373.909 6.602.379 1.937.836 3.858 1.244 5.79.25.914.424 1.846.657 2.765.508 2.289.84 4.641 1.292 6.945.064.349.149.707.156 1.061-.608.172-1.211.294-1.773.6-.735.531-1.423 1.068-1.909 1.85-.653.988-.902 2.241-.774 3.41.069.675.372 1.247.757 1.792.6.626 1.389.782 2.22.837.916.041 1.836-.02 2.753-.009 1.613.02 3.225.017 4.838.027.823.006 1.635-.121 2.382-.477.942-.437 1.677-1.221 2.159-2.13.576-1.107.777-2.325.866-3.555.135-1.29.105-2.569.045-3.862-.031-1.608-.079-3.214-.064-4.823-.042-1.392-.128-2.779-.103-4.174.017-1.543-.089-3.08-.095-4.622-.021-1.394-.1-3.025.498-4.317.437-1.036 1.266-1.858 2.271-2.347 2.012-1.017 4.438-1.315 6.665-1.368 1.918.04 3.918.246 5.746.847.198.061.391.115.578.207.166.383.206.826.303 1.231a23.685 23.685 0 0 0 1.917 5.339c.277.523.566 1.041.845 1.563.208.275.43.534.618.824.614.935 1.348 1.799 2.12 2.606.303.286.581.579.851.896.608.494 1.213.99 1.715 1.599.397.479.624 1.131.806 1.72.438 1.501.563 3.177.747 4.732.044.574.166 1.147.175 1.721-.254.112-.532.179-.796.266a5.32 5.32 0 0 0-2.121 1.283c-.807.819-1.284 1.911-1.461 3.038-.108.731-.005 1.529.352 2.181a3.183 3.183 0 0 0 1.839 1.461c.642.199 1.268.162 1.93.161 2.162-.008 4.324.004 6.487.002.563-.001 1.163.034 1.719-.051 1.347-.216 2.601-1 3.334-2.159.787-1.179 1.029-2.67 1.1-4.06.01-1.08.031-2.152-.066-3.228-.18-3.119-.476-6.163-1.398-9.164-.097-.266-.103-.539-.143-.814-.408-.774-.647-1.6-.897-2.433-.387-1.432-.641-2.886-.587-4.375.051-1.43.198-2.857.219-4.289.028-2.381-.091-4.776-.44-7.132a16.402 16.402 0 0 1-.181-1.343c.133.243.266.473.367.729a122.457 122.457 0 0 1 3.337 9.077c.258.771.496 1.547.766 2.313.626 1.775 1.451 3.518 2.256 5.221.105.24.182.486.274.733.23.2.454.405.687.603.325.211.648.422.96.652-.495-2.532-.596-5.086-.515-7.659.497.302.896.693 1.365 1.033 1.099.827 2.272 1.601 3.504 2.213.516.239 1.047.528 1.598.671l.021-.187c-.314-1.194-.724-2.368-1.081-3.549-.489-1.624-1.139-3.208-1.853-4.746a76.018 76.018 0 0 0-2.234-4.471c-1.823-3.248-3.999-6.35-6.533-9.083-1.876-1.883-4.179-3.339-6.509-4.595-1.926-1.017-3.939-1.832-6.075-2.282a23.272 23.272 0 0 0-3.273-.462c-1.937-.154-3.771.006-5.699.096-.909.089-1.821.039-2.731.119-.977.093-1.951.006-2.926.146-.123.467-.232 1.018-.513 1.418-.265.086-.565.103-.842.121-1.094.062-2.199.172-3.295.159-.296.014-.497-.244-.687-.435-.551-.623-1.076-1.271-1.613-1.905-.353-.432-.71-.83-.98-1.323 1.269-.092 2.564.096 3.834.151.595.044 1.173.009 1.755.176 1.245-.039 2.492-.066 3.735-.106-.223-.425-.499-.799-.774-1.192-1.36-1.908-2.677-3.847-4.011-5.774-.4-.615-.861-1.193-1.237-1.822.586-.011 1.171-.015 1.757-.048 1.089-.055 2.185.035 3.271-.044-.191-.39-.43-.736-.677-1.091-.991-1.45-2.183-2.816-3.327-4.15-1.588-1.789-3.239-3.493-4.854-5.258-.174-.176-.131-.505-.145-.735.028-.886-.071-1.761-.118-2.645-.138-2.41-.485-4.798-.963-7.162-.544-2.518-1.198-4.947-2.266-7.3-.567-1.282-1.284-2.561-2.196-3.632-.455-.497-1.106-1.079-1.824-1.043Z"
  /><path
    fill="#4b5b65"
    d="M33.484.691c-.99.551-1.856 1.388-2.652 2.185-2.423 2.456-4.149 5.429-5.492 8.586-.644 1.528-1.187 3.115-1.529 4.739 1.817-.604 3.718-1.044 5.632-1.177a2.32 2.32 0 0 0 .461-.082c.255-.266.412-.642.598-.958 1.894-3.258 4.181-6.201 6.655-9.032-.516-1.113-.908-2.274-1.387-3.4-.188-.412-.422-.928-.866-1.116-.459-.209-1.006.045-1.42.255Z"
  /><path
    data-player="true"
    fill="#808080"
    d="M43.028 6.518c-.394.021-.788.305-1.098.53-1.215.907-2.259 2.103-3.219 3.27-1.265 1.537-2.349 3.193-3.321 4.928-.167.301-.361.605-.478.93.045.112.228.148.328.2 1.386.482 2.717 1.205 3.964 1.973a55.5 55.5 0 0 1 4.714 3.312c.445.342.83.703 1.316.992.23-1.28.215-2.653.246-3.95.011-.879-.028-1.759-.038-2.637a36.288 36.288 0 0 0-.954-6.85c-.186-.713-.382-1.47-.742-2.119-.145-.25-.4-.577-.718-.579Z"
  /><path
    fill="#c3cdd0"
    d="M25.688 23.05c-1.475.114-2.909.605-4.11 1.472-1.196.824-2.077 2.072-2.666 3.384-.496 1.089-.721 2.233-1.191 3.317-.32.748-.956 1.35-1.646 1.762-1.223.722-2.644 1.198-4.001 1.609-1.686.519-3.431.877-5.129 1.263-.053.953-.103 2.083-.561 2.939-.537 1.026-1.486 1.789-2.582 2.148-.671.224-1.337.273-2.036.335.134.302.249.604.424.886.522.834 1.028 1.647 1.716 2.357.793.834 1.718 1.571 2.847 1.88 1.839.524 3.948.409 5.817.519 1.101.058 2.199.01 3.299.121.359.046.849-.024 1.143.208.516-.123.981.001 1.492.056.519.062 1.025.095 1.538.21-.256.301-.56.529-.852.79a44.484 44.484 0 0 0-2.873 2.954c-.149.15-.313.284-.474.426-.395 1.164-.621 2.387-.905 3.581a524.168 524.168 0 0 0-1.796 8.505c.366-.202.705-.439 1.05-.673a34.25 34.25 0 0 1 2.428-1.425c.217-.113.44-.215.673-.294.033.144.058.291.078.438.227 2.578 1.318 5.102 2.875 7.156.483.653 1.064 1.201 1.597 1.811.354.307.72.599 1.076.904 2.573 2.065 5.551 3.36 8.699 4.277 1.373.368 2.773.68 4.183.872-.408-1.932-.865-3.853-1.244-5.79-.398-2.229-.902-4.319-.909-6.602-.111-2.799.234-5.574.863-8.296.083-.283.095-.728.297-.943.444-.032.917.078 1.351.164a28.945 28.945 0 0 1 5.817 1.882c.501.217.982.491 1.493.685.082-1.599-.345-3.261-.979-4.721-.557-1.238-1.252-2.443-2.105-3.502a16.72 16.72 0 0 0-3.685-3.353c-.378-.255-.797-.463-1.157-.744l.037-.072c.534-.178 1.173-.107 1.73-.123 2.79-.062 5.597.377 8.262 1.193.77.222 1.495.564 2.26.794a16.493 16.493 0 0 0-2.528-3.711c-.765-.845-1.668-1.581-2.585-2.254-.705-.515-1.472-.905-2.24-1.312.093-.115.314-.099.449-.126 1.424-.135 2.87-.073 4.299-.086 1.193-.023 2.326.145 3.513.223a8.809 8.809 0 0 0-.898-.965c-2.083-2.179-4.767-3.749-7.616-4.698-1.545-.477-3.239-.62-4.849-.606.114-.662.288-1.295.273-1.975.021-2.706-1.41-5.274-3.492-6.947-1.824-1.44-4.165-2.061-6.47-1.903Z"
  /><path
    fill="#394550"
    d="M23.966 28.199c-1.046-.134-2.005.451-2.612 1.269-.757 1.017-.928 2.316-.657 3.535.244.965.838 1.869 1.736 2.336.582.327 1.29.403 1.929.213.688-.207 1.277-.699 1.685-1.282.948-1.394.964-3.347-.011-4.732-.492-.7-1.214-1.212-2.07-1.339Z"
  /><path
    fill="#394550"
    d="M4.28 33.976c-.751.187-1.481.46-2.203.734-.65.274-1.419.66-1.797 1.282-.373.576-.313 1.346-.163 1.984.308 1.186.971 2.294 1.65 3.303.699-.062 1.365-.111 2.036-.335 1.096-.359 2.045-1.122 2.582-2.148.458-.856.508-1.986.561-2.939-.025-.387-.055-.783-.15-1.159-.074-.308-.32-.501-.608-.598-.611-.218-1.247-.032-1.908-.124Z"
  /><path
    fill="#4b5b65"
    d="M51.729 41.677c.27.493.627.891.98 1.323.537.634 1.062 1.282 1.613 1.905.19.191.391.449.687.435 1.096.013 2.201-.097 3.295-.159.277-.018.577-.035.842-.121.281-.4.39-.951.513-1.418-.381.004-.805.056-1.175-.043-.445-.478-.824-1.04-1.166-1.595-.582-.167-1.16-.132-1.755-.176-1.27-.055-2.565-.243-3.834-.151Z"
  /><path
    fill="#a3afb5"
    d="M17.012 47.25c-.386 1.479-.842 2.943-1.169 4.436.161-.142.325-.276.474-.426a44.484 44.484 0 0 1 2.873-2.954c.292-.261.596-.489.852-.79-.513-.115-1.019-.148-1.538-.21-.511-.055-.976-.179-1.492-.056Z"
  /><path
    fill="#4b5b65"
    d="M83.953 57.07c.036.452.108.896.181 1.343.349 2.356.468 4.751.44 7.132-.021 1.432-.168 2.859-.219 4.289-.054 1.489.2 2.943.587 4.375.25.833.489 1.659.897 2.433.414.49.835.972 1.275 1.441-.144-1.18-.099-2.335-.103-3.521.034-.802.086-1.614.227-2.405.52.332.939.802 1.427 1.19.747.613 1.477 1.277 2.288 1.796-.092-.247-.169-.493-.274-.733-.805-1.703-1.63-3.446-2.256-5.221-.27-.766-.508-1.542-.766-2.313a122.457 122.457 0 0 0-3.337-9.077c-.101-.256-.234-.486-.367-.729Z"
  /><path
    fill="#c3cdd0"
    d="M58.642 64.441c-2.227.053-4.653.351-6.665 1.368-1.005.489-1.834 1.311-2.271 2.347-.598 1.292-.519 2.923-.498 4.317.006 1.542.112 3.079.095 4.622.659.014 1.315-.026 1.971-.089 2.355-.215 4.733-.462 7.047-.96 2.26-.417 4.518-.832 6.73-1.466-.056-.319-.108-.634-.199-.946a16.628 16.628 0 0 1-.733-4.57c-.014-1.246.01-2.553.269-3.776-1.828-.601-3.828-.807-5.746-.847Z"
  /><path
    fill="#a3afb5"
    d="M64.388 65.288c-.259 1.223-.283 2.53-.269 3.776.034 1.545.273 3.094.733 4.57.091.312.143.627.199.946 1.015-.232 2.008-.581 2.98-.952-.279-.522-.568-1.04-.845-1.563a23.685 23.685 0 0 1-1.917-5.339c-.097-.405-.137-.848-.303-1.231-.187-.092-.38-.146-.578-.207Z"
  /><path
    data-player="true"
    fill="#626768"
    d="M92.086 68.739c-.081 2.573.02 5.127.515 7.659-.312-.23-.635-.441-.96-.652.174.407.355.798.612 1.16 1.518 2.373 3.434 4.761 5.899 6.197.491.319 1.044.503 1.535.821-.201.011-.401.021-.602.025.298.033.591.06.891.056.07-.604-.029-1.247-.064-1.858-.164-2.622-.429-5.295-.957-7.871-.133-.6-.244-1.206-.381-1.807l-.021.187c-.551-.143-1.082-.432-1.598-.671-1.232-.612-2.405-1.386-3.504-2.213-.469-.34-.868-.731-1.365-1.033Z"
  /><path
    fill="#43535f"
    d="M21.843 70.785c.077.566.18 1.117.309 1.673.294 1.322.529 2.659.835 3.979.253.07.496.137.708.301 2.268 1.67 4.764 2.959 7.213 4.33.863.464 1.751.874 2.607 1.354.57.321 1.171.58 1.738.908a6.65 6.65 0 0 0 1.079.493c.055-.742.101-1.48.107-2.224.005-.663.087-1.343.019-1.996-.233-.919-.407-1.851-.657-2.765-1.41-.192-2.81-.504-4.183-.872-3.148-.917-6.126-2.212-8.699-4.277-.356-.305-.722-.597-1.076-.904Z"
  /><path
    data-player="true"
    fill="#52585b"
    d="M87.238 72.157c-.141.791-.193 1.603-.227 2.405.004 1.186-.041 2.341.103 3.521a16.98 16.98 0 0 0 3.799 3.241c1.556.958 3.28 1.653 5.049 2.099 1.022.255 2.077.404 3.122.526.201-.004.401-.014.602-.025-.491-.318-1.044-.502-1.535-.821-2.465-1.436-4.381-3.824-5.899-6.197-.257-.362-.438-.753-.612-1.16-.233-.198-.457-.403-.687-.603-.811-.519-1.541-1.183-2.288-1.796-.488-.388-.907-.858-1.427-1.19Z"
  /><path
    fill="#43535f"
    d="M68.031 73.628c-.972.371-1.965.72-2.98.952-2.212.634-4.47 1.049-6.73 1.466-.077.61.114 1.114.211 1.705.451 2.47.757 4.97.954 7.473.027.724.141 1.452.125 2.175-.243.1-.512.164-.767.237-.907.241-1.74.778-2.378 1.464-.797.87-1.288 2.026-1.408 3.196-.095.949.224 1.97.901 2.653a2.953 2.953 0 0 0 1.875.917c.196-.023.387-.076.583-.091 1.982.011 3.966.017 5.948-.003.203.011.384.066.586.096.85-.052 1.69-.382 2.417-.813 1.35-.838 2.271-2.125 2.957-3.533.909-1.934 1.362-3.998 1.575-6.115.142-1.599.221-3.194.06-4.795-.051-.897-.283-1.763-.34-2.658a11.25 11.25 0 0 0-.851-.896c-.772-.807-1.506-1.671-2.12-2.606-.188-.29-.41-.549-.618-.824Z"
  /><path
    fill="#4b5b65"
    d="M22.987 76.437c.119.778.309 1.54.458 2.313.512 2.478.979 4.965 1.46 7.45.078.395.18.798.202 1.201-.348.19-.755.274-1.115.451-1.584.822-2.753 2.368-3.005 4.148-.171 1.064.027 2.24.796 3.037.684.692 1.708.981 2.661.97 2.419-.007 4.843-.003 7.262-.001.905-.001 1.722-.314 2.501-.745-.385-.545-.688-1.117-.757-1.792-.128-1.169.121-2.422.774-3.41.486-.782 1.174-1.319 1.909-1.85.127-1.459.218-2.921.199-4.386a6.65 6.65 0 0 1-1.079-.493c-.567-.328-1.168-.587-1.738-.908-.856-.48-1.744-.89-2.607-1.354-2.449-1.371-4.945-2.66-7.213-4.33-.212-.164-.455-.231-.708-.301Z"
  /><path
    fill="#394550"
    d="M64.365 95.772c-1.982.02-3.966.014-5.948.003-.196.015-.387.068-.583.091 1.027.123 2.08.024 3.117.048 1.332-.021 2.673.062 4-.046-.202-.03-.383-.085-.586-.096Z"
  />
</svg>
