<svg
  xmlns="http://www.w3.org/2000/svg"
  viewBox="0 0 512 512"
>
  <path
    d="M264.828 361.931h-256l45.021-124.469 52.083-60.91 17.655-26.483L256 203.034l8.828 158.897z"
    style="fill: #9e5a23"
  /><path
    d="M211.862 361.931c0-29.131-23.834-52.966-52.966-52.966S105.93 332.8 105.93 361.931s23.834 52.966 52.966 52.966 52.966-23.835 52.966-52.966"
    style="fill: #844414"
  /><path
    d="M105.931 361.931c0-29.131-23.834-52.966-52.966-52.966S0 332.8 0 361.931s23.834 52.966 52.966 52.966 52.965-23.835 52.965-52.966M150.069 256c0-29.131-23.834-52.966-52.966-52.966S44.138 226.869 44.138 256s23.834 52.966 52.966 52.966 52.965-23.835 52.965-52.966"
    style="fill: #ce8d5b"
  /><path
    d="M79.448 264.828c-5.297 0-8.828-3.531-8.828-8.828 0-15.007 11.476-26.483 26.483-26.483 5.297 0 8.828 3.531 8.828 8.828s-3.531 8.828-8.828 8.828-8.828 3.531-8.828 8.828c.001 5.296-3.53 8.827-8.827 8.827M35.31 370.759c-5.297 0-8.828-3.531-8.828-8.828 0-15.007 11.476-26.483 26.483-26.483 5.297 0 8.828 3.531 8.828 8.828 0 5.297-3.531 8.828-8.828 8.828s-8.828 3.531-8.828 8.828c.001 5.296-3.53 8.827-8.827 8.827"
    style="fill: #844414"
  /><path
    d="M141.241 370.759c-5.297 0-8.828-3.531-8.828-8.828 0-15.007 11.476-26.483 26.483-26.483 5.297 0 8.828 3.531 8.828 8.828 0 5.297-3.531 8.828-8.828 8.828s-8.828 3.531-8.828 8.828c.001 5.296-3.53 8.827-8.827 8.827"
    style="fill: #ce8d5b"
  /><path
    d="M353.103 97.103H158.897c29.131 0 52.966 23.834 52.966 52.966s-23.834 52.966-52.966 52.966h194.207c29.131 0 52.966-23.834 52.966-52.966s-23.836-52.966-52.967-52.966"
    style="fill: #9e5a23"
  /><path
    d="M397.241 203.034H203.034C232.166 203.034 256 226.869 256 256s-23.834 52.966-52.966 52.966h194.207c29.131 0 52.966-23.835 52.966-52.966s-23.835-52.966-52.966-52.966"
    style="fill: #844414"
  /><path
    d="M459.034 308.966H264.828c29.131 0 52.966 23.835 52.966 52.966s-23.834 52.966-52.966 52.966h194.207c29.131 0 52.966-23.834 52.966-52.966-.001-29.132-23.836-52.966-52.967-52.966M105.931 361.931c0 29.131-23.834 52.966-52.966 52.966h105.931c-29.13 0-52.965-23.835-52.965-52.966M211.862 361.931c0 29.131-23.834 52.966-52.966 52.966h105.931c-29.13 0-52.965-23.835-52.965-52.966"
    style="fill: #9e5a23"
  /><path
    d="M264.828 141.241h-55.614c-5.297 0-8.828-3.531-8.828-8.828 0-5.297 3.531-8.828 8.828-8.828h55.614c5.297 0 8.828 3.531 8.828 8.828-.001 5.297-3.532 8.828-8.828 8.828M247.172 176.552h-37.959c-5.297 0-8.828-3.531-8.828-8.828s3.531-8.828 8.828-8.828h37.959c5.297 0 8.828 3.531 8.828 8.828s-3.531 8.828-8.828 8.828M344.276 176.552H291.31c-5.297 0-8.828-3.531-8.828-8.828s3.531-8.828 8.828-8.828h52.966c5.297 0 8.828 3.531 8.828 8.828s-3.532 8.828-8.828 8.828M388.414 141.241h-44.138c-5.297 0-8.828-3.531-8.828-8.828 0-5.297 3.531-8.828 8.828-8.828h44.138c5.297 0 8.828 3.531 8.828 8.828-.001 5.297-3.532 8.828-8.828 8.828M308.966 141.241h-8.828c-5.297 0-8.828-3.531-8.828-8.828 0-5.297 3.531-8.828 8.828-8.828h8.828c5.297 0 8.828 3.531 8.828 8.828-.001 5.297-3.532 8.828-8.828 8.828M388.414 176.552h-8.828c-5.297 0-8.828-3.531-8.828-8.828s3.531-8.828 8.828-8.828h8.828c5.297 0 8.828 3.531 8.828 8.828s-3.532 8.828-8.828 8.828"
    style="fill: #844414"
  /><path
    d="M308.966 247.172h-55.614c-5.297 0-8.828-3.531-8.828-8.828s3.531-8.828 8.828-8.828h55.614c5.297 0 8.828 3.531 8.828 8.828s-3.532 8.828-8.828 8.828M291.31 282.483h-37.959c-5.297 0-8.828-3.531-8.828-8.828 0-5.297 3.531-8.828 8.828-8.828h37.959c5.297 0 8.828 3.531 8.828 8.828 0 5.297-3.531 8.828-8.828 8.828M388.414 282.483h-52.966c-5.297 0-8.828-3.531-8.828-8.828 0-5.297 3.531-8.828 8.828-8.828h52.966c5.297 0 8.828 3.531 8.828 8.828-.001 5.297-3.532 8.828-8.828 8.828M432.552 247.172h-44.138c-5.297 0-8.828-3.531-8.828-8.828s3.531-8.828 8.828-8.828h44.138c5.297 0 8.828 3.531 8.828 8.828s-3.532 8.828-8.828 8.828M353.103 247.172h-8.828c-5.297 0-8.828-3.531-8.828-8.828s3.531-8.828 8.828-8.828h8.828c5.297 0 8.828 3.531 8.828 8.828s-3.531 8.828-8.828 8.828M432.552 282.483h-8.828c-5.297 0-8.828-3.531-8.828-8.828 0-5.297 3.531-8.828 8.828-8.828h8.828c5.297 0 8.828 3.531 8.828 8.828-.001 5.297-3.532 8.828-8.828 8.828"
    style="fill: #9e5a23"
  /><path
    d="M370.759 353.103h-55.614c-5.297 0-8.828-3.531-8.828-8.828 0-5.297 3.531-8.828 8.828-8.828h55.614c5.297 0 8.828 3.531 8.828 8.828-.001 5.297-3.532 8.828-8.828 8.828M353.103 388.414h-37.959c-5.297 0-8.828-3.531-8.828-8.828 0-5.297 3.531-8.828 8.828-8.828h37.959c5.297 0 8.828 3.531 8.828 8.828 0 5.297-3.531 8.828-8.828 8.828M450.207 388.414h-52.966c-5.297 0-8.828-3.531-8.828-8.828 0-5.297 3.531-8.828 8.828-8.828h52.966c5.297 0 8.828 3.531 8.828 8.828-.001 5.297-3.532 8.828-8.828 8.828M494.345 353.103h-44.138c-5.297 0-8.828-3.531-8.828-8.828 0-5.297 3.531-8.828 8.828-8.828h44.138c5.297 0 8.828 3.531 8.828 8.828-.001 5.297-3.532 8.828-8.828 8.828M414.897 353.103h-8.828c-5.297 0-8.828-3.531-8.828-8.828 0-5.297 3.531-8.828 8.828-8.828h8.828c5.297 0 8.828 3.531 8.828 8.828-.001 5.297-3.532 8.828-8.828 8.828M494.345 388.414h-8.828c-5.297 0-8.828-3.531-8.828-8.828 0-5.297 3.531-8.828 8.828-8.828h8.828c5.297 0 8.828 3.531 8.828 8.828-.001 5.297-3.532 8.828-8.828 8.828"
    style="fill: #844414"
  /><path
    d="M211.862 150.069c0-29.131-23.834-52.966-52.966-52.966s-52.966 23.834-52.966 52.966 23.834 52.966 52.966 52.966 52.966-23.835 52.966-52.966"
    style="fill: #ce8d5b"
  /><path
    d="M141.241 158.897c-5.297 0-8.828-3.531-8.828-8.828 0-15.007 11.476-26.483 26.483-26.483 5.297 0 8.828 3.531 8.828 8.828 0 5.297-3.531 8.828-8.828 8.828s-8.828 3.531-8.828 8.828c.001 5.296-3.53 8.827-8.827 8.827"
    style="fill: #844414"
  /><path
    d="M256 256c0-29.131-23.834-52.966-52.966-52.966S150.069 226.869 150.069 256s23.834 52.966 52.966 52.966S256 285.131 256 256M317.793 361.931c0-29.131-23.834-52.966-52.966-52.966-29.131 0-52.966 23.835-52.966 52.966s23.835 52.966 52.966 52.966c29.132 0 52.966-23.835 52.966-52.966"
    style="fill: #ce8d5b"
  /><path
    d="M185.379 264.828c-5.297 0-8.828-3.531-8.828-8.828 0-15.007 11.476-26.483 26.483-26.483 5.297 0 8.828 3.531 8.828 8.828s-3.531 8.828-8.828 8.828-8.828 3.531-8.828 8.828c.001 5.296-3.53 8.827-8.827 8.827"
    style="fill: #9e5a23"
  /><path
    d="M247.172 370.759c-5.297 0-8.828-3.531-8.828-8.828 0-15.007 11.476-26.483 26.483-26.483 5.297 0 8.828 3.531 8.828 8.828 0 5.297-3.531 8.828-8.828 8.828-5.297 0-8.828 3.531-8.828 8.828.001 5.296-3.53 8.827-8.827 8.827"
    style="fill: #844414"
  />
</svg>
